<svg width="68" height="68" viewBox="0 0 68 68" fill="none" xmlns="http://www.w3.org/2000/svg">
<g filter="url(#filter0_d_94_14286)">
<rect x="4" y="4" width="60" height="60" rx="30" fill="white"/>
<g clip-path="url(#clip0_94_14286)">
<path d="M28.5289 35.6239C28.2735 35.5744 27.9191 35.5114 27.7414 35.4821C27.3836 35.4259 26.271 35.0254 25.8851 34.8139L25.4498 34.5765C24.444 34.023 23.1626 32.8721 22.365 31.8056C21.7258 30.9211 21.232 29.9401 20.9025 28.8997C20.5706 27.7927 20.5256 27.4935 20.5065 26.3167C20.4908 25.3605 20.4953 25.3009 20.6156 24.5606C20.6854 24.1387 20.7686 23.6944 20.8024 23.5706C20.9104 23.1791 21.1118 22.5457 21.1478 22.4827C21.1669 22.449 21.2704 22.2127 21.3784 21.9574C21.5393 21.5749 22.0838 20.6456 22.2694 20.4352C22.2919 20.4082 22.3121 20.3745 22.3121 20.3599C22.3345 20.3102 22.3649 20.2646 22.4021 20.2249C22.4528 20.1641 22.5394 20.0516 22.5934 19.9762C22.698 19.8334 23.9243 18.5925 24.0683 18.4856C24.3574 18.2696 24.5183 18.1425 24.552 18.1031C24.7174 17.9175 26.1124 17.1131 26.5208 16.968C26.6162 16.9338 26.7104 16.8963 26.8031 16.8555C27.2475 16.6519 28.2589 16.3864 28.9643 16.2885C29.4818 16.2165 30.9859 16.2007 31.3009 16.2649C31.4078 16.2862 31.7126 16.3425 31.9793 16.3886C32.5755 16.4944 32.7544 16.5405 33.2854 16.7239C33.7984 16.9005 33.8816 16.9534 33.9154 17.1221C33.9395 17.2278 33.9677 17.3325 33.9998 17.436C34.0684 17.6531 34.2529 18.282 34.443 18.9491C34.6793 19.7794 34.7378 19.9785 34.9493 20.6929C35.1158 21.2554 35.1461 21.4016 35.1101 21.4691C35.0325 21.6131 34.9234 21.5659 34.677 21.2824C34.3789 20.9392 34.281 20.8459 34.1021 20.7367C34.0445 20.704 33.9892 20.6671 33.9368 20.6265C33.8333 20.5072 32.8005 19.8986 32.7038 19.8986C32.6869 19.8986 32.643 19.8739 32.6081 19.8446C32.5181 19.7681 32.1851 19.6736 31.5956 19.5566C31.3797 19.5145 31.1647 19.4673 30.951 19.4149C30.8723 19.3924 30.4819 19.3744 30.0825 19.3755C29.4289 19.3755 29.3063 19.3879 28.8709 19.4914C27.8978 19.7209 27.4365 19.9369 26.208 20.7412C26.0719 20.8312 25.6298 21.2644 25.2934 21.6401C25.2416 21.6986 25.1303 21.8201 25.0459 21.9101C24.989 21.9667 24.9385 22.0293 24.8951 22.0969C24.8951 22.1081 24.867 22.1497 24.8321 22.1891C24.6319 22.4107 24.5408 22.5604 24.2618 23.1229C24.0064 23.6359 23.9276 23.8429 23.8028 24.3334C23.7195 24.6574 23.6228 25.0331 23.5845 25.1659C23.5283 25.3684 23.5204 25.5607 23.5339 26.3359C23.5474 27.1909 23.5575 27.2977 23.6599 27.6881C23.8129 28.2697 23.9141 28.5577 24.057 28.8187C24.1751 29.0325 24.2415 29.1382 24.7545 29.9257C25.056 30.387 25.6129 30.9382 26.2879 31.4422C26.7131 31.7595 26.9201 31.881 27.378 32.0857L28.0643 32.3929C28.1318 32.4232 28.413 32.5076 28.6898 32.5807L29.1949 32.7135H38.9228L39.204 32.6077C39.3604 32.5492 39.6428 32.4525 39.8306 32.3917C40.9354 32.0407 41.8939 31.4827 42.5666 30.8021C42.8108 30.5546 43.2776 29.8875 43.5319 29.424C43.9088 28.7355 43.9954 28.56 44.0921 28.2889C44.1506 28.1257 44.2125 27.9739 44.2294 27.9514C44.2561 27.9007 44.2744 27.8459 44.2834 27.7894L44.397 27.2246C44.4724 26.85 44.487 26.6441 44.4893 25.9129C44.4915 25.1749 44.4758 24.9352 44.3846 24.3187C44.3359 23.996 44.2909 23.6727 44.2496 23.349C44.2046 22.935 44.1203 22.6177 43.7479 21.4522C43.6838 21.252 43.5566 20.8447 43.4633 20.5444C43.1775 19.6151 42.8333 18.5194 42.5745 17.7184C42.5351 17.5969 42.462 17.3606 42.4136 17.1941C42.3641 17.0276 42.2786 16.7644 42.2246 16.6091C42.0556 16.1117 41.8955 15.6114 41.7443 15.1084C41.6689 14.8609 41.607 14.574 41.607 14.4727V14.2871H43.0583C44.1743 14.2871 44.5151 14.2984 44.5399 14.3377C44.5568 14.3659 44.7199 14.8327 44.9033 15.3772C45.0855 15.9217 45.4635 17.0389 45.7425 17.8601C47.1994 22.1542 47.1623 22.026 47.3996 23.6246C47.4863 24.2141 47.4998 24.4414 47.4998 25.3639C47.4998 25.9489 47.4829 26.5147 47.4626 26.6239C47.4424 26.7319 47.3873 27.1301 47.3411 27.507C47.3025 27.8395 47.2458 28.1696 47.1713 28.4959C47.0385 28.9639 46.6313 30.0596 46.5694 30.1102C46.5303 30.1741 46.4982 30.242 46.4738 30.3127C46.4458 30.3893 46.4116 30.4634 46.3714 30.5344C46.3135 30.6264 46.2591 30.7206 46.2083 30.8167C46.0833 31.0362 45.9512 31.2516 45.8123 31.4625C45.4343 32.0385 44.3711 33.0791 43.4385 33.7856C43.0594 34.0725 42.7275 34.3087 42.7028 34.3087C42.6769 34.3087 42.6555 34.3234 42.6555 34.3425C42.6555 34.3987 41.4945 34.9365 40.9511 35.1311C40.4099 35.3306 39.853 35.4845 39.2861 35.5912L38.7608 35.7004L33.8771 35.7071L28.9924 35.7139L28.5289 35.6239ZM30.123 31.9676C30.0966 31.8403 30.0823 31.7107 30.0803 31.5806C30.0781 31.4514 30.0645 31.3227 30.0398 31.1959C30.0274 31.1767 29.9048 31.1599 29.7675 31.1599C29.4064 31.1599 28.8506 31.0609 28.6571 30.9619C28.3804 30.8212 28.3489 30.8381 28.224 31.1902C28.0575 31.6571 28.08 31.6492 27.594 31.4074C27.0326 31.1295 26.802 30.9979 26.5421 30.8111C26.1731 30.5479 25.9853 30.369 25.9853 30.2835C25.9853 30.2362 26.0843 30.1147 26.2271 29.9854C26.3599 29.865 26.469 29.7334 26.469 29.6917C26.469 29.649 26.3768 29.523 26.2631 29.4116C26.0192 29.1702 25.8277 28.881 25.7006 28.5622C25.6466 28.4317 25.5825 28.317 25.5578 28.3069C25.533 28.2967 25.38 28.3541 25.218 28.4329C25.1103 28.4896 24.9982 28.5378 24.8828 28.5769C24.8153 28.5769 24.6184 28.344 24.5509 28.1842C24.4744 28.0042 24.2719 27.1965 24.2235 26.8815C24.2035 26.7373 24.196 26.5916 24.201 26.4461C24.2168 26.1874 24.273 26.1547 24.6893 26.1547C24.8468 26.1547 24.9874 26.1334 25.0245 26.1041C25.0718 26.067 25.0943 25.9444 25.1134 25.6305C25.1381 25.1962 25.2281 24.726 25.3035 24.636C25.3508 24.5797 25.3643 24.3716 25.3249 24.3064C25.3103 24.2827 25.1944 24.2332 25.0661 24.1961C24.723 24.096 24.6128 24.0285 24.6128 23.9182C24.6128 23.7855 25.0661 22.9181 25.29 22.6245C25.5128 22.3309 25.8165 22.0046 25.9178 21.9495C25.9796 21.9169 26.0381 21.9574 26.2676 22.197C26.4195 22.3534 26.5534 22.4816 26.5658 22.4816C26.5781 22.4816 26.6771 22.404 26.7851 22.3106C27.0326 22.0946 27.1496 21.999 27.2993 21.8944C27.441 21.7931 27.9315 21.5535 27.9923 21.5535C28.0991 21.5535 28.0766 21.4027 27.9248 21.1069C27.8348 20.9336 27.7718 20.7649 27.7853 20.7311C27.819 20.6411 28.1171 20.5129 28.791 20.298C29.0048 20.2305 29.2039 20.2046 29.61 20.1911L30.1478 20.1731L30.1196 20.5736L30.0926 20.9741L30.5438 21.0225C31.0534 21.0787 31.4246 21.1631 31.6451 21.2756C31.8454 21.3769 31.8656 21.3735 31.932 21.2194C32.0231 21.0101 32.1143 20.7739 32.1413 20.676C32.157 20.6209 32.1975 20.5849 32.2459 20.5849C32.3359 20.5849 33.264 21.0574 33.2843 21.1136C33.2921 21.1327 33.3214 21.1496 33.3495 21.1496C33.417 21.1496 34.0358 21.5974 34.1854 21.7549C34.2844 21.8584 34.2956 21.8899 34.2574 21.9619C34.1843 22.098 33.9311 22.3612 33.8738 22.3612C33.8434 22.3612 33.8006 22.395 33.7781 22.4366C33.7444 22.4985 33.7703 22.5469 33.9244 22.7089C34.3159 23.1251 34.5589 23.5031 34.7186 23.9497C34.7389 24.0082 34.7693 24.0172 34.8559 23.997C34.9166 23.9812 34.9751 23.9542 34.9864 23.9374C35.0179 23.889 35.3385 23.7326 35.4071 23.7326C35.5005 23.7326 35.6591 23.9014 35.7131 24.0566C35.9021 24.6079 36.0338 25.3234 36.0349 25.797C36.036 26.2436 36.0236 26.2549 35.5781 26.2177L35.2406 26.1896L35.2136 26.4844C35.1799 26.85 35.0764 27.4316 35.0201 27.5677C34.9976 27.624 34.9493 27.7286 34.9155 27.8006C34.8773 27.8805 34.866 27.9469 34.8885 27.9682C34.9099 27.9874 35.0651 28.0425 35.2361 28.092C35.4578 28.1572 35.5511 28.2045 35.5646 28.2585C35.5871 28.3462 35.379 28.8604 35.1934 29.1742C35.1428 29.2525 35.1006 29.3358 35.0674 29.4229C35.067 29.4329 35.064 29.4426 35.0587 29.4511C35.0533 29.4596 35.0459 29.4665 35.037 29.4712C34.9869 29.5187 34.9431 29.5724 34.9065 29.631C34.6928 29.9404 34.4025 30.2317 34.3103 30.2317C34.2608 30.2317 34.2203 30.2182 34.2203 30.2014C34.2203 30.1845 34.1168 30.0652 33.9919 29.9347L33.7646 29.6985L33.579 29.883C33.3563 30.1024 33.3203 30.135 33.1099 30.2981C32.9366 30.4331 32.4799 30.675 32.3944 30.6772C32.3466 30.6871 32.3018 30.7083 32.2639 30.7391C32.1851 30.7976 32.1863 30.8032 32.3134 31.035C32.4596 31.2994 32.4788 31.4794 32.373 31.575C32.2673 31.6684 31.7138 31.8382 31.2154 31.9282C30.7474 32.0126 30.1635 32.034 30.1241 31.9687L30.123 31.9676ZM30.7575 28.8986C30.8565 28.8613 30.9544 28.8212 31.0511 28.7782C31.0961 28.7569 31.2188 28.7074 31.3245 28.668C31.4708 28.614 31.6339 28.4801 32.0209 28.0942C32.2976 27.8186 32.5249 27.5779 32.5249 27.5599C32.5249 27.5419 31.4471 27.5261 30.1309 27.5261C27.7121 27.5261 27.6401 27.5317 27.6401 27.6667C27.6401 27.7286 28.287 28.3957 28.4603 28.5127C28.6178 28.6207 28.8743 28.7456 29.214 28.8817C29.403 28.9571 29.5211 28.9717 29.9903 28.9751C30.4571 28.9796 30.5775 28.9672 30.7575 28.8986ZM29.5774 27.2437C29.5774 27.183 29.3951 27.1234 29.2118 27.1234C29.0801 27.1234 29.0531 27.1369 29.0531 27.2044C29.0531 27.2764 29.0801 27.2854 29.3153 27.2854C29.4683 27.2854 29.5774 27.2674 29.5774 27.2437ZM28.6965 27.0334L28.8844 26.8207L29.3625 26.832C29.871 26.8432 30.0825 26.8095 30.0825 26.7172C30.0825 26.6767 30.0195 26.6531 29.88 26.6385C29.7203 26.6227 29.6775 26.6025 29.6651 26.5372C29.6494 26.4506 29.5448 26.3156 29.493 26.3156C29.4199 26.346 29.3507 26.3853 29.2871 26.4326C29.0183 26.6126 28.6796 26.787 28.5356 26.8185C28.4485 26.8418 28.3667 26.8819 28.2949 26.9366C28.2241 26.9934 28.1505 27.0468 28.0744 27.0964C27.9 27.2055 27.9416 27.2449 28.2353 27.2449L28.5086 27.246L28.6965 27.0334ZM31.0084 27.0727C31.0196 27.0007 31.0354 26.8781 31.041 26.8005L31.0511 26.6599L31.4584 26.6396C31.8251 26.6205 31.8825 26.607 32.0355 26.5012C32.2751 26.3347 32.2459 26.2571 31.9376 26.2492C31.8289 26.2467 31.7201 26.2433 31.6114 26.2391C31.4708 26.2324 31.3729 25.9095 31.4798 25.8026C31.5248 25.7576 31.4145 25.6924 31.1479 25.6091C31.0703 25.5779 30.9982 25.5346 30.9341 25.4809C30.7901 25.3605 30.681 25.3796 30.4616 25.5619C30.2794 25.7115 30.2704 25.7587 30.3986 25.86C30.4504 25.9005 30.5393 26.0062 30.5955 26.0962C30.7058 26.2706 30.8689 26.8534 30.8689 27.0705C30.8689 27.2505 30.9791 27.2527 31.0084 27.0727ZM32.7285 27.0187C32.8466 26.7735 32.8264 26.3527 32.6869 26.1637C32.5181 25.9387 31.6564 25.7272 31.6564 25.9129C31.6564 25.9556 31.7329 25.986 31.9253 26.0175C32.1908 26.0614 32.4371 26.1975 32.4416 26.3044C32.4461 26.3955 32.3066 26.6194 32.1728 26.7341C32.0715 26.8207 31.9556 26.8657 31.6969 26.9164C31.3661 26.9805 31.2941 27.0244 31.3369 27.1369C31.3526 27.1785 31.5056 27.1931 31.9984 27.1965L32.6396 27.2021L32.7285 27.0187ZM27.6053 26.8252C27.7088 26.634 27.99 26.3977 28.1138 26.3977C28.1453 26.3977 28.2803 26.2852 28.4141 26.1502C28.6976 25.8645 28.6976 25.8645 28.2825 25.6575C28.0665 25.5506 28.0215 25.5101 28.0114 25.4156C27.9911 25.239 28.0631 25.1861 28.3286 25.1861C28.5491 25.1861 28.5671 25.1782 28.6436 25.0545C28.719 24.9341 29.0576 24.6214 29.1128 24.6214C29.1551 24.6012 29.1932 24.5734 29.2253 24.5392C29.3211 24.4581 29.421 24.3819 29.5245 24.3109C29.736 24.1657 29.7383 24.1646 29.9903 24.2062L30.2434 24.2467L30.375 24.1027C30.4288 24.051 30.4733 23.9905 30.5066 23.9239C30.5066 23.9047 30.555 23.8249 30.6146 23.7461C30.7159 23.6145 30.735 23.6055 30.8835 23.6291C30.9794 23.6464 31.071 23.6819 31.1535 23.7337C31.1962 23.7678 31.244 23.7948 31.2953 23.8136C31.3571 23.8136 31.4325 23.9599 31.4336 24.0814C31.4336 24.2096 31.3436 24.348 31.0961 24.5899C31.0286 24.6574 30.9938 24.7192 31.0151 24.7395C31.2739 24.9802 31.5394 25.1839 31.6238 25.2041C31.716 25.2266 32.058 25.4719 32.1244 25.5607C32.1379 25.5787 32.2819 25.6395 32.4473 25.6957C32.6115 25.7531 32.7769 25.8262 32.814 25.8589C32.8736 25.9117 32.8838 25.9095 32.9074 25.8341C32.9636 25.6586 32.6846 24.951 32.382 24.4954C32.0247 23.9707 31.508 23.5751 30.9083 23.367C30.6135 23.2612 30.5303 23.25 30.0375 23.2455C29.7383 23.2432 29.4716 23.2579 29.4446 23.2792C29.3717 23.3176 29.2947 23.3478 29.2151 23.3692C28.8608 23.4772 28.2881 23.8361 28.0294 24.1129C27.8393 24.3154 27.4781 24.8137 27.4781 24.8734C27.4765 24.9074 27.4634 24.9399 27.441 24.9656C27.3771 25.0807 27.3233 25.2012 27.2801 25.3256C27.1676 25.6159 27.1564 25.6935 27.1564 26.0985C27.1564 26.4472 27.1733 26.5879 27.2318 26.7251C27.2723 26.8219 27.3184 26.9344 27.333 26.9749C27.3746 27.0986 27.4928 27.0334 27.6053 26.8252ZM30.0533 26.4146C30.1196 26.3696 30.1433 26.3111 30.1433 26.1975C30.1433 25.9972 30.0589 25.9196 29.9205 25.9939C29.8339 26.04 29.7866 26.0332 29.5481 25.9421C29.4293 25.8961 29.3093 25.8534 29.1881 25.8139C29.1398 25.7992 29.0903 25.7621 29.0779 25.7295C29.0408 25.6316 28.9249 25.6575 28.9395 25.761C28.953 25.8544 28.9688 25.8645 29.5076 26.1142C29.7529 26.2279 29.7799 26.2526 29.7799 26.3595C29.7799 26.4562 29.7968 26.4776 29.8721 26.4776C29.9369 26.4725 29.9993 26.4508 30.0533 26.4146ZM29.1983 25.4089C29.3715 25.275 29.457 25.1884 29.457 25.1434C29.457 25.077 29.3513 25.1029 29.2748 25.1861C29.2354 25.2311 29.1791 25.2671 29.1521 25.2671C29.0689 25.2671 28.917 25.4122 28.9485 25.4617C28.9913 25.5326 29.0531 25.5191 29.1983 25.4089ZM33.5036 31.8551C33.4924 31.8259 33.4901 31.7955 33.4991 31.7876C33.6925 31.6463 33.8947 31.5174 34.1044 31.4017C34.1235 31.4017 34.1393 31.3882 34.1393 31.3702C34.1393 31.3534 34.1921 31.3084 34.2563 31.269C34.4756 31.1407 35.3621 30.2115 35.6558 29.8042C35.9381 29.4127 36.198 28.9796 36.198 28.8997C36.198 28.8795 36.243 28.7625 36.2993 28.641C36.3555 28.5195 36.4005 28.4092 36.4005 28.3946C36.4005 28.3811 36.4455 28.2675 36.5029 28.1437C36.7166 27.6791 36.8269 27.0097 36.8404 26.1142C36.8503 25.4882 36.7568 24.8648 36.5636 24.2692C36.3866 23.711 36.2238 23.1483 36.0754 22.5817C36.0079 22.3387 35.9359 22.0834 35.9145 22.0147C35.8932 21.9487 35.88 21.8803 35.8751 21.8111C35.8759 21.7693 35.8641 21.7281 35.8414 21.693C35.8223 21.6716 35.7491 21.4275 35.6771 21.1496C35.6097 20.8867 35.5407 20.6242 35.4701 20.3621C35.4102 20.1405 35.3517 19.9185 35.2946 19.6961C35.2406 19.4857 35.1146 19.0042 35.0134 18.6274C34.9121 18.2494 34.758 17.6599 34.6691 17.3156C34.5034 16.6686 34.3343 16.0225 34.1618 15.3772C33.9863 14.7292 33.9278 14.4525 33.9525 14.3884C33.9728 14.3366 34.1708 14.3276 35.4083 14.3276H36.8415L36.9011 14.4187C36.9607 14.5449 37.0071 14.6768 37.0395 14.8125C37.116 15.1016 37.1565 15.2445 37.3073 15.7406C37.3444 15.8632 37.4085 16.0804 37.4479 16.2244C37.4884 16.3695 37.5716 16.6519 37.6324 16.851C37.6943 17.0512 37.7854 17.3595 37.8349 17.5372C37.9063 17.7867 37.9795 18.0357 38.0543 18.2842C38.1971 18.7567 38.2028 18.7781 38.3726 19.3732C38.439 19.6072 38.5133 19.8615 38.5391 19.9391C38.5639 20.0167 38.6179 20.1979 38.6584 20.3419C38.7439 20.6479 39.0938 21.8359 39.2715 22.4209C39.4391 22.9766 39.4391 22.9755 39.6484 23.7934C39.9409 24.9386 39.9679 25.131 39.9634 26.0906C39.9589 27.0064 39.9364 27.3112 39.8475 27.7219C39.8149 27.8704 39.7519 28.173 39.7058 28.3946C39.6326 28.7501 39.4549 29.2496 39.1939 29.829C39.138 29.9546 39.0866 30.0822 39.0398 30.2115C38.9865 30.3516 38.921 30.4867 38.844 30.6154C38.7795 30.7212 38.7179 30.8289 38.6595 30.9382C38.6369 30.9882 38.6086 31.0354 38.5751 31.0789C38.5379 31.1279 38.5058 31.1807 38.4795 31.2364C38.3963 31.4006 38.3715 31.4332 38.1353 31.6897L37.9541 31.8866L35.7379 31.8979C33.957 31.9046 33.5194 31.8967 33.5036 31.8551ZM39.114 31.8045C39.0645 31.7842 39.024 31.7595 39.024 31.7482C39.024 31.6965 39.1208 31.5232 39.1511 31.5232C39.1691 31.5232 39.1849 31.5052 39.1849 31.4839C39.1849 31.4625 39.2715 31.3117 39.3784 31.1486C39.4819 30.9915 39.5718 30.8259 39.6473 30.6536C39.6725 30.5765 39.7065 30.5025 39.7485 30.4331C39.8385 30.3645 40.365 28.8086 40.4123 28.4722C40.4415 28.2754 40.599 27.417 40.6811 27.0142C40.7374 26.7375 40.7351 25.0612 40.6789 24.735C40.6364 24.5259 40.5823 24.3193 40.5169 24.1162C40.4543 23.9224 40.3954 23.7274 40.3403 23.5312C40.2851 23.3276 40.0444 22.5075 39.9555 22.2195C39.9341 22.152 39.798 21.6626 39.6495 21.1294C39.5548 20.7733 39.4527 20.4192 39.3435 20.0674C39.3209 20.0087 39.308 19.9468 39.3053 19.884C39.3053 19.8345 39.2895 19.776 39.2693 19.7546C39.2322 19.6861 39.2063 19.612 39.1928 19.5352C39.1703 19.4351 39.1073 19.1899 39.0521 18.9896C37.9271 14.9002 37.8023 14.4086 37.8596 14.34C37.8945 14.2972 38.1904 14.2882 39.3615 14.2972L40.8195 14.3074L40.9365 14.6707C41.0006 14.871 41.076 15.0982 41.1053 15.1747C41.1323 15.2535 41.2234 15.5347 41.3055 15.8014C41.3876 16.0669 41.4889 16.3852 41.5283 16.5067C42.1693 18.511 42.787 20.5226 43.3811 22.5412C43.4228 22.6751 43.4666 22.8292 43.4801 22.8844L43.6444 23.5166C43.8323 24.2344 43.8671 24.573 43.8694 25.6541C43.8694 26.6689 43.8413 26.9647 43.6849 27.507C43.4846 28.2022 43.4239 28.3777 43.3283 28.5476C43.2754 28.641 43.1483 28.875 43.047 29.0685C42.9653 29.2286 42.8725 29.3827 42.7691 29.5297C42.5239 29.8222 41.9625 30.4252 41.8421 30.5231C41.5046 30.7965 41.4293 30.855 41.1784 31.0226C40.6564 31.3725 40.0264 31.6369 39.2659 31.8247C39.2143 31.8305 39.162 31.8242 39.114 31.8045Z" fill="black"/>
</g>
<path d="M14.604 48.4834C14.534 48.9131 14.4705 49.2337 14.4136 49.4453C14.3582 49.6569 14.3078 49.8188 14.2622 49.9312C14.2166 50.0418 14.1662 50.1265 14.1108 50.1851C14.0571 50.2437 13.957 50.2998 13.8105 50.3535C13.6657 50.4056 13.5444 50.4422 13.4468 50.4634C13.3491 50.4845 13.2881 50.4959 13.2637 50.4976C13.2393 50.4959 13.2238 50.4919 13.2173 50.4854C13.2108 50.4772 13.2165 50.4593 13.2344 50.4316C13.2653 50.3877 13.3296 50.3275 13.4272 50.251C13.5265 50.1745 13.6429 50.0793 13.7764 49.9653C13.9115 49.8514 14.0124 49.7513 14.0791 49.665C14.1458 49.5771 14.2044 49.4583 14.2549 49.3086C14.307 49.1572 14.3574 48.9993 14.4062 48.835C14.4551 48.6706 14.4901 48.5591 14.5112 48.5005C14.534 48.4419 14.5568 48.4134 14.5796 48.415C14.6056 48.4199 14.6138 48.4427 14.604 48.4834ZM15.8809 49.5649C15.7832 49.8009 15.701 49.9702 15.6343 50.0728C15.5692 50.1753 15.513 50.2453 15.4658 50.2827C15.4186 50.3185 15.3511 50.3519 15.2632 50.3828C15.1769 50.4137 15.085 50.4414 14.9873 50.4658C14.8896 50.4886 14.8172 50.5 14.77 50.5C14.7505 50.5 14.7407 50.4992 14.7407 50.4976C14.7277 50.4813 14.7944 50.4268 14.9409 50.334C15.089 50.2412 15.2111 50.1566 15.3071 50.0801C15.4032 50.0036 15.4886 49.9198 15.5635 49.8286C15.64 49.7375 15.6945 49.6423 15.7271 49.543C15.7091 49.5511 15.6872 49.5592 15.6611 49.5674C15.6351 49.5739 15.6074 49.5796 15.5781 49.5845C15.5505 49.5877 15.5236 49.5902 15.4976 49.5918C15.4715 49.5934 15.4487 49.5926 15.4292 49.5894C15.3364 49.5828 15.2591 49.5519 15.1973 49.4966C15.137 49.4396 15.1086 49.3704 15.1118 49.2891C15.1167 49.2484 15.1281 49.2004 15.146 49.145C15.1639 49.0897 15.2013 49.0026 15.2583 48.8838C15.3153 48.7633 15.3771 48.6641 15.4438 48.5859C15.5122 48.5078 15.5757 48.4688 15.6343 48.4688C15.7352 48.4688 15.819 48.5119 15.8857 48.5981C15.9525 48.6828 15.9924 48.7853 16.0054 48.9058C16.0086 48.966 16.007 49.0262 16.0005 49.0864C15.9956 49.1466 15.9883 49.1971 15.9785 49.2378C15.9704 49.2769 15.9574 49.3281 15.9395 49.3916C15.9215 49.4535 15.902 49.5112 15.8809 49.5649ZM17.3311 48.5C17.2969 48.5342 17.2619 48.561 17.2261 48.5806C17.1919 48.6001 17.1431 48.6172 17.0796 48.6318C16.9657 48.7116 16.8794 48.7653 16.8208 48.793C16.7622 48.8223 16.7109 48.8394 16.667 48.8442C16.6247 48.8491 16.6011 48.8516 16.5962 48.8516C16.5067 48.9199 16.4017 48.9688 16.2812 48.998C16.2227 49.0306 16.1543 49.0688 16.0762 49.1128C15.9997 49.1567 15.9508 49.1795 15.9297 49.1812C15.9004 49.1535 15.8752 49.1274 15.854 49.103C15.8328 49.0802 15.819 49.0558 15.8125 49.0298C15.8044 49.0054 15.806 48.9769 15.8174 48.9443C15.8271 48.9134 15.8499 48.876 15.8857 48.832C15.9069 48.8271 15.9492 48.8158 16.0127 48.7979C16.0762 48.7799 16.1372 48.7572 16.1958 48.7295C16.2544 48.7035 16.2967 48.679 16.3228 48.6562C16.3488 48.6351 16.37 48.609 16.3862 48.5781C16.4041 48.5488 16.4163 48.5334 16.4229 48.5317C16.4375 48.522 16.457 48.5269 16.4814 48.5464C16.501 48.5627 16.5213 48.5724 16.5425 48.5757C16.619 48.5789 16.6963 48.5203 16.7744 48.3999C16.7842 48.3787 16.8013 48.3747 16.8257 48.3877C16.8826 48.4056 16.9331 48.4032 16.9771 48.3804C17.008 48.3657 17.0617 48.3022 17.1382 48.1899C17.1479 48.1818 17.1618 48.1842 17.1797 48.1973C17.1976 48.2103 17.2244 48.2152 17.2603 48.2119C17.2961 48.207 17.3197 48.2005 17.3311 48.1924C17.3392 48.2152 17.3481 48.242 17.3579 48.2729C17.3644 48.3071 17.3677 48.3283 17.3677 48.3364C17.3677 48.3755 17.3652 48.4032 17.3604 48.4194C17.3555 48.4471 17.3457 48.474 17.3311 48.5ZM17.3188 46.1611C17.3319 46.2067 17.3311 46.2539 17.3164 46.3027C17.3034 46.3516 17.2798 46.402 17.2456 46.4541C17.2179 46.4964 17.1895 46.5363 17.1602 46.5737C17.1325 46.6095 17.1016 46.6437 17.0674 46.6763C17.0462 46.6991 17.0275 46.7153 17.0112 46.7251C16.995 46.7349 16.9811 46.7414 16.9697 46.7446C16.9583 46.7463 16.9486 46.7454 16.9404 46.7422C16.9323 46.7389 16.925 46.7349 16.9185 46.73C16.8615 46.6844 16.8053 46.6388 16.75 46.5933C16.6963 46.5461 16.6369 46.5021 16.5718 46.4614C16.5636 46.45 16.5596 46.4419 16.5596 46.437C16.5596 46.4305 16.5636 46.4207 16.5718 46.4077L16.9429 45.8364C16.9543 45.8218 16.9648 45.8153 16.9746 45.8169C16.986 45.8169 16.9982 45.821 17.0112 45.8291C17.0438 45.8486 17.0763 45.8698 17.1089 45.8926C17.1431 45.9137 17.174 45.9382 17.2017 45.9658C17.2293 45.9935 17.2537 46.0236 17.2749 46.0562C17.2961 46.0871 17.3107 46.1221 17.3188 46.1611ZM16.9819 45.2798C16.995 45.3254 16.9941 45.3726 16.9795 45.4214C16.9665 45.4702 16.9429 45.5207 16.9087 45.5728C16.881 45.6151 16.8525 45.6549 16.8232 45.6924C16.7956 45.7282 16.7646 45.7624 16.7305 45.7949C16.7093 45.8177 16.6906 45.834 16.6743 45.8438C16.658 45.8535 16.6442 45.86 16.6328 45.8633C16.6214 45.8649 16.6117 45.8641 16.6035 45.8608C16.5954 45.8576 16.5881 45.8535 16.5815 45.8486C16.5246 45.8031 16.4684 45.7575 16.4131 45.7119C16.3594 45.6647 16.3 45.6208 16.2349 45.5801C16.2267 45.5687 16.2227 45.5605 16.2227 45.5557C16.2227 45.5492 16.2267 45.5394 16.2349 45.5264L16.606 44.9551C16.6174 44.9404 16.6279 44.9339 16.6377 44.9355C16.6491 44.9355 16.6613 44.9396 16.6743 44.9478C16.7069 44.9673 16.7394 44.9884 16.772 45.0112C16.8062 45.0324 16.8371 45.0568 16.8647 45.0845C16.8924 45.1121 16.9168 45.1423 16.938 45.1748C16.9591 45.2057 16.9738 45.2407 16.9819 45.2798ZM16.5474 46.1416C16.5506 46.1497 16.5531 46.1571 16.5547 46.1636C16.5579 46.1701 16.5612 46.1774 16.5645 46.1855L16.5718 46.2075C16.5718 46.214 16.5726 46.2189 16.5742 46.2222C16.5742 46.2254 16.5742 46.2287 16.5742 46.2319C16.5758 46.2352 16.5767 46.2384 16.5767 46.2417C16.5767 46.245 16.5767 46.2474 16.5767 46.249C16.5783 46.2507 16.5791 46.2531 16.5791 46.2563C16.5791 46.2873 16.5758 46.3158 16.5693 46.3418C16.5693 46.3451 16.5685 46.3475 16.5669 46.3491C16.5669 46.3507 16.5669 46.3532 16.5669 46.3564L16.5571 46.3857L16.5498 46.4004C16.5482 46.4036 16.5465 46.4077 16.5449 46.4126C16.5449 46.4175 16.5433 46.4215 16.54 46.4248L16.5254 46.4541L16.4961 46.5005L16.4546 46.5615C16.4465 46.5745 16.4375 46.5876 16.4277 46.6006C16.418 46.612 16.4082 46.6242 16.3984 46.6372C16.3854 46.6519 16.3724 46.6665 16.3594 46.6812C16.3464 46.6958 16.3325 46.7096 16.3179 46.7227L16.2935 46.7471L16.2812 46.7568C16.2617 46.7731 16.2446 46.7837 16.23 46.7886C16.217 46.7935 16.2056 46.7943 16.1958 46.791C16.1893 46.7894 16.1836 46.7878 16.1787 46.7861C16.1755 46.7829 16.1722 46.7796 16.1689 46.7764L16.1104 46.73L16.0859 46.708L15.9419 46.5908L15.9248 46.5786C15.8906 46.5526 15.8573 46.529 15.8247 46.5078C15.8149 46.4997 15.8101 46.4924 15.8101 46.4858C15.8101 46.4777 15.8141 46.4671 15.8223 46.4541L16.1958 45.8853C16.2072 45.8674 16.2202 45.86 16.2349 45.8633C16.2349 45.8633 16.2365 45.8641 16.2397 45.8657C16.2414 45.8657 16.2454 45.8674 16.252 45.8706C16.2552 45.8739 16.2585 45.8755 16.2617 45.8755C16.2829 45.8885 16.304 45.9023 16.3252 45.917C16.3464 45.93 16.3675 45.9438 16.3887 45.9585L16.4155 45.9805C16.4334 45.9951 16.4497 46.0098 16.4644 46.0244C16.479 46.0391 16.4928 46.0553 16.5059 46.0732L16.5205 46.0928L16.5425 46.1318C16.5457 46.1383 16.5474 46.1416 16.5474 46.1416ZM18.2979 45.27C18.4004 45.1919 18.5021 45.1211 18.603 45.0576C18.7039 44.9941 18.8057 44.9282 18.9082 44.8599C20.3291 43.9012 21.1519 43.334 21.3765 43.1582C21.632 42.9596 21.7655 42.853 21.7769 42.8384C21.8289 42.8042 21.8395 42.8245 21.8086 42.8994C21.7793 42.9727 21.6589 43.1395 21.4473 43.3999C21.0794 43.7319 20.6123 44.0876 20.0459 44.4668C19.4795 44.8444 18.8919 45.2131 18.2832 45.5728C18.2425 45.6004 18.2026 45.6265 18.1636 45.6509C18.1261 45.6737 18.0895 45.6948 18.0537 45.7144C17.9723 45.7632 17.9325 45.7664 17.9341 45.7241C17.9341 45.7062 17.9886 45.624 18.0977 45.4775C18.166 45.3913 18.2327 45.3221 18.2979 45.27ZM17.3311 48.1924C17.3522 48.181 17.3807 48.1574 17.4165 48.1216C17.4523 48.0858 17.4914 48.0223 17.5337 47.9312C17.5776 47.84 17.6061 47.6903 17.6191 47.4819C17.6143 47.0034 17.6143 46.7349 17.6191 46.6763C17.6208 46.5965 17.633 46.5306 17.6558 46.4785L17.8828 45.812C17.8926 45.7827 17.9064 45.777 17.9243 45.7949C17.9292 45.8096 17.9316 45.8299 17.9316 45.856C17.9316 45.8413 17.9259 45.9146 17.9146 46.0757C17.9032 46.2352 17.895 46.542 17.8901 46.9961C17.8901 47.1051 17.8722 47.2663 17.8364 47.4795C17.7974 47.6943 17.7534 47.8612 17.7046 47.98C17.6558 48.1021 17.5931 48.2087 17.5166 48.2998C17.5003 48.321 17.4385 48.3877 17.3311 48.5C17.266 48.3975 17.266 48.2949 17.3311 48.1924ZM19.5259 48.6128C19.4543 48.7658 19.3818 48.9212 19.3086 49.0791C19.237 49.2354 19.1776 49.3851 19.1304 49.5283C19.0246 49.8473 18.9806 50.0988 18.9985 50.2827C19.0132 50.4764 19.0897 50.6302 19.228 50.7441C19.368 50.8581 19.5674 50.915 19.8262 50.915C20.041 50.915 20.2485 50.8695 20.4487 50.7783C20.5985 50.7116 20.7311 50.6294 20.8467 50.5317C20.9622 50.4341 21.0509 50.3332 21.1128 50.229C21.1763 50.1248 21.208 50.0369 21.208 49.9653C21.2096 49.9328 21.1934 49.9051 21.1592 49.8823C21.1266 49.8595 21.0868 49.84 21.0396 49.8237C20.9924 49.8075 20.9435 49.7928 20.8931 49.7798C20.8426 49.7668 20.8019 49.7537 20.771 49.7407C20.6961 49.7131 20.6351 49.6724 20.5879 49.6187C20.5423 49.5633 20.5203 49.4811 20.522 49.3721C20.522 49.2321 20.5675 49.0653 20.6587 48.8716C20.7498 48.6763 20.8768 48.4744 21.0396 48.2661C21.1828 48.1017 21.3049 47.9764 21.4058 47.8901C21.5067 47.8022 21.6035 47.7249 21.6963 47.6582C21.7907 47.5898 21.8826 47.5329 21.9722 47.4873C22.008 47.4678 22.0422 47.4523 22.0747 47.4409C22.117 47.4295 22.1479 47.4271 22.1675 47.4336C22.1886 47.4385 22.2008 47.4548 22.2041 47.4824C22.196 47.5117 22.1846 47.5475 22.1699 47.5898C22.1553 47.6322 22.139 47.6761 22.1211 47.7217C22.1032 47.7673 22.0845 47.8128 22.0649 47.8584C22.0454 47.9023 22.0267 47.9422 22.0088 47.978C21.9909 48.0122 21.9746 48.0407 21.96 48.0635C21.9453 48.0846 21.9347 48.0944 21.9282 48.0928C21.9217 48.096 21.9136 48.0936 21.9038 48.0854C21.894 48.0773 21.877 48.0732 21.8525 48.0732C21.7907 48.0732 21.7012 48.0928 21.584 48.1318C21.4668 48.1693 21.3431 48.2417 21.2129 48.3491C21.0843 48.4549 20.9858 48.555 20.9175 48.6494C20.8491 48.7422 20.8149 48.8065 20.8149 48.8423C20.8068 48.8944 20.8239 48.9391 20.8662 48.9766C20.9036 49.0059 20.972 49.0384 21.0713 49.0742C21.1722 49.11 21.2349 49.1377 21.2593 49.1572C21.339 49.2109 21.3789 49.3102 21.3789 49.4551C21.3789 49.6732 21.3358 49.9238 21.2495 50.207C21.1649 50.4886 21.0469 50.7336 20.8955 50.9419C20.832 51.0379 20.7539 51.1331 20.6611 51.2275C20.5684 51.3219 20.4674 51.4009 20.3584 51.4644C20.1484 51.6092 19.9067 51.6816 19.6333 51.6816C19.3224 51.6768 19.0864 51.575 18.9253 51.3765C18.8521 51.2756 18.8016 51.1681 18.7739 51.0542C18.7463 50.9419 18.7324 50.8345 18.7324 50.7319C18.7373 50.5464 18.7617 50.36 18.8057 50.1729C18.8496 49.9857 18.9058 49.8009 18.9741 49.6187C19.0425 49.4364 19.1198 49.2581 19.2061 49.084C19.2939 48.9098 19.3835 48.743 19.4746 48.5835C19.4893 48.5591 19.4974 48.5452 19.499 48.542C19.5169 48.5176 19.534 48.5054 19.5503 48.5054H19.5527C19.5576 48.5103 19.5576 48.52 19.5527 48.5347C19.5495 48.5493 19.5405 48.5754 19.5259 48.6128ZM22.7974 48.0488L23.0513 47.4507C23.0724 47.4019 23.0895 47.3774 23.1025 47.3774C23.1237 47.3774 23.1302 47.3929 23.1221 47.4238C23.1123 47.458 23.1009 47.5174 23.0879 47.6021C23.0749 47.6851 23.0651 47.7502 23.0586 47.7974C23.0488 47.8804 23.0391 47.974 23.0293 48.0781C23.0195 48.1823 23.0106 48.2897 23.0024 48.4004C22.9943 48.5094 22.9862 48.616 22.978 48.7202C22.9699 48.8244 22.9609 48.918 22.9512 49.001C22.9251 49.2533 22.8853 49.4616 22.8315 49.626C22.7778 49.7887 22.7152 49.9401 22.6436 50.0801C22.5719 50.2184 22.5142 50.2909 22.4702 50.2974C22.4588 50.2974 22.4621 50.2681 22.48 50.2095C22.5011 50.1541 22.5207 50.085 22.5386 50.002C22.5581 49.9189 22.5752 49.8302 22.5898 49.7358C22.6045 49.6398 22.6175 49.5422 22.6289 49.4429C22.6403 49.342 22.6501 49.2467 22.6582 49.1572C22.6696 49.0726 22.6794 48.9465 22.6875 48.7788C22.6956 48.6095 22.7078 48.4663 22.7241 48.3491C22.7404 48.2319 22.7648 48.1318 22.7974 48.0488ZM23.7227 49.9995C23.8105 49.897 23.9009 49.814 23.9937 49.7505C24.1222 49.6642 24.2492 49.6211 24.3745 49.6211C24.4396 49.6211 24.5063 49.63 24.5747 49.6479C24.6366 49.6626 24.6748 49.6699 24.6895 49.6699C24.8115 49.6699 24.9287 49.6341 25.041 49.5625C25.1501 49.4941 25.2046 49.4323 25.2046 49.377C25.2046 49.3525 25.1729 49.3118 25.1094 49.2549C25.098 49.2451 25.0801 49.2305 25.0557 49.2109C25.0231 49.2305 25.0036 49.2402 24.9971 49.2402C24.9434 49.2646 24.8953 49.2769 24.853 49.2769C24.7635 49.2769 24.6919 49.2549 24.6382 49.2109C24.5812 49.167 24.5527 49.0978 24.5527 49.0034C24.5527 48.9937 24.6178 48.8358 24.748 48.5298C24.779 48.4549 24.8205 48.3833 24.8726 48.3149C24.9165 48.2629 24.9629 48.2368 25.0117 48.2368C25.1387 48.2368 25.2616 48.2979 25.3804 48.4199C25.4976 48.5452 25.5562 48.7064 25.5562 48.9033C25.5562 49.0628 25.5098 49.2533 25.417 49.4746C25.3324 49.665 25.2461 49.8237 25.1582 49.9507C25.0524 50.0972 24.9434 50.2184 24.8311 50.3145C24.6781 50.4382 24.5234 50.5 24.3672 50.5C24.3053 50.5 24.2329 50.4854 24.1499 50.4561C24.0669 50.4251 23.9937 50.4097 23.9302 50.4097C23.8423 50.4097 23.7585 50.4325 23.6787 50.478C23.6217 50.5106 23.5615 50.557 23.498 50.6172C23.4281 50.6807 23.3784 50.7018 23.3491 50.6807C23.3215 50.666 23.3076 50.6465 23.3076 50.6221C23.3076 50.5879 23.3288 50.5399 23.3711 50.478C23.4167 50.4048 23.4728 50.3242 23.5396 50.2363C23.6291 50.1126 23.6901 50.0337 23.7227 49.9995ZM25.251 46.3276C25.264 46.3748 25.2632 46.4237 25.2485 46.4741C25.2355 46.5246 25.2103 46.5775 25.1729 46.6328C25.1501 46.6702 25.1257 46.7044 25.0996 46.7354C25.0752 46.7646 25.0492 46.7931 25.0215 46.8208C25.0133 46.8306 25.0003 46.8428 24.9824 46.8574C24.9645 46.8721 24.9458 46.8859 24.9263 46.8989C24.9067 46.9119 24.888 46.9217 24.8701 46.9282C24.8522 46.9331 24.8392 46.9307 24.8311 46.9209C24.7725 46.8737 24.7147 46.8257 24.6577 46.7769C24.6007 46.728 24.5381 46.6825 24.4697 46.6401C24.4583 46.632 24.4526 46.6247 24.4526 46.6182C24.4543 46.61 24.4591 46.5986 24.4673 46.584L24.8579 45.9883C24.8693 45.972 24.8807 45.9647 24.8921 45.9663C24.9035 45.9663 24.9157 45.9704 24.9287 45.9785C24.9629 45.998 24.9971 46.02 25.0312 46.0444C25.0654 46.0688 25.0972 46.0957 25.1265 46.125C25.1558 46.1527 25.181 46.1836 25.2021 46.2178C25.2249 46.2503 25.2412 46.2869 25.251 46.3276ZM27.8584 48.498C27.8226 48.5615 27.7852 48.6258 27.7461 48.6909C27.707 48.7544 27.6631 48.8146 27.6143 48.8716C27.5671 48.9285 27.5142 48.9806 27.4556 49.0278C27.3986 49.0734 27.3335 49.11 27.2603 49.1377C27.2 49.1621 27.1488 49.1898 27.1064 49.2207C27.0641 49.25 27.0291 49.2817 27.0015 49.3159C26.9591 49.3615 26.9225 49.425 26.8916 49.5063C26.8607 49.5861 26.8281 49.6707 26.7939 49.7603C26.7614 49.8498 26.7248 49.9377 26.6841 50.0239C26.645 50.1086 26.5954 50.1785 26.5352 50.2339C26.4521 50.3218 26.3293 50.3812 26.1665 50.4121L25.7197 50.4878C25.7067 50.4894 25.6904 50.491 25.6709 50.4927C25.653 50.4927 25.64 50.4919 25.6318 50.4902C25.5944 50.4788 25.583 50.4544 25.5977 50.417C25.6123 50.3779 25.6506 50.3389 25.7124 50.2998C25.8377 50.2168 25.9378 50.1501 26.0127 50.0996C26.0876 50.0475 26.1486 50.0052 26.1958 49.9727C26.243 49.9401 26.2804 49.9132 26.3081 49.8921C26.3374 49.8709 26.3683 49.8473 26.4009 49.8213C26.5327 49.722 26.6239 49.6178 26.6743 49.5088C26.7036 49.4518 26.7305 49.3965 26.7549 49.3428C26.7793 49.2891 26.8045 49.2362 26.8306 49.1841C26.8582 49.132 26.8875 49.0807 26.9185 49.0303C26.9494 48.9782 26.9852 48.9261 27.0259 48.874C27.0682 48.8219 27.1252 48.7715 27.1968 48.7227C27.2684 48.6722 27.3547 48.6226 27.4556 48.5737C27.467 48.5688 27.4857 48.5583 27.5117 48.542C27.5378 48.5241 27.5695 48.4964 27.6069 48.459C27.6444 48.4215 27.6867 48.3711 27.7339 48.3076C27.7827 48.2425 27.834 48.1603 27.8877 48.061C27.8682 48.0415 27.812 48.0146 27.7192 47.9805C27.6265 47.9447 27.5386 47.9243 27.4556 47.9194C27.3791 47.9146 27.3156 47.9284 27.2651 47.9609C27.2163 47.9935 27.1715 48.0399 27.1309 48.1001C27.0902 48.1603 27.0552 48.188 27.0259 48.1831C27.0161 48.1782 27.0145 48.1579 27.021 48.1221C27.0291 48.0863 27.0405 48.0513 27.0552 48.0171C27.117 47.8755 27.187 47.7705 27.2651 47.7021C27.3449 47.6322 27.4401 47.5972 27.5508 47.5972C27.6305 47.5972 27.7306 47.6167 27.8511 47.6558C27.9259 47.6818 27.9902 47.6948 28.0439 47.6948C28.1562 47.6948 28.2677 47.6549 28.3784 47.5752C28.4028 47.5752 28.411 47.5915 28.4028 47.624C28.3963 47.6549 28.3857 47.6916 28.3711 47.7339C28.3581 47.7762 28.3491 47.8047 28.3442 47.8193C28.3198 47.8958 28.3003 47.9406 28.2856 47.9536C28.271 47.965 28.2287 47.9959 28.1587 48.0464C28.1196 48.0757 28.0854 48.1099 28.0562 48.1489C28.0285 48.1864 28 48.2311 27.9707 48.2832C27.9414 48.3353 27.904 48.4069 27.8584 48.498ZM30.2461 49.5649C30.1484 49.8009 30.0662 49.9702 29.9995 50.0728C29.9344 50.1753 29.8783 50.2453 29.8311 50.2827C29.7839 50.3185 29.7163 50.3519 29.6284 50.3828C29.5422 50.4137 29.4502 50.4414 29.3525 50.4658C29.2549 50.4886 29.1825 50.5 29.1353 50.5C29.1157 50.5 29.106 50.4992 29.106 50.4976C29.0929 50.4813 29.1597 50.4268 29.3062 50.334C29.4543 50.2412 29.5763 50.1566 29.6724 50.0801C29.7684 50.0036 29.8538 49.9198 29.9287 49.8286C30.0052 49.7375 30.0597 49.6423 30.0923 49.543C30.0744 49.5511 30.0524 49.5592 30.0264 49.5674C30.0003 49.5739 29.9727 49.5796 29.9434 49.5845C29.9157 49.5877 29.8888 49.5902 29.8628 49.5918C29.8368 49.5934 29.814 49.5926 29.7944 49.5894C29.7017 49.5828 29.6243 49.5519 29.5625 49.4966C29.5023 49.4396 29.4738 49.3704 29.4771 49.2891C29.4819 49.2484 29.4933 49.2004 29.5112 49.145C29.5291 49.0897 29.5666 49.0026 29.6235 48.8838C29.6805 48.7633 29.7424 48.6641 29.8091 48.5859C29.8774 48.5078 29.9409 48.4688 29.9995 48.4688C30.1004 48.4688 30.1842 48.5119 30.251 48.5981C30.3177 48.6828 30.3576 48.7853 30.3706 48.9058C30.3739 48.966 30.3722 49.0262 30.3657 49.0864C30.3608 49.1466 30.3535 49.1971 30.3438 49.2378C30.3356 49.2769 30.3226 49.3281 30.3047 49.3916C30.2868 49.4535 30.2673 49.5112 30.2461 49.5649ZM31.9478 48.6104C31.8761 48.7633 31.8037 48.9188 31.7305 49.0767C31.6589 49.2329 31.5994 49.3826 31.5522 49.5259C31.4465 49.8449 31.4025 50.0964 31.4204 50.2803C31.4351 50.474 31.5116 50.6278 31.6499 50.7417C31.7899 50.8556 31.9893 50.9126 32.248 50.9126C32.4629 50.9126 32.6704 50.867 32.8706 50.7759C33.0203 50.7091 33.153 50.627 33.2686 50.5293C33.3841 50.4316 33.4728 50.3307 33.5347 50.2266C33.5981 50.1224 33.6299 50.0345 33.6299 49.9629C33.6315 49.9303 33.6152 49.9027 33.5811 49.8799C33.5485 49.8571 33.5086 49.8376 33.4614 49.8213C33.4142 49.805 33.3654 49.7904 33.3149 49.7773C33.2645 49.7643 33.2238 49.7513 33.1929 49.7383C33.118 49.7106 33.057 49.6699 33.0098 49.6162C32.9642 49.5609 32.9422 49.4787 32.9438 49.3696C32.9438 49.2394 32.987 49.0856 33.0732 48.9082C33.0895 48.887 33.1066 48.8716 33.1245 48.8618C33.1424 48.8521 33.1587 48.848 33.1733 48.8496C33.1896 48.8512 33.2035 48.8569 33.2148 48.8667C33.2279 48.8765 33.2368 48.8903 33.2417 48.9082C33.2368 48.9326 33.2523 48.957 33.2881 48.9814C33.3255 49.0059 33.3939 49.036 33.4932 49.0718C33.5941 49.1076 33.6567 49.1353 33.6812 49.1548C33.7609 49.2085 33.8008 49.3078 33.8008 49.4526C33.8008 49.6707 33.7576 49.9214 33.6714 50.2046C33.5868 50.4862 33.4688 50.7311 33.3174 50.9395C33.2539 51.0355 33.1758 51.1307 33.083 51.2251C32.9902 51.3195 32.8893 51.3984 32.7803 51.4619C32.5703 51.6068 32.3286 51.6792 32.0552 51.6792C31.7443 51.6743 31.5083 51.5726 31.3472 51.374C31.2739 51.2731 31.2235 51.1657 31.1958 51.0518C31.1681 50.9395 31.1543 50.832 31.1543 50.7295C31.1592 50.5439 31.1836 50.3576 31.2275 50.1704C31.2715 49.9832 31.3276 49.7985 31.396 49.6162C31.4644 49.4339 31.5417 49.2557 31.6279 49.0815C31.7158 48.9074 31.8053 48.7406 31.8965 48.5811C31.9111 48.5566 31.9193 48.5428 31.9209 48.5396C31.9404 48.5086 31.9575 48.4964 31.9722 48.5029H31.9746C31.9795 48.5078 31.9795 48.5176 31.9746 48.5322C31.9714 48.5469 31.9624 48.5729 31.9478 48.6104ZM34.1182 48.5C34.1003 48.5033 34.0815 48.5008 34.062 48.4927C34.0441 48.4845 34.0262 48.4748 34.0083 48.4634C33.9676 48.4373 33.9334 48.4202 33.9058 48.4121C33.7951 48.3779 33.6641 48.4162 33.5127 48.5269C33.363 48.6375 33.2734 48.7376 33.2441 48.8271C33.2344 48.8402 33.2205 48.8483 33.2026 48.8516C33.1847 48.8548 33.1676 48.8556 33.1514 48.854C33.1335 48.8524 33.1172 48.8483 33.1025 48.8418C33.0879 48.8369 33.0789 48.832 33.0757 48.8271C33.1359 48.71 33.2222 48.5863 33.3345 48.4561C33.4468 48.3242 33.568 48.2209 33.6982 48.146C33.8285 48.0711 33.9684 48.0296 34.1182 48.0215L34.1597 48.1191C34.1711 48.1566 34.1768 48.1948 34.1768 48.2339C34.1768 48.2778 34.1711 48.3242 34.1597 48.373C34.1353 48.4479 34.1214 48.4902 34.1182 48.5ZM33.3149 46.3052C33.328 46.3524 33.3271 46.4012 33.3125 46.4517C33.2995 46.5021 33.2743 46.555 33.2368 46.6104C33.214 46.6478 33.1904 46.682 33.166 46.7129C33.14 46.7422 33.1131 46.7707 33.0854 46.7983C33.0773 46.8081 33.0643 46.8203 33.0464 46.835C33.0285 46.8496 33.0098 46.8634 32.9902 46.8765C32.9707 46.8895 32.952 46.8993 32.9341 46.9058C32.9162 46.9106 32.9032 46.9082 32.895 46.8984C32.8364 46.8512 32.7786 46.8032 32.7217 46.7544C32.6647 46.7056 32.6021 46.66 32.5337 46.6177C32.5223 46.6095 32.5174 46.6022 32.519 46.5957C32.519 46.5876 32.5231 46.5762 32.5312 46.5615L32.9219 45.9658C32.9333 45.9495 32.9447 45.9422 32.9561 45.9438C32.9674 45.9438 32.9797 45.9479 32.9927 45.9561C33.0269 45.9756 33.061 45.9976 33.0952 46.022C33.1294 46.0464 33.1611 46.0732 33.1904 46.1025C33.2197 46.1302 33.245 46.1611 33.2661 46.1953C33.2889 46.2279 33.3052 46.2645 33.3149 46.3052ZM34.1182 48.0215C34.2158 48.0557 34.2874 48.0703 34.333 48.0654C34.3802 48.0605 34.4209 48.0459 34.4551 48.0215C34.4909 47.9971 34.5088 47.9539 34.5088 47.8921C34.5088 47.8514 34.4917 47.8075 34.4575 47.7603C34.4233 47.7196 34.3883 47.6992 34.3525 47.6992C34.3037 47.7285 34.2459 47.7448 34.1792 47.748C34.106 47.7448 34.0343 47.7293 33.9644 47.7017C33.8976 47.6724 33.8643 47.626 33.8643 47.5625C33.8643 47.5169 33.8765 47.4624 33.9009 47.3989C33.9285 47.3273 33.9684 47.2354 34.0205 47.123C34.0726 47.0107 34.1239 46.9155 34.1743 46.8374C34.2215 46.7625 34.2646 46.7251 34.3037 46.7251C34.4111 46.73 34.5161 46.7821 34.6187 46.8813C34.7554 47.0116 34.8237 47.1768 34.8237 47.377C34.8237 47.4746 34.8115 47.5731 34.7871 47.6724C34.7627 47.7879 34.7253 47.897 34.6748 47.9995C34.5983 48.1427 34.5177 48.2656 34.4331 48.3682C34.3468 48.4658 34.272 48.5146 34.2085 48.5146L34.1182 48.5C34.0824 48.4007 34.0636 48.3112 34.062 48.2314C34.0604 48.1517 34.0791 48.0817 34.1182 48.0215ZM35.0581 44.8184C35.0711 44.8656 35.0703 44.9144 35.0557 44.9648C35.0426 45.0153 35.0174 45.0682 34.98 45.1235C34.9572 45.161 34.9328 45.1951 34.9067 45.2261C34.8823 45.2554 34.8563 45.2839 34.8286 45.3115C34.8205 45.3213 34.8075 45.3335 34.7896 45.3481C34.7716 45.3628 34.7529 45.3766 34.7334 45.3896C34.7139 45.4027 34.6951 45.4124 34.6772 45.4189C34.6593 45.4238 34.6463 45.4214 34.6382 45.4116C34.5796 45.3644 34.5218 45.3164 34.4648 45.2676C34.4079 45.2188 34.3452 45.1732 34.2769 45.1309C34.2655 45.1227 34.2598 45.1154 34.2598 45.1089C34.2614 45.1007 34.2663 45.0894 34.2744 45.0747L34.665 44.479C34.6764 44.4627 34.6878 44.4554 34.6992 44.457C34.7106 44.457 34.7228 44.4611 34.7358 44.4692C34.77 44.4888 34.8042 44.5107 34.8384 44.5352C34.8726 44.5596 34.9043 44.5864 34.9336 44.6157C34.9629 44.6434 34.9881 44.6743 35.0093 44.7085C35.0321 44.741 35.0483 44.7777 35.0581 44.8184ZM36.0908 49.0986C36.0534 49.1898 36.0176 49.2826 35.9834 49.377C35.9508 49.4697 35.9224 49.5625 35.8979 49.6553C35.8735 49.7464 35.854 49.8368 35.8394 49.9263C35.8247 50.0142 35.8182 50.0988 35.8198 50.1802C35.8459 50.4243 35.946 50.6034 36.1201 50.7173C36.2943 50.8328 36.4993 50.8963 36.7354 50.9077C37.0527 50.9077 37.3579 50.8231 37.6509 50.6538C37.869 50.509 38.0439 50.3275 38.1758 50.1094C38.376 49.805 38.4712 49.3851 38.4614 48.8496C38.4598 48.7796 38.459 48.7096 38.459 48.6396C38.459 48.5697 38.4574 48.4997 38.4541 48.4297C38.4541 48.3939 38.4565 48.363 38.4614 48.3369C38.4826 48.2132 38.5583 48.1571 38.6885 48.1685C38.7243 48.1733 38.7601 48.175 38.7959 48.1733C38.8333 48.1717 38.861 48.1693 38.8789 48.166C38.9391 48.1546 38.9945 48.1335 39.0449 48.1025C39.097 48.07 39.1418 48.0244 39.1792 47.9658C39.1808 47.9626 39.1841 47.9593 39.189 47.9561C39.1987 47.9495 39.2085 47.9479 39.2183 47.9512C39.2427 47.9593 39.2646 47.965 39.2842 47.9683C39.3037 47.9699 39.3232 47.9642 39.3428 47.9512C39.3623 47.9382 39.3835 47.9154 39.4062 47.8828C39.4307 47.8503 39.4583 47.8022 39.4893 47.7388C39.5137 47.6802 39.5348 47.6558 39.5527 47.6655C39.5674 47.6704 39.5698 47.7046 39.5601 47.7681C39.5356 47.9048 39.4982 48.0203 39.4478 48.1147C39.3989 48.2075 39.3477 48.2734 39.2939 48.3125C39.2419 48.3499 39.1751 48.3687 39.0938 48.3687C39.0547 48.4289 39.0059 48.481 38.9473 48.5249C38.8887 48.5672 38.8081 48.5957 38.7056 48.6104C38.7007 48.6413 38.6958 48.6738 38.6909 48.708C38.647 49.2305 38.5444 49.6976 38.3833 50.1094C38.2759 50.3828 38.1383 50.6392 37.9707 50.8784C37.5752 51.4139 37.0999 51.6825 36.5449 51.6841C36.2747 51.6694 36.0469 51.5767 35.8613 51.4058C35.6758 51.2349 35.5781 50.9932 35.5684 50.6807C35.5749 50.1826 35.7319 49.6366 36.0396 49.0425L36.1274 48.8618C36.1323 48.8602 36.1364 48.8651 36.1396 48.8765C36.1429 48.8879 36.1437 48.9041 36.1421 48.9253C36.1405 48.9448 36.1364 48.9676 36.1299 48.9937C36.1234 49.0197 36.1144 49.0465 36.103 49.0742L36.0908 49.0986ZM39.6724 46.3838C39.6854 46.4294 39.6846 46.4766 39.6699 46.5254C39.6569 46.5742 39.6333 46.6247 39.5991 46.6768C39.5715 46.7191 39.543 46.759 39.5137 46.7964C39.486 46.8322 39.4551 46.8664 39.4209 46.8989C39.3997 46.9217 39.381 46.938 39.3647 46.9478C39.3485 46.9575 39.3346 46.964 39.3232 46.9673C39.3118 46.9689 39.3021 46.9681 39.2939 46.9648C39.2858 46.9616 39.2785 46.9575 39.272 46.9526C39.215 46.9071 39.1589 46.8615 39.1035 46.8159C39.0498 46.7687 38.9904 46.7248 38.9253 46.6841C38.9172 46.6727 38.9131 46.6646 38.9131 46.6597C38.9131 46.6532 38.9172 46.6434 38.9253 46.6304L39.2964 46.0591C39.3078 46.0444 39.3184 46.0379 39.3281 46.0396C39.3395 46.0396 39.3517 46.0436 39.3647 46.0518C39.3973 46.0713 39.4299 46.0924 39.4624 46.1152C39.4966 46.1364 39.5275 46.1608 39.5552 46.1885C39.5828 46.2161 39.6073 46.2463 39.6284 46.2788C39.6496 46.3097 39.6642 46.3447 39.6724 46.3838ZM39.3354 45.5024C39.3485 45.548 39.3477 45.5952 39.333 45.644C39.32 45.6929 39.2964 45.7433 39.2622 45.7954C39.2345 45.8377 39.2061 45.8776 39.1768 45.915C39.1491 45.9508 39.1182 45.985 39.084 46.0176C39.0628 46.0404 39.0441 46.0566 39.0278 46.0664C39.0116 46.0762 38.9977 46.0827 38.9863 46.0859C38.9749 46.0876 38.9652 46.0868 38.957 46.0835C38.9489 46.0802 38.9416 46.0762 38.9351 46.0713C38.8781 46.0257 38.8219 45.9801 38.7666 45.9346C38.7129 45.8874 38.6535 45.8434 38.5884 45.8027C38.5802 45.7913 38.5762 45.7832 38.5762 45.7783C38.5762 45.7718 38.5802 45.762 38.5884 45.749L38.9595 45.1777C38.9709 45.1631 38.9814 45.1566 38.9912 45.1582C39.0026 45.1582 39.0148 45.1623 39.0278 45.1704C39.0604 45.1899 39.0929 45.2111 39.1255 45.2339C39.1597 45.255 39.1906 45.2795 39.2183 45.3071C39.2459 45.3348 39.2703 45.3649 39.2915 45.3975C39.3127 45.4284 39.3273 45.4634 39.3354 45.5024ZM38.9009 46.3643C38.9041 46.3724 38.9066 46.3797 38.9082 46.3862C38.9115 46.3927 38.9147 46.4001 38.918 46.4082L38.9253 46.4302C38.9253 46.4367 38.9261 46.4416 38.9277 46.4448C38.9277 46.4481 38.9277 46.4513 38.9277 46.4546C38.9294 46.4578 38.9302 46.4611 38.9302 46.4644C38.9302 46.4676 38.9302 46.4701 38.9302 46.4717C38.9318 46.4733 38.9326 46.4757 38.9326 46.479C38.9326 46.5099 38.9294 46.5384 38.9229 46.5645C38.9229 46.5677 38.922 46.5701 38.9204 46.5718C38.9204 46.5734 38.9204 46.5758 38.9204 46.5791L38.9106 46.6084L38.9033 46.623C38.9017 46.6263 38.9001 46.6304 38.8984 46.6353C38.8984 46.6401 38.8968 46.6442 38.8936 46.6475L38.8789 46.6768L38.8496 46.7231L38.8081 46.7842C38.8 46.7972 38.791 46.8102 38.7812 46.8232C38.7715 46.8346 38.7617 46.8468 38.752 46.8599C38.7389 46.8745 38.7259 46.8892 38.7129 46.9038C38.6999 46.9185 38.686 46.9323 38.6714 46.9453L38.647 46.9697L38.6348 46.9795C38.6152 46.9958 38.5981 47.0063 38.5835 47.0112C38.5705 47.0161 38.5591 47.0169 38.5493 47.0137C38.5428 47.012 38.5371 47.0104 38.5322 47.0088C38.529 47.0055 38.5257 47.0023 38.5225 46.999L38.4639 46.9526L38.4395 46.9307L38.2954 46.8135L38.2783 46.8013C38.2441 46.7752 38.2108 46.7516 38.1782 46.7305C38.1685 46.7223 38.1636 46.715 38.1636 46.7085C38.1636 46.7004 38.1676 46.6898 38.1758 46.6768L38.5493 46.1079C38.5607 46.09 38.5737 46.0827 38.5884 46.0859C38.5884 46.0859 38.59 46.0868 38.5933 46.0884C38.5949 46.0884 38.599 46.09 38.6055 46.0933C38.6087 46.0965 38.612 46.0981 38.6152 46.0981C38.6364 46.1112 38.6576 46.125 38.6787 46.1396C38.6999 46.1527 38.721 46.1665 38.7422 46.1812L38.769 46.2031C38.7869 46.2178 38.8032 46.2324 38.8179 46.2471C38.8325 46.2617 38.8464 46.278 38.8594 46.2959L38.874 46.3154L38.896 46.3545C38.8993 46.361 38.9009 46.3643 38.9009 46.3643ZM41.23 48.4834C41.16 48.9131 41.0965 49.2337 41.0396 49.4453C40.9842 49.6569 40.9338 49.8188 40.8882 49.9312C40.8426 50.0418 40.7922 50.1265 40.7368 50.1851C40.6831 50.2437 40.583 50.2998 40.4365 50.3535C40.2917 50.4056 40.1704 50.4422 40.0728 50.4634C39.9751 50.4845 39.9141 50.4959 39.8896 50.4976C39.8652 50.4959 39.8498 50.4919 39.8433 50.4854C39.8368 50.4772 39.8424 50.4593 39.8604 50.4316C39.8913 50.3877 39.9556 50.3275 40.0532 50.251C40.1525 50.1745 40.2689 50.0793 40.4023 49.9653C40.5374 49.8514 40.6383 49.7513 40.7051 49.665C40.7718 49.5771 40.8304 49.4583 40.8809 49.3086C40.9329 49.1572 40.9834 48.9993 41.0322 48.835C41.0811 48.6706 41.116 48.5591 41.1372 48.5005C41.16 48.4419 41.1828 48.4134 41.2056 48.415C41.2316 48.4199 41.2397 48.4427 41.23 48.4834ZM41.3984 47.1528C41.4115 47.2 41.4106 47.2489 41.396 47.2993C41.383 47.3498 41.3577 47.4027 41.3203 47.458C41.2975 47.4954 41.2731 47.5296 41.2471 47.5605C41.2227 47.5898 41.1966 47.6183 41.1689 47.646C41.1608 47.6558 41.1478 47.668 41.1299 47.6826C41.112 47.6973 41.0933 47.7111 41.0737 47.7241C41.0542 47.7371 41.0355 47.7469 41.0176 47.7534C40.9997 47.7583 40.9867 47.7559 40.9785 47.7461C40.9199 47.6989 40.8621 47.6509 40.8052 47.6021C40.7482 47.5532 40.6855 47.5076 40.6172 47.4653C40.6058 47.4572 40.6001 47.4499 40.6001 47.4434C40.6017 47.4352 40.6066 47.4238 40.6147 47.4092L41.0054 46.8135C41.0168 46.7972 41.0282 46.7899 41.0396 46.7915C41.0509 46.7915 41.0632 46.7956 41.0762 46.8037C41.1104 46.8232 41.1445 46.8452 41.1787 46.8696C41.2129 46.894 41.2446 46.9209 41.2739 46.9502C41.3032 46.9779 41.3285 47.0088 41.3496 47.043C41.3724 47.0755 41.3887 47.1121 41.3984 47.1528ZM42.5068 49.5649C42.4092 49.8009 42.327 49.9702 42.2603 50.0728C42.1951 50.1753 42.139 50.2453 42.0918 50.2827C42.0446 50.3185 41.9771 50.3519 41.8892 50.3828C41.8029 50.4137 41.7109 50.4414 41.6133 50.4658C41.5156 50.4886 41.4432 50.5 41.396 50.5C41.3765 50.5 41.3667 50.4992 41.3667 50.4976C41.3537 50.4813 41.4204 50.4268 41.5669 50.334C41.715 50.2412 41.8371 50.1566 41.9331 50.0801C42.0291 50.0036 42.1146 49.9198 42.1895 49.8286C42.266 49.7375 42.3205 49.6423 42.353 49.543C42.3351 49.5511 42.3132 49.5592 42.2871 49.5674C42.2611 49.5739 42.2334 49.5796 42.2041 49.5845C42.1764 49.5877 42.1496 49.5902 42.1235 49.5918C42.0975 49.5934 42.0747 49.5926 42.0552 49.5894C41.9624 49.5828 41.8851 49.5519 41.8232 49.4966C41.763 49.4396 41.7345 49.3704 41.7378 49.2891C41.7427 49.2484 41.7541 49.2004 41.772 49.145C41.7899 49.0897 41.8273 49.0026 41.8843 48.8838C41.9412 48.7633 42.0031 48.6641 42.0698 48.5859C42.1382 48.5078 42.2017 48.4688 42.2603 48.4688C42.3612 48.4688 42.445 48.5119 42.5117 48.5981C42.5785 48.6828 42.6183 48.7853 42.6313 48.9058C42.6346 48.966 42.633 49.0262 42.6265 49.0864C42.6216 49.1466 42.6143 49.1971 42.6045 49.2378C42.5964 49.2769 42.5833 49.3281 42.5654 49.3916C42.5475 49.4535 42.528 49.5112 42.5068 49.5649ZM42.3286 48.2925C42.3286 48.2843 42.3286 48.2754 42.3286 48.2656C42.3286 48.2559 42.3286 48.2477 42.3286 48.2412C42.3449 48.1549 42.4189 48.0549 42.5508 47.9409C42.6615 47.8823 42.7469 47.7969 42.8071 47.6846C42.8511 47.5983 42.9211 47.4714 43.0171 47.3037C43.0415 47.2663 43.0838 47.2109 43.144 47.1377C43.2173 47.0547 43.2824 46.9904 43.3394 46.9448C43.3556 46.9269 43.4004 46.8643 43.4736 46.7568C43.4883 46.7308 43.5168 46.6909 43.5591 46.6372C43.5981 46.634 43.6616 46.6934 43.7495 46.8154C43.8341 46.9375 43.8765 47.0522 43.8765 47.1597C43.8765 47.2606 43.8512 47.3558 43.8008 47.4453C43.7471 47.5381 43.686 47.6056 43.6177 47.6479C43.5737 47.6772 43.5257 47.6919 43.4736 47.6919C43.4297 47.6886 43.3931 47.6838 43.3638 47.6772C43.3149 47.6724 43.2799 47.6699 43.2588 47.6699C43.2165 47.6699 43.1782 47.6748 43.144 47.6846C43.0252 47.735 42.9105 47.8701 42.7998 48.0898C42.7705 48.1484 42.7461 48.1948 42.7266 48.229C42.707 48.2632 42.694 48.2868 42.6875 48.2998C42.6387 48.3828 42.5931 48.4495 42.5508 48.5C42.502 48.5684 42.4596 48.6147 42.4238 48.6392C42.3815 48.6685 42.3376 48.6904 42.292 48.7051L42.3286 48.2925ZM44.9946 48.0488L45.2485 47.4507C45.2697 47.4019 45.2868 47.3774 45.2998 47.3774C45.321 47.3774 45.3275 47.3929 45.3193 47.4238C45.3096 47.458 45.2982 47.5174 45.2852 47.6021C45.2721 47.6851 45.2624 47.7502 45.2559 47.7974C45.2461 47.8804 45.2363 47.974 45.2266 48.0781C45.2168 48.1823 45.2078 48.2897 45.1997 48.4004C45.1916 48.5094 45.1834 48.616 45.1753 48.7202C45.1672 48.8244 45.1582 48.918 45.1484 49.001C45.1224 49.2533 45.0825 49.4616 45.0288 49.626C44.9751 49.7887 44.9124 49.9401 44.8408 50.0801C44.7692 50.2184 44.7114 50.2909 44.6675 50.2974C44.6561 50.2974 44.6593 50.2681 44.6772 50.2095C44.6984 50.1541 44.7179 50.085 44.7358 50.002C44.7554 49.9189 44.7725 49.8302 44.7871 49.7358C44.8018 49.6398 44.8148 49.5422 44.8262 49.4429C44.8376 49.342 44.8473 49.2467 44.8555 49.1572C44.8669 49.0726 44.8766 48.9465 44.8848 48.7788C44.8929 48.6095 44.9051 48.4663 44.9214 48.3491C44.9377 48.2319 44.9621 48.1318 44.9946 48.0488ZM45.6343 45.605C45.7173 45.6131 45.797 45.6156 45.8735 45.6123C45.9517 45.6074 46.0306 45.5928 46.1104 45.5684C46.1901 45.5439 46.2715 45.5081 46.3545 45.4609C46.4375 45.4121 46.5262 45.347 46.6206 45.2656C46.6401 45.2493 46.6605 45.2298 46.6816 45.207C46.7044 45.1842 46.7256 45.1623 46.7451 45.1411C46.7663 45.12 46.785 45.1029 46.8013 45.0898C46.8175 45.0752 46.8289 45.0679 46.8354 45.0679C46.8501 45.0662 46.859 45.0785 46.8623 45.1045C46.8656 45.1289 46.8574 45.1598 46.8379 45.1973C46.7988 45.2754 46.7435 45.3674 46.6719 45.4731C46.6019 45.5773 46.5246 45.6717 46.4399 45.7563C46.2837 45.9142 46.1356 46.0314 45.9956 46.1079C45.8556 46.1828 45.688 46.2243 45.4927 46.2324C45.4064 46.2324 45.3299 46.2308 45.2632 46.2275C45.1965 46.2227 45.1061 46.2235 44.9922 46.23C44.8799 46.2349 44.7749 46.2585 44.6772 46.3008C44.5812 46.3431 44.4966 46.3895 44.4233 46.4399C44.4119 46.4432 44.4006 46.4448 44.3892 46.4448C44.3794 46.4432 44.3729 46.4391 44.3696 46.4326C44.3647 46.4261 44.3737 46.4001 44.3965 46.3545C44.4258 46.2894 44.4787 46.2113 44.5552 46.1201C44.6333 46.0273 44.7342 45.9346 44.8579 45.8418C44.9832 45.7474 45.1021 45.6831 45.2144 45.6489C45.3283 45.6131 45.4683 45.5985 45.6343 45.605ZM49.98 48.6714C49.9751 48.7121 49.971 48.7528 49.9678 48.7935C49.9206 49.3159 49.8164 49.783 49.6553 50.1948C49.5479 50.4683 49.4103 50.7246 49.2427 50.9639C48.8472 51.4993 48.3719 51.7663 47.8169 51.7646C47.5516 51.7533 47.3278 51.6621 47.1455 51.4912C46.96 51.3203 46.8623 51.0786 46.8525 50.7661C46.8509 50.2681 47.0039 49.722 47.3115 49.1279L47.4043 48.9473C47.4157 48.944 47.4198 48.9635 47.4165 49.0059C47.4132 49.0482 47.3953 49.1076 47.3628 49.1841C47.3254 49.2752 47.2879 49.368 47.2505 49.4624C47.2147 49.5552 47.1829 49.6479 47.1553 49.7407C47.1276 49.8319 47.1056 49.9222 47.0894 50.0117C47.0747 50.0996 47.0698 50.1842 47.0747 50.2656C47.1073 50.5098 47.2114 50.6888 47.3872 50.8027C47.5646 50.9183 47.7713 50.9801 48.0073 50.9883C48.3247 50.9915 48.6299 50.9085 48.9229 50.7393C49.141 50.5944 49.3159 50.4129 49.4478 50.1948C49.6642 49.9002 49.7562 49.4966 49.7236 48.9839C49.722 48.8765 49.7334 48.7788 49.7578 48.6909C49.7822 48.603 49.8514 48.4102 49.9653 48.1123C49.9897 48.0423 50.0093 48.0008 50.0239 47.9878C50.0386 47.9731 50.0492 47.9707 50.0557 47.9805C50.0622 47.9886 50.0614 48.0122 50.0532 48.0513L50.0166 48.3052L49.98 48.6714ZM48.8936 49.2646C48.9017 49.3086 48.8984 49.355 48.8838 49.4038C48.8708 49.451 48.8464 49.5039 48.8105 49.5625C48.7878 49.5983 48.7666 49.6292 48.7471 49.6553C48.7275 49.6813 48.708 49.7049 48.6885 49.7261C48.6706 49.7472 48.651 49.7668 48.6299 49.7847C48.6104 49.8026 48.5884 49.8213 48.564 49.8408C48.5558 49.849 48.5485 49.8538 48.542 49.8555C48.5355 49.8571 48.5306 49.8579 48.5273 49.8579C48.5029 49.8579 48.4867 49.8506 48.4785 49.8359C48.4639 49.818 48.4419 49.7952 48.4126 49.7676C48.3833 49.7399 48.3475 49.709 48.3052 49.6748L48.1025 49.5112C48.0879 49.4982 48.083 49.486 48.0879 49.4746C48.0944 49.4616 48.0993 49.4518 48.1025 49.4453C48.1546 49.3525 48.21 49.2565 48.2686 49.1572C48.3288 49.0579 48.3841 48.9676 48.4346 48.8862C48.4427 48.8732 48.4492 48.8634 48.4541 48.8569C48.459 48.8504 48.4639 48.8472 48.4688 48.8472C48.4736 48.8455 48.4793 48.8472 48.4858 48.8521C48.4924 48.8569 48.5021 48.8626 48.5151 48.8691C48.5461 48.8919 48.5811 48.918 48.6201 48.9473C48.6608 48.9749 48.7023 49.0075 48.7446 49.0449C48.826 49.1165 48.8757 49.1898 48.8936 49.2646ZM50.7026 49.1206C50.6896 49.2834 50.653 49.4217 50.5928 49.5356C50.5326 49.6496 50.4642 49.7065 50.3877 49.7065C50.3877 49.6447 50.4072 49.4526 50.4463 49.1304C50.487 48.8081 50.5171 48.5778 50.5366 48.4395C50.5578 48.2995 50.5814 48.1514 50.6074 47.9951C50.6335 47.8389 50.6587 47.7127 50.6831 47.6167C50.7108 47.5369 50.7401 47.4564 50.771 47.375C50.8035 47.2936 50.8369 47.2131 50.8711 47.1333C50.8939 47.0975 50.9085 47.1032 50.915 47.1504C50.8743 47.4206 50.8369 47.7013 50.8027 47.9927C50.7686 48.2824 50.745 48.4899 50.7319 48.6152C50.7205 48.7406 50.7148 48.8138 50.7148 48.835C50.7067 48.9684 50.7026 49.0636 50.7026 49.1206ZM50.7051 49.2524C50.7051 49.4136 50.7368 49.5348 50.8003 49.6162C50.8654 49.6976 50.9386 49.7383 51.02 49.7383C51.0347 49.7334 51.0591 49.6797 51.0933 49.5771C51.1291 49.4746 51.1592 49.3965 51.1836 49.3428C51.2552 49.3574 51.3065 49.3924 51.3374 49.4478C51.37 49.5015 51.3879 49.5552 51.3911 49.6089C51.3911 49.7944 51.3529 49.9751 51.2764 50.1509C51.1657 50.3853 51.0176 50.5024 50.832 50.5024C50.7246 50.5024 50.6245 50.4406 50.5317 50.3169C50.4373 50.1932 50.3901 49.9897 50.3901 49.7065C50.4064 49.6496 50.4243 49.5934 50.4438 49.5381C50.4618 49.4811 50.4829 49.4274 50.5073 49.377C50.5301 49.3249 50.5578 49.2777 50.5903 49.2354C50.6213 49.1914 50.6595 49.154 50.7051 49.123V49.2524ZM52.9829 48.4834C52.9129 48.9131 52.8494 49.2337 52.7925 49.4453C52.7371 49.6569 52.6867 49.8188 52.6411 49.9312C52.5955 50.0418 52.5451 50.1265 52.4897 50.1851C52.436 50.2437 52.3359 50.2998 52.1895 50.3535C52.0446 50.4056 51.9233 50.4422 51.8257 50.4634C51.728 50.4845 51.667 50.4959 51.6426 50.4976C51.6182 50.4959 51.6027 50.4919 51.5962 50.4854C51.5897 50.4772 51.5954 50.4593 51.6133 50.4316C51.6442 50.3877 51.7085 50.3275 51.8062 50.251C51.9054 50.1745 52.0218 50.0793 52.1553 49.9653C52.2904 49.8514 52.3913 49.7513 52.458 49.665C52.5247 49.5771 52.5833 49.4583 52.6338 49.3086C52.6859 49.1572 52.7363 48.9993 52.7852 48.835C52.834 48.6706 52.869 48.5591 52.8901 48.5005C52.9129 48.4419 52.9357 48.4134 52.9585 48.415C52.9845 48.4199 52.9927 48.4427 52.9829 48.4834ZM53.1514 47.1528C53.1644 47.2 53.1636 47.2489 53.1489 47.2993C53.1359 47.3498 53.1107 47.4027 53.0732 47.458C53.0505 47.4954 53.026 47.5296 53 47.5605C52.9756 47.5898 52.9495 47.6183 52.9219 47.646C52.9137 47.6558 52.9007 47.668 52.8828 47.6826C52.8649 47.6973 52.8462 47.7111 52.8267 47.7241C52.8071 47.7371 52.7884 47.7469 52.7705 47.7534C52.7526 47.7583 52.7396 47.7559 52.7314 47.7461C52.6729 47.6989 52.6151 47.6509 52.5581 47.6021C52.5011 47.5532 52.4385 47.5076 52.3701 47.4653C52.3587 47.4572 52.353 47.4499 52.353 47.4434C52.3547 47.4352 52.3595 47.4238 52.3677 47.4092L52.7583 46.8135C52.7697 46.7972 52.7811 46.7899 52.7925 46.7915C52.8039 46.7915 52.8161 46.7956 52.8291 46.8037C52.8633 46.8232 52.8975 46.8452 52.9316 46.8696C52.9658 46.894 52.9976 46.9209 53.0269 46.9502C53.0562 46.9779 53.0814 47.0088 53.1025 47.043C53.1253 47.0755 53.1416 47.1121 53.1514 47.1528ZM53.5786 49.1206C53.5656 49.2834 53.529 49.4217 53.4688 49.5356C53.4085 49.6496 53.3402 49.7065 53.2637 49.7065C53.2637 49.6447 53.2832 49.4526 53.3223 49.1304C53.363 48.8081 53.3931 48.5778 53.4126 48.4395C53.4338 48.2995 53.4574 48.1514 53.4834 47.9951C53.5094 47.8389 53.5347 47.7127 53.5591 47.6167C53.5868 47.5369 53.616 47.4564 53.647 47.375C53.6795 47.2936 53.7129 47.2131 53.7471 47.1333C53.7699 47.0975 53.7845 47.1032 53.791 47.1504C53.7503 47.4206 53.7129 47.7013 53.6787 47.9927C53.6445 48.2824 53.6209 48.4899 53.6079 48.6152C53.5965 48.7406 53.5908 48.8138 53.5908 48.835C53.5827 48.9684 53.5786 49.0636 53.5786 49.1206ZM54.875 49.7847C54.8473 49.7944 54.818 49.8009 54.7871 49.8042C54.7578 49.8058 54.7293 49.8083 54.7017 49.8115C54.6366 49.8148 54.5845 49.8302 54.5454 49.8579C54.4917 49.8953 54.4006 50.0044 54.272 50.1851C54.1304 50.395 53.9692 50.5 53.7886 50.5C53.5868 50.5 53.4419 50.4121 53.354 50.2363C53.2889 50.0801 53.2596 49.9035 53.2661 49.7065C53.284 49.4347 53.3206 49.2321 53.376 49.0986C53.4346 48.9652 53.4899 48.8984 53.542 48.8984C53.5534 48.8984 53.5664 48.909 53.5811 48.9302C53.5811 49.005 53.5811 49.0799 53.5811 49.1548C53.5876 49.2264 53.6063 49.3094 53.6372 49.4038C53.6698 49.4982 53.7235 49.5747 53.7983 49.6333C53.8781 49.687 53.9798 49.7139 54.1035 49.7139C54.2826 49.7106 54.4185 49.6561 54.5112 49.5503C54.604 49.4445 54.674 49.3851 54.7212 49.3721C54.7489 49.3639 54.7798 49.3639 54.814 49.3721C54.8481 49.3786 54.8783 49.381 54.9043 49.3794C54.9857 49.3761 55.0581 49.3468 55.1216 49.2915C55.1867 49.2345 55.2445 49.1621 55.2949 49.0742C55.2965 49.0693 55.2998 49.0645 55.3047 49.0596C55.3145 49.0498 55.3258 49.0474 55.3389 49.0522C55.3665 49.0604 55.391 49.0653 55.4121 49.0669C55.4349 49.0685 55.4569 49.062 55.478 49.0474C55.5008 49.0327 55.5244 49.0067 55.5488 48.9692C55.5732 48.9302 55.6017 48.874 55.6343 48.8008C55.6587 48.7308 55.6823 48.7015 55.7051 48.7129C55.7214 48.7161 55.7238 48.7536 55.7124 48.8252C55.6766 48.9831 55.6326 49.1117 55.5806 49.2109C55.5301 49.3086 55.478 49.3794 55.4243 49.4233C55.3706 49.4657 55.3014 49.4974 55.2168 49.5186C55.1696 49.5706 55.1151 49.6219 55.0532 49.6724C54.9914 49.7212 54.932 49.7586 54.875 49.7847Z" fill="black"/>
</g>
<defs>
<filter id="filter0_d_94_14286" x="0" y="0" width="68" height="68" filterUnits="userSpaceOnUse" color-interpolation-filters="sRGB">
<feFlood flood-opacity="0" result="BackgroundImageFix"/>
<feColorMatrix in="SourceAlpha" type="matrix" values="0 0 0 0 0 0 0 0 0 0 0 0 0 0 0 0 0 0 127 0" result="hardAlpha"/>
<feOffset/>
<feGaussianBlur stdDeviation="2"/>
<feComposite in2="hardAlpha" operator="out"/>
<feColorMatrix type="matrix" values="0 0 0 0 0 0 0 0 0 0 0 0 0 0 0 0 0 0 0.25 0"/>
<feBlend mode="normal" in2="BackgroundImageFix" result="effect1_dropShadow_94_14286"/>
<feBlend mode="normal" in="SourceGraphic" in2="effect1_dropShadow_94_14286" result="shape"/>
</filter>
<clipPath id="clip0_94_14286">
<rect width="27" height="27" fill="white" transform="translate(20.5 11.5)"/>
</clipPath>
</defs>
</svg>
