<svg width="118" height="118" viewBox="0 0 118 118" fill="none" xmlns="http://www.w3.org/2000/svg">
<g filter="url(#filter0_d_81_8814)">
<rect x="4" y="4" width="110" height="110" rx="55" fill="#FBFBFB"/>
<g clip-path="url(#clip0_81_8814)">
<path d="M48.4636 63.3533C47.9717 63.2562 47.2892 63.1325 46.9469 63.0751C46.2579 62.9647 44.1151 62.1785 43.3719 61.7633L42.5334 61.2974C40.5964 60.2109 38.1286 57.9518 36.5924 55.8583C35.3612 54.122 34.4103 52.1964 33.7757 50.1541C33.1366 47.9811 33.0499 47.3937 33.0131 45.0838C32.9827 43.2067 32.9914 43.0897 33.2232 41.6366C33.3576 40.8085 33.5179 39.9362 33.5829 39.6933C33.7909 38.9248 34.1787 37.6815 34.2481 37.5578C34.2849 37.4916 34.4842 37.0278 34.6922 36.5265C35.0021 35.7757 36.0507 33.9516 36.4082 33.5386C36.4516 33.4856 36.4906 33.4194 36.4906 33.3907C36.5336 33.2932 36.5922 33.2037 36.6639 33.1257C36.7614 33.0064 36.9282 32.7856 37.0322 32.6376C37.2337 32.3572 39.5954 29.9214 39.8727 29.7116C40.4296 29.2876 40.7394 29.0381 40.8044 28.9608C41.1229 28.5964 43.8096 27.0174 44.5961 26.7326C44.7798 26.6654 44.9612 26.5918 45.1399 26.5117C45.9957 26.112 47.9436 25.5908 49.3021 25.3987C50.2987 25.2574 53.1956 25.2265 53.8022 25.3523C54.0081 25.3943 54.5952 25.5047 55.1087 25.5953C56.2571 25.8028 56.6015 25.8934 57.6242 26.2533C58.6122 26.6001 58.7726 26.7038 58.8376 27.0351C58.884 27.2425 58.9382 27.448 59 27.6512C59.1322 28.0774 59.4876 29.3119 59.8537 30.6214C60.3087 32.2512 60.4214 32.6421 60.8287 34.0443C61.1494 35.1485 61.2079 35.4356 61.1386 35.5681C60.9891 35.8508 60.7789 35.758 60.3044 35.2015C59.7302 34.528 59.5417 34.3447 59.1972 34.1305C59.0861 34.0661 58.9797 33.9938 58.8787 33.9141C58.6794 33.68 56.6904 32.4853 56.504 32.4853C56.4715 32.4853 56.387 32.4367 56.3199 32.3793C56.1465 32.2291 55.5052 32.0436 54.3699 31.8139C53.9539 31.7314 53.54 31.6386 53.1284 31.5357C52.9767 31.4915 52.2249 31.4562 51.4557 31.4584C50.1969 31.4584 49.9607 31.4827 49.1222 31.6858C47.2481 32.1363 46.3597 32.5603 43.9937 34.1393C43.7316 34.316 42.8801 35.1662 42.2322 35.9038C42.1326 36.0186 41.9181 36.2571 41.7556 36.4338C41.646 36.5448 41.5486 36.6677 41.4652 36.8003C41.4652 36.8224 41.4111 36.9041 41.3439 36.9814C40.9582 37.4165 40.7827 37.7102 40.2454 38.8143C39.7536 39.8213 39.6019 40.2277 39.3614 41.1905C39.2011 41.8265 39.0147 42.5641 38.9411 42.8247C38.8327 43.2222 38.8176 43.5998 38.8436 45.1213C38.8696 46.7997 38.8891 47.0095 39.0862 47.7758C39.3809 48.9175 39.5759 49.4828 39.8511 49.9951C40.0786 50.4147 40.2064 50.6223 41.1944 52.1681C41.7751 53.0736 42.8476 54.1556 44.1476 55.145C44.9666 55.7677 45.3652 56.0062 46.2471 56.4081L47.5687 57.011C47.6987 57.0706 48.2404 57.2363 48.7734 57.3798L49.7462 57.6404H68.4814L69.023 57.4328C69.3242 57.318 69.868 57.1281 70.2299 57.0088C72.3575 56.3198 74.2035 55.2245 75.4992 53.8884C75.9694 53.4026 76.8685 52.0931 77.3582 51.1832C78.084 49.8317 78.2509 49.4872 78.4372 48.955C78.5499 48.6348 78.669 48.3367 78.7015 48.2925C78.753 48.193 78.7882 48.0856 78.8055 47.9745L79.0244 46.8659C79.1695 46.1306 79.1977 45.7264 79.202 44.291C79.2064 42.8423 79.176 42.372 79.0005 41.1618C78.9067 40.5283 78.8201 39.8937 78.7405 39.2582C78.6539 38.4456 78.4914 37.8228 77.7742 35.535C77.6507 35.1419 77.4059 34.3425 77.226 33.7528C76.6757 31.9288 76.0127 29.7778 75.5144 28.2055C75.4385 27.967 75.2977 27.5033 75.2045 27.1764C75.1092 26.8496 74.9445 26.3328 74.8405 26.0281C74.5151 25.0518 74.2066 24.0697 73.9154 23.0822C73.7702 22.5963 73.651 22.0332 73.651 21.8345V21.4701H76.446C78.5954 21.4701 79.2519 21.4922 79.2995 21.5695C79.332 21.6247 79.6462 22.5411 79.9994 23.61C80.3504 24.6788 81.0784 26.8717 81.6157 28.4838C84.4215 36.913 84.35 36.6612 84.8072 39.7993C84.974 40.9564 85 41.4025 85 43.2133C85 44.3617 84.9675 45.4725 84.9285 45.6867C84.8895 45.8987 84.7834 46.6804 84.6945 47.4202C84.6202 48.0728 84.511 48.7208 84.3674 49.3613C84.1117 50.28 83.3274 52.4309 83.2082 52.5303C83.1329 52.6556 83.0711 52.7889 83.024 52.9278C82.9703 53.0781 82.9043 53.2236 82.8269 53.3628C82.7155 53.5436 82.6107 53.7285 82.5127 53.9171C82.272 54.348 82.0177 54.7707 81.75 55.1847C81.022 56.3154 78.9745 58.3581 77.1784 59.7449C76.4482 60.3081 75.809 60.7718 75.7614 60.7718C75.7115 60.7718 75.6704 60.8005 75.6704 60.8381C75.6704 60.9485 73.4344 62.0041 72.3879 62.3861C71.3455 62.7776 70.2729 63.0798 69.1812 63.2893L68.1694 63.5035L58.7639 63.5168L49.3562 63.53L48.4636 63.3533ZM51.5337 56.1763C51.4828 55.9263 51.4552 55.6719 51.4514 55.4166C51.4472 55.163 51.4211 54.9103 51.3734 54.6613C51.3496 54.6238 51.1134 54.5907 50.8491 54.5907C50.1536 54.5907 49.0832 54.3963 48.7106 54.202C48.1776 53.926 48.1169 53.9591 47.8764 54.6503C47.5557 55.5668 47.5991 55.5513 46.6631 55.0765C45.5819 54.5311 45.1377 54.2727 44.6372 53.9061C43.9266 53.3893 43.5647 53.0382 43.5647 52.8704C43.5647 52.7776 43.7554 52.5391 44.0306 52.2852C44.2862 52.0489 44.4964 51.7905 44.4964 51.7088C44.4964 51.6249 44.3187 51.3776 44.0999 51.1589C43.6301 50.685 43.2613 50.1174 43.0166 49.4916C42.9126 49.2355 42.7891 49.0102 42.7414 48.9903C42.6937 48.9705 42.3991 49.0831 42.0871 49.2377C41.8795 49.3491 41.6636 49.4436 41.4414 49.5203C41.3114 49.5203 40.9322 49.0632 40.8022 48.7496C40.6549 48.3963 40.2649 46.8107 40.1717 46.1924C40.1331 45.9093 40.1186 45.6234 40.1284 45.3378C40.1587 44.8298 40.2671 44.7658 41.0687 44.7658C41.3721 44.7658 41.6429 44.7238 41.7144 44.6664C41.8054 44.5936 41.8487 44.3528 41.8856 43.7367C41.9332 42.8843 42.1066 41.9612 42.2517 41.7846C42.3427 41.6741 42.3687 41.2656 42.2929 41.1375C42.2647 41.0911 42.0416 40.994 41.7946 40.9211C41.1337 40.7246 40.9214 40.5921 40.9214 40.3756C40.9214 40.1151 41.7946 38.4124 42.2257 37.8361C42.6547 37.2597 43.2397 36.6193 43.4347 36.5111C43.5539 36.447 43.6666 36.5265 44.1086 36.9969C44.4011 37.3038 44.6589 37.5556 44.6827 37.5556C44.7066 37.5556 44.8972 37.4032 45.1052 37.2199C45.5819 36.7959 45.8072 36.6082 46.0954 36.4028C46.3684 36.2041 47.3131 35.7337 47.4301 35.7337C47.6359 35.7337 47.5926 35.4378 47.3001 34.857C47.1267 34.5169 47.0054 34.1857 47.0314 34.1194C47.0964 33.9428 47.6706 33.691 48.9684 33.2692C49.3801 33.1367 49.7635 33.0859 50.5457 33.0594L51.5814 33.0241L51.5272 33.8103L51.4752 34.5964L52.3441 34.6914C53.3256 34.8018 54.0406 34.9674 54.4652 35.1883C54.8509 35.387 54.8899 35.3804 55.0177 35.0778C55.1932 34.6671 55.3687 34.2033 55.4207 34.0112C55.451 33.903 55.5291 33.8323 55.6222 33.8323C55.7956 33.8323 57.5831 34.7598 57.6221 34.8703C57.6372 34.9078 57.6936 34.9409 57.7477 34.9409C57.8777 34.9409 59.0694 35.8198 59.3575 36.129C59.5482 36.3322 59.5699 36.394 59.4962 36.5353C59.3554 36.8026 58.8679 37.3193 58.7574 37.3193C58.6989 37.3193 58.6166 37.3856 58.5732 37.4673C58.5082 37.5887 58.5581 37.6837 58.8549 38.0017C59.6089 38.8188 60.0769 39.5608 60.3846 40.4375C60.4235 40.5523 60.482 40.57 60.6489 40.5302C60.7659 40.4993 60.8785 40.4463 60.9002 40.4132C60.9609 40.3182 61.5784 40.0113 61.7106 40.0113C61.8904 40.0113 62.1959 40.3425 62.2999 40.6473C62.6639 41.7293 62.9174 43.1338 62.9195 44.0636C62.9217 44.9403 62.8979 44.9623 62.0399 44.8895L61.3899 44.8343L61.3379 45.4128C61.2729 46.1306 61.0735 47.2723 60.9652 47.5395C60.9219 47.6499 60.8287 47.8553 60.7637 47.9966C60.6901 48.1534 60.6684 48.2837 60.7117 48.3256C60.7529 48.3632 61.0519 48.4714 61.3812 48.5686C61.8081 48.6966 61.9879 48.7894 62.0139 48.8954C62.0572 49.0676 61.6564 50.0768 61.2989 50.693C61.2015 50.8466 61.1201 51.0101 61.0562 51.181C61.0555 51.2007 61.0497 51.2198 61.0394 51.2364C61.0291 51.2531 61.0148 51.2667 60.9977 51.276C60.9012 51.3692 60.8167 51.4746 60.7464 51.5896C60.3347 52.1968 59.7757 52.7688 59.5981 52.7688C59.5027 52.7688 59.4247 52.7423 59.4247 52.7092C59.4247 52.6761 59.2254 52.442 58.9849 52.1858L58.5472 51.7221L58.1897 52.0842C57.7607 52.5148 57.6914 52.5789 57.2862 52.8991C56.9525 53.1641 56.0729 53.6389 55.9082 53.6433C55.8161 53.6626 55.7299 53.7043 55.6569 53.7648C55.5052 53.8796 55.5074 53.8906 55.7522 54.3456C56.0339 54.8645 56.0707 55.2178 55.8671 55.4056C55.6634 55.5888 54.5974 55.9223 53.6376 56.099C52.7362 56.2646 51.6117 56.3066 51.5359 56.1785L51.5337 56.1763ZM52.7557 50.1519C52.9464 50.0787 53.135 49.9999 53.3212 49.9156C53.4079 49.8737 53.6441 49.7765 53.8477 49.6992C54.1294 49.5932 54.4436 49.3304 55.1889 48.573C55.7219 48.0319 56.1596 47.5593 56.1596 47.524C56.1596 47.4887 54.0839 47.4578 51.5489 47.4578C46.8906 47.4578 46.7519 47.4688 46.7519 47.7338C46.7519 47.8553 47.9977 49.1648 48.3314 49.3945C48.6347 49.6065 49.1287 49.8516 49.7831 50.1188C50.1471 50.2668 50.3745 50.2955 51.2781 50.3021C52.1772 50.3109 52.4091 50.2866 52.7557 50.1519ZM50.4829 46.9035C50.4829 46.7842 50.1319 46.6672 49.7787 46.6672C49.5252 46.6672 49.4732 46.6937 49.4732 46.8262C49.4732 46.9675 49.5252 46.9852 49.9781 46.9852C50.2727 46.9852 50.4829 46.9498 50.4829 46.9035ZM48.7864 46.4905L49.1482 46.0731L50.069 46.0952C51.0484 46.1173 51.4557 46.0511 51.4557 45.87C51.4557 45.7905 51.3344 45.7441 51.0657 45.7154C50.7581 45.6845 50.6757 45.6447 50.6519 45.5166C50.6216 45.3466 50.4201 45.0816 50.3204 45.0816C50.1795 45.1413 50.0463 45.2184 49.9239 45.3113C49.4061 45.6646 48.7539 46.0069 48.4766 46.0687C48.3087 46.1145 48.1512 46.1933 48.0129 46.3006C47.8765 46.4122 47.7347 46.5168 47.5882 46.6142C47.2524 46.8284 47.3326 46.9057 47.8981 46.9057L48.4246 46.9079L48.7864 46.4905ZM53.2389 46.5678C53.2605 46.4265 53.2909 46.1858 53.3017 46.0334L53.3212 45.7573L54.1056 45.7176C54.8119 45.6801 54.9224 45.6536 55.2171 45.446C55.6786 45.1191 55.6222 44.9668 55.0286 44.9513C54.8191 44.9463 54.6096 44.9396 54.4002 44.9314C54.1294 44.9182 53.9409 44.2844 54.1467 44.0746C54.2334 43.9863 54.0211 43.8582 53.5076 43.6948C53.3582 43.6334 53.2193 43.5485 53.0959 43.443C52.8186 43.2067 52.6084 43.2443 52.1859 43.602C51.8349 43.8957 51.8176 43.9885 52.0646 44.1872C52.1642 44.2667 52.3354 44.4743 52.4437 44.651C52.6561 44.9933 52.9702 46.1372 52.9702 46.5634C52.9702 46.9167 53.1826 46.9211 53.2389 46.5678ZM56.5517 46.4618C56.7792 45.9804 56.7402 45.1545 56.4716 44.7835C56.1466 44.3418 54.4869 43.9266 54.4869 44.291C54.4869 44.3749 54.6342 44.4346 55.0047 44.4964C55.5161 44.5825 55.9906 44.8497 55.9992 45.0595C56.0079 45.2384 55.7392 45.6778 55.4814 45.9031C55.2864 46.0731 55.0632 46.1615 54.5649 46.2608C53.9279 46.3867 53.7892 46.4728 53.8716 46.6937C53.9019 46.7754 54.1966 46.8041 55.1455 46.8107L56.3806 46.8218L56.5517 46.4618ZM46.6847 46.082C46.8841 45.7066 47.4257 45.2428 47.6641 45.2428C47.7247 45.2428 47.9847 45.022 48.2426 44.757C48.7886 44.1961 48.7886 44.1961 47.9891 43.7897C47.5731 43.5799 47.4864 43.5004 47.4669 43.3149C47.4279 42.9682 47.5666 42.8644 48.0779 42.8644C48.5026 42.8644 48.5372 42.849 48.6846 42.6061C48.8297 42.3698 49.4819 41.7558 49.5881 41.7558C49.6695 41.7163 49.743 41.6617 49.8047 41.5946C49.9893 41.4355 50.1817 41.2858 50.3811 41.1463C50.7884 40.8615 50.7927 40.8593 51.2781 40.941L51.7656 41.0205L52.0191 40.7378C52.1226 40.6363 52.2083 40.5176 52.2726 40.3867C52.2726 40.3491 52.3657 40.1923 52.4806 40.0378C52.6756 39.7794 52.7124 39.7617 52.9984 39.8081C53.183 39.8421 53.3595 39.9118 53.5184 40.0135C53.6005 40.0804 53.6927 40.1333 53.7914 40.1703C53.9106 40.1703 54.0557 40.4573 54.0579 40.6958C54.0579 40.9476 53.8846 41.2192 53.4079 41.694C53.2779 41.8265 53.2107 41.948 53.2519 41.9877C53.7502 42.4603 54.2615 42.86 54.424 42.8998C54.6017 42.9439 55.2604 43.4253 55.3882 43.5998C55.4142 43.6351 55.6916 43.7544 56.01 43.8648C56.3264 43.9774 56.6449 44.121 56.7164 44.185C56.8312 44.2888 56.8507 44.2844 56.8962 44.1364C57.0046 43.7919 56.4672 42.4029 55.8844 41.5085C55.1962 40.4787 54.201 39.702 53.0461 39.2936C52.4784 39.086 52.3181 39.0639 51.3691 39.0551C50.7927 39.0506 50.2792 39.0793 50.2272 39.1213C50.0867 39.1966 49.9385 39.2559 49.7852 39.298C49.1027 39.51 47.9999 40.2144 47.5016 40.7577C47.1354 41.1552 46.4399 42.1335 46.4399 42.2505C46.4367 42.3173 46.4115 42.3811 46.3684 42.4316C46.2452 42.6576 46.1416 42.894 46.0586 43.1383C45.8419 43.708 45.8202 43.8604 45.8202 44.6554C45.8202 45.34 45.8527 45.616 45.9654 45.8854C46.0434 46.0753 46.1322 46.2962 46.1604 46.3757C46.2406 46.6186 46.4681 46.4905 46.6847 46.082ZM51.3994 45.2759C51.5272 45.1876 51.5727 45.0728 51.5727 44.8497C51.5727 44.4566 51.4102 44.3043 51.1437 44.45C50.9769 44.5406 50.8859 44.5273 50.4266 44.3484C50.1977 44.2582 49.9665 44.1742 49.7332 44.0967C49.6401 44.068 49.5447 43.9951 49.5209 43.9311C49.4494 43.7389 49.2262 43.7897 49.2544 43.9929C49.2804 44.1762 49.3107 44.1961 50.3486 44.6863C50.8209 44.9093 50.8729 44.9579 50.8729 45.1677C50.8729 45.3576 50.9054 45.3996 51.0506 45.3996C51.1753 45.3896 51.2955 45.347 51.3994 45.2759ZM49.7527 43.3017C50.0864 43.0389 50.2511 42.8688 50.2511 42.7805C50.2511 42.6502 50.0474 42.701 49.9001 42.8644C49.8242 42.9528 49.7159 43.0234 49.6639 43.0234C49.5036 43.0234 49.2111 43.3083 49.2717 43.4055C49.3541 43.5446 49.4732 43.5181 49.7527 43.3017ZM58.0445 55.9554C58.0229 55.898 58.0186 55.8384 58.0359 55.8229C58.4083 55.5455 58.7976 55.2925 59.2016 55.0655C59.2384 55.0655 59.2687 55.039 59.2687 55.0036C59.2687 54.9705 59.3706 54.8822 59.494 54.8049C59.9165 54.5531 61.6239 52.7291 62.1894 51.9296C62.7332 51.1611 63.2337 50.3109 63.2337 50.1541C63.2337 50.1144 63.3204 49.8847 63.4287 49.6462C63.5371 49.4077 63.6237 49.1913 63.6237 49.1626C63.6237 49.1361 63.7104 48.9131 63.8209 48.6701C64.2326 47.7581 64.4449 46.4441 64.4709 44.6863C64.49 43.4574 64.3099 42.2337 63.9379 41.0646C63.597 39.9688 63.2834 38.8642 62.9976 37.7521C62.8675 37.2751 62.7289 36.7738 62.6877 36.6391C62.6467 36.5095 62.6212 36.3753 62.6119 36.2394C62.6133 36.1573 62.5907 36.0765 62.5469 36.0076C62.51 35.9656 62.3692 35.4864 62.2306 34.9409C62.1006 34.4249 61.9678 33.9096 61.8319 33.3951C61.7165 32.96 61.6038 32.5243 61.4939 32.0878C61.3899 31.6748 61.1472 30.7296 60.9522 29.9898C60.7572 29.2478 60.4604 28.0907 60.2892 27.4149C59.97 26.1449 59.6443 24.8765 59.312 23.61C58.9741 22.338 58.8614 21.7947 58.909 21.6688C58.9481 21.5673 59.3294 21.5496 61.7127 21.5496H64.473L64.5879 21.7285C64.7026 21.9761 64.7919 22.2351 64.8544 22.5014C65.0017 23.0689 65.0797 23.3494 65.37 24.3233C65.4415 24.564 65.565 24.9902 65.6409 25.2728C65.7189 25.5577 65.8792 26.112 65.9962 26.5029C66.1154 26.896 66.2909 27.5011 66.3862 27.85C66.5238 28.3397 66.6646 28.8285 66.8087 29.3163C67.0839 30.2438 67.0947 30.2858 67.4219 31.454C67.5497 31.9133 67.6927 32.4124 67.7425 32.5648C67.7902 32.7171 67.8942 33.0727 67.9722 33.3553C68.1369 33.956 68.8107 36.288 69.153 37.4363C69.4759 38.5273 69.4759 38.5251 69.8789 40.1305C70.4422 42.3786 70.4942 42.7562 70.4855 44.6399C70.4769 46.4375 70.4335 47.036 70.2624 47.842C70.1995 48.1335 70.0782 48.7276 69.9894 49.1626C69.8485 49.8604 69.5062 50.8409 69.0035 51.9782C68.8958 52.2248 68.7968 52.4752 68.7067 52.7291C68.6041 53.0041 68.478 53.2694 68.3297 53.5218C68.2054 53.7296 68.0869 53.941 67.9744 54.1556C67.9308 54.2537 67.8763 54.3463 67.8119 54.4317C67.7401 54.5279 67.6784 54.6315 67.6277 54.7408C67.4674 55.0633 67.4197 55.1273 66.9647 55.6308L66.6159 56.0173L62.3475 56.0393C58.9177 56.0526 58.0749 56.0371 58.0445 55.9554ZM68.8497 55.8561C68.7544 55.8163 68.6764 55.7677 68.6764 55.7456C68.6764 55.6441 68.8627 55.304 68.9212 55.304C68.9559 55.304 68.9862 55.2686 68.9862 55.2267C68.9862 55.1847 69.153 54.8888 69.3589 54.5686C69.5582 54.2603 69.7314 53.9352 69.8767 53.5969C69.9253 53.4456 69.9908 53.3003 70.0717 53.1641C70.245 53.0294 71.259 49.9753 71.35 49.315C71.4064 48.9285 71.7097 47.2436 71.8679 46.453C71.9762 45.9097 71.9719 42.6193 71.8635 41.9789C71.7817 41.5684 71.6776 41.163 71.5515 40.7643C71.4309 40.3838 71.3175 40.0009 71.2114 39.616C71.1052 39.2163 70.6415 37.6064 70.4704 37.0411C70.4292 36.9086 70.167 35.9479 69.881 34.9012C69.6985 34.2023 69.502 33.5072 69.2917 32.8165C69.2481 32.7014 69.2232 32.5798 69.218 32.4566C69.218 32.3594 69.1877 32.2446 69.1487 32.2026C69.0772 32.068 69.0275 31.9226 69.0014 31.772C68.958 31.5754 68.8367 31.094 68.7305 30.7009C66.5639 22.6736 66.3234 21.7086 66.4339 21.5739C66.501 21.49 67.0709 21.4723 69.3264 21.49L72.1344 21.5098L72.3597 22.2231C72.4832 22.6162 72.6284 23.0623 72.6847 23.2125C72.7367 23.3671 72.9122 23.9191 73.0704 24.4425C73.2285 24.9637 73.4235 25.5886 73.4994 25.8271C74.734 29.7614 75.9235 33.7102 77.0679 37.6726C77.148 37.9354 77.2325 38.238 77.2585 38.3462L77.5749 39.5873C77.9367 40.9962 78.0039 41.6609 78.0082 43.7831C78.0082 45.775 77.954 46.3558 77.6529 47.4202C77.2672 48.785 77.1502 49.1295 76.966 49.4629C76.8642 49.6462 76.6194 50.1056 76.4244 50.4854C76.2671 50.7996 76.0882 51.1022 75.8892 51.3908C75.4169 51.965 74.3357 53.1486 74.1039 53.3408C73.4539 53.8774 73.3087 53.9922 72.8256 54.3213C71.8202 55.0081 70.6069 55.527 69.1422 55.8958C69.0428 55.9071 68.9422 55.8948 68.8497 55.8561Z" fill="black"/>
</g>
<path d="M19.708 84.9668C19.568 85.8262 19.4411 86.4674 19.3271 86.8906C19.2165 87.3138 19.1156 87.6377 19.0244 87.8623C18.9333 88.0837 18.8324 88.2529 18.7217 88.3701C18.6143 88.4873 18.4141 88.5996 18.1211 88.707C17.8314 88.8112 17.5889 88.8844 17.3936 88.9268C17.1982 88.9691 17.0762 88.9919 17.0273 88.9951C16.9785 88.9919 16.9476 88.9837 16.9346 88.9707C16.9215 88.9544 16.9329 88.9186 16.9688 88.8633C17.0306 88.7754 17.1592 88.6549 17.3545 88.502C17.5531 88.349 17.7858 88.1585 18.0527 87.9307C18.3229 87.7028 18.5247 87.5026 18.6582 87.3301C18.7917 87.1543 18.9089 86.9167 19.0098 86.6172C19.1139 86.3145 19.2148 85.9987 19.3125 85.6699C19.4102 85.3411 19.4801 85.1182 19.5225 85.001C19.568 84.8838 19.6136 84.8268 19.6592 84.8301C19.7113 84.8398 19.7275 84.8854 19.708 84.9668ZM22.2617 87.1299C22.0664 87.6019 21.902 87.9404 21.7686 88.1455C21.6383 88.3506 21.526 88.4906 21.4316 88.5654C21.3372 88.637 21.2021 88.7038 21.0264 88.7656C20.8538 88.8275 20.6699 88.8828 20.4746 88.9316C20.2793 88.9772 20.1344 89 20.04 89C20.001 89 19.9814 88.9984 19.9814 88.9951C19.9554 88.9626 20.0889 88.8535 20.3818 88.668C20.6781 88.4824 20.9222 88.3132 21.1143 88.1602C21.3063 88.0072 21.4772 87.8395 21.627 87.6572C21.7799 87.4749 21.889 87.2845 21.9541 87.0859C21.9183 87.1022 21.8743 87.1185 21.8223 87.1348C21.7702 87.1478 21.7148 87.1592 21.6562 87.1689C21.6009 87.1755 21.5472 87.1803 21.4951 87.1836C21.443 87.1868 21.3975 87.1852 21.3584 87.1787C21.1729 87.1657 21.0182 87.1038 20.8945 86.9932C20.7741 86.8792 20.7171 86.7409 20.7236 86.5781C20.7334 86.4967 20.7562 86.4007 20.792 86.29C20.8278 86.1794 20.9027 86.0052 21.0166 85.7676C21.1305 85.5267 21.2542 85.3281 21.3877 85.1719C21.5244 85.0156 21.6514 84.9375 21.7686 84.9375C21.9704 84.9375 22.138 85.0238 22.2715 85.1963C22.4049 85.3656 22.4847 85.5706 22.5107 85.8115C22.5173 85.932 22.514 86.0524 22.501 86.1729C22.4912 86.2933 22.4766 86.3942 22.457 86.4756C22.4408 86.5537 22.4147 86.6562 22.3789 86.7832C22.3431 86.9069 22.304 87.0225 22.2617 87.1299ZM25.1621 85C25.0938 85.0684 25.0238 85.1221 24.9521 85.1611C24.8838 85.2002 24.7861 85.2344 24.6592 85.2637C24.4313 85.4232 24.2588 85.5306 24.1416 85.5859C24.0244 85.6445 23.9219 85.6787 23.834 85.6885C23.7493 85.6982 23.7021 85.7031 23.6924 85.7031C23.5133 85.8398 23.3034 85.9375 23.0625 85.9961C22.9453 86.0612 22.8086 86.1377 22.6523 86.2256C22.4993 86.3135 22.4017 86.359 22.3594 86.3623C22.3008 86.307 22.2503 86.2549 22.208 86.2061C22.1657 86.1605 22.138 86.1117 22.125 86.0596C22.1087 86.0107 22.112 85.9538 22.1348 85.8887C22.1543 85.8268 22.1999 85.752 22.2715 85.6641C22.3138 85.6543 22.3984 85.6315 22.5254 85.5957C22.6523 85.5599 22.7744 85.5143 22.8916 85.459C23.0088 85.4069 23.0934 85.3581 23.1455 85.3125C23.1976 85.2702 23.2399 85.2181 23.2725 85.1562C23.3083 85.0977 23.3327 85.0667 23.3457 85.0635C23.375 85.0439 23.4141 85.0537 23.4629 85.0928C23.502 85.1253 23.5426 85.1449 23.585 85.1514C23.738 85.1579 23.8926 85.0407 24.0488 84.7998C24.0684 84.7575 24.1025 84.7493 24.1514 84.7754C24.2653 84.8112 24.3662 84.8063 24.4541 84.7607C24.516 84.7314 24.6234 84.6045 24.7764 84.3799C24.7959 84.3636 24.8236 84.3685 24.8594 84.3945C24.8952 84.4206 24.9489 84.4303 25.0205 84.4238C25.0921 84.4141 25.1393 84.401 25.1621 84.3848C25.1784 84.4303 25.1963 84.484 25.2158 84.5459C25.2288 84.6143 25.2354 84.6566 25.2354 84.6729C25.2354 84.751 25.2305 84.8063 25.2207 84.8389C25.2109 84.8942 25.1914 84.9479 25.1621 85ZM25.1377 80.3223C25.1637 80.4134 25.1621 80.5078 25.1328 80.6055C25.1068 80.7031 25.0596 80.804 24.9912 80.9082C24.9359 80.9928 24.8789 81.0726 24.8203 81.1475C24.765 81.2191 24.7031 81.2874 24.6348 81.3525C24.5924 81.3981 24.555 81.4307 24.5225 81.4502C24.4899 81.4697 24.4622 81.4827 24.4395 81.4893C24.4167 81.4925 24.3971 81.4909 24.3809 81.4844C24.3646 81.4779 24.3499 81.4697 24.3369 81.46C24.223 81.3688 24.1107 81.2777 24 81.1865C23.8926 81.0921 23.7738 81.0042 23.6436 80.9229C23.6273 80.9001 23.6191 80.8838 23.6191 80.874C23.6191 80.861 23.6273 80.8415 23.6436 80.8154L24.3857 79.6729C24.4085 79.6436 24.4297 79.6305 24.4492 79.6338C24.472 79.6338 24.4964 79.6419 24.5225 79.6582C24.5876 79.6973 24.6527 79.7396 24.7178 79.7852C24.7861 79.8275 24.848 79.8763 24.9033 79.9316C24.9587 79.987 25.0075 80.0472 25.0498 80.1123C25.0921 80.1742 25.1214 80.2441 25.1377 80.3223ZM24.4639 78.5596C24.4899 78.6507 24.4883 78.7451 24.459 78.8428C24.4329 78.9404 24.3857 79.0413 24.3174 79.1455C24.262 79.2301 24.2051 79.3099 24.1465 79.3848C24.0911 79.4564 24.0293 79.5247 23.9609 79.5898C23.9186 79.6354 23.8812 79.668 23.8486 79.6875C23.8161 79.707 23.7884 79.7201 23.7656 79.7266C23.7428 79.7298 23.7233 79.7282 23.707 79.7217C23.6908 79.7152 23.6761 79.707 23.6631 79.6973C23.5492 79.6061 23.4368 79.515 23.3262 79.4238C23.2188 79.3294 23.0999 79.2415 22.9697 79.1602C22.9535 79.1374 22.9453 79.1211 22.9453 79.1113C22.9453 79.0983 22.9535 79.0788 22.9697 79.0527L23.7119 77.9102C23.7347 77.8809 23.7559 77.8678 23.7754 77.8711C23.7982 77.8711 23.8226 77.8792 23.8486 77.8955C23.9137 77.9346 23.9788 77.9769 24.0439 78.0225C24.1123 78.0648 24.1742 78.1136 24.2295 78.1689C24.2848 78.2243 24.3337 78.2845 24.376 78.3496C24.4183 78.4115 24.4476 78.4814 24.4639 78.5596ZM23.5947 80.2832C23.6012 80.2995 23.6061 80.3141 23.6094 80.3271C23.6159 80.3402 23.6224 80.3548 23.6289 80.3711L23.6436 80.415C23.6436 80.4281 23.6452 80.4378 23.6484 80.4443C23.6484 80.4508 23.6484 80.4574 23.6484 80.4639C23.6517 80.4704 23.6533 80.4769 23.6533 80.4834C23.6533 80.4899 23.6533 80.4948 23.6533 80.498C23.6566 80.5013 23.6582 80.5062 23.6582 80.5127C23.6582 80.5745 23.6517 80.6315 23.6387 80.6836C23.6387 80.6901 23.637 80.695 23.6338 80.6982C23.6338 80.7015 23.6338 80.7064 23.6338 80.7129L23.6143 80.7715L23.5996 80.8008C23.5964 80.8073 23.5931 80.8154 23.5898 80.8252C23.5898 80.835 23.5866 80.8431 23.5801 80.8496L23.5508 80.9082L23.4922 81.001L23.4092 81.123C23.3929 81.1491 23.375 81.1751 23.3555 81.2012C23.3359 81.224 23.3164 81.2484 23.2969 81.2744C23.2708 81.3037 23.2448 81.333 23.2188 81.3623C23.1927 81.3916 23.165 81.4193 23.1357 81.4453L23.0869 81.4941L23.0625 81.5137C23.0234 81.5462 22.9893 81.5674 22.96 81.5771C22.9339 81.5869 22.9111 81.5885 22.8916 81.582C22.8786 81.5788 22.8672 81.5755 22.8574 81.5723C22.8509 81.5658 22.8444 81.5592 22.8379 81.5527L22.7207 81.46L22.6719 81.416L22.3838 81.1816L22.3496 81.1572C22.2812 81.1051 22.2145 81.0579 22.1494 81.0156C22.1299 80.9993 22.1201 80.9847 22.1201 80.9717C22.1201 80.9554 22.1283 80.9342 22.1445 80.9082L22.8916 79.7705C22.9144 79.7347 22.9404 79.7201 22.9697 79.7266C22.9697 79.7266 22.973 79.7282 22.9795 79.7314C22.9827 79.7314 22.9909 79.7347 23.0039 79.7412C23.0104 79.7477 23.0169 79.751 23.0234 79.751C23.0658 79.777 23.1081 79.8047 23.1504 79.834C23.1927 79.86 23.235 79.8877 23.2773 79.917L23.3311 79.9609C23.3669 79.9902 23.3994 80.0195 23.4287 80.0488C23.458 80.0781 23.4857 80.1107 23.5117 80.1465L23.541 80.1855L23.585 80.2637C23.5915 80.2767 23.5947 80.2832 23.5947 80.2832ZM27.0957 78.54C27.3008 78.3838 27.5042 78.2422 27.7061 78.1152C27.9079 77.9883 28.1113 77.8564 28.3164 77.7197C31.1582 75.8024 32.8037 74.668 33.2529 74.3164C33.764 73.9193 34.0309 73.7061 34.0537 73.6768C34.1579 73.6084 34.179 73.6491 34.1172 73.7988C34.0586 73.9453 33.8177 74.279 33.3945 74.7998C32.6589 75.4639 31.7246 76.1751 30.5918 76.9336C29.459 77.6888 28.2839 78.4261 27.0664 79.1455C26.985 79.2008 26.9053 79.2529 26.8271 79.3018C26.7523 79.3473 26.679 79.3896 26.6074 79.4287C26.4447 79.5264 26.3649 79.5329 26.3682 79.4482C26.3682 79.4124 26.4772 79.248 26.6953 78.9551C26.832 78.7826 26.9655 78.6442 27.0957 78.54ZM25.1621 84.3848C25.2044 84.362 25.2614 84.3148 25.333 84.2432C25.4046 84.1715 25.4827 84.0446 25.5674 83.8623C25.6553 83.68 25.7122 83.3805 25.7383 82.9639C25.7285 82.0068 25.7285 81.4697 25.7383 81.3525C25.7415 81.193 25.766 81.0612 25.8115 80.957L26.2656 79.624C26.2852 79.5654 26.3128 79.554 26.3486 79.5898C26.3584 79.6191 26.3633 79.6598 26.3633 79.7119C26.3633 79.6826 26.3519 79.8291 26.3291 80.1514C26.3063 80.4704 26.29 81.084 26.2803 81.9922C26.2803 82.2103 26.2445 82.5326 26.1729 82.959C26.0947 83.3887 26.0068 83.7223 25.9092 83.96C25.8115 84.2041 25.6862 84.4173 25.5332 84.5996C25.5007 84.6419 25.377 84.7754 25.1621 85C25.0319 84.7949 25.0319 84.5898 25.1621 84.3848ZM29.5518 85.2256C29.4085 85.5316 29.2637 85.8424 29.1172 86.1582C28.974 86.4707 28.8551 86.7702 28.7607 87.0566C28.5492 87.6947 28.4613 88.1976 28.4971 88.5654C28.5264 88.9528 28.6794 89.2604 28.9561 89.4883C29.236 89.7161 29.6348 89.8301 30.1523 89.8301C30.582 89.8301 30.9971 89.7389 31.3975 89.5566C31.6969 89.4232 31.9622 89.2588 32.1934 89.0635C32.4245 88.8682 32.6019 88.6663 32.7256 88.458C32.8525 88.2497 32.916 88.0739 32.916 87.9307C32.9193 87.8656 32.8867 87.8102 32.8184 87.7646C32.7533 87.7191 32.6735 87.68 32.5791 87.6475C32.4847 87.6149 32.387 87.5856 32.2861 87.5596C32.1852 87.5335 32.1038 87.5075 32.042 87.4814C31.8923 87.4261 31.7702 87.3447 31.6758 87.2373C31.5846 87.1266 31.5407 86.9622 31.5439 86.7441C31.5439 86.4642 31.6351 86.1305 31.8174 85.7432C31.9997 85.3525 32.2536 84.9489 32.5791 84.5322C32.8656 84.2035 33.1097 83.9528 33.3115 83.7803C33.5133 83.6045 33.707 83.4499 33.8926 83.3164C34.0814 83.1797 34.2653 83.0658 34.4443 82.9746C34.516 82.9355 34.5843 82.9046 34.6494 82.8818C34.734 82.859 34.7959 82.8542 34.835 82.8672C34.8773 82.877 34.9017 82.9095 34.9082 82.9648C34.8919 83.0234 34.8691 83.0951 34.8398 83.1797C34.8105 83.2643 34.778 83.3522 34.7422 83.4434C34.7064 83.5345 34.6689 83.6257 34.6299 83.7168C34.5908 83.8047 34.5534 83.8844 34.5176 83.9561C34.4818 84.0244 34.4492 84.0814 34.4199 84.127C34.3906 84.1693 34.3695 84.1888 34.3564 84.1855C34.3434 84.1921 34.3271 84.1872 34.3076 84.1709C34.2881 84.1546 34.2539 84.1465 34.2051 84.1465C34.0814 84.1465 33.9023 84.1855 33.668 84.2637C33.4336 84.3385 33.1862 84.4834 32.9258 84.6982C32.6686 84.9098 32.4717 85.11 32.335 85.2988C32.1982 85.4844 32.1299 85.613 32.1299 85.6846C32.1136 85.7887 32.1478 85.8783 32.2324 85.9531C32.3073 86.0117 32.444 86.0768 32.6426 86.1484C32.8444 86.2201 32.9697 86.2754 33.0186 86.3145C33.1781 86.4219 33.2578 86.6204 33.2578 86.9102C33.2578 87.3464 33.1715 87.8477 32.999 88.4141C32.8298 88.9772 32.5938 89.4671 32.291 89.8838C32.1641 90.0758 32.0078 90.2663 31.8223 90.4551C31.6367 90.6439 31.4349 90.8018 31.2168 90.9287C30.7969 91.2184 30.3135 91.3633 29.7666 91.3633C29.1449 91.3535 28.6729 91.1501 28.3506 90.7529C28.2041 90.5511 28.1032 90.3363 28.0479 90.1084C27.9925 89.8838 27.9648 89.6689 27.9648 89.4639C27.9746 89.0928 28.0234 88.7201 28.1113 88.3457C28.1992 87.9714 28.3115 87.6019 28.4482 87.2373C28.585 86.8727 28.7396 86.5163 28.9121 86.168C29.0879 85.8197 29.2669 85.486 29.4492 85.167C29.4785 85.1182 29.4948 85.0905 29.498 85.084C29.5339 85.0352 29.568 85.0107 29.6006 85.0107H29.6055C29.6152 85.0205 29.6152 85.04 29.6055 85.0693C29.599 85.0986 29.5811 85.1507 29.5518 85.2256ZM36.0947 84.0977L36.6025 82.9014C36.6449 82.8037 36.679 82.7549 36.7051 82.7549C36.7474 82.7549 36.7604 82.7858 36.7441 82.8477C36.7246 82.916 36.7018 83.0348 36.6758 83.2041C36.6497 83.3701 36.6302 83.5003 36.6172 83.5947C36.5977 83.7607 36.5781 83.9479 36.5586 84.1562C36.5391 84.3646 36.5212 84.5794 36.5049 84.8008C36.4886 85.0189 36.4723 85.2321 36.4561 85.4404C36.4398 85.6488 36.4219 85.8359 36.4023 86.002C36.3503 86.5065 36.2705 86.9232 36.1631 87.252C36.0557 87.5775 35.9303 87.8802 35.7871 88.1602C35.6439 88.4368 35.5283 88.5817 35.4404 88.5947C35.4176 88.5947 35.4242 88.5361 35.46 88.4189C35.5023 88.3083 35.5413 88.1699 35.5771 88.0039C35.6162 87.8379 35.6504 87.6605 35.6797 87.4717C35.709 87.2796 35.735 87.0843 35.7578 86.8857C35.7806 86.6839 35.8001 86.4935 35.8164 86.3145C35.8392 86.1452 35.8587 85.8929 35.875 85.5576C35.8913 85.2191 35.9157 84.9326 35.9482 84.6982C35.9808 84.4639 36.0296 84.2637 36.0947 84.0977ZM37.9453 87.999C38.1211 87.7939 38.3018 87.6279 38.4873 87.501C38.7445 87.3285 38.9984 87.2422 39.249 87.2422C39.3792 87.2422 39.5127 87.2601 39.6494 87.2959C39.7731 87.3252 39.8496 87.3398 39.8789 87.3398C40.123 87.3398 40.3574 87.2682 40.582 87.125C40.8001 86.9883 40.9092 86.8646 40.9092 86.7539C40.9092 86.7051 40.8457 86.6237 40.7188 86.5098C40.696 86.4902 40.6602 86.4609 40.6113 86.4219C40.5462 86.4609 40.5072 86.4805 40.4941 86.4805C40.3867 86.5293 40.2907 86.5537 40.2061 86.5537C40.027 86.5537 39.8838 86.5098 39.7764 86.4219C39.6624 86.334 39.6055 86.1956 39.6055 86.0068C39.6055 85.9873 39.7357 85.6715 39.9961 85.0596C40.0579 84.9098 40.141 84.7666 40.2451 84.6299C40.333 84.5257 40.4258 84.4736 40.5234 84.4736C40.7773 84.4736 41.0231 84.5957 41.2607 84.8398C41.4951 85.0905 41.6123 85.4128 41.6123 85.8066C41.6123 86.1257 41.5195 86.5065 41.334 86.9492C41.1647 87.3301 40.9922 87.6475 40.8164 87.9014C40.6048 88.1943 40.3867 88.4368 40.1621 88.6289C39.8561 88.8763 39.5469 89 39.2344 89C39.1107 89 38.9658 88.9707 38.7998 88.9121C38.6338 88.8503 38.4873 88.8193 38.3604 88.8193C38.1846 88.8193 38.0169 88.8649 37.8574 88.9561C37.7435 89.0212 37.623 89.1139 37.4961 89.2344C37.3561 89.3613 37.2568 89.4036 37.1982 89.3613C37.1429 89.332 37.1152 89.293 37.1152 89.2441C37.1152 89.1758 37.1576 89.0798 37.2422 88.9561C37.3333 88.8096 37.4456 88.6484 37.5791 88.4727C37.7581 88.2253 37.8802 88.0674 37.9453 87.999ZM41.002 80.6553C41.028 80.7497 41.0264 80.8473 40.9971 80.9482C40.971 81.0492 40.9206 81.1549 40.8457 81.2656C40.8001 81.3405 40.7513 81.4089 40.6992 81.4707C40.6504 81.5293 40.5983 81.5863 40.543 81.6416C40.5267 81.6611 40.5007 81.6855 40.4648 81.7148C40.429 81.7441 40.3916 81.7718 40.3525 81.7979C40.3135 81.8239 40.276 81.8434 40.2402 81.8564C40.2044 81.8662 40.1784 81.8613 40.1621 81.8418C40.0449 81.7474 39.9294 81.6514 39.8154 81.5537C39.7015 81.4561 39.5762 81.3649 39.4395 81.2803C39.4167 81.264 39.4053 81.2493 39.4053 81.2363C39.4085 81.2201 39.4183 81.1973 39.4346 81.168L40.2158 79.9766C40.2386 79.944 40.2614 79.9294 40.2842 79.9326C40.307 79.9326 40.3314 79.9408 40.3574 79.957C40.4258 79.9961 40.4941 80.04 40.5625 80.0889C40.6309 80.1377 40.6943 80.1914 40.7529 80.25C40.8115 80.3053 40.862 80.3672 40.9043 80.4355C40.9499 80.5007 40.9824 80.5739 41.002 80.6553ZM46.2168 84.9961C46.1452 85.123 46.0703 85.2516 45.9922 85.3818C45.9141 85.5088 45.8262 85.6292 45.7285 85.7432C45.6341 85.8571 45.5283 85.9613 45.4111 86.0557C45.2972 86.1468 45.167 86.2201 45.0205 86.2754C44.9001 86.3242 44.7975 86.3796 44.7129 86.4414C44.6283 86.5 44.5583 86.5635 44.5029 86.6318C44.4183 86.723 44.3451 86.8499 44.2832 87.0127C44.2214 87.1722 44.1562 87.3415 44.0879 87.5205C44.0228 87.6995 43.9495 87.8753 43.8682 88.0479C43.79 88.2171 43.6908 88.3571 43.5703 88.4678C43.4043 88.6436 43.1585 88.7624 42.833 88.8242L41.9395 88.9756C41.9134 88.9788 41.8809 88.9821 41.8418 88.9854C41.806 88.9854 41.7799 88.9837 41.7637 88.9805C41.6888 88.9577 41.666 88.9089 41.6953 88.834C41.7246 88.7559 41.8011 88.6777 41.9248 88.5996C42.1755 88.4336 42.3757 88.3001 42.5254 88.1992C42.6751 88.0951 42.7972 88.0104 42.8916 87.9453C42.986 87.8802 43.0609 87.8265 43.1162 87.7842C43.1748 87.7419 43.2367 87.6947 43.3018 87.6426C43.5654 87.444 43.7477 87.2357 43.8486 87.0176C43.9072 86.9036 43.9609 86.793 44.0098 86.6855C44.0586 86.5781 44.109 86.4723 44.1611 86.3682C44.2165 86.264 44.2751 86.1615 44.3369 86.0605C44.3988 85.9564 44.4704 85.8522 44.5518 85.748C44.6364 85.6439 44.7503 85.543 44.8936 85.4453C45.0368 85.3444 45.2093 85.2451 45.4111 85.1475C45.4339 85.1377 45.4714 85.1165 45.5234 85.084C45.5755 85.0482 45.639 84.9928 45.7139 84.918C45.7887 84.8431 45.8734 84.7422 45.9678 84.6152C46.0654 84.485 46.168 84.3206 46.2754 84.1221C46.2363 84.083 46.124 84.0293 45.9385 83.9609C45.7529 83.8893 45.5771 83.8486 45.4111 83.8389C45.2581 83.8291 45.1312 83.8568 45.0303 83.9219C44.9326 83.987 44.8431 84.0798 44.7617 84.2002C44.6803 84.3206 44.6104 84.376 44.5518 84.3662C44.5322 84.3564 44.529 84.3158 44.542 84.2441C44.5583 84.1725 44.5811 84.1025 44.6104 84.0342C44.734 83.751 44.874 83.541 45.0303 83.4043C45.1898 83.2643 45.3802 83.1943 45.6016 83.1943C45.7611 83.1943 45.9613 83.2334 46.2021 83.3115C46.3519 83.3636 46.4805 83.3896 46.5879 83.3896C46.8125 83.3896 47.0355 83.3099 47.2568 83.1504C47.3057 83.1504 47.3219 83.1829 47.3057 83.248C47.2926 83.3099 47.2715 83.3831 47.2422 83.4678C47.2161 83.5524 47.1982 83.6094 47.1885 83.6387C47.1396 83.7917 47.1006 83.8812 47.0713 83.9072C47.042 83.93 46.9574 83.9919 46.8174 84.0928C46.7393 84.1514 46.6709 84.2197 46.6123 84.2979C46.557 84.3727 46.5 84.4622 46.4414 84.5664C46.3828 84.6706 46.3079 84.8138 46.2168 84.9961ZM50.9922 87.1299C50.7969 87.6019 50.6325 87.9404 50.499 88.1455C50.3688 88.3506 50.2565 88.4906 50.1621 88.5654C50.0677 88.637 49.9326 88.7038 49.7568 88.7656C49.5843 88.8275 49.4004 88.8828 49.2051 88.9316C49.0098 88.9772 48.8649 89 48.7705 89C48.7314 89 48.7119 88.9984 48.7119 88.9951C48.6859 88.9626 48.8193 88.8535 49.1123 88.668C49.4085 88.4824 49.6527 88.3132 49.8447 88.1602C50.0368 88.0072 50.2077 87.8395 50.3574 87.6572C50.5104 87.4749 50.6195 87.2845 50.6846 87.0859C50.6488 87.1022 50.6048 87.1185 50.5527 87.1348C50.5007 87.1478 50.4453 87.1592 50.3867 87.1689C50.3314 87.1755 50.2777 87.1803 50.2256 87.1836C50.1735 87.1868 50.1279 87.1852 50.0889 87.1787C49.9033 87.1657 49.7487 87.1038 49.625 86.9932C49.5046 86.8792 49.4476 86.7409 49.4541 86.5781C49.4639 86.4967 49.4867 86.4007 49.5225 86.29C49.5583 86.1794 49.6331 86.0052 49.7471 85.7676C49.861 85.5267 49.9847 85.3281 50.1182 85.1719C50.2549 85.0156 50.3818 84.9375 50.499 84.9375C50.7008 84.9375 50.8685 85.0238 51.002 85.1963C51.1354 85.3656 51.2152 85.5706 51.2412 85.8115C51.2477 85.932 51.2445 86.0524 51.2314 86.1729C51.2217 86.2933 51.207 86.3942 51.1875 86.4756C51.1712 86.5537 51.1452 86.6562 51.1094 86.7832C51.0736 86.9069 51.0345 87.0225 50.9922 87.1299ZM54.3955 85.2207C54.2523 85.5267 54.1074 85.8376 53.9609 86.1533C53.8177 86.4658 53.6989 86.7653 53.6045 87.0518C53.3929 87.6898 53.305 88.1927 53.3408 88.5605C53.3701 88.9479 53.5231 89.2555 53.7998 89.4834C54.0798 89.7113 54.4785 89.8252 54.9961 89.8252C55.4258 89.8252 55.8408 89.734 56.2412 89.5518C56.5407 89.4183 56.806 89.2539 57.0371 89.0586C57.2682 88.8633 57.4456 88.6615 57.5693 88.4531C57.6963 88.2448 57.7598 88.069 57.7598 87.9258C57.763 87.8607 57.7305 87.8053 57.6621 87.7598C57.597 87.7142 57.5173 87.6751 57.4229 87.6426C57.3285 87.61 57.2308 87.5807 57.1299 87.5547C57.029 87.5286 56.9476 87.5026 56.8857 87.4766C56.736 87.4212 56.6139 87.3398 56.5195 87.2324C56.4284 87.1217 56.3844 86.9574 56.3877 86.7393C56.3877 86.4788 56.474 86.1712 56.6465 85.8164C56.679 85.7741 56.7132 85.7432 56.749 85.7236C56.7848 85.7041 56.8174 85.696 56.8467 85.6992C56.8792 85.7025 56.9069 85.7139 56.9297 85.7334C56.9557 85.7529 56.9736 85.7806 56.9834 85.8164C56.9736 85.8652 57.0046 85.9141 57.0762 85.9629C57.151 86.0117 57.2878 86.0719 57.4863 86.1436C57.6882 86.2152 57.8135 86.2705 57.8623 86.3096C58.0218 86.417 58.1016 86.6156 58.1016 86.9053C58.1016 87.3415 58.0153 87.8428 57.8428 88.4092C57.6735 88.9723 57.4375 89.4622 57.1348 89.8789C57.0078 90.071 56.8516 90.2614 56.666 90.4502C56.4805 90.639 56.2786 90.7969 56.0605 90.9238C55.6406 91.2135 55.1572 91.3584 54.6104 91.3584C53.9886 91.3486 53.5166 91.1452 53.1943 90.748C53.0479 90.5462 52.9469 90.3314 52.8916 90.1035C52.8363 89.8789 52.8086 89.6641 52.8086 89.459C52.8184 89.0879 52.8672 88.7152 52.9551 88.3408C53.043 87.9665 53.1553 87.597 53.292 87.2324C53.4287 86.8678 53.5833 86.5114 53.7559 86.1631C53.9316 85.8148 54.1107 85.4811 54.293 85.1621C54.3223 85.1133 54.3385 85.0856 54.3418 85.0791C54.3809 85.0173 54.415 84.9928 54.4443 85.0059H54.4492C54.459 85.0156 54.459 85.0352 54.4492 85.0645C54.4427 85.0938 54.4248 85.1458 54.3955 85.2207ZM58.7363 85C58.7005 85.0065 58.6631 85.0016 58.624 84.9854C58.5882 84.9691 58.5524 84.9495 58.5166 84.9268C58.4352 84.8747 58.3669 84.8405 58.3115 84.8242C58.0902 84.7559 57.8281 84.8324 57.5254 85.0537C57.2259 85.2751 57.0469 85.4753 56.9883 85.6543C56.9688 85.6803 56.9411 85.6966 56.9053 85.7031C56.8695 85.7096 56.8353 85.7113 56.8027 85.708C56.7669 85.7048 56.7344 85.6966 56.7051 85.6836C56.6758 85.6738 56.6579 85.6641 56.6514 85.6543C56.7718 85.4199 56.9443 85.1725 57.1689 84.9121C57.3936 84.6484 57.6361 84.4417 57.8965 84.292C58.1569 84.1423 58.4368 84.0592 58.7363 84.043L58.8193 84.2383C58.8421 84.3132 58.8535 84.3896 58.8535 84.4678C58.8535 84.5557 58.8421 84.6484 58.8193 84.7461C58.7705 84.8958 58.7428 84.9805 58.7363 85ZM57.1299 80.6104C57.1559 80.7048 57.1543 80.8024 57.125 80.9033C57.099 81.0042 57.0485 81.11 56.9736 81.2207C56.9281 81.2956 56.8809 81.3639 56.832 81.4258C56.7799 81.4844 56.7262 81.5413 56.6709 81.5967C56.6546 81.6162 56.6286 81.6406 56.5928 81.6699C56.557 81.6992 56.5195 81.7269 56.4805 81.7529C56.4414 81.779 56.404 81.7985 56.3682 81.8115C56.3324 81.8213 56.3063 81.8164 56.29 81.7969C56.1729 81.7025 56.0573 81.6064 55.9434 81.5088C55.8294 81.4111 55.7041 81.32 55.5674 81.2354C55.5446 81.2191 55.5348 81.2044 55.5381 81.1914C55.5381 81.1751 55.5462 81.1523 55.5625 81.123L56.3438 79.9316C56.3665 79.8991 56.3893 79.8844 56.4121 79.8877C56.4349 79.8877 56.4593 79.8958 56.4854 79.9121C56.5537 79.9512 56.6221 79.9951 56.6904 80.0439C56.7588 80.0928 56.8223 80.1465 56.8809 80.2051C56.9395 80.2604 56.9899 80.3223 57.0322 80.3906C57.0778 80.4557 57.1104 80.529 57.1299 80.6104ZM58.7363 84.043C58.9316 84.1113 59.0749 84.1406 59.166 84.1309C59.2604 84.1211 59.3418 84.0918 59.4102 84.043C59.4818 83.9941 59.5176 83.9079 59.5176 83.7842C59.5176 83.7028 59.4834 83.6149 59.415 83.5205C59.3467 83.4391 59.2767 83.3984 59.2051 83.3984C59.1074 83.457 58.9919 83.4896 58.8584 83.4961C58.7119 83.4896 58.5687 83.4587 58.4287 83.4033C58.2952 83.3447 58.2285 83.252 58.2285 83.125C58.2285 83.0339 58.2529 82.9248 58.3018 82.7979C58.3571 82.6546 58.4368 82.4707 58.541 82.2461C58.6452 82.0215 58.7477 81.8311 58.8486 81.6748C58.943 81.5251 59.0293 81.4502 59.1074 81.4502C59.3223 81.46 59.5322 81.5641 59.7373 81.7627C60.0107 82.0231 60.1475 82.3535 60.1475 82.7539C60.1475 82.9492 60.123 83.1462 60.0742 83.3447C60.0254 83.5758 59.9505 83.7939 59.8496 83.999C59.6966 84.2855 59.5355 84.5312 59.3662 84.7363C59.1937 84.9316 59.0439 85.0293 58.917 85.0293L58.7363 85C58.6647 84.8014 58.6273 84.6224 58.624 84.4629C58.6208 84.3034 58.6582 84.1634 58.7363 84.043ZM60.6162 77.6367C60.6423 77.7311 60.6406 77.8288 60.6113 77.9297C60.5853 78.0306 60.5348 78.1364 60.46 78.2471C60.4144 78.3219 60.3656 78.3903 60.3135 78.4521C60.2646 78.5107 60.2126 78.5677 60.1572 78.623C60.141 78.6426 60.1149 78.667 60.0791 78.6963C60.0433 78.7256 60.0059 78.7533 59.9668 78.7793C59.9277 78.8053 59.8903 78.8249 59.8545 78.8379C59.8187 78.8477 59.7926 78.8428 59.7764 78.8232C59.6592 78.7288 59.5436 78.6328 59.4297 78.5352C59.3158 78.4375 59.1904 78.3464 59.0537 78.2617C59.0309 78.2454 59.0195 78.2308 59.0195 78.2178C59.0228 78.2015 59.0326 78.1787 59.0488 78.1494L59.8301 76.958C59.8529 76.9255 59.8757 76.9108 59.8984 76.9141C59.9212 76.9141 59.9456 76.9222 59.9717 76.9385C60.04 76.9775 60.1084 77.0215 60.1768 77.0703C60.2451 77.1191 60.3086 77.1729 60.3672 77.2314C60.4258 77.2868 60.4762 77.3486 60.5186 77.417C60.5641 77.4821 60.5967 77.5553 60.6162 77.6367ZM62.6816 86.1973C62.6068 86.3796 62.5352 86.5651 62.4668 86.7539C62.4017 86.9395 62.3447 87.125 62.2959 87.3105C62.2471 87.4928 62.208 87.6735 62.1787 87.8525C62.1494 88.0283 62.1364 88.1976 62.1396 88.3604C62.1917 88.8486 62.3919 89.2067 62.7402 89.4346C63.0885 89.6657 63.4987 89.7926 63.9707 89.8154C64.6055 89.8154 65.2158 89.6462 65.8018 89.3076C66.238 89.0179 66.5879 88.6549 66.8516 88.2188C67.252 87.61 67.4424 86.7702 67.4229 85.6992C67.4196 85.5592 67.418 85.4193 67.418 85.2793C67.418 85.1393 67.4147 84.9993 67.4082 84.8594C67.4082 84.7878 67.4131 84.7259 67.4229 84.6738C67.4652 84.4264 67.6165 84.3141 67.877 84.3369C67.9486 84.3467 68.0202 84.3499 68.0918 84.3467C68.1667 84.3434 68.222 84.3385 68.2578 84.332C68.3783 84.3092 68.4889 84.2669 68.5898 84.2051C68.694 84.14 68.7835 84.0488 68.8584 83.9316C68.8617 83.9251 68.8682 83.9186 68.8779 83.9121C68.8975 83.8991 68.917 83.8958 68.9365 83.9023C68.9854 83.9186 69.0293 83.93 69.0684 83.9365C69.1074 83.9398 69.1465 83.9284 69.1855 83.9023C69.2246 83.8763 69.2669 83.8307 69.3125 83.7656C69.3613 83.7005 69.4167 83.6045 69.4785 83.4775C69.5273 83.3604 69.5697 83.3115 69.6055 83.3311C69.6348 83.3408 69.6396 83.4092 69.6201 83.5361C69.5713 83.8096 69.4964 84.0407 69.3955 84.2295C69.2979 84.415 69.1953 84.5469 69.0879 84.625C68.9837 84.6999 68.8503 84.7373 68.6875 84.7373C68.6094 84.8577 68.5117 84.9619 68.3945 85.0498C68.2773 85.1344 68.1162 85.1914 67.9111 85.2207C67.9014 85.2826 67.8916 85.3477 67.8818 85.416C67.7939 86.4609 67.5889 87.3952 67.2666 88.2188C67.0518 88.7656 66.7767 89.2783 66.4414 89.7568C65.6504 90.8278 64.6999 91.3649 63.5898 91.3682C63.0495 91.3389 62.5938 91.1533 62.2227 90.8115C61.8516 90.4697 61.6562 89.9863 61.6367 89.3613C61.6497 88.3652 61.9639 87.2731 62.5791 86.085L62.7549 85.7236C62.7646 85.7204 62.7728 85.7301 62.7793 85.7529C62.7858 85.7757 62.7874 85.8083 62.7842 85.8506C62.7809 85.8896 62.7728 85.9352 62.7598 85.9873C62.7467 86.0394 62.7288 86.0931 62.7061 86.1484L62.6816 86.1973ZM69.8447 80.7676C69.8708 80.8587 69.8691 80.9531 69.8398 81.0508C69.8138 81.1484 69.7666 81.2493 69.6982 81.3535C69.6429 81.4382 69.5859 81.5179 69.5273 81.5928C69.472 81.6644 69.4102 81.7327 69.3418 81.7979C69.2995 81.8434 69.262 81.876 69.2295 81.8955C69.1969 81.915 69.1693 81.9281 69.1465 81.9346C69.1237 81.9378 69.1042 81.9362 69.0879 81.9297C69.0716 81.9232 69.057 81.915 69.0439 81.9053C68.93 81.8141 68.8177 81.723 68.707 81.6318C68.5996 81.5374 68.4808 81.4495 68.3506 81.3682C68.3343 81.3454 68.3262 81.3291 68.3262 81.3193C68.3262 81.3063 68.3343 81.2868 68.3506 81.2607L69.0928 80.1182C69.1156 80.0889 69.1367 80.0758 69.1562 80.0791C69.179 80.0791 69.2035 80.0872 69.2295 80.1035C69.2946 80.1426 69.3597 80.1849 69.4248 80.2305C69.4932 80.2728 69.555 80.3216 69.6104 80.377C69.6657 80.4323 69.7145 80.4925 69.7568 80.5576C69.7992 80.6195 69.8285 80.6895 69.8447 80.7676ZM69.1709 79.0049C69.1969 79.096 69.1953 79.1904 69.166 79.2881C69.14 79.3857 69.0928 79.4867 69.0244 79.5908C68.9691 79.6755 68.9121 79.7552 68.8535 79.8301C68.7982 79.9017 68.7363 79.9701 68.668 80.0352C68.6257 80.0807 68.5882 80.1133 68.5557 80.1328C68.5231 80.1523 68.4954 80.1654 68.4727 80.1719C68.4499 80.1751 68.4303 80.1735 68.4141 80.167C68.3978 80.1605 68.3831 80.1523 68.3701 80.1426C68.2562 80.0514 68.1439 79.9603 68.0332 79.8691C67.9258 79.7747 67.807 79.6868 67.6768 79.6055C67.6605 79.5827 67.6523 79.5664 67.6523 79.5566C67.6523 79.5436 67.6605 79.5241 67.6768 79.498L68.4189 78.3555C68.4417 78.3262 68.4629 78.3132 68.4824 78.3164C68.5052 78.3164 68.5296 78.3245 68.5557 78.3408C68.6208 78.3799 68.6859 78.4222 68.751 78.4678C68.8193 78.5101 68.8812 78.5589 68.9365 78.6143C68.9919 78.6696 69.0407 78.7298 69.083 78.7949C69.1253 78.8568 69.1546 78.9268 69.1709 79.0049ZM68.3018 80.7285C68.3083 80.7448 68.3132 80.7594 68.3164 80.7725C68.3229 80.7855 68.3294 80.8001 68.3359 80.8164L68.3506 80.8604C68.3506 80.8734 68.3522 80.8831 68.3555 80.8896C68.3555 80.8962 68.3555 80.9027 68.3555 80.9092C68.3587 80.9157 68.3604 80.9222 68.3604 80.9287C68.3604 80.9352 68.3604 80.9401 68.3604 80.9434C68.3636 80.9466 68.3652 80.9515 68.3652 80.958C68.3652 81.0199 68.3587 81.0768 68.3457 81.1289C68.3457 81.1354 68.3441 81.1403 68.3408 81.1436C68.3408 81.1468 68.3408 81.1517 68.3408 81.1582L68.3213 81.2168L68.3066 81.2461C68.3034 81.2526 68.3001 81.2607 68.2969 81.2705C68.2969 81.2803 68.2936 81.2884 68.2871 81.2949L68.2578 81.3535L68.1992 81.4463L68.1162 81.5684C68.0999 81.5944 68.082 81.6204 68.0625 81.6465C68.043 81.6693 68.0234 81.6937 68.0039 81.7197C67.9779 81.749 67.9518 81.7783 67.9258 81.8076C67.8997 81.8369 67.8721 81.8646 67.8428 81.8906L67.7939 81.9395L67.7695 81.959C67.7305 81.9915 67.6963 82.0127 67.667 82.0225C67.641 82.0322 67.6182 82.0339 67.5986 82.0273C67.5856 82.0241 67.5742 82.0208 67.5645 82.0176C67.5579 82.0111 67.5514 82.0046 67.5449 81.998L67.4277 81.9053L67.3789 81.8613L67.0908 81.627L67.0566 81.6025C66.9883 81.5505 66.9215 81.5033 66.8564 81.4609C66.8369 81.4447 66.8271 81.43 66.8271 81.417C66.8271 81.4007 66.8353 81.3796 66.8516 81.3535L67.5986 80.2158C67.6214 80.18 67.6475 80.1654 67.6768 80.1719C67.6768 80.1719 67.68 80.1735 67.6865 80.1768C67.6898 80.1768 67.6979 80.18 67.7109 80.1865C67.7174 80.193 67.724 80.1963 67.7305 80.1963C67.7728 80.2223 67.8151 80.25 67.8574 80.2793C67.8997 80.3053 67.9421 80.333 67.9844 80.3623L68.0381 80.4062C68.0739 80.4355 68.1064 80.4648 68.1357 80.4941C68.165 80.5234 68.1927 80.556 68.2188 80.5918L68.248 80.6309L68.292 80.709C68.2985 80.722 68.3018 80.7285 68.3018 80.7285ZM72.96 84.9668C72.82 85.8262 72.693 86.4674 72.5791 86.8906C72.4684 87.3138 72.3675 87.6377 72.2764 87.8623C72.1852 88.0837 72.0843 88.2529 71.9736 88.3701C71.8662 88.4873 71.666 88.5996 71.373 88.707C71.0833 88.8112 70.8408 88.8844 70.6455 88.9268C70.4502 88.9691 70.3281 88.9919 70.2793 88.9951C70.2305 88.9919 70.1995 88.9837 70.1865 88.9707C70.1735 88.9544 70.1849 88.9186 70.2207 88.8633C70.2826 88.7754 70.4111 88.6549 70.6064 88.502C70.805 88.349 71.0378 88.1585 71.3047 87.9307C71.5749 87.7028 71.7767 87.5026 71.9102 87.3301C72.0436 87.1543 72.1608 86.9167 72.2617 86.6172C72.3659 86.3145 72.4668 85.9987 72.5645 85.6699C72.6621 85.3411 72.7321 85.1182 72.7744 85.001C72.82 84.8838 72.8656 84.8268 72.9111 84.8301C72.9632 84.8398 72.9795 84.8854 72.96 84.9668ZM73.2969 82.3057C73.3229 82.4001 73.3213 82.4977 73.292 82.5986C73.266 82.6995 73.2155 82.8053 73.1406 82.916C73.0951 82.9909 73.0462 83.0592 72.9941 83.1211C72.9453 83.1797 72.8932 83.2367 72.8379 83.292C72.8216 83.3115 72.7956 83.3359 72.7598 83.3652C72.724 83.3945 72.6865 83.4222 72.6475 83.4482C72.6084 83.4743 72.571 83.4938 72.5352 83.5068C72.4993 83.5166 72.4733 83.5117 72.457 83.4922C72.3398 83.3978 72.2243 83.3018 72.1104 83.2041C71.9964 83.1064 71.8711 83.0153 71.7344 82.9307C71.7116 82.9144 71.7002 82.8997 71.7002 82.8867C71.7035 82.8704 71.7132 82.8477 71.7295 82.8184L72.5107 81.627C72.5335 81.5944 72.5563 81.5798 72.5791 81.583C72.6019 81.583 72.6263 81.5911 72.6523 81.6074C72.7207 81.6465 72.7891 81.6904 72.8574 81.7393C72.9258 81.7881 72.9893 81.8418 73.0479 81.9004C73.1064 81.9557 73.1569 82.0176 73.1992 82.0859C73.2448 82.151 73.2773 82.2243 73.2969 82.3057ZM75.5137 87.1299C75.3184 87.6019 75.154 87.9404 75.0205 88.1455C74.8903 88.3506 74.778 88.4906 74.6836 88.5654C74.5892 88.637 74.4541 88.7038 74.2783 88.7656C74.1058 88.8275 73.9219 88.8828 73.7266 88.9316C73.5312 88.9772 73.3864 89 73.292 89C73.2529 89 73.2334 88.9984 73.2334 88.9951C73.2074 88.9626 73.3408 88.8535 73.6338 88.668C73.93 88.4824 74.1742 88.3132 74.3662 88.1602C74.5583 88.0072 74.7292 87.8395 74.8789 87.6572C75.0319 87.4749 75.141 87.2845 75.2061 87.0859C75.1702 87.1022 75.1263 87.1185 75.0742 87.1348C75.0221 87.1478 74.9668 87.1592 74.9082 87.1689C74.8529 87.1755 74.7992 87.1803 74.7471 87.1836C74.695 87.1868 74.6494 87.1852 74.6104 87.1787C74.4248 87.1657 74.2702 87.1038 74.1465 86.9932C74.026 86.8792 73.9691 86.7409 73.9756 86.5781C73.9854 86.4967 74.0081 86.4007 74.0439 86.29C74.0798 86.1794 74.1546 86.0052 74.2686 85.7676C74.3825 85.5267 74.5062 85.3281 74.6396 85.1719C74.7764 85.0156 74.9033 84.9375 75.0205 84.9375C75.2223 84.9375 75.39 85.0238 75.5234 85.1963C75.6569 85.3656 75.7367 85.5706 75.7627 85.8115C75.7692 85.932 75.766 86.0524 75.7529 86.1729C75.7432 86.2933 75.7285 86.3942 75.709 86.4756C75.6927 86.5537 75.6667 86.6562 75.6309 86.7832C75.5951 86.9069 75.556 87.0225 75.5137 87.1299ZM75.1572 85.585C75.1572 85.5687 75.1572 85.5508 75.1572 85.5312C75.1572 85.5117 75.1572 85.4954 75.1572 85.4824C75.1898 85.3099 75.3379 85.1097 75.6016 84.8818C75.8229 84.7646 75.9938 84.5938 76.1143 84.3691C76.2021 84.1966 76.3421 83.9427 76.5342 83.6074C76.583 83.5326 76.6676 83.4219 76.7881 83.2754C76.9346 83.1094 77.0648 82.9808 77.1787 82.8896C77.2113 82.8538 77.3008 82.7285 77.4473 82.5137C77.4766 82.4616 77.5335 82.3818 77.6182 82.2744C77.6963 82.2679 77.8232 82.3867 77.999 82.6309C78.1683 82.875 78.2529 83.1045 78.2529 83.3193C78.2529 83.5212 78.2025 83.7116 78.1016 83.8906C77.9941 84.0762 77.8721 84.2113 77.7354 84.2959C77.6475 84.3545 77.5514 84.3838 77.4473 84.3838C77.3594 84.3773 77.2861 84.3675 77.2275 84.3545C77.1299 84.3447 77.0599 84.3398 77.0176 84.3398C76.9329 84.3398 76.8564 84.3496 76.7881 84.3691C76.5505 84.4701 76.321 84.7402 76.0996 85.1797C76.041 85.2969 75.9922 85.3896 75.9531 85.458C75.9141 85.5264 75.888 85.5736 75.875 85.5996C75.7773 85.7656 75.6862 85.8991 75.6016 86C75.5039 86.1367 75.4193 86.2295 75.3477 86.2783C75.263 86.3369 75.1751 86.3809 75.084 86.4102L75.1572 85.585ZM80.4893 84.0977L80.9971 82.9014C81.0394 82.8037 81.0736 82.7549 81.0996 82.7549C81.1419 82.7549 81.1549 82.7858 81.1387 82.8477C81.1191 82.916 81.0964 83.0348 81.0703 83.2041C81.0443 83.3701 81.0247 83.5003 81.0117 83.5947C80.9922 83.7607 80.9727 83.9479 80.9531 84.1562C80.9336 84.3646 80.9157 84.5794 80.8994 84.8008C80.8831 85.0189 80.8669 85.2321 80.8506 85.4404C80.8343 85.6488 80.8164 85.8359 80.7969 86.002C80.7448 86.5065 80.665 86.9232 80.5576 87.252C80.4502 87.5775 80.3249 87.8802 80.1816 88.1602C80.0384 88.4368 79.9229 88.5817 79.835 88.5947C79.8122 88.5947 79.8187 88.5361 79.8545 88.4189C79.8968 88.3083 79.9359 88.1699 79.9717 88.0039C80.0107 87.8379 80.0449 87.6605 80.0742 87.4717C80.1035 87.2796 80.1296 87.0843 80.1523 86.8857C80.1751 86.6839 80.1947 86.4935 80.2109 86.3145C80.2337 86.1452 80.2533 85.8929 80.2695 85.5576C80.2858 85.2191 80.3102 84.9326 80.3428 84.6982C80.3753 84.4639 80.4242 84.2637 80.4893 84.0977ZM81.7686 79.21C81.9346 79.2262 82.0941 79.2311 82.2471 79.2246C82.4033 79.2148 82.5612 79.1855 82.7207 79.1367C82.8802 79.0879 83.043 79.0163 83.209 78.9219C83.375 78.8242 83.5524 78.694 83.7412 78.5312C83.7803 78.4987 83.821 78.4596 83.8633 78.4141C83.9089 78.3685 83.9512 78.3245 83.9902 78.2822C84.0326 78.2399 84.07 78.2057 84.1025 78.1797C84.1351 78.1504 84.1579 78.1357 84.1709 78.1357C84.2002 78.1325 84.2181 78.1569 84.2246 78.209C84.2311 78.2578 84.2148 78.3197 84.1758 78.3945C84.0977 78.5508 83.987 78.7347 83.8438 78.9463C83.7038 79.1546 83.5492 79.3434 83.3799 79.5127C83.0674 79.8285 82.7712 80.0628 82.4912 80.2158C82.2113 80.3656 81.876 80.4486 81.4854 80.4648C81.3128 80.4648 81.1598 80.4616 81.0264 80.4551C80.8929 80.4453 80.7122 80.4469 80.4844 80.46C80.2598 80.4697 80.0498 80.5169 79.8545 80.6016C79.6624 80.6862 79.4932 80.779 79.3467 80.8799C79.3239 80.8864 79.3011 80.8896 79.2783 80.8896C79.2588 80.8864 79.2458 80.8783 79.2393 80.8652C79.2295 80.8522 79.2474 80.8001 79.293 80.709C79.3516 80.5788 79.4574 80.4225 79.6104 80.2402C79.7666 80.0547 79.9684 79.8691 80.2158 79.6836C80.4665 79.4948 80.7041 79.3662 80.9287 79.2979C81.1566 79.2262 81.4365 79.1969 81.7686 79.21ZM90.46 85.3428C90.4502 85.4242 90.4421 85.5055 90.4355 85.5869C90.3411 86.6318 90.1328 87.5661 89.8105 88.3896C89.5957 88.9365 89.3206 89.4492 88.9854 89.9277C88.1943 90.9987 87.2438 91.5326 86.1338 91.5293C85.6032 91.5065 85.1556 91.3242 84.791 90.9824C84.4199 90.6406 84.2246 90.1572 84.2051 89.5322C84.2018 88.5361 84.5078 87.444 85.123 86.2559L85.3086 85.8945C85.3314 85.888 85.3395 85.9271 85.333 86.0117C85.3265 86.0964 85.2907 86.2152 85.2256 86.3682C85.1507 86.5505 85.0758 86.736 85.001 86.9248C84.9294 87.1104 84.8659 87.2959 84.8105 87.4814C84.7552 87.6637 84.7113 87.8444 84.6787 88.0234C84.6494 88.1992 84.6396 88.3685 84.6494 88.5312C84.7145 89.0195 84.9229 89.3776 85.2744 89.6055C85.6292 89.8366 86.0426 89.9603 86.5146 89.9766C87.1494 89.9831 87.7598 89.8171 88.3457 89.4785C88.7819 89.1888 89.1318 88.8258 89.3955 88.3896C89.8285 87.8005 90.0124 86.9932 89.9473 85.9678C89.944 85.7529 89.9668 85.5576 90.0156 85.3818C90.0645 85.2061 90.2028 84.8203 90.4307 84.2246C90.4795 84.0846 90.5186 84.0016 90.5479 83.9756C90.5771 83.9463 90.5983 83.9414 90.6113 83.9609C90.6243 83.9772 90.6227 84.0244 90.6064 84.1025L90.5332 84.6104L90.46 85.3428ZM88.2871 86.5293C88.3034 86.6172 88.2969 86.71 88.2676 86.8076C88.2415 86.902 88.1927 87.0078 88.1211 87.125C88.0755 87.1966 88.0332 87.2585 87.9941 87.3105C87.9551 87.3626 87.916 87.4098 87.877 87.4521C87.8411 87.4945 87.8021 87.5335 87.7598 87.5693C87.7207 87.6051 87.6768 87.6426 87.6279 87.6816C87.6117 87.6979 87.597 87.7077 87.584 87.7109C87.571 87.7142 87.5612 87.7158 87.5547 87.7158C87.5059 87.7158 87.4733 87.7012 87.457 87.6719C87.4277 87.6361 87.3838 87.5905 87.3252 87.5352C87.2666 87.4798 87.195 87.418 87.1104 87.3496L86.7051 87.0225C86.6758 86.9964 86.666 86.972 86.6758 86.9492C86.6888 86.9232 86.6986 86.9036 86.7051 86.8906C86.8092 86.7051 86.9199 86.513 87.0371 86.3145C87.1576 86.1159 87.2682 85.9352 87.3691 85.7725C87.3854 85.7464 87.3984 85.7269 87.4082 85.7139C87.418 85.7008 87.4277 85.6943 87.4375 85.6943C87.4473 85.6911 87.4587 85.6943 87.4717 85.7041C87.4847 85.7139 87.5042 85.7253 87.5303 85.7383C87.5921 85.7839 87.6621 85.8359 87.7402 85.8945C87.8216 85.9499 87.9046 86.015 87.9893 86.0898C88.152 86.2331 88.2513 86.3796 88.2871 86.5293ZM91.9053 86.2412C91.8792 86.5667 91.806 86.8434 91.6855 87.0713C91.5651 87.2992 91.4284 87.4131 91.2754 87.4131C91.2754 87.2894 91.3145 86.9053 91.3926 86.2607C91.474 85.6162 91.5342 85.1556 91.5732 84.8789C91.6156 84.599 91.6628 84.3027 91.7148 83.9902C91.7669 83.6777 91.8174 83.4255 91.8662 83.2334C91.9215 83.0739 91.9801 82.9128 92.042 82.75C92.1071 82.5872 92.1738 82.4261 92.2422 82.2666C92.2878 82.195 92.3171 82.2064 92.3301 82.3008C92.2487 82.8411 92.1738 83.4027 92.1055 83.9854C92.0371 84.5648 91.9899 84.9798 91.9639 85.2305C91.9411 85.4811 91.9297 85.6276 91.9297 85.6699C91.9134 85.9368 91.9053 86.1273 91.9053 86.2412ZM91.9102 86.5049C91.9102 86.8271 91.9736 87.0697 92.1006 87.2324C92.2308 87.3952 92.3773 87.4766 92.54 87.4766C92.5693 87.4668 92.6182 87.3594 92.6865 87.1543C92.7581 86.9492 92.8184 86.793 92.8672 86.6855C93.0104 86.7148 93.113 86.7848 93.1748 86.8955C93.2399 87.0029 93.2757 87.1104 93.2822 87.2178C93.2822 87.5889 93.2057 87.9502 93.0527 88.3018C92.8314 88.7705 92.5352 89.0049 92.1641 89.0049C91.9492 89.0049 91.749 88.8812 91.5635 88.6338C91.3747 88.3864 91.2803 87.9795 91.2803 87.4131C91.3128 87.2992 91.3486 87.1868 91.3877 87.0762C91.4235 86.9622 91.4658 86.8548 91.5146 86.7539C91.5602 86.6497 91.6156 86.5553 91.6807 86.4707C91.7425 86.3828 91.819 86.3079 91.9102 86.2461V86.5049ZM96.4658 84.9668C96.3258 85.8262 96.1989 86.4674 96.085 86.8906C95.9743 87.3138 95.8734 87.6377 95.7822 87.8623C95.6911 88.0837 95.5902 88.2529 95.4795 88.3701C95.3721 88.4873 95.1719 88.5996 94.8789 88.707C94.5892 88.8112 94.3467 88.8844 94.1514 88.9268C93.9561 88.9691 93.834 88.9919 93.7852 88.9951C93.7363 88.9919 93.7054 88.9837 93.6924 88.9707C93.6794 88.9544 93.6908 88.9186 93.7266 88.8633C93.7884 88.7754 93.917 88.6549 94.1123 88.502C94.3109 88.349 94.5436 88.1585 94.8105 87.9307C95.0807 87.7028 95.2826 87.5026 95.416 87.3301C95.5495 87.1543 95.6667 86.9167 95.7676 86.6172C95.8717 86.3145 95.9727 85.9987 96.0703 85.6699C96.168 85.3411 96.238 85.1182 96.2803 85.001C96.3258 84.8838 96.3714 84.8268 96.417 84.8301C96.4691 84.8398 96.4854 84.8854 96.4658 84.9668ZM96.8027 82.3057C96.8288 82.4001 96.8271 82.4977 96.7979 82.5986C96.7718 82.6995 96.7214 82.8053 96.6465 82.916C96.6009 82.9909 96.5521 83.0592 96.5 83.1211C96.4512 83.1797 96.3991 83.2367 96.3438 83.292C96.3275 83.3115 96.3014 83.3359 96.2656 83.3652C96.2298 83.3945 96.1924 83.4222 96.1533 83.4482C96.1143 83.4743 96.0768 83.4938 96.041 83.5068C96.0052 83.5166 95.9792 83.5117 95.9629 83.4922C95.8457 83.3978 95.7301 83.3018 95.6162 83.2041C95.5023 83.1064 95.377 83.0153 95.2402 82.9307C95.2174 82.9144 95.2061 82.8997 95.2061 82.8867C95.2093 82.8704 95.2191 82.8477 95.2354 82.8184L96.0166 81.627C96.0394 81.5944 96.0622 81.5798 96.085 81.583C96.1077 81.583 96.1322 81.5911 96.1582 81.6074C96.2266 81.6465 96.2949 81.6904 96.3633 81.7393C96.4316 81.7881 96.4951 81.8418 96.5537 81.9004C96.6123 81.9557 96.6628 82.0176 96.7051 82.0859C96.7507 82.151 96.7832 82.2243 96.8027 82.3057ZM97.6572 86.2412C97.6312 86.5667 97.5579 86.8434 97.4375 87.0713C97.3171 87.2992 97.1803 87.4131 97.0273 87.4131C97.0273 87.2894 97.0664 86.9053 97.1445 86.2607C97.2259 85.6162 97.2861 85.1556 97.3252 84.8789C97.3675 84.599 97.4147 84.3027 97.4668 83.9902C97.5189 83.6777 97.5693 83.4255 97.6182 83.2334C97.6735 83.0739 97.7321 82.9128 97.7939 82.75C97.859 82.5872 97.9258 82.4261 97.9941 82.2666C98.0397 82.195 98.069 82.2064 98.082 82.3008C98.0007 82.8411 97.9258 83.4027 97.8574 83.9854C97.7891 84.5648 97.7419 84.9798 97.7158 85.2305C97.693 85.4811 97.6816 85.6276 97.6816 85.6699C97.6654 85.9368 97.6572 86.1273 97.6572 86.2412ZM100.25 87.5693C100.195 87.5889 100.136 87.6019 100.074 87.6084C100.016 87.6117 99.9587 87.6165 99.9033 87.623C99.7731 87.6296 99.6689 87.6605 99.5908 87.7158C99.4834 87.7907 99.3011 88.0088 99.0439 88.3701C98.7607 88.79 98.4385 89 98.0771 89C97.6735 89 97.3838 88.8242 97.208 88.4727C97.0778 88.1602 97.0192 87.807 97.0322 87.4131C97.068 86.8695 97.1413 86.4642 97.252 86.1973C97.3691 85.9303 97.4798 85.7969 97.584 85.7969C97.6068 85.7969 97.6328 85.818 97.6621 85.8604C97.6621 86.0101 97.6621 86.1598 97.6621 86.3096C97.6751 86.4528 97.7126 86.6188 97.7744 86.8076C97.8395 86.9964 97.9469 87.1494 98.0967 87.2666C98.2562 87.374 98.4596 87.4277 98.707 87.4277C99.0651 87.4212 99.3369 87.3122 99.5225 87.1006C99.708 86.889 99.848 86.7702 99.9424 86.7441C99.9977 86.7279 100.06 86.7279 100.128 86.7441C100.196 86.7572 100.257 86.762 100.309 86.7588C100.471 86.7523 100.616 86.6937 100.743 86.583C100.873 86.4691 100.989 86.3242 101.09 86.1484C101.093 86.1387 101.1 86.1289 101.109 86.1191C101.129 86.0996 101.152 86.0947 101.178 86.1045C101.233 86.1208 101.282 86.1305 101.324 86.1338C101.37 86.137 101.414 86.124 101.456 86.0947C101.502 86.0654 101.549 86.0133 101.598 85.9385C101.646 85.8604 101.703 85.748 101.769 85.6016C101.817 85.4616 101.865 85.403 101.91 85.4258C101.943 85.4323 101.948 85.5072 101.925 85.6504C101.853 85.9661 101.765 86.2233 101.661 86.4219C101.56 86.6172 101.456 86.7588 101.349 86.8467C101.241 86.9313 101.103 86.9948 100.934 87.0371C100.839 87.1413 100.73 87.2438 100.606 87.3447C100.483 87.4424 100.364 87.5173 100.25 87.5693Z" fill="black"/>
</g>
<defs>
<filter id="filter0_d_81_8814" x="0" y="0" width="118" height="118" filterUnits="userSpaceOnUse" color-interpolation-filters="sRGB">
<feFlood flood-opacity="0" result="BackgroundImageFix"/>
<feColorMatrix in="SourceAlpha" type="matrix" values="0 0 0 0 0 0 0 0 0 0 0 0 0 0 0 0 0 0 127 0" result="hardAlpha"/>
<feOffset/>
<feGaussianBlur stdDeviation="2"/>
<feComposite in2="hardAlpha" operator="out"/>
<feColorMatrix type="matrix" values="0 0 0 0 0 0 0 0 0 0 0 0 0 0 0 0 0 0 0.25 0"/>
<feBlend mode="normal" in2="BackgroundImageFix" result="effect1_dropShadow_81_8814"/>
<feBlend mode="normal" in="SourceGraphic" in2="effect1_dropShadow_81_8814" result="shape"/>
</filter>
<clipPath id="clip0_81_8814">
<rect width="52" height="53" fill="white" transform="translate(33 16)"/>
</clipPath>
</defs>
</svg>
