<svg width="108" height="188" viewBox="0 0 108 188" fill="none" xmlns="http://www.w3.org/2000/svg">
<g filter="url(#filter0_d_75_4977)">
<rect x="104" y="184" width="100" height="180" rx="50" transform="rotate(180 104 184)" fill="url(#paint0_linear_75_4977)"/>
<rect x="103" y="183" width="98" height="178" rx="49" transform="rotate(180 103 183)" stroke="#FBFBFB" stroke-width="2"/>
</g>
<path opacity="0.11" d="M35.9606 84.3278L46.0858 74.5347C46.5644 73.9867 47.3776 73.8968 47.9622 74.3275L75.0927 92.6414C75.759 93.1323 76.2089 94.7866 74.9142 96.094L64.9371 107.521C64.4585 108.069 63.6453 108.158 63.0606 107.728L36.3338 88.04C35.382 87.0788 34.7249 85.5756 35.9606 84.3278Z" fill="black"/>
<path d="M33.7696 76.8303L43.8948 67.0372C44.3734 66.4891 45.1866 66.3993 45.7713 66.8299L72.9017 85.1439C73.5681 85.6348 74.0179 87.289 72.7233 88.5964L62.7461 100.023C62.2675 100.571 61.4543 100.661 60.8697 100.23L34.1428 80.5424C33.191 79.5813 32.5341 78.0781 33.7696 76.8303Z" fill="#8466BB"/>
<path d="M61.6959 100.575C61.3943 100.575 61.0904 100.481 60.8277 100.287L34.1011 80.5995C33.5503 80.0445 33.1859 79.4107 33.0668 78.8076C32.9194 78.0615 33.1452 77.3603 33.7196 76.7803L33.7208 76.7793L43.8459 66.9862C44.3473 66.4115 45.1944 66.3179 45.812 66.7729L72.9402 85.0851C73.3045 85.3536 73.5679 85.9083 73.6134 86.5006C73.6732 87.2763 73.3744 88.0384 72.7722 88.6466L62.7982 100.07C62.5075 100.403 62.1039 100.575 61.6959 100.575ZM33.8183 76.8808C33.2711 77.4336 33.0644 78.0725 33.2042 78.78C33.318 79.356 33.6688 79.9642 34.1919 80.4924L60.9104 100.173C61.4689 100.585 62.2355 100.5 62.6931 99.9761L72.6703 88.5497C73.2459 87.9681 73.5303 87.2453 73.4737 86.5116C73.4311 85.9589 73.1903 85.4445 72.8599 85.2011L45.7318 66.8887C45.1708 66.4756 44.4043 66.5601 43.9469 67.084L33.8183 76.8808Z" fill="#333333"/>
<path d="M33.9181 76.6244L43.8953 65.1978C44.3738 64.6498 45.1871 64.5599 45.7717 64.9906L72.4984 84.6785C73.1647 85.1694 73.2691 86.1324 72.7236 86.7572L62.7464 98.1838C62.2679 98.7318 61.4546 98.8217 60.87 98.391L36.4104 80.3732L34.1433 78.7031C33.4769 78.2122 33.3726 77.249 33.9181 76.6244Z" fill="white"/>
<path d="M38.7546 83.5893L37.5457 82.7212C37.4003 82.6169 37.314 82.4477 37.314 82.2675V81.8417C37.314 81.6814 37.4931 81.588 37.6225 81.6809L38.7542 82.4935C38.9164 82.61 39.0126 82.7985 39.0126 82.9995V83.4547C39.0125 83.5887 38.8627 83.6669 38.7546 83.5893Z" fill="#42335E"/>
<path d="M44.8128 87.9883L40.4055 84.8081C40.2461 84.6931 40.1514 84.5073 40.1514 84.3094V83.9547C40.1514 83.777 40.3503 83.6736 40.4936 83.7769L44.8484 86.919C44.9858 87.0182 45.0674 87.1782 45.0674 87.3488V87.856C45.0674 87.9883 44.9194 88.0651 44.8128 87.9883Z" fill="#42335E"/>
<path d="M67.3288 94.3792L68.4511 93.0947C68.586 92.9404 68.6604 92.7416 68.6604 92.5358V92.0976C68.6604 91.9796 68.5158 91.9243 68.4385 92.0129L67.1942 93.4371C67.1234 93.518 67.0845 93.6223 67.0845 93.7302V94.2859C67.0843 94.4158 67.2436 94.4766 67.3288 94.3792Z" fill="#42335E"/>
<path d="M66.4786 94.8625C66.4786 94.7572 66.3929 94.7142 66.2874 94.7663C66.1818 94.8184 66.0962 94.945 66.0962 95.0493C66.0962 95.1535 66.1818 95.1966 66.2874 95.1455C66.3929 95.0943 66.4786 94.9676 66.4786 94.8625Z" fill="#42335E"/>
<path d="M70.7276 90.0055C70.7276 89.9003 70.642 89.8572 70.5364 89.9093C70.4309 89.9615 70.3452 90.0881 70.3452 90.1924C70.3452 90.2966 70.4309 90.3397 70.5364 90.2885C70.6421 90.2375 70.7276 90.1108 70.7276 90.0055Z" fill="#42335E"/>
<path d="M71.2618 89.4328C71.2618 89.3275 71.1761 89.2845 71.0706 89.3366C70.965 89.3887 70.8794 89.5155 70.8794 89.6196C70.8794 89.7239 70.965 89.7669 71.0706 89.7158C71.1761 89.6646 71.2618 89.538 71.2618 89.4328Z" fill="#42335E"/>
<path d="M71.7901 88.8571C71.7901 88.7518 71.7045 88.7088 71.5989 88.7609C71.4934 88.813 71.4077 88.9397 71.4077 89.0439C71.4077 89.1482 71.4934 89.1912 71.5989 89.1401C71.7046 89.089 71.7901 88.9623 71.7901 88.8571Z" fill="#42335E"/>
<path d="M72.272 88.2824C72.272 88.1771 72.1864 88.1341 72.0808 88.1862C71.9753 88.2383 71.8896 88.365 71.8896 88.4692C71.8896 88.5735 71.9753 88.6165 72.0808 88.5654C72.1864 88.5144 72.272 88.3876 72.272 88.2824Z" fill="#42335E"/>
<path d="M39.2301 77.4109C39.086 76.5733 39.325 75.7241 39.9471 74.8626L42.2358 71.6943L44.159 73.1111L41.912 76.2218C41.6067 76.6442 41.4595 77.0064 41.4703 77.3086C41.4809 77.6108 41.6276 77.8657 41.91 78.0738C42.1925 78.2819 42.4777 78.345 42.766 78.263C43.0541 78.1811 43.3507 77.929 43.6559 77.5064L45.903 74.3956L47.7936 75.7883L45.5049 78.9566C44.8828 79.8179 44.1548 80.3071 43.3211 80.4243C42.4874 80.5414 41.6331 80.2778 40.7584 79.6336C39.8835 78.9892 39.3743 78.2483 39.2301 77.4109Z" fill="#42335E"/>
<path d="M48.6753 76.438L50.5986 77.8547L46.4374 83.6152L44.5142 82.1985L48.6753 76.438Z" fill="#42335E"/>
<path d="M50.9162 86.0198C50.772 85.1824 51.011 84.333 51.6332 83.4715L53.9218 80.3032L55.8452 81.7199L53.598 84.8307C53.2928 85.2531 53.1455 85.6153 53.1563 85.9175C53.167 86.2197 53.3136 86.4746 53.5961 86.6827C53.8785 86.8908 54.1638 86.9539 54.4519 86.8719C54.7401 86.7899 55.0368 86.5378 55.342 86.1153L57.589 83.0047L59.4797 84.3973L57.1908 87.5656C56.5687 88.4271 55.8407 88.9163 55.007 89.0334C54.1731 89.1504 53.319 88.8869 52.4443 88.2426C51.5697 87.598 51.0603 86.8573 50.9162 86.0198Z" fill="#42335E"/>
<path d="M59.7297 93.4073L59.8552 91.1421L57.7819 91.9726L55.5898 90.3577L59.75 88.9716L59.8244 84.6514L61.9839 86.2421L61.9074 88.4048L63.899 87.6529L65.9688 89.1775L61.9792 90.5003L61.9298 95.0282L59.7297 93.4073Z" fill="#42335E"/>
<path opacity="0.37" d="M58.7783 86.8821L67.0606 77.5222C67.299 77.2527 67.7004 77.2081 67.9912 77.4187L72.4063 80.6178C72.7446 80.8629 72.7977 81.3502 72.5203 81.6638L64.238 91.0237C63.9996 91.2932 63.5982 91.3378 63.3074 91.1271L58.8924 87.9281C58.5539 87.683 58.5008 87.1957 58.7783 86.8821Z" fill="#1A1A1A"/>
<path opacity="0.37" d="M40.997 75.7609L49.2799 66.4001C49.5197 66.1292 49.9237 66.0857 50.2147 66.2996L58.9819 72.7466C59.3171 72.9929 59.3681 73.4776 59.0919 73.7897L50.809 83.1505C50.5693 83.4214 50.1652 83.4648 49.8742 83.2509L41.107 76.8039C40.772 76.5576 40.7209 76.0729 40.997 75.7609Z" fill="#1A1A1A"/>
<path d="M40.6304 73.7169L48.9133 64.3561C49.1531 64.0852 49.5571 64.0418 49.8481 64.2557L58.6153 70.7027C58.9505 70.9491 59.0015 71.4337 58.7253 71.7459L50.4424 81.1067C50.2027 81.3776 49.7986 81.421 49.5076 81.2071L40.7404 74.7601C40.4053 74.5137 40.3541 74.029 40.6304 73.7169Z" fill="#DA9FF9"/>
<path d="M49.9205 81.4139C49.7626 81.4139 49.6036 81.3646 49.4666 81.264L40.6993 74.8171C40.5236 74.6879 40.4097 74.4886 40.3866 74.2704C40.3636 74.0523 40.4336 73.8333 40.5783 73.6696L48.8614 64.3088C49.1263 64.0095 49.5682 63.9621 49.8895 64.1982L58.6567 70.6452C58.8325 70.7743 58.9462 70.9735 58.9694 71.1918C58.9923 71.41 58.9224 71.629 58.7777 71.7926L50.4948 81.1534C50.3429 81.325 50.1327 81.4139 49.9205 81.4139ZM40.6829 73.7638C40.5644 73.8976 40.5072 74.0769 40.5262 74.2554C40.5449 74.434 40.6382 74.5969 40.782 74.7026L49.5491 81.1496C49.8119 81.3428 50.1738 81.3038 50.3902 81.0592L58.6732 71.6984C58.7917 71.5646 58.8489 71.3853 58.83 71.2068C58.8112 71.0283 58.7179 70.8653 58.5743 70.7596L49.807 64.3126C49.5441 64.1192 49.1825 64.1582 48.9659 64.403L40.6829 73.7638Z" fill="#333333"/>
<path d="M49.3361 78.0034L52.0844 74.8975C52.1767 74.7932 52.3321 74.7765 52.444 74.8588L53.6794 75.7672C53.8108 75.8639 53.831 76.0542 53.7225 76.1765L53.4898 76.4394L52.2651 77.8236L51.5237 78.6615L50.9791 79.2769C50.8777 79.3915 50.7068 79.4099 50.5838 79.3195L49.3815 78.4354C49.2428 78.3333 49.2216 78.1325 49.3361 78.0034Z" fill="#B088F9"/>
<path d="M50.5448 78.3441C50.5116 78.3441 50.4783 78.3322 50.4515 78.3082C50.3938 78.2561 50.3889 78.1667 50.4404 78.1084L52.4067 75.8864C52.4581 75.8284 52.5467 75.8232 52.6045 75.8753C52.6622 75.9273 52.6672 76.0167 52.6156 76.075L50.6493 78.297C50.6217 78.3281 50.5833 78.3441 50.5448 78.3441Z" fill="white"/>
<path d="M52.9268 73.9546L55.6751 70.8486C55.7674 70.7444 55.9228 70.7277 56.0347 70.81L57.2701 71.7184C57.4015 71.815 57.4217 72.0053 57.3132 72.1277L57.0807 72.3906L55.8559 73.7747L55.1145 74.6127L54.57 75.228C54.4685 75.3426 54.2976 75.3609 54.1746 75.2705L52.9723 74.3865C52.8336 74.2845 52.8125 74.0839 52.9268 73.9546Z" fill="#B088F9"/>
<path d="M54.1347 74.2954C54.1015 74.2954 54.0681 74.2836 54.0414 74.2595C53.9836 74.2074 53.9787 74.118 54.0303 74.0598L55.9966 71.8376C56.048 71.7796 56.1367 71.7744 56.1944 71.8264C56.2521 71.8785 56.257 71.9679 56.2054 72.0262L54.2392 74.2482C54.2114 74.2795 54.1732 74.2954 54.1347 74.2954Z" fill="white"/>
<path d="M40.6304 73.7169L48.9133 64.3561C49.1531 64.0852 49.5571 64.0418 49.8481 64.2557L54.2885 67.5209L45.0673 77.9419L40.7404 74.7601C40.4053 74.5137 40.3541 74.029 40.6304 73.7169Z" fill="#8466BB"/>
<path d="M45.0775 78.0365L40.6993 74.8171C40.5236 74.6879 40.4097 74.4886 40.3866 74.2704C40.3636 74.0523 40.4336 73.8333 40.5783 73.6696L48.8614 64.3088C49.1263 64.0095 49.5682 63.9621 49.8895 64.1982L54.3925 67.5094L45.0775 78.0365ZM40.6829 73.7638C40.5644 73.8976 40.5072 74.0769 40.5262 74.2554C40.5449 74.434 40.6382 74.5969 40.782 74.7026L45.0576 77.8467L54.1849 67.5319L49.8072 64.3126C49.5442 64.1192 49.1826 64.1582 48.966 64.403L40.6829 73.7638Z" fill="#333333"/>
<path d="M50.5051 70.4431C51.4869 71.3314 51.6203 72.7723 50.7474 73.6623C49.8439 74.5532 48.2706 74.5562 47.2887 73.6677C46.3374 72.7787 46.3436 71.3348 47.2471 70.4439C48.1201 69.5539 49.5539 69.5541 50.5051 70.4431Z" fill="white"/>
<path d="M48.6972 74.3076C49.446 74.4034 50.2158 74.1898 50.7472 73.6623C51.2678 73.1351 51.4291 72.4153 51.2671 71.7311C50.7625 71.358 50.0563 71.3511 49.4558 71.676C49.4474 71.4396 49.3448 71.2021 49.151 71.0219C48.7758 70.6696 48.1954 70.6697 47.8458 71.0226C47.4915 71.3754 47.5013 71.9473 47.8766 72.2997C48.0705 72.4799 48.3231 72.5671 48.5717 72.5625C48.2485 73.1636 48.2773 73.8497 48.6972 74.3076Z" fill="#BEDCFA"/>
<path d="M49.0417 74.4002C48.9249 74.4002 48.8071 74.3927 48.689 74.3777L48.6637 74.3745L48.6465 74.3556C48.2405 73.913 48.1716 73.2453 48.4602 72.6292C48.2237 72.6091 48.0032 72.5127 47.8297 72.3514C47.6325 72.1662 47.522 71.9192 47.5182 71.6556C47.5144 71.3978 47.6136 71.1551 47.7974 70.972C48.1703 70.5955 48.7995 70.5944 49.1995 70.9699C49.3735 71.1317 49.484 71.3404 49.5169 71.5659C50.128 71.2742 50.8217 71.3132 51.3093 71.6739L51.3301 71.6891L51.3361 71.7145C51.5123 72.459 51.3161 73.1872 50.7977 73.7122C50.3522 74.1542 49.7142 74.4002 49.0417 74.4002ZM48.7323 74.2405C49.4791 74.3282 50.2125 74.0946 50.6988 73.6118C51.1758 73.1288 51.3599 72.4596 51.2055 71.7727C50.7369 71.4403 50.0665 71.4257 49.4896 71.7381L49.3906 71.7917L49.3865 71.6782C49.3784 71.4499 49.2782 71.2351 49.1042 71.0736C48.7587 70.7492 48.2167 70.7486 47.896 71.0723C47.7394 71.2284 47.655 71.4346 47.6581 71.6535C47.6614 71.8781 47.7562 72.0891 47.9249 72.2475C48.0987 72.4092 48.3265 72.4953 48.571 72.4916L48.6912 72.4893L48.6338 72.596C48.322 73.1759 48.3613 73.8182 48.7323 74.2405Z" fill="#333333"/>
<path d="M50.0453 75.7947C50.011 75.7947 49.9767 75.7821 49.9496 75.7565C49.8932 75.7032 49.8902 75.6136 49.943 75.5566L52.9012 72.3621C52.9541 72.3051 53.0428 72.3023 53.0993 72.3555C53.1557 72.4088 53.1587 72.4984 53.1059 72.5555L50.1477 75.75C50.1201 75.7796 50.0827 75.7947 50.0453 75.7947Z" fill="white"/>
<path d="M57.4346 83.2263L65.7168 73.8664C65.9553 73.5969 66.3566 73.5523 66.6475 73.763L71.0625 76.962C71.4008 77.2072 71.4539 77.6944 71.1765 78.0081L62.8943 87.368C62.6558 87.6375 62.2545 87.682 61.9636 87.4714L57.5486 84.2724C57.2101 84.0272 57.157 83.54 57.4346 83.2263Z" fill="#BEDCFA"/>
<path d="M62.3711 87.6752C62.215 87.6752 62.0579 87.6272 61.922 87.5289L57.5069 84.3299C57.3294 84.2013 57.214 84.002 57.1902 83.7828C57.1662 83.5635 57.236 83.3435 57.3814 83.1792L65.6638 73.8192C65.9269 73.5219 66.3671 73.4732 66.6876 73.7055L71.1026 76.9045C71.2802 77.0331 71.3956 77.2324 71.4194 77.4516C71.4434 77.6707 71.3736 77.8909 71.2282 78.0553L62.9458 87.4152C62.7941 87.5864 62.5835 87.6752 62.3711 87.6752ZM57.4861 83.2734C57.367 83.4079 57.31 83.588 57.3296 83.7673C57.3491 83.9465 57.4435 84.1098 57.5888 84.2149L62.0038 87.4139C62.2666 87.6042 62.6264 87.5639 62.8414 87.3208L71.1238 77.9609C71.2429 77.8263 71.2999 77.6462 71.2803 77.467C71.2608 77.2878 71.1663 77.1246 71.0213 77.0194L66.6061 73.8204C66.3437 73.6302 65.9836 73.6701 65.7686 73.9135L57.4861 83.2734Z" fill="#333333"/>
<path d="M62.2519 86.1604C62.0972 86.1604 61.9717 86.0336 61.9717 85.8774V82.2449C61.9717 82.0888 62.0972 81.962 62.2519 81.962H65.0126L64.725 79.8499C64.7139 79.7689 64.7382 79.6871 64.7914 79.6254C64.8447 79.5637 64.9217 79.5284 65.0027 79.5284H65.6316L65.8165 77.0749C65.8276 76.9274 65.9493 76.8135 66.0959 76.8135H69.0464C69.2012 76.8135 69.3266 76.9402 69.3266 77.0964C69.3266 77.2528 69.2012 77.3794 69.0464 77.3794H66.3555L66.1705 79.8328C66.1595 79.9804 66.0377 80.0943 65.8912 80.0943H65.3239L65.6115 82.2063C65.6226 82.2874 65.5984 82.3692 65.5451 82.4308C65.4919 82.4925 65.4148 82.5279 65.3339 82.5279H62.5319V85.8774C62.5321 86.0338 62.4067 86.1604 62.2519 86.1604Z" fill="#98ACF8"/>
<path d="M62.2516 86.2309C62.0584 86.2309 61.9014 86.0723 61.9014 85.8772V82.2447C61.9014 82.0498 62.0584 81.8911 62.2516 81.8911H64.9321L64.6554 79.8593C64.6415 79.7582 64.6718 79.6558 64.7383 79.5788C64.805 79.5017 64.9011 79.4576 65.0024 79.4576H65.5664L65.7463 77.0695C65.7602 76.8863 65.9135 76.7427 66.0956 76.7427H69.0462C69.2394 76.7427 69.3964 76.9014 69.3964 77.0964C69.3964 77.2913 69.2394 77.45 69.0462 77.45H66.4202L66.2402 79.8381C66.2263 80.0213 66.073 80.1649 65.8909 80.1649H65.4039L65.6806 82.1966C65.6945 82.2978 65.6642 82.4001 65.5977 82.4772C65.531 82.5541 65.4349 82.5984 65.3336 82.5984H62.6017V85.8772C62.6019 86.0723 62.4448 86.2309 62.2516 86.2309ZM62.2516 82.0325C62.1357 82.0325 62.0415 82.1277 62.0415 82.2447V85.8772C62.0415 85.9942 62.1357 86.0894 62.2516 86.0894C62.3675 86.0894 62.4618 85.9942 62.4618 85.8772V82.457H65.3337C65.3945 82.457 65.4523 82.4304 65.4922 82.3842C65.5321 82.338 65.5503 82.2767 65.5419 82.2159L65.2434 80.0235H65.8909C66 80.0235 66.0922 79.9373 66.1004 79.8274L66.2902 77.3086H69.0462C69.162 77.3086 69.2563 77.2134 69.2563 77.0964C69.2563 76.9794 69.162 76.8841 69.0462 76.8841H66.0956C65.9865 76.8841 65.8944 76.9703 65.8861 77.0802L65.696 79.599H65.0023C64.9415 79.599 64.8838 79.6256 64.8438 79.6718C64.8039 79.718 64.7857 79.7793 64.7941 79.8401L65.0926 82.0325H62.2516Z" fill="#333333"/>
<path d="M69.0458 77.5822C69.3111 77.5822 69.5262 77.3648 69.5262 77.0968C69.5262 76.8287 69.3111 76.6113 69.0458 76.6113C68.7805 76.6113 68.5654 76.8287 68.5654 77.0968C68.5654 77.3648 68.7805 77.5822 69.0458 77.5822Z" fill="#42335E"/>
<path d="M62.7718 86.0596C62.7718 86.3278 62.5568 86.5451 62.2914 86.5451C62.0261 86.5451 61.811 86.3278 61.811 86.0596C61.811 85.7915 62.0261 85.5742 62.2914 85.5742C62.5568 85.5742 62.7718 85.7915 62.7718 86.0596Z" fill="#42335E"/>
<path d="M66.1045 77.7782C66.4769 77.7782 66.7788 77.4732 66.7788 77.0969C66.7788 76.7206 66.4769 76.4155 66.1045 76.4155C65.7321 76.4155 65.4302 76.7206 65.4302 77.0969C65.4302 77.4732 65.7321 77.7782 66.1045 77.7782Z" fill="#DA9FF9"/>
<path d="M66.1042 77.849C65.6937 77.849 65.3599 77.5116 65.3599 77.0969C65.3599 76.6821 65.6937 76.3447 66.1042 76.3447C66.5147 76.3447 66.8485 76.6821 66.8485 77.0969C66.8485 77.5116 66.5147 77.849 66.1042 77.849ZM66.1042 76.4864C65.771 76.4864 65.5 76.7602 65.5 77.097C65.5 77.4336 65.771 77.7076 66.1042 77.7076C66.4373 77.7076 66.7084 77.4336 66.7084 77.097C66.7084 76.7602 66.4373 76.4864 66.1042 76.4864Z" fill="#333333"/>
<path d="M56.181 102.179L54.4822 101.05C54.3536 100.957 54.1761 100.976 54.0707 101.096L50.4089 105.234C50.2861 105.372 50.3097 105.588 50.4593 105.696L52.1581 106.826C52.2867 106.919 52.4642 106.899 52.5696 106.78L54.5749 104.514L55.8215 104.412L55.4249 103.553L56.2314 102.642C56.354 102.503 56.3305 102.288 56.181 102.179Z" fill="#42335E"/>
<path d="M55.8724 100.502L54.1736 99.3726C54.045 99.2794 53.8675 99.2992 53.7621 99.4183L50.1003 103.557C49.9776 103.695 50.0011 103.911 50.1507 104.019L51.8495 105.149C51.9781 105.242 52.1555 105.222 52.261 105.103L54.2663 102.837L55.5129 102.735L55.1163 101.876L55.9228 100.965C56.0454 100.826 56.0219 100.611 55.8724 100.502Z" fill="#98ACF8"/>
<path d="M52.03 105.278C51.9531 105.278 51.8756 105.254 51.8087 105.206L50.1122 104.078C50.0224 104.013 49.9656 103.915 49.9539 103.807C49.9422 103.699 49.9765 103.59 50.0482 103.509L53.7099 99.3709C53.8397 99.2244 54.0565 99.2003 54.2146 99.3149L55.9134 100.444C56.0008 100.508 56.0577 100.606 56.0694 100.714C56.0812 100.822 56.0469 100.93 55.9752 101.011L55.1993 101.888L55.619 102.797L54.3 102.905L52.3133 105.15C52.2385 105.234 52.1347 105.278 52.03 105.278ZM53.9925 99.3847C53.9264 99.3847 53.8614 99.4123 53.8144 99.4652L50.1527 103.604C50.1075 103.655 50.0858 103.723 50.0932 103.791C50.1006 103.859 50.1365 103.922 50.1917 103.961L51.8881 105.089C51.9904 105.163 52.127 105.148 52.2088 105.056L54.2328 102.768L55.4069 102.673L55.0331 101.864L55.8705 100.917C55.9158 100.866 55.9376 100.798 55.93 100.73C55.9226 100.662 55.8872 100.6 55.8327 100.56L54.1351 99.4316C54.0917 99.4 54.0417 99.3847 53.9925 99.3847Z" fill="#333333"/>
<path d="M51.558 104.079C51.5255 104.079 51.4927 104.068 51.4662 104.044C51.4078 103.993 51.4015 103.904 51.4524 103.845L53.5072 101.456C53.5579 101.396 53.6461 101.39 53.7048 101.441C53.7633 101.493 53.7694 101.582 53.7187 101.641L51.6639 104.03C51.6362 104.063 51.5972 104.079 51.558 104.079Z" fill="white"/>
<path d="M54.3954 100.243L54.1631 100.275V100.021C54.1631 99.9547 54.1097 99.9009 54.044 99.9009C53.9782 99.9009 53.9249 99.9547 53.9249 100.021V100.307L53.6608 100.343C53.5957 100.352 53.5499 100.413 53.5587 100.479C53.5668 100.539 53.618 100.583 53.6767 100.583C53.682 100.583 53.6873 100.583 53.6928 100.582L53.9249 100.55V100.794C53.9249 100.86 53.9783 100.914 54.044 100.914C54.1097 100.914 54.1631 100.86 54.1631 100.794V100.518L54.4272 100.482C54.4925 100.473 54.538 100.412 54.5293 100.346C54.5205 100.28 54.4602 100.234 54.3954 100.243Z" fill="#DA9FF9"/>
<path d="M54.0448 100.985C53.9404 100.985 53.8557 100.899 53.8557 100.793V100.631L53.7028 100.652C53.592 100.667 53.5039 100.591 53.49 100.488C53.4833 100.437 53.4964 100.387 53.5271 100.347C53.5578 100.306 53.6022 100.28 53.6524 100.273L53.8558 100.245V100.021C53.8558 99.9157 53.9405 99.8301 54.0449 99.8301C54.1493 99.8301 54.2341 99.9157 54.2341 100.021V100.194L54.3868 100.173C54.4364 100.166 54.4862 100.179 54.5264 100.21C54.5669 100.241 54.5928 100.286 54.5994 100.337C54.6063 100.387 54.5931 100.438 54.5624 100.478C54.5318 100.519 54.4873 100.545 54.4373 100.552L54.2339 100.58V100.794C54.2339 100.899 54.149 100.985 54.0448 100.985ZM53.9957 100.469V100.793C53.9957 100.821 54.0177 100.843 54.0448 100.843C54.0718 100.843 54.0938 100.821 54.0938 100.793V100.456L54.4186 100.411C54.4317 100.409 54.4432 100.403 54.4509 100.392C54.4589 100.382 54.4623 100.368 54.4606 100.355C54.4588 100.342 54.4519 100.331 54.4414 100.322C54.431 100.314 54.4186 100.311 54.4055 100.313H54.4054L54.0937 100.356V100.021C54.0937 99.9939 54.0717 99.9716 54.0446 99.9716C54.0176 99.9716 53.9956 99.9939 53.9956 100.021V100.369L53.6709 100.413C53.6578 100.415 53.6463 100.422 53.6384 100.432C53.6304 100.443 53.627 100.456 53.6287 100.469C53.6319 100.494 53.6528 100.512 53.6772 100.512L53.9957 100.469Z" fill="#333333"/>
<path d="M60.4229 69.0046L62.1003 67.0427C62.292 66.8184 62.6228 66.7816 62.8585 66.9583L65.2297 68.7363C65.4913 68.9324 65.5326 69.3116 65.3198 69.5606L63.6424 71.5224C63.4506 71.7467 63.1199 71.7835 62.8842 71.6068L60.513 69.8288C60.2514 69.6327 60.2101 69.2536 60.4229 69.0046Z" fill="#42335E"/>
<path d="M60.4229 65.9855L62.1003 64.0237C62.292 63.7993 62.6228 63.7625 62.8585 63.9392L65.2297 65.7173C65.4913 65.9134 65.5326 66.2925 65.3198 66.5415L63.6424 68.5033C63.4506 68.7277 63.1199 68.7645 62.8842 68.5878L60.513 66.8097C60.2514 66.6135 60.2101 66.2344 60.4229 65.9855Z" fill="#98ACF8"/>
<path d="M63.217 68.7688C63.086 68.7688 62.954 68.7281 62.8422 68.6442L60.4709 66.8661C60.3307 66.761 60.2393 66.6003 60.2201 66.425C60.2008 66.2497 60.2553 66.0725 60.3693 65.9389L62.0469 63.9771C62.2616 63.726 62.6364 63.6842 62.8999 63.882L65.2712 65.6601C65.4114 65.7652 65.5029 65.926 65.5221 66.1015C65.5413 66.2767 65.4868 66.4539 65.3728 66.5873L63.6952 68.5491C63.5715 68.6935 63.3949 68.7688 63.217 68.7688ZM60.4755 66.0313C60.3855 66.1367 60.3441 66.2709 60.3593 66.4093C60.3744 66.5477 60.4437 66.6695 60.5544 66.7524L62.9257 68.5304C63.1308 68.6842 63.4223 68.6515 63.5891 68.4566L65.2666 66.4948C65.3567 66.3894 65.3981 66.2552 65.3829 66.1169C65.3679 65.9785 65.2984 65.8567 65.1877 65.7737L62.8164 63.9956C62.6116 63.842 62.3199 63.8744 62.1531 64.0695L60.4755 66.0313Z" fill="#333333"/>
<path d="M61.9417 65.2991C61.6325 65.6667 61.6766 66.2181 62.0404 66.5305C62.4043 66.843 63.9867 67.0556 63.9867 67.0556C63.9867 67.0556 63.5242 65.5117 63.1604 65.1993C62.7966 64.8867 62.251 64.9314 61.9417 65.2991ZM62.8897 66.1133C62.7456 66.2848 62.4911 66.3056 62.3215 66.1599C62.1518 66.0143 62.1312 65.7572 62.2754 65.5857C62.4195 65.4143 62.674 65.3935 62.8436 65.5392C63.0133 65.6848 63.0339 65.9419 62.8897 66.1133Z" fill="#8466BB"/>
<path d="M64.085 67.1386L63.9773 67.1242C63.9117 67.1154 62.3701 66.9053 61.9949 66.5832C61.8047 66.4199 61.6888 66.1916 61.6687 65.9403C61.6485 65.6891 61.7265 65.4449 61.8882 65.2529C62.0497 65.0608 62.276 64.9438 62.5248 64.9234C62.7732 64.9036 63.0154 64.9819 63.2057 65.1451C63.5808 65.4671 64.0343 66.9698 64.0535 67.0336L64.085 67.1386ZM62.6016 65.0616C62.5798 65.0616 62.558 65.0625 62.536 65.0643C62.3244 65.0816 62.1324 65.181 61.9949 65.3443C61.8574 65.5076 61.7912 65.7153 61.8083 65.9287C61.8254 66.1424 61.9239 66.3363 62.0857 66.4753C62.3759 66.7244 63.5248 66.9137 63.8862 66.968C63.775 66.6164 63.4052 65.5018 63.1147 65.2526C62.97 65.1283 62.7897 65.0616 62.6016 65.0616ZM62.5817 66.3266C62.4696 66.3266 62.3624 66.2868 62.2758 66.2127C62.0772 66.0421 62.0529 65.7399 62.2219 65.5391C62.3909 65.3385 62.6897 65.3139 62.8889 65.4845C62.9853 65.5671 63.0437 65.6827 63.0541 65.8099C63.0643 65.9371 63.0248 66.0607 62.943 66.1581C62.8612 66.2554 62.7467 66.3145 62.6206 66.3249C62.6076 66.326 62.5946 66.3266 62.5817 66.3266ZM62.5826 65.5124C62.4882 65.5124 62.3944 65.5526 62.3286 65.6307C62.2097 65.772 62.2267 65.9846 62.3666 66.1049C62.5064 66.2248 62.7171 66.2077 62.8362 66.0665C62.9552 65.9252 62.9381 65.7126 62.7981 65.5923C62.7355 65.5387 62.6589 65.5124 62.5826 65.5124Z" fill="#333333"/>
<path d="M35.6358 62.2629L37.3131 60.301C37.5049 60.0767 37.8357 60.0399 38.0713 60.2166L40.4426 61.9946C40.7042 62.1907 40.7455 62.5699 40.5327 62.8189L38.8553 64.7807C38.6635 65.005 38.3328 65.0418 38.0971 64.8651L35.7258 63.0871C35.4643 62.891 35.423 62.5119 35.6358 62.2629Z" fill="#42335E"/>
<path d="M35.5278 60.6149L37.2052 58.6531C37.397 58.4287 37.7277 58.3919 37.9634 58.5686L40.3347 60.3467C40.5962 60.5428 40.6376 60.9219 40.4248 61.1709L38.7474 63.1327C38.5556 63.3571 38.2248 63.3939 37.9892 63.2172L35.6179 61.4391C35.3565 61.2429 35.315 60.8638 35.5278 60.6149Z" fill="#BEDCFA"/>
<path d="M38.3224 63.3986C38.1912 63.3987 38.0595 63.3578 37.9476 63.2739L35.5763 61.4959C35.4361 61.3908 35.3446 61.2299 35.3256 61.0546C35.3064 60.8793 35.3609 60.7022 35.475 60.5688L37.1524 58.607C37.3671 58.3559 37.7417 58.3141 38.0055 58.5119L40.3768 60.2898C40.517 60.3949 40.6085 60.5558 40.6275 60.7312C40.6467 60.9065 40.5922 61.0836 40.478 61.217L38.8005 63.1788C38.677 63.3233 38.5003 63.3986 38.3224 63.3986ZM37.6304 58.5285C37.492 58.5285 37.3546 58.5869 37.2585 58.6992L35.5811 60.6612C35.491 60.7666 35.4497 60.9007 35.465 61.0391C35.4801 61.1774 35.5493 61.2994 35.66 61.3823L38.0313 63.1603C38.2364 63.314 38.5279 63.2814 38.6948 63.0865L40.3723 61.1246C40.4624 61.0192 40.5037 60.8851 40.4885 60.7468C40.4734 60.6084 40.4042 60.4866 40.2935 60.4036L37.922 58.6254C37.835 58.5601 37.7324 58.5285 37.6304 58.5285Z" fill="#333333"/>
<path d="M37.9768 61.8839C38.5182 61.8839 38.9571 61.4404 38.9571 60.8934C38.9571 60.3463 38.5182 59.9028 37.9768 59.9028C37.4355 59.9028 36.9966 60.3463 36.9966 60.8934C36.9966 61.4404 37.4355 61.8839 37.9768 61.8839Z" fill="#B088F9"/>
<path d="M37.9766 61.9533C37.3974 61.9533 36.9263 61.4775 36.9263 60.8927C36.9263 60.3078 37.3974 59.832 37.9766 59.832C38.5557 59.832 39.0269 60.3078 39.0269 60.8927C39.0269 61.4775 38.5557 61.9533 37.9766 61.9533ZM37.9766 59.9736C37.4747 59.9736 37.0664 60.386 37.0664 60.8928C37.0664 61.3996 37.4747 61.812 37.9766 61.812C38.4784 61.812 38.8868 61.3997 38.8868 60.8928C38.8868 60.3859 38.4785 59.9736 37.9766 59.9736Z" fill="#333333"/>
<path d="M38.6102 61.0345H37.9766C37.9453 61.0345 37.9151 61.0241 37.8904 61.0047L37.4733 60.676C37.4124 60.6278 37.4015 60.5389 37.4491 60.4772C37.4967 60.4158 37.5847 60.4047 37.6458 60.4527L38.0249 60.7516H38.6104C38.6877 60.7516 38.7505 60.815 38.7505 60.8931C38.7505 60.9713 38.6876 61.0345 38.6102 61.0345Z" fill="#42335E"/>
<path d="M31.4337 90.152L33.1111 88.1902C33.3028 87.9658 33.6336 87.929 33.8693 88.1057L36.2405 89.8838C36.5021 90.0799 36.5434 90.459 36.3306 90.708L34.6532 92.6698C34.4614 92.8942 34.1307 92.931 33.895 92.7543L31.5238 90.9762C31.2622 90.78 31.2207 90.401 31.4337 90.152Z" fill="#42335E"/>
<path d="M31.1187 89.3122L32.7961 87.3504C32.9878 87.126 33.3186 87.0892 33.5543 87.2659L35.9255 89.0439C36.1871 89.24 36.2284 89.6192 36.0156 89.8682L34.3382 91.83C34.1464 92.0544 33.8157 92.0911 33.58 91.9144L31.2088 90.1364C30.9472 89.9402 30.9059 89.561 31.1187 89.3122Z" fill="#8466BB"/>
<path d="M33.9138 92.0958C33.7827 92.0958 33.651 92.055 33.5391 91.9711L31.1678 90.1931C31.0275 90.088 30.9361 89.9271 30.9169 89.7518C30.8977 89.5767 30.9522 89.3995 31.0664 89.2659L32.7437 87.304C32.9582 87.0529 33.333 87.0116 33.5968 87.2091L35.9681 88.987C36.1083 89.0921 36.1998 89.2531 36.219 89.4284C36.2382 89.6035 36.1835 89.7807 36.0695 89.9144L34.392 91.8762C34.2684 92.0206 34.0917 92.0958 33.9138 92.0958ZM33.2217 87.2257C33.0833 87.2257 32.946 87.2841 32.8499 87.3966L31.1725 89.3584C31.0825 89.4636 31.0413 89.5979 31.0563 89.7363C31.0714 89.8746 31.1406 89.9964 31.2513 90.0795L33.6226 91.8575C33.8275 92.0112 34.1191 91.9789 34.2861 91.7837L35.9636 89.8218C36.0537 89.7166 36.095 89.5823 36.0799 89.444C36.0647 89.3055 35.9955 89.1837 35.8847 89.1006L33.5134 87.3227C33.4263 87.2575 33.3237 87.2257 33.2217 87.2257Z" fill="#333333"/>
<path d="M32.2632 90.0124L33.7192 88.3096L35.0239 89.2965L33.568 90.9991L32.2632 90.0124Z" fill="white"/>
<path d="M32.2624 90.0843C32.2305 90.0843 32.2016 90.0621 32.1942 90.0292C32.1855 89.9911 32.209 89.9532 32.2469 89.9444L33.7376 89.5999L33.6485 88.3146C33.6457 88.2757 33.6749 88.2417 33.7134 88.239C33.7525 88.2359 33.7855 88.2656 33.7882 88.3047L33.8817 89.6504C33.8842 89.6852 33.8611 89.7166 33.8274 89.7243L32.2781 90.0823C32.2728 90.0839 32.2676 90.0843 32.2624 90.0843Z" fill="#42335E"/>
<path d="M40.7246 87.0624L43.0447 84.3489C43.2365 84.1245 43.5673 84.0877 43.8029 84.2644L47.0466 86.6966C47.3082 86.8927 47.3495 87.2719 47.1367 87.5209L44.8165 90.2343C44.6247 90.4587 44.294 90.4955 44.0583 90.3188L40.8147 87.8866C40.5532 87.6904 40.5118 87.3112 40.7246 87.0624Z" fill="#42335E"/>
<path d="M40.7246 86.3154L43.2612 83.2888C43.453 83.0645 43.7837 83.0277 44.0194 83.2044L47.263 85.6366C47.5246 85.8327 47.5659 86.2118 47.3531 86.4608L44.8165 89.4874C44.6247 89.7117 44.294 89.7485 44.0583 89.5718L40.8147 87.1396C40.5532 86.9435 40.5118 86.5644 40.7246 86.3154Z" fill="#DA9FF9"/>
<path d="M44.3913 89.7533C44.2603 89.7533 44.1284 89.7126 44.0166 89.6287L40.7731 87.1966C40.6329 87.0914 40.5414 86.9305 40.5223 86.7552C40.5031 86.5801 40.5576 86.4031 40.6715 86.2695L43.2079 83.2431C43.423 82.9917 43.7975 82.9497 44.0613 83.1476L47.305 85.5797C47.4452 85.6848 47.5367 85.8457 47.5558 86.021C47.575 86.1963 47.5205 86.3734 47.4063 86.5069L44.8702 89.5331C44.7463 89.6781 44.5693 89.7533 44.3913 89.7533ZM43.6863 83.1643C43.5479 83.1643 43.4104 83.2228 43.3143 83.3352L40.7777 86.3618C40.6877 86.467 40.6463 86.6011 40.6614 86.7397C40.6766 86.878 40.7458 87 40.8566 87.083L44.1001 89.5151C44.3052 89.6689 44.5965 89.6365 44.7636 89.4411L47.2997 86.415C47.3902 86.3091 47.4315 86.175 47.4164 86.0365C47.4012 85.8982 47.3319 85.7764 47.2214 85.6933L43.9777 83.2612C43.8908 83.196 43.7883 83.1643 43.6863 83.1643Z" fill="#333333"/>
<path d="M45.1091 87.5029C45.0937 87.5185 45.075 87.5305 45.0538 87.5379C44.9971 87.558 43.6597 88.0161 42.804 87.1519C42.5054 86.8505 42.5054 86.3601 42.804 86.0588C42.9836 85.8774 43.231 85.8052 43.4644 85.842C43.428 85.6063 43.4997 85.3562 43.6792 85.1748C43.9777 84.8734 44.4632 84.8734 44.7617 85.1748C45.6176 86.0391 45.1635 87.3896 45.1437 87.4469C45.1365 87.4684 45.1246 87.4874 45.1091 87.5029Z" fill="#BEDCFA"/>
<path d="M44.1751 87.7472C43.7226 87.7472 43.1814 87.6332 42.7542 87.2019C42.5966 87.0428 42.5098 86.8309 42.5098 86.6053C42.5098 86.3798 42.5966 86.1678 42.7542 86.0087C42.9209 85.8403 43.153 85.7506 43.3859 85.7629C43.3749 85.5267 43.4626 85.2934 43.6294 85.1247C43.9551 84.7957 44.4853 84.7957 44.8111 85.1247C45.6987 86.021 45.23 87.4115 45.2097 87.4702C45.1992 87.5009 45.1814 87.5295 45.1586 87.5527L45.1583 87.553C45.1352 87.5762 45.1069 87.5942 45.0763 87.6046C45.0465 87.6154 44.6619 87.7472 44.1751 87.7472ZM43.346 85.9034C43.1626 85.9034 42.9841 85.9765 42.8533 86.1087C42.7222 86.2411 42.6499 86.4175 42.6499 86.6053C42.6499 86.7931 42.7222 86.9694 42.8533 87.1018C43.6785 87.9353 44.9757 87.4905 45.0304 87.4711C45.0412 87.4673 45.051 87.461 45.0593 87.4528C45.0674 87.4445 45.0735 87.4346 45.0773 87.4237C45.0965 87.3681 45.5378 86.0589 44.7119 85.2248C44.4409 84.951 43.9996 84.951 43.7285 85.2248C43.572 85.3828 43.4991 85.6096 43.5333 85.831L43.548 85.9267L43.4532 85.9119C43.4177 85.9061 43.3817 85.9034 43.346 85.9034Z" fill="#333333"/>
<path opacity="0.37" d="M43.9871 94.911L51.3024 86.5514C51.5434 86.2761 51.9529 86.233 52.2448 86.452L55.2618 88.7143C55.5913 88.9613 55.6408 89.4401 55.3691 89.7506L53.4296 91.9669L51.6746 93.9725L49.1118 96.9011L48.0538 98.1101C47.8129 98.3855 47.4034 98.4287 47.1112 98.2096L44.0943 95.9473C43.765 95.7003 43.7154 95.2215 43.9871 94.911Z" fill="#1A1A1A"/>
<path d="M43.5604 93.58L50.8757 85.2204C51.1167 84.9451 51.5262 84.9018 51.8183 85.121L54.8353 87.3833C55.1648 87.6303 55.2142 88.1091 54.9426 88.4196L53.0031 90.6359L51.2481 92.6415L48.6853 95.5701L47.6274 96.7791C47.3865 97.0545 46.977 97.0976 46.6849 96.8786L43.6679 94.6163C43.3382 94.3693 43.2886 93.8905 43.5604 93.58Z" fill="#B088F9"/>
<path d="M47.103 97.0901C46.943 97.0901 46.7816 97.0393 46.6427 96.935L43.6257 94.6728C43.4529 94.5434 43.341 94.3452 43.3186 94.1289C43.2963 93.913 43.3651 93.6955 43.5076 93.5328L50.8229 85.1733C51.0899 84.8678 51.5354 84.8207 51.8596 85.0639L54.8766 87.3261C55.0493 87.4557 55.1613 87.6539 55.1837 87.8701C55.2059 88.0861 55.1372 88.3034 54.9947 88.4661L47.6794 96.8256C47.5269 96.9999 47.3161 97.0901 47.103 97.0901ZM51.3994 85.0506C51.2251 85.0506 51.0526 85.1243 50.9278 85.2671L43.6125 93.6266C43.4943 93.7617 43.4393 93.935 43.4578 94.1143C43.4765 94.2938 43.5657 94.4519 43.709 94.5594L46.726 96.8215C46.9911 97.0203 47.3559 96.9815 47.5743 96.732L54.8895 88.3724C55.0078 88.2373 55.0626 88.0642 55.0441 87.8848C55.0255 87.7054 54.9363 87.5474 54.7929 87.4397L51.7759 85.1775C51.6623 85.0924 51.5304 85.0506 51.3994 85.0506Z" fill="#333333"/>
<path d="M46.5271 94.3784C46.4613 94.3784 46.395 94.3551 46.3418 94.3076C46.2258 94.204 46.2148 94.0252 46.3174 93.9082L50.6352 88.974C50.7374 88.857 50.9145 88.8458 51.0307 88.9492C51.1467 89.0527 51.1576 89.2316 51.055 89.3486L46.7372 94.2828C46.6819 94.3462 46.6047 94.3784 46.5271 94.3784Z" fill="white"/>
<path d="M53.444 87.8602C53.357 87.7825 53.2244 87.7909 53.1475 87.8787L52.8449 88.2245C52.845 88.2235 52.845 88.2225 52.8451 88.2215C52.8467 88.2112 52.8477 88.201 52.8477 88.1908C52.8477 88.1853 52.8472 88.1799 52.8468 88.1746C52.8461 88.1647 52.8447 88.155 52.8426 88.1453C52.8419 88.1422 52.8421 88.1389 52.8412 88.1359L52.6327 87.3427C52.603 87.2294 52.488 87.162 52.3757 87.192C52.2634 87.2222 52.1968 87.3383 52.2265 87.4516L52.2807 87.6582L51.3671 86.9732C51.2739 86.903 51.1424 86.9228 51.0732 87.017C51.004 87.1111 51.0234 87.2439 51.1166 87.314L52.0025 87.9782H51.8039C51.6878 87.9782 51.5938 88.0733 51.5938 88.1904C51.5938 88.3076 51.6878 88.4026 51.8039 88.4026H52.6378C52.6426 88.4026 52.6469 88.4014 52.6517 88.4011C52.663 88.4004 52.6745 88.3997 52.6856 88.3971C52.6896 88.3961 52.6933 88.3941 52.6972 88.393L52.3842 88.7506C52.3074 88.8385 52.3156 88.9725 52.4026 89.0501C52.4425 89.0858 52.4922 89.1033 52.5417 89.1033C52.5998 89.1033 52.6577 89.0792 52.6993 89.0316L53.462 88.16C53.5393 88.0719 53.5312 87.9379 53.444 87.8602Z" fill="#DA9FF9"/>
<path d="M52.5427 89.1735C52.4743 89.1735 52.4085 89.1483 52.3572 89.1026C52.2415 88.9994 52.2305 88.8203 52.3327 88.7033L52.5343 88.4729H51.8049C51.6504 88.4729 51.5247 88.346 51.5247 88.19C51.5247 88.0385 51.6434 87.9143 51.7919 87.9073L51.0757 87.3703C51.0156 87.3253 50.9765 87.2592 50.9655 87.1844C50.9545 87.1097 50.973 87.035 51.0177 86.9744C51.0623 86.9136 51.1278 86.874 51.2018 86.8631C51.2758 86.8516 51.3496 86.8709 51.4097 86.9162L52.1623 87.4804L52.1594 87.4693C52.1197 87.3186 52.209 87.1633 52.3583 87.1233C52.5077 87.0835 52.6615 87.1735 52.701 87.3243L52.8946 88.061L53.0954 87.8316C53.145 87.775 53.2133 87.7411 53.2881 87.7366C53.3622 87.731 53.4348 87.7568 53.4909 87.8069C53.6066 87.9102 53.6175 88.0893 53.5154 88.2063L52.7525 89.0779C52.6997 89.1387 52.6231 89.1735 52.5427 89.1735ZM52.7534 88.4362L52.4377 88.7969C52.3866 88.8553 52.3921 88.945 52.4499 88.9965C52.5057 89.0466 52.5986 89.0405 52.6476 88.9842L53.4104 88.1126C53.4616 88.0542 53.4561 87.9645 53.3983 87.913C53.3702 87.8879 53.3341 87.8746 53.2968 87.8778C53.2594 87.8802 53.2252 87.897 53.2004 87.9253L52.7534 88.4362ZM51.8049 88.0485C51.7277 88.0485 51.6648 88.1119 51.6648 88.19C51.6648 88.2681 51.7277 88.3315 51.8049 88.3315H52.6388C52.6559 88.3295 52.6633 88.3293 52.6704 88.3278L52.764 88.2989L52.7761 88.2142C52.7775 88.2041 52.7782 88.1973 52.7782 88.1904C52.7771 88.1729 52.7761 88.1664 52.7748 88.1597L52.5658 87.3605C52.546 87.2851 52.4691 87.2401 52.3945 87.2601C52.3199 87.2802 52.2752 87.3577 52.2951 87.4332L52.4006 87.8353L51.3264 87.0298C51.2962 87.0071 51.2592 86.9972 51.2224 87.0032C51.1854 87.0085 51.1526 87.0285 51.1304 87.0589C51.1079 87.0893 51.0987 87.1267 51.1042 87.1639C51.1096 87.2014 51.1292 87.2343 51.1592 87.2568L52.2153 88.0487H51.8049V88.0485Z" fill="#333333"/>
<path d="M68.7444 86.0924L71.9529 82.4664C72.0452 82.362 72.2007 82.3448 72.3135 82.4264L74.0238 83.6657C74.1549 83.7606 74.1754 83.9495 74.0679 84.0709L70.8594 87.6969C70.767 87.8013 70.6116 87.8185 70.4988 87.7369L68.7885 86.4976C68.6574 86.4027 68.6368 86.2139 68.7444 86.0924Z" fill="#42335E"/>
<path d="M68.7673 84.8296L70.8797 82.4423L70.7274 81.5905L71.5449 81.6907L71.9758 81.2037C72.0681 81.0993 72.2236 81.0821 72.3363 81.1637L74.0466 82.403C74.1777 82.4979 74.1981 82.6868 74.0907 82.8082L70.8822 86.4342C70.7899 86.5386 70.6344 86.5558 70.5216 86.4742L68.8113 85.2349C68.6803 85.1398 68.6598 84.9511 68.7673 84.8296Z" fill="#DA9FF9"/>
<path d="M70.6802 86.5964C70.6111 86.5964 70.5414 86.5752 70.4811 86.5315L68.7708 85.2922C68.6921 85.2353 68.6409 85.147 68.6304 85.0498C68.6199 84.9528 68.6509 84.8551 68.7153 84.7823L70.805 82.4207L70.6419 81.5086L71.5171 81.6158L71.9237 81.1563C72.0401 81.0249 72.235 81.0027 72.3773 81.1059L74.0876 82.3453C74.1664 82.4021 74.2175 82.4906 74.228 82.5876C74.2385 82.6848 74.2077 82.7823 74.1432 82.8551L70.9349 86.481C70.8676 86.5571 70.7745 86.5964 70.6802 86.5964ZM70.8134 81.6723L70.9549 82.4637L68.8198 84.8766C68.7813 84.9204 68.7635 84.9762 68.7698 85.0344C68.7761 85.0924 68.8056 85.1433 68.8525 85.1773L70.5629 86.4166C70.647 86.4773 70.7617 86.4644 70.8304 86.3869L74.0387 82.761C74.0773 82.7173 74.0951 82.6613 74.0887 82.6033C74.0824 82.5452 74.053 82.4944 74.006 82.4604L72.2958 81.2211C72.2117 81.1603 72.0967 81.1733 72.0282 81.2508L71.5729 81.7654L70.8134 81.6723Z" fill="#333333"/>
<path d="M71.8533 83.5214C71.9873 83.6426 71.9743 83.878 71.8243 84.0472C71.6743 84.2163 71.4442 84.2551 71.3103 84.1339C71.1764 84.0126 71.1893 83.7772 71.3393 83.6081C71.4893 83.4388 71.7195 83.4 71.8533 83.5214Z" fill="#B088F9"/>
<path d="M71.502 84.2739C71.4136 84.2739 71.3297 84.2454 71.264 84.1859C71.1017 84.0388 71.1124 83.7584 71.2878 83.5605C71.3707 83.4669 71.4784 83.4047 71.5912 83.3858C71.7096 83.3664 71.8194 83.3951 71.9004 83.4686C72.0627 83.6155 72.0521 83.8961 71.8767 84.094C71.7721 84.2118 71.6323 84.2739 71.502 84.2739ZM71.6617 83.5214C71.6463 83.5214 71.6303 83.5228 71.6141 83.5255C71.5327 83.5392 71.4538 83.5851 71.3919 83.655C71.268 83.7946 71.2526 83.9856 71.3574 84.0806C71.4619 84.1751 71.6482 84.1393 71.7724 83.9995C71.8962 83.8599 71.9116 83.6689 71.8067 83.5739C71.7686 83.5394 71.7183 83.5214 71.6617 83.5214Z" fill="#333333"/>
<path d="M72.6751 82.5956C72.8091 82.7168 72.7961 82.9523 72.6461 83.1214C72.4961 83.2905 72.2659 83.3293 72.1321 83.2081C71.9982 83.0868 72.0111 82.8514 72.1611 82.6823C72.3111 82.513 72.5412 82.4742 72.6751 82.5956Z" fill="#B088F9"/>
<path d="M72.3234 83.3489C72.2326 83.3489 72.1501 83.3184 72.0858 83.2601C71.9236 83.113 71.9341 82.8326 72.1095 82.6348C72.2849 82.437 72.5597 82.3956 72.7223 82.5427C72.8846 82.6897 72.874 82.9703 72.6984 83.1682C72.6154 83.2618 72.5076 83.3239 72.395 83.3428C72.3708 83.347 72.3468 83.3489 72.3234 83.3489ZM72.4833 82.5952C72.3925 82.5952 72.291 82.642 72.2137 82.7292C72.0899 82.869 72.0746 83.0598 72.1794 83.1548C72.2279 83.1988 72.2966 83.2158 72.3719 83.2032C72.4533 83.1895 72.5323 83.1435 72.5942 83.0737C72.7181 82.9339 72.7336 82.7431 72.6287 82.6481C72.5892 82.6123 72.538 82.5952 72.4833 82.5952Z" fill="#333333"/>
<path d="M70.9954 84.4705C71.1293 84.5917 71.1164 84.8272 70.9664 84.9963C70.8164 85.1654 70.5862 85.2042 70.4524 85.083C70.3185 84.9617 70.3314 84.7263 70.4814 84.5572C70.6314 84.3881 70.8616 84.3492 70.9954 84.4705Z" fill="#B088F9"/>
<path d="M70.6443 85.2235C70.5559 85.2235 70.472 85.1949 70.4063 85.1355C70.3254 85.0621 70.2845 84.9552 70.2912 84.8339C70.2975 84.7187 70.3467 84.6036 70.4299 84.5099C70.513 84.4163 70.6207 84.3542 70.7334 84.3353C70.8518 84.3151 70.9617 84.3445 71.0426 84.418C71.1234 84.4913 71.1643 84.5984 71.1576 84.7195C71.1513 84.8346 71.1021 84.9499 71.0189 85.0434C70.9144 85.1612 70.7746 85.2235 70.6443 85.2235ZM70.8043 84.4708C70.7887 84.4708 70.7728 84.4722 70.7565 84.4749C70.6751 84.4886 70.5961 84.5347 70.5342 84.6044C70.4724 84.6742 70.4357 84.7586 70.4311 84.8419C70.4269 84.9193 70.4512 84.986 70.4998 85.0301C70.6045 85.125 70.7907 85.0885 70.9147 84.9489C70.9766 84.8791 71.0132 84.7949 71.0178 84.7116C71.022 84.6342 70.9976 84.5674 70.949 84.5233C70.911 84.4889 70.8606 84.4708 70.8043 84.4708Z" fill="#333333"/>
<path d="M26.3205 86.9761L27.5231 87.4612L28.3516 86.4561L28.2664 87.761L29.469 88.2461L28.2137 88.5674L28.1284 89.8724L27.4379 88.766L26.1826 89.0875L27.0112 88.0824L26.3205 86.9761Z" fill="#DA9FF9"/>
<path d="M28.1841 90.0944L27.4057 88.8475L25.9907 89.2097L26.9245 88.0767L26.1461 86.8299L27.5017 87.3767L28.4356 86.2437L28.3394 87.7147L29.695 88.2614L28.28 88.6237L28.1841 90.0944ZM27.47 88.6849L28.0727 89.6506L28.1471 88.5116L29.2428 88.2311L28.193 87.8076L28.2674 86.6688L27.5443 87.5459L26.4945 87.1226L27.0972 88.0882L26.374 88.9655L27.47 88.6849Z" fill="#333333"/>
<path d="M57.3982 57.2689L58.6008 57.7541L59.4294 56.749L59.3441 58.054L60.5468 58.539L59.2914 58.8604L59.2062 60.1653L58.5155 59.059L57.2603 59.3804L58.0888 58.3753L57.3982 57.2689Z" fill="#DA9FF9"/>
<path d="M59.2614 60.3868L58.4828 59.1398L57.0679 59.5021L58.0018 58.3692L57.2234 57.1223L58.5788 57.6691L59.5128 56.5361L59.4167 58.0069L60.7723 58.5537L59.3573 58.916L59.2614 60.3868ZM58.5473 58.9774L59.1501 59.943L59.2245 58.804L60.3201 58.5236L59.2705 58.1001L59.3447 56.9611L58.6217 57.8384L57.5719 57.415L58.1749 58.3805L57.4517 59.2578L58.5473 58.9774Z" fill="#333333"/>
<path d="M81.8322 72.4424L83.0349 72.9275L83.8633 71.9224L83.7781 73.2273L84.9807 73.7124L83.7255 74.0339L83.6403 75.3388L82.9496 74.2325L81.6943 74.5539L82.5229 73.5487L81.8322 72.4424Z" fill="#DA9FF9"/>
<path d="M83.6956 75.5606L82.9171 74.3136L81.502 74.676L82.4358 73.543L81.6575 72.2961L83.013 72.8429L83.9471 71.71L83.851 73.1809L85.2065 73.7277L83.7916 74.09L83.6956 75.5606ZM82.9814 74.1512L83.5842 75.1168L83.6586 73.9778L84.7542 73.6972L83.7046 73.2738L83.7788 72.1348L83.0558 73.0122L82.0059 72.5888L82.6089 73.5544L81.8857 74.4318L82.9814 74.1512Z" fill="#333333"/>
<path d="M64.5905 104.252L65.7931 104.737L66.6216 103.732L66.5364 105.037L67.739 105.522L66.4838 105.843L66.3984 107.148L65.7079 106.042L64.4526 106.363L65.2812 105.358L64.5905 104.252Z" fill="#DA9FF9"/>
<path d="M66.4544 107.37L65.6759 106.123L64.2607 106.485L65.1948 105.352L64.4163 104.105L65.7718 104.652L66.7059 103.519L66.6098 104.99L67.9653 105.537L66.5503 105.899L66.4544 107.37ZM65.7403 105.961L66.3431 106.926L66.4175 105.787L67.5131 105.507L66.4635 105.083L66.5377 103.944L65.8147 104.821L64.7648 104.398L65.3678 105.364L64.6446 106.241L65.7403 105.961Z" fill="#333333"/>
<path d="M26.3205 61.4253L27.5231 61.9104L28.3516 60.9053L28.2664 62.2102L29.469 62.6953L28.2137 63.0166L28.1284 64.3216L27.4379 63.2153L26.1826 63.5367L27.0112 62.5315L26.3205 61.4253Z" fill="#DA9FF9"/>
<path d="M28.1841 64.5435L27.4057 63.2966L25.9907 63.6589L26.9245 62.5259L26.1461 61.279L27.5017 61.8258L28.4356 60.6929L28.3394 62.1636L29.695 62.7104L28.28 63.0727L28.1841 64.5435ZM27.47 63.1343L28.0727 64.0998L28.1471 62.9608L29.2428 62.6803L28.193 62.2569L28.2674 61.1179L27.5443 61.9951L26.4945 61.5717L27.0972 62.5373L26.374 63.4147L27.47 63.1343Z" fill="#333333"/>
<path opacity="0.11" d="M17.1781 83.466L26.9147 72.2785C27.1532 72.009 27.5546 71.9644 27.8454 72.1751L32.2604 75.3741C32.5987 75.6193 32.6518 76.1065 32.3743 76.4202L22.6377 87.6076C22.3993 87.8771 21.9979 87.9217 21.707 87.7111L17.292 84.512C16.9538 84.2669 16.9007 83.7795 17.1781 83.466Z" fill="black"/>
<path d="M19.7069 78.2624L29.4435 67.0749C29.682 66.8054 30.0834 66.7608 30.3742 66.9715L34.7892 70.1705C35.1276 70.4157 35.1807 70.903 34.9031 71.2165L25.1665 82.404C24.9281 82.6735 24.5267 82.7181 24.2359 82.5074L19.8208 79.3084C19.4826 79.0634 19.4295 78.576 19.7069 78.2624Z" fill="#98ACF8"/>
<path d="M24.645 82.7112C24.4888 82.7112 24.3316 82.6632 24.1958 82.5647L19.7808 79.3657C19.6035 79.2373 19.488 79.0379 19.4641 78.8187C19.4402 78.5995 19.5099 78.3795 19.6554 78.2151L29.3916 67.0279C29.6551 66.7306 30.0953 66.6816 30.4159 66.9138L34.8309 70.1128C35.0082 70.2412 35.1237 70.4406 35.1476 70.6599C35.1715 70.879 35.1017 71.099 34.9563 71.2634L25.2201 82.4504C25.0682 82.6223 24.8575 82.7112 24.645 82.7112ZM29.9666 66.9092C29.7927 66.9092 29.6205 66.982 29.4965 67.122L19.7601 78.3095C19.641 78.444 19.584 78.624 19.6035 78.8034C19.6231 78.9828 19.7174 79.1457 19.8626 79.251L24.2777 82.45C24.5399 82.6403 24.9001 82.6003 25.1153 82.3571L34.8515 71.17C34.9708 71.035 35.028 70.8551 35.0084 70.6757C34.9888 70.4963 34.8943 70.3333 34.7492 70.2281L30.3342 67.0291C30.2231 66.9484 30.0943 66.9092 29.9666 66.9092Z" fill="#333333"/>
<path d="M21.4671 78.1685L26.97 71.848C27.1602 71.6296 27.4834 71.5923 27.7175 71.7619L30.3023 73.6349C30.5716 73.8299 30.6153 74.217 30.3965 74.4683L24.8938 80.7888C24.7035 81.0072 24.3803 81.0445 24.1462 80.8749L21.5614 79.0019C21.2921 78.807 21.2484 78.4199 21.4671 78.1685Z" fill="#BEDCFA"/>
<path d="M24.4739 81.0525C24.3462 81.0525 24.2176 81.0132 24.106 80.9324L21.5213 79.0594C21.3768 78.9547 21.2825 78.7924 21.2624 78.6142C21.2422 78.4359 21.2979 78.2564 21.4153 78.1219L26.9181 71.8014C27.1331 71.5545 27.4947 71.513 27.7591 71.7045L30.3439 73.5774C30.4882 73.682 30.5826 73.8443 30.6028 74.0225C30.6229 74.2008 30.5672 74.3803 30.4499 74.515L24.947 80.8353C24.8228 80.9782 24.6493 81.0523 24.4739 81.0525ZM27.3913 71.726C27.2549 71.726 27.1201 71.7837 27.0233 71.8947L21.5206 78.2152C21.4294 78.3201 21.3859 78.4596 21.4016 78.5982C21.4173 78.7368 21.4906 78.8632 21.6029 78.9445L24.1877 80.8175C24.3934 80.9666 24.6747 80.9344 24.8418 80.7421L30.3447 74.4217C30.4359 74.3169 30.4793 74.1773 30.4636 74.0386C30.448 73.9 30.3745 73.7738 30.2623 73.6924L27.6775 71.8195C27.5908 71.7565 27.4906 71.726 27.3913 71.726Z" fill="#333333"/>
<path d="M31.1839 68.8345L30.5512 68.9208V68.231C30.5512 68.0499 30.4059 67.9033 30.2268 67.9033C30.0476 67.9033 29.9023 68.0499 29.9023 68.231V69.0092L29.183 69.1073C29.0054 69.1316 28.8808 69.2967 28.9048 69.4758C28.9268 69.6403 29.0661 69.7596 29.2259 69.7596C29.2405 69.7596 29.2551 69.7586 29.2698 69.7568L29.9022 69.6705V70.333C29.9022 70.5141 30.0474 70.6606 30.2266 70.6606C30.4058 70.6606 30.5511 70.5141 30.5511 70.333V69.5819L31.2705 69.4837C31.4483 69.4594 31.5724 69.2943 31.5487 69.1152C31.5248 68.9362 31.3607 68.8099 31.1839 68.8345Z" fill="#8466BB"/>
<path d="M30.228 70.7316C30.0104 70.7316 29.8335 70.5528 29.8335 70.3332V69.7516L29.2804 69.827C29.061 69.8555 28.8653 69.6998 28.8366 69.4854C28.8076 69.2678 28.9593 69.0666 29.1748 69.0372L29.8335 68.9473V68.2309C29.8335 68.0112 30.0104 67.8325 30.228 67.8325C30.4456 67.8325 30.6225 68.0112 30.6225 68.2309V68.8397L31.1755 68.7643C31.2796 68.7498 31.3827 68.7773 31.4667 68.8415C31.5511 68.9062 31.6053 69 31.6196 69.1056C31.6484 69.3235 31.4967 69.5244 31.2814 69.5538L30.6227 69.6437V70.3329C30.6225 70.5528 30.4456 70.7316 30.228 70.7316ZM29.9736 69.5896V70.3331C29.9736 70.4747 30.0876 70.59 30.228 70.59C30.3684 70.59 30.4824 70.4747 30.4824 70.3331V69.5202L31.2625 69.4136C31.4013 69.3947 31.4992 69.2649 31.4806 69.1246C31.4715 69.0566 31.4365 68.996 31.3818 68.9543C31.3278 68.9127 31.2609 68.8953 31.1945 68.9043H31.1944L30.4823 69.0015V68.2308C30.4823 68.0892 30.3682 67.9739 30.2279 67.9739C30.0876 67.9739 29.9734 68.089 29.9734 68.2308V69.071L29.1935 69.1774C29.0546 69.1963 28.9566 69.3261 28.9754 69.4664C28.9939 69.6049 29.1224 69.7049 29.2619 69.6867L29.9736 69.5896Z" fill="#333333"/>
<path d="M27.0532 76.3184C27.7152 76.3184 28.2518 75.7764 28.2518 75.1079C28.2518 74.4394 27.7152 73.8975 27.0532 73.8975C26.3912 73.8975 25.8545 74.4394 25.8545 75.1079C25.8545 75.7764 26.3912 76.3184 27.0532 76.3184Z" fill="#DA9FF9"/>
<path d="M27.0529 76.3892C26.3533 76.3892 25.7842 75.8144 25.7842 75.1078C25.7842 74.4013 26.3534 73.8267 27.0529 73.8267C27.7525 73.8267 28.3216 74.4015 28.3216 75.1078C28.3216 75.8144 27.7525 76.3892 27.0529 76.3892ZM27.0529 73.9683C26.4306 73.9683 25.9243 74.4796 25.9243 75.108C25.9243 75.7364 26.4306 76.2478 27.0529 76.2478C27.6752 76.2478 28.1815 75.7366 28.1815 75.108C28.1815 74.4794 27.6752 73.9683 27.0529 73.9683Z" fill="#333333"/>
<path d="M25.2348 78.7177C25.8537 78.4808 26.1653 77.7819 25.9306 77.1569C25.6959 76.5318 25.0039 76.2172 24.3849 76.4542C23.7659 76.6912 23.4544 77.39 23.6891 78.0151C23.9238 78.6401 24.6158 78.9547 25.2348 78.7177Z" fill="#DA9FF9"/>
<path d="M24.8107 78.8682C24.1111 78.8682 23.542 78.2934 23.542 77.587C23.542 76.8805 24.1112 76.3057 24.8107 76.3057C25.5104 76.3057 26.0796 76.8805 26.0796 77.587C26.0796 78.2935 25.5104 78.8682 24.8107 78.8682ZM24.8107 76.4473C24.1884 76.4473 23.6821 76.9586 23.6821 77.5871C23.6821 78.2157 24.1884 78.7268 24.8107 78.7268C25.433 78.7268 25.9395 78.2156 25.9395 77.5871C25.9395 76.9587 25.4332 76.4473 24.8107 76.4473Z" fill="#333333"/>
<path d="M27.3635 75.672C27.2861 75.672 27.2234 75.6086 27.2234 75.5304V74.8583L26.5599 74.9911C26.4834 75.0061 26.4103 74.9564 26.3953 74.8796C26.3803 74.8029 26.4296 74.7285 26.5055 74.7133L27.3364 74.5471C27.3776 74.5389 27.4202 74.5498 27.4526 74.5766C27.4851 74.6035 27.5037 74.6437 27.5037 74.686V75.5304C27.5036 75.6087 27.4408 75.672 27.3635 75.672Z" fill="white"/>
<path d="M24.5128 77.0234C24.5901 77.0234 24.6529 77.0869 24.6529 77.165V77.8372L25.3164 77.7044C25.3929 77.6894 25.466 77.739 25.481 77.8158C25.4961 77.8925 25.4467 77.967 25.3707 77.9821L24.5398 78.1483C24.4986 78.1565 24.4561 78.1456 24.4237 78.1189C24.3913 78.092 24.3726 78.0518 24.3726 78.0094V77.165C24.3727 77.0869 24.4355 77.0234 24.5128 77.0234Z" fill="white"/>
<path opacity="0.11" d="M70.2604 101.883L73.227 98.343C73.4513 98.0807 73.8381 98.0376 74.1137 98.2443L77.9071 101.089C78.2129 101.318 78.2614 101.761 78.0124 102.053L75.0459 105.592C74.8216 105.855 74.4348 105.898 74.1591 105.691L70.3657 102.847C70.06 102.617 70.0115 102.174 70.2604 101.883Z" fill="black"/>
<path d="M69.1974 99.6888L72.164 96.1492C72.3883 95.8868 72.7751 95.8438 73.0507 96.0504L76.8442 98.8948C77.15 99.1242 77.1985 99.5675 76.9496 99.8587L73.983 103.398C73.7587 103.661 73.3719 103.704 73.0962 103.497L69.3028 100.653C68.997 100.423 68.9485 99.9799 69.1974 99.6888Z" fill="#DA9FF9"/>
<path d="M73.4848 103.697C73.3339 103.697 73.1823 103.65 73.0537 103.554L69.2603 100.709C69.0989 100.589 68.9937 100.403 68.9716 100.201C68.9497 99.9998 69.0122 99.7964 69.1433 99.6429L72.1097 96.1034C72.357 95.8142 72.7882 95.7658 73.0917 95.9936L76.8851 98.8379C77.0465 98.9589 77.1517 99.1439 77.1737 99.3457C77.1957 99.5474 77.1331 99.7511 77.0018 99.9049L74.0356 103.444C73.8932 103.611 73.6896 103.697 73.4848 103.697ZM72.6602 95.9915C72.4949 95.9915 72.3308 96.0612 72.2162 96.1955L69.2495 99.7351C69.1421 99.8608 69.0927 100.021 69.1108 100.186C69.1289 100.351 69.2116 100.497 69.3437 100.596L73.1371 103.44C73.3821 103.624 73.73 103.585 73.9289 103.352L76.895 99.813C77.003 99.6866 77.0524 99.5265 77.0343 99.3612C77.0162 99.1961 76.9336 99.0507 76.8014 98.9515L73.008 96.1072C72.9042 96.0292 72.7818 95.9915 72.6602 95.9915Z" fill="#333333"/>
<path d="M73.4742 101.689C74.5214 101.464 75.1898 100.424 74.9671 99.3665C74.7444 98.309 73.7149 97.634 72.6677 97.8589C71.6204 98.0838 70.952 99.1234 71.1747 100.181C71.3974 101.238 72.4269 101.913 73.4742 101.689Z" fill="#8466BB"/>
<path d="M73.0732 101.802C71.9656 101.802 71.0645 100.892 71.0645 99.7741C71.0645 98.6556 71.9656 97.7456 73.0732 97.7456C74.1806 97.7456 75.0817 98.6556 75.0817 99.7741C75.0817 100.892 74.1808 101.802 73.0732 101.802ZM73.0732 97.8871C72.0429 97.8871 71.2046 98.7335 71.2046 99.7741C71.2046 100.814 72.0428 101.661 73.0732 101.661C74.1034 101.661 74.9416 100.814 74.9416 99.7741C74.9416 98.7335 74.1034 97.8871 73.0732 97.8871Z" fill="#333333"/>
<path d="M73.757 98.9098L72.0532 99.3711C71.9489 99.3993 71.9141 99.531 71.9904 99.608L73.2377 100.868C73.3139 100.945 73.4442 100.91 73.4721 100.805L73.9286 99.0832C73.9567 98.9779 73.8613 98.8815 73.757 98.9098Z" fill="white"/>
<path d="M33.8915 100.978L37.413 96.8057C37.6309 96.5509 38.0065 96.509 38.2742 96.7098L40.9674 98.7292C41.2644 98.9519 41.3115 99.3825 41.0697 99.6652L37.5482 103.837C37.3304 104.092 36.9548 104.134 36.687 103.933L33.9938 101.914C33.6968 101.691 33.6499 101.26 33.8915 100.978Z" fill="#42335E"/>
<path d="M33.4872 98.6495L37.0087 94.4776C37.2265 94.2228 37.6021 94.1809 37.8699 94.3816L40.563 96.401C40.86 96.6237 40.907 97.0544 40.6652 97.337L37.1437 101.509C36.9259 101.764 36.5503 101.806 36.2826 101.605L33.5893 99.5855C33.2926 99.3628 33.2455 98.9323 33.4872 98.6495Z" fill="#BEDCFA"/>
<path d="M36.6601 101.801C36.5131 101.801 36.3654 101.755 36.2401 101.661L33.547 99.6422C33.3898 99.5243 33.2874 99.3442 33.2659 99.1477C33.2445 98.9513 33.3054 98.7529 33.4332 98.6032L36.9546 94.4315C37.1955 94.15 37.6154 94.1032 37.9107 94.3246L40.6039 96.344C40.7611 96.4618 40.8635 96.6421 40.885 96.8384C40.9064 97.0351 40.8453 97.2334 40.7174 97.3831L37.1962 101.555C37.0577 101.717 36.8597 101.801 36.6601 101.801ZM37.4907 94.3261C37.3307 94.3261 37.1721 94.3938 37.061 94.5236L33.5395 98.6954C33.4355 98.8171 33.3878 98.9723 33.4053 99.1321C33.4227 99.2919 33.5028 99.4326 33.6306 99.5286L36.3238 101.548C36.5607 101.726 36.8974 101.688 37.0903 101.462L40.6115 97.2909C40.7159 97.1689 40.7635 97.0139 40.7461 96.854C40.7288 96.6941 40.6486 96.5534 40.5209 96.4574L37.8276 94.438C37.7269 94.3628 37.6085 94.3261 37.4907 94.3261Z" fill="#333333"/>
<path d="M38.245 98.6414C38.2084 98.6852 38.1559 98.7153 38.0951 98.7225L36.1427 98.951C36.0158 98.9659 35.901 98.874 35.8863 98.7456C35.8717 98.6175 35.9625 98.5014 36.0896 98.4864L38.042 98.2579C38.1689 98.2431 38.2836 98.3349 38.2984 98.4633C38.3059 98.5303 38.2849 98.5939 38.245 98.6414Z" fill="#B088F9"/>
<path d="M36.1162 99.0235C35.9653 99.0235 35.8347 98.9088 35.8169 98.754C35.7979 98.5872 35.9166 98.4359 36.0817 98.4163L38.0341 98.1878C38.2003 98.1699 38.3489 98.2888 38.3683 98.4555C38.3778 98.5388 38.3526 98.6234 38.2988 98.6876C38.2492 98.7466 38.1798 98.7841 38.1036 98.7932L36.1511 99.0216C36.1393 99.0228 36.1278 99.0235 36.1162 99.0235ZM38.0687 98.3274C38.0626 98.3274 38.0564 98.3277 38.0501 98.3285L36.0978 98.557C36.0096 98.5674 35.9458 98.6485 35.9561 98.7375C35.9663 98.8269 36.0469 98.8933 36.1348 98.8808L38.0872 98.6523C38.128 98.6475 38.1653 98.6274 38.1917 98.596C38.2209 98.561 38.2342 98.517 38.229 98.4718C38.2195 98.3889 38.1496 98.3274 38.0687 98.3274Z" fill="#333333"/>
<path d="M36.9016 97.7829C37.4134 98.2208 37.4767 98.9948 37.0431 99.5116C36.6095 100.028 35.843 100.092 35.3313 99.6545C34.8195 99.2166 34.7562 98.4426 35.1898 97.9258C35.6234 97.409 36.3898 97.3451 36.9016 97.7829Z" fill="#B088F9"/>
<path d="M36.1143 100.016C35.8107 100.016 35.52 99.909 35.2859 99.7087C35.024 99.4846 34.8643 99.171 34.836 98.8258C34.8077 98.4804 34.9143 98.1446 35.1362 97.8803C35.358 97.6159 35.6685 97.4546 36.0106 97.426C36.3524 97.397 36.685 97.5051 36.9469 97.7292C37.2087 97.9531 37.3684 98.2668 37.3967 98.612C37.425 98.9573 37.3183 99.293 37.0965 99.5576C36.8747 99.822 36.5643 99.9833 36.2221 100.012C36.1861 100.015 36.1501 100.016 36.1143 100.016ZM36.1183 97.5631C36.0864 97.5631 36.0543 97.5644 36.0222 97.5671C35.7175 97.5925 35.4408 97.7361 35.2431 97.9717C35.0455 98.2072 34.9506 98.5063 34.9757 98.814C35.0009 99.1217 35.1431 99.401 35.3764 99.6006C35.6096 99.8004 35.9058 99.897 36.2105 99.8707C36.5152 99.8452 36.7918 99.7016 36.9894 99.4661C37.1871 99.2305 37.2821 98.9314 37.2569 98.6237C37.2317 98.316 37.0893 98.0368 36.8561 97.8371C36.6476 97.6586 36.3887 97.5631 36.1183 97.5631Z" fill="#333333"/>
<path d="M36.6022 98.1396C36.9189 98.4108 36.9582 98.8903 36.6897 99.2104C36.4213 99.5304 35.9468 99.5701 35.6301 99.2988C35.3133 99.0276 35.2741 98.5481 35.5425 98.2281C35.8109 97.908 36.2853 97.8683 36.6022 98.1396Z" fill="white"/>
<path d="M38.1356 96.293L37.7727 96.7779C37.6748 96.9088 37.4903 96.9346 37.3607 96.8356L36.8809 96.4688C36.7513 96.3699 36.7258 96.1834 36.8237 96.0525L37.1866 95.5676C37.2845 95.4367 37.469 95.4109 37.5986 95.5099L38.0784 95.8765C38.208 95.9758 38.2336 96.1621 38.1356 96.293Z" fill="#DA9FF9"/>
<path d="M37.5382 96.9663C37.4617 96.9663 37.3845 96.9421 37.3189 96.892L36.8391 96.5252C36.679 96.4029 36.6473 96.1717 36.7684 96.0098L37.1312 95.5249C37.1899 95.4465 37.2754 95.396 37.3716 95.3824C37.4682 95.3691 37.5637 95.3943 37.6413 95.4536L38.1211 95.8202C38.1986 95.8794 38.2488 95.9658 38.2621 96.0632C38.2754 96.1606 38.2505 96.2572 38.1919 96.3357L37.829 96.8205C37.7576 96.9161 37.6485 96.9663 37.5382 96.9663ZM37.4222 95.5205C37.4118 95.5205 37.4015 95.5213 37.391 95.5228C37.3317 95.5312 37.2792 95.5622 37.243 95.6104L36.8802 96.0953C36.8056 96.1948 36.8251 96.3371 36.9237 96.4124L37.4036 96.7792C37.5023 96.8545 37.6429 96.8345 37.7174 96.7352L38.0804 96.2503C38.1164 96.2022 38.1318 96.1426 38.1235 96.0827C38.1153 96.0227 38.0846 95.9696 38.0368 95.9331L37.557 95.5664C37.5176 95.5365 37.4707 95.5205 37.4222 95.5205Z" fill="#333333"/>
<path opacity="0.11" d="M80.159 87.2285L86.5438 79.8949C86.7644 79.6414 87.1396 79.5983 87.4111 79.795L90.4103 81.9682C90.7227 82.1946 90.7735 82.6436 90.5196 82.9352L84.1348 90.2688C83.9142 90.5223 83.539 90.5655 83.2675 90.3687L80.2683 88.1955C79.9559 87.9691 79.9051 87.5201 80.159 87.2285Z" fill="black"/>
<path d="M75.9559 86.4199L82.3407 79.0863C82.5613 78.8328 82.9365 78.7897 83.208 78.9865L86.2072 81.1596C86.5196 81.386 86.5703 81.835 86.3165 82.1266L79.9317 89.4602C79.711 89.7137 79.3359 89.7569 79.0644 89.5601L76.0652 87.3869C75.7527 87.1605 75.702 86.7115 75.9559 86.4199Z" fill="#8466BB"/>
<path d="M79.4437 89.7546C79.2978 89.7546 79.1509 89.7097 79.0237 89.6173L76.0245 87.4442C75.8594 87.3246 75.7517 87.1393 75.7287 86.9356C75.7058 86.732 75.7695 86.5268 75.9034 86.3729L82.2882 79.0393C82.5339 78.7572 82.9471 78.7098 83.2491 78.9287L86.248 81.1019C86.4131 81.2214 86.5208 81.4068 86.5438 81.6105C86.5668 81.8141 86.5032 82.0192 86.3692 82.1731L79.9844 89.5067C79.8424 89.6697 79.6442 89.7544 79.4437 89.7546ZM82.8288 78.9331C82.6676 78.9331 82.5079 79.0013 82.3934 79.1327L76.0085 86.4663C75.9006 86.5902 75.8492 86.7555 75.8678 86.9194C75.8863 87.0835 75.973 87.2328 76.1059 87.329L79.1051 89.5022C79.3487 89.6787 79.6813 89.6401 79.8791 89.4129L86.2637 82.0795C86.3718 81.9555 86.423 81.7903 86.4045 81.6262C86.3859 81.4621 86.299 81.3128 86.1662 81.2166L83.1673 79.0434C83.0649 78.9693 82.9464 78.9331 82.8288 78.9331Z" fill="#333333"/>
<path d="M85.551 81.5665C85.4827 81.4483 85.3327 81.4083 85.2157 81.4775L81.7155 83.5417L83.2157 79.7392C83.2657 79.6121 83.2045 79.4681 83.0785 79.4176C82.9526 79.3668 82.8101 79.4291 82.7601 79.5561L81.0276 83.9476L76.9853 86.3316C76.8684 86.4005 76.8289 86.5521 76.8973 86.6703C76.9428 86.7491 77.0248 86.7929 77.1093 86.7929C77.1513 86.7929 77.1939 86.782 77.2327 86.7591L80.7329 84.695L79.2327 88.4975C79.1827 88.6244 79.2439 88.7685 79.3699 88.8191C79.3996 88.831 79.4304 88.8367 79.4604 88.8367C79.5579 88.8367 79.6501 88.7777 79.6883 88.6808L81.4208 84.2893L85.4631 81.9054C85.5798 81.8361 85.6193 81.6846 85.551 81.5665Z" fill="#BEDCFA"/>
<path d="M79.4597 88.9068C79.4199 88.9068 79.3806 88.8992 79.3432 88.8843C79.1817 88.8192 79.1027 88.6336 79.1669 88.4708L80.5918 84.859L77.2673 86.8195C77.1224 86.905 76.9203 86.8512 76.8362 86.7052C76.7936 86.6318 76.782 86.546 76.8036 86.4639C76.8249 86.3817 76.8767 86.3128 76.9494 86.2699L80.9709 83.8982L82.6944 79.5294C82.7256 79.4504 82.7851 79.3883 82.8625 79.3548C82.9398 79.3213 83.0253 79.3197 83.104 79.3515C83.2654 79.4165 83.3445 79.6019 83.2802 79.7651L81.8553 83.3767L85.1798 81.4162C85.2525 81.3732 85.3374 81.3616 85.4185 81.3831C85.5001 81.4046 85.5683 81.4571 85.6109 81.5305C85.6535 81.6038 85.6651 81.6897 85.6435 81.7719C85.6222 81.8541 85.5705 81.923 85.4977 81.9658L81.4762 84.3374L79.7527 88.7062C79.7046 88.8282 79.5895 88.9068 79.4597 88.9068ZM80.8725 84.5296L79.2971 88.523C79.2614 88.6137 79.3054 88.7167 79.3951 88.7528C79.4833 88.7881 79.5877 88.7423 79.6225 88.6539L81.364 84.2399L85.4271 81.8437C85.4674 81.82 85.4962 81.7816 85.5081 81.7359C85.52 81.6902 85.5135 81.6426 85.4899 81.6018C85.4662 81.5609 85.4284 81.5316 85.383 81.5198C85.3376 81.508 85.2905 81.5144 85.2504 81.5382L81.5744 83.706L83.1498 79.7126C83.1855 79.622 83.1415 79.5189 83.052 79.4828C83.0082 79.4653 82.9608 79.466 82.918 79.4847C82.8749 79.5033 82.8417 79.5379 82.8245 79.5817L81.083 83.9958L77.0199 86.3921C76.9795 86.416 76.9508 86.4544 76.9389 86.4999C76.927 86.5456 76.9334 86.5932 76.9571 86.634C77.004 86.7148 77.116 86.7451 77.1967 86.6974L80.8725 84.5296Z" fill="#333333"/>
<path opacity="0.11" d="M82.7744 98.7213L84.738 96.3783C84.8865 96.2046 85.1426 96.1762 85.325 96.313L90.4921 100.441C90.6945 100.593 90.7266 100.886 90.5618 101.079L88.5982 103.422C88.4497 103.596 88.1936 103.624 88.0112 103.487L82.8442 99.3593C82.6417 99.2075 82.6096 98.9141 82.7744 98.7213Z" fill="black"/>
<path d="M82.7744 94.2062L84.738 91.8632C84.8865 91.6895 85.1426 91.661 85.325 91.7978L90.4921 95.9259C90.6945 96.0777 90.7266 96.3713 90.5618 96.564L88.5982 98.9069C88.4497 99.0806 88.1936 99.1091 88.0112 98.9723L82.8442 94.8442C82.6417 94.6924 82.6096 94.3988 82.7744 94.2062Z" fill="#DA9FF9"/>
<path d="M88.2682 99.1288C88.1634 99.1288 88.0582 99.0962 87.9688 99.0292L82.7999 94.8998C82.6895 94.8169 82.6164 94.6883 82.6011 94.5481C82.586 94.4082 82.6293 94.2669 82.7205 94.1604L84.6838 91.8175C84.856 91.6166 85.1554 91.5831 85.3661 91.7411L90.5349 95.8705C90.6453 95.9534 90.7183 96.082 90.7336 96.2221C90.7489 96.3621 90.7053 96.5036 90.614 96.6103L88.6509 98.9528C88.5519 99.0685 88.4105 99.1288 88.2682 99.1288ZM85.067 91.7825C84.9643 91.7825 84.862 91.8259 84.7903 91.9095L82.8267 94.2526C82.7598 94.3307 82.7293 94.4301 82.7405 94.5326C82.7517 94.6354 82.8031 94.7258 82.8852 94.7875L88.0541 98.9168C88.2044 99.0297 88.4207 99.0057 88.5446 98.8608L90.5076 96.5183C90.5749 96.4396 90.6055 96.34 90.5943 96.2376C90.5831 96.135 90.5319 96.0445 90.4498 95.9828L85.2809 91.8535C85.2174 91.8058 85.142 91.7825 85.067 91.7825Z" fill="#333333"/>
<path d="M88.8971 96.9155L85.8876 94.4704L87.3125 94.9608L87.4172 94.6514L84.5688 93.6714L86.1267 96.2708L86.4036 96.1016L85.6243 94.8013L88.6336 97.2463L88.8971 96.9155Z" fill="#98ACF8"/>
<path d="M88.6442 97.3455L85.8897 95.1076L86.4996 96.1252L86.103 96.3677L84.4092 93.5415L87.5059 94.6069L87.356 95.0503L86.2409 94.6665L88.9954 96.9043L88.6442 97.3455ZM85.3586 94.4943L88.6229 97.1464L88.7986 96.9258L85.534 94.2735L87.2688 94.8707L87.3282 94.6951L84.7283 93.8007L86.1503 96.1733L86.3072 96.0773L85.3586 94.4943Z" fill="#333333"/>
<path d="M72.2965 75.767L74.8331 72.7405C75.0249 72.5161 75.3556 72.4793 75.5913 72.656L78.8349 75.0883C79.0965 75.2843 79.1378 75.6635 78.925 75.9125L76.3884 78.939C76.1966 79.1634 75.8659 79.2002 75.6302 79.0235L72.3865 76.5913C72.125 76.395 72.0835 76.0159 72.2965 75.767Z" fill="#42335E"/>
<path d="M71.6978 73.5576L74.2344 70.531C74.4262 70.3066 74.757 70.2699 74.9926 70.4466L78.2363 72.8788C78.4979 73.0749 78.5392 73.454 78.3264 73.703L75.7898 76.7296C75.598 76.9539 75.2672 76.9907 75.0316 76.814L71.7879 74.3818C71.5264 74.1857 71.4849 73.8066 71.6978 73.5576Z" fill="#B088F9"/>
<path d="M75.3644 76.9955C75.2334 76.9955 75.1016 76.9547 74.9898 76.8708L71.7463 74.4388C71.606 74.3336 71.5147 74.1728 71.4955 73.9974C71.4763 73.8222 71.5308 73.6452 71.6447 73.5117L74.1809 70.4854C74.3962 70.2336 74.7711 70.1921 75.0343 70.3898L78.2779 72.822C78.4181 72.9271 78.5096 73.088 78.5288 73.2633C78.548 73.4385 78.4935 73.6157 78.3794 73.7491L75.8431 76.7752C75.7194 76.9201 75.5425 76.9955 75.3644 76.9955ZM74.6596 70.4065C74.5212 70.4065 74.3836 70.4649 74.2876 70.5774L71.7512 73.6039C71.6609 73.7093 71.6196 73.8434 71.6349 73.9818C71.65 74.12 71.7192 74.242 71.8299 74.325L75.0734 76.7571C75.2787 76.9109 75.5701 76.8782 75.7368 76.6832L78.2731 73.6571C78.3636 73.5513 78.4049 73.417 78.3898 73.2787C78.3747 73.1403 78.3053 73.0185 78.1946 72.9355L74.9511 70.5032C74.864 70.4382 74.7614 70.4065 74.6596 70.4065Z" fill="#333333"/>
<path d="M76.4686 73.9349L76.2903 72.6039L75.6775 72.6875V72.001H74.3474V72.8692L73.5562 72.9773L73.7345 74.3083L74.3474 74.2247V74.8742H75.6775V74.0429L76.4686 73.9349Z" fill="#DA9FF9"/>
<path d="M75.7473 74.9448H74.2771V74.3055L73.6742 74.3879L73.4771 72.9167L74.2771 72.8075V71.9302H75.7473V72.6066L76.35 72.5242L76.5471 73.9953L75.7473 74.1045V74.9448ZM74.4172 74.8034H75.6072V73.9811L76.3895 73.8743L76.2298 72.6835L75.6072 72.7686V72.0716H74.4172V72.9311L73.6347 73.0379L73.7944 74.2287L74.4172 74.1435V74.8034Z" fill="#333333"/>
<path d="M82.497 103.631H82.2168C82.2168 103.332 82.3 103.175 82.3734 103.036C82.4398 102.911 82.497 102.803 82.497 102.575C82.497 102.346 82.4398 102.238 82.3734 102.113C82.3 101.975 82.2168 101.818 82.2168 101.518C82.2168 101.219 82.3002 101.062 82.3734 100.924C82.4398 100.799 82.497 100.691 82.497 100.463C82.497 100.234 82.4398 100.126 82.3734 100.001C82.3002 99.8628 82.2168 99.7059 82.2168 99.4064C82.2168 99.1069 82.3002 98.95 82.3734 98.8116C82.4398 98.6869 82.497 98.5789 82.497 98.3506H82.7772C82.7772 98.6501 82.6938 98.807 82.6206 98.9453C82.5542 99.0701 82.497 99.1781 82.497 99.4064C82.497 99.6349 82.5542 99.7428 82.6206 99.8676C82.6938 100.006 82.7772 100.163 82.7772 100.463C82.7772 100.762 82.6938 100.919 82.6206 101.057C82.5542 101.182 82.497 101.29 82.497 101.518C82.497 101.747 82.5542 101.855 82.6206 101.98C82.6938 102.118 82.7772 102.275 82.7772 102.575C82.7772 102.875 82.694 103.031 82.6206 103.17C82.5542 103.295 82.497 103.403 82.497 103.631Z" fill="white"/>
<path d="M83.1977 103.631H82.9175C82.9175 103.332 83.0007 103.175 83.0741 103.036C83.1405 102.911 83.1977 102.803 83.1977 102.575C83.1977 102.346 83.1405 102.238 83.0741 102.113C83.0007 101.975 82.9175 101.818 82.9175 101.518C82.9175 101.219 83.0008 101.062 83.0741 100.924C83.1405 100.799 83.1977 100.691 83.1977 100.463C83.1977 100.234 83.1405 100.126 83.0741 100.001C83.0008 99.8628 82.9175 99.7059 82.9175 99.4064C82.9175 99.1069 83.0008 98.95 83.0741 98.8116C83.1405 98.6869 83.1977 98.5789 83.1977 98.3506H83.4779C83.4779 98.6501 83.3945 98.807 83.3212 98.9453C83.2548 99.0701 83.1977 99.1781 83.1977 99.4064C83.1977 99.6349 83.2548 99.7428 83.3212 99.8676C83.3945 100.006 83.4779 100.163 83.4779 100.463C83.4779 100.762 83.3945 100.919 83.3212 101.057C83.2548 101.182 83.1977 101.29 83.1977 101.518C83.1977 101.747 83.2548 101.855 83.3212 101.98C83.3945 102.118 83.4779 102.275 83.4779 102.575C83.4779 102.875 83.3947 103.031 83.3212 103.17C83.2548 103.295 83.1977 103.403 83.1977 103.631Z" fill="white"/>
<path d="M83.8979 103.631H83.6177C83.6177 103.332 83.7009 103.175 83.7743 103.036C83.8407 102.911 83.8979 102.803 83.8979 102.575C83.8979 102.346 83.8407 102.238 83.7743 102.113C83.7008 101.975 83.6177 101.818 83.6177 101.518C83.6177 101.219 83.701 101.062 83.7743 100.924C83.8407 100.799 83.8979 100.691 83.8979 100.463C83.8979 100.234 83.8407 100.126 83.7743 100.001C83.701 99.8628 83.6177 99.7059 83.6177 99.4064C83.6177 99.1069 83.701 98.95 83.7743 98.8116C83.8407 98.6869 83.8979 98.5789 83.8979 98.3506H84.1781C84.1781 98.6501 84.0947 98.807 84.0214 98.9453C83.955 99.0701 83.8979 99.1781 83.8979 99.4064C83.8979 99.6349 83.955 99.7428 84.0214 99.8676C84.0947 100.006 84.1781 100.163 84.1781 100.463C84.1781 100.762 84.0947 100.919 84.0214 101.057C83.955 101.182 83.8979 101.29 83.8979 101.518C83.8979 101.747 83.955 101.855 84.0214 101.98C84.0947 102.118 84.1781 102.275 84.1781 102.575C84.1781 102.875 84.0948 103.031 84.0214 103.17C83.955 103.295 83.8979 103.403 83.8979 103.631Z" fill="white"/>
<path d="M20.6279 89.795H20.3477C20.3477 89.4953 20.4309 89.3383 20.5044 89.1998C20.5707 89.0749 20.6279 88.9669 20.6279 88.7384C20.6279 88.5098 20.5706 88.4019 20.5043 88.2768C20.4309 88.1384 20.3477 87.9814 20.3477 87.6819C20.3477 87.3824 20.4309 87.2255 20.5044 87.0871C20.5707 86.9624 20.6279 86.8544 20.6279 86.6261C20.6279 86.3976 20.5706 86.2897 20.5044 86.1649C20.4309 86.0265 20.3477 85.8695 20.3477 85.57C20.3477 85.2705 20.4309 85.1136 20.5044 84.9752C20.5707 84.8504 20.6279 84.7425 20.6279 84.5142H20.908C20.908 84.8137 20.8248 84.9706 20.7513 85.1089C20.685 85.2337 20.6279 85.3416 20.6279 85.57C20.6279 85.7985 20.6851 85.9064 20.7513 86.0312C20.8247 86.1695 20.908 86.3266 20.908 86.6261C20.908 86.9256 20.8248 87.0825 20.7513 87.2208C20.685 87.3456 20.6279 87.4536 20.6279 87.6819C20.6279 87.9104 20.6851 88.0183 20.7513 88.1432C20.8247 88.2818 20.908 88.4388 20.908 88.7384C20.908 89.0379 20.8248 89.195 20.7514 89.3333C20.6851 89.4584 20.6279 89.5662 20.6279 89.795Z" fill="white"/>
<path d="M21.328 89.795H21.0479C21.0479 89.4953 21.1311 89.3383 21.2046 89.1998C21.2709 89.0749 21.328 88.9669 21.328 88.7384C21.328 88.5098 21.2707 88.4019 21.2045 88.2768C21.1311 88.1384 21.0479 87.9814 21.0479 87.6819C21.0479 87.3824 21.1311 87.2255 21.2046 87.0871C21.2709 86.9624 21.328 86.8544 21.328 86.6261C21.328 86.3976 21.2707 86.2897 21.2046 86.1649C21.1312 86.0265 21.0479 85.8695 21.0479 85.57C21.0479 85.2705 21.1311 85.1136 21.2046 84.9752C21.2709 84.8504 21.328 84.7425 21.328 84.5142H21.6082C21.6082 84.8137 21.525 84.9706 21.4515 85.1089C21.3852 85.2337 21.328 85.3416 21.328 85.57C21.328 85.7985 21.3853 85.9064 21.4515 86.0312C21.5249 86.1695 21.6082 86.3266 21.6082 86.6261C21.6082 86.9256 21.525 87.0825 21.4515 87.2208C21.3852 87.3456 21.328 87.4536 21.328 87.6819C21.328 87.9104 21.3853 88.0183 21.4515 88.1432C21.5249 88.2818 21.6082 88.4388 21.6082 88.7384C21.6082 89.0379 21.525 89.195 21.4516 89.3333C21.3853 89.4584 21.328 89.5662 21.328 89.795Z" fill="white"/>
<path d="M22.0282 89.795H21.748C21.748 89.4953 21.8313 89.3383 21.9048 89.1998C21.9711 89.0749 22.0282 88.9669 22.0282 88.7384C22.0282 88.5098 21.9709 88.4019 21.9047 88.2768C21.8313 88.1384 21.748 87.9814 21.748 87.6819C21.748 87.3824 21.8313 87.2255 21.9048 87.0871C21.9711 86.9624 22.0282 86.8544 22.0282 86.6261C22.0282 86.3976 21.9709 86.2897 21.9048 86.1649C21.8314 86.0265 21.748 85.8695 21.748 85.57C21.748 85.2705 21.8313 85.1136 21.9048 84.9752C21.9711 84.8504 22.0282 84.7425 22.0282 84.5142H22.3084C22.3084 84.8137 22.2252 84.9706 22.1517 85.1089C22.0854 85.2337 22.0282 85.3416 22.0282 85.57C22.0282 85.7985 22.0855 85.9064 22.1517 86.0312C22.2251 86.1695 22.3084 86.3266 22.3084 86.6261C22.3084 86.9256 22.2252 87.0825 22.1517 87.2208C22.0854 87.3456 22.0282 87.4536 22.0282 87.6819C22.0282 87.9104 22.0855 88.0183 22.1517 88.1432C22.2251 88.2818 22.3084 88.4388 22.3084 88.7384C22.3084 89.0379 22.2252 89.195 22.1518 89.3333C22.0855 89.4584 22.0282 89.5662 22.0282 89.795Z" fill="white"/>
<path d="M45.1601 62.7659H44.8799C44.8799 62.3525 44.9554 62.1432 45.0285 61.9406C45.0962 61.7528 45.1601 61.5756 45.1601 61.2121C45.1601 60.8487 45.0961 60.6714 45.0285 60.4838C44.9554 60.2814 44.8799 60.0718 44.8799 59.6586C44.8799 59.2453 44.9554 59.0363 45.0285 58.8338C45.0962 58.6462 45.1601 58.4691 45.1601 58.1059C45.1601 57.7426 45.0961 57.5653 45.0285 57.3778C44.9554 57.1753 44.8799 56.9659 44.8799 56.5527C44.8799 56.1396 44.9554 55.9303 45.0285 55.7279C45.0962 55.5403 45.1601 55.3632 45.1601 55H45.4403C45.4403 55.4131 45.3648 55.6223 45.2916 55.8247C45.224 56.0122 45.1601 56.1894 45.1601 56.5525C45.1601 56.9158 45.2241 57.0931 45.2916 57.2807C45.3648 57.4832 45.4403 57.6925 45.4403 58.1058C45.4403 58.519 45.3648 58.7281 45.2916 58.9306C45.224 59.1182 45.1601 59.2953 45.1601 59.6585C45.1601 60.0219 45.2241 60.1992 45.2916 60.3869C45.3648 60.5894 45.4403 60.7987 45.4403 61.2121C45.4403 61.6255 45.3648 61.8349 45.2916 62.0375C45.224 62.2252 45.1601 62.4025 45.1601 62.7659Z" fill="white"/>
<path d="M45.8603 62.7659H45.5801C45.5801 62.3525 45.6556 62.1432 45.7287 61.9406C45.7964 61.7528 45.8603 61.5756 45.8603 61.2121C45.8603 60.8487 45.7962 60.6714 45.7287 60.4838C45.6556 60.2814 45.5801 60.0718 45.5801 59.6586C45.5801 59.2453 45.6556 59.0363 45.7287 58.8338C45.7964 58.6462 45.8603 58.4691 45.8603 58.1059C45.8603 57.7426 45.7962 57.5653 45.7287 57.3778C45.6556 57.1753 45.5801 56.9659 45.5801 56.5527C45.5801 56.1396 45.6556 55.9303 45.7287 55.7279C45.7964 55.5403 45.8603 55.3632 45.8603 55H46.1405C46.1405 55.4131 46.065 55.6223 45.9918 55.8247C45.9242 56.0122 45.8603 56.1894 45.8603 56.5525C45.8603 56.9158 45.9243 57.0931 45.9918 57.2807C46.065 57.4832 46.1405 57.6925 46.1405 58.1058C46.1405 58.519 46.065 58.7281 45.9918 58.9306C45.9242 59.1182 45.8603 59.2953 45.8603 59.6585C45.8603 60.0219 45.9243 60.1992 45.9918 60.3869C46.065 60.5894 46.1405 60.7987 46.1405 61.2121C46.1405 61.6255 46.065 61.8349 45.9918 62.0375C45.9242 62.2252 45.8603 62.4025 45.8603 62.7659Z" fill="white"/>
<path d="M46.561 62.7659H46.2808C46.2808 62.3525 46.3563 62.1432 46.4294 61.9406C46.4971 61.7528 46.561 61.5756 46.561 61.2121C46.561 60.8487 46.4971 60.6714 46.4294 60.4838C46.3563 60.2814 46.2808 60.0718 46.2808 59.6586C46.2808 59.2453 46.3563 59.0363 46.4294 58.8338C46.4971 58.6462 46.561 58.4691 46.561 58.1059C46.561 57.7426 46.4971 57.5653 46.4294 57.3778C46.3563 57.1753 46.2808 56.9659 46.2808 56.5527C46.2808 56.1396 46.3563 55.9303 46.4294 55.7279C46.4971 55.5403 46.561 55.3632 46.561 55H46.8411C46.8411 55.4131 46.7656 55.6223 46.6926 55.8247C46.625 56.0122 46.561 56.1894 46.561 56.5525C46.561 56.9158 46.625 57.0931 46.6926 57.2807C46.7656 57.4832 46.8411 57.6925 46.8411 58.1058C46.8411 58.519 46.7656 58.7281 46.6926 58.9306C46.625 59.1182 46.561 59.2953 46.561 59.6585C46.561 60.0219 46.625 60.1992 46.6926 60.3869C46.7656 60.5894 46.8411 60.7987 46.8411 61.2121C46.8411 61.6255 46.7656 61.8349 46.6926 62.0375C46.625 62.2252 46.561 62.4025 46.561 62.7659Z" fill="white"/>
<path d="M53.6821 62.7558C53.4053 62.7558 53.1802 62.5283 53.1802 62.2486C53.1802 61.9688 53.4055 61.7412 53.6821 61.7412C53.959 61.7412 54.1841 61.9688 54.1841 62.2486C54.1841 62.5282 53.9588 62.7558 53.6821 62.7558ZM53.6821 62.0243C53.5598 62.0243 53.4604 62.125 53.4604 62.2486C53.4604 62.3722 53.56 62.4727 53.6821 62.4727C53.8044 62.4727 53.9039 62.3722 53.9039 62.2486C53.9039 62.125 53.8044 62.0243 53.6821 62.0243Z" fill="white"/>
<path d="M78.1729 67.6777C77.896 67.6777 77.6709 67.4502 77.6709 67.1703C77.6709 66.8906 77.896 66.6631 78.1729 66.6631C78.4498 66.6631 78.675 66.8906 78.675 67.1703C78.675 67.4502 78.4497 67.6777 78.1729 67.6777ZM78.1729 66.9464C78.0506 66.9464 77.9511 67.0469 77.9511 67.1705C77.9511 67.294 78.0506 67.3947 78.1729 67.3947C78.2952 67.3947 78.3948 67.294 78.3948 67.1705C78.3948 67.0469 78.2952 66.9464 78.1729 66.9464Z" fill="white"/>
<path d="M25.4829 94.4051C25.2061 94.4051 24.981 94.1776 24.981 93.8978C24.981 93.6181 25.2061 93.3906 25.4829 93.3906C25.7598 93.3906 25.9849 93.6181 25.9849 93.8978C25.9849 94.1774 25.7598 94.4051 25.4829 94.4051ZM25.4829 93.6738C25.3606 93.6738 25.2612 93.7743 25.2612 93.8978C25.2612 94.0214 25.3606 94.1219 25.4829 94.1219C25.6052 94.1219 25.7047 94.0214 25.7047 93.8978C25.7047 93.7743 25.6052 93.6738 25.4829 93.6738Z" fill="white"/>
<path d="M89.898 87.6619C89.6213 87.6619 89.396 87.4343 89.396 87.1547C89.396 86.875 89.6211 86.6475 89.898 86.6475C90.1749 86.6475 90.4001 86.875 90.4001 87.1547C90.4001 87.4343 90.1749 87.6619 89.898 87.6619ZM89.898 86.9306C89.7757 86.9306 89.6762 87.0311 89.6762 87.1547C89.6762 87.2783 89.7757 87.3788 89.898 87.3788C90.0203 87.3788 90.1199 87.2783 90.1199 87.1547C90.1199 87.0311 90.0203 86.9306 89.898 86.9306Z" fill="white"/>
<path d="M22.5464 70.2846C22.2696 70.2846 22.0444 70.0571 22.0444 69.7772C22.0444 69.4975 22.2696 69.27 22.5464 69.27C22.8232 69.27 23.0485 69.4975 23.0485 69.7772C23.0484 70.057 22.8232 70.2846 22.5464 70.2846ZM22.5464 69.5531C22.4241 69.5531 22.3246 69.6537 22.3246 69.7772C22.3246 69.9008 22.4241 70.0015 22.5464 70.0015C22.6687 70.0015 22.7683 69.9008 22.7683 69.7772C22.7682 69.6537 22.6687 69.5531 22.5464 69.5531Z" fill="white"/>
<path opacity="0.11" d="M31.5422 66.5415L31.1973 64.9309L31.5422 63.1787L31.8872 64.9309L31.5422 66.5415Z" fill="black"/>
<path opacity="0.11" d="M32.8565 64.9311L31.5417 65.2796L30.2271 64.9311L31.5417 64.5825L32.8565 64.9311Z" fill="black"/>
<path opacity="0.11" d="M77.1091 83.1688L76.7642 81.5583L77.1091 79.8062L77.454 81.5583L77.1091 83.1688Z" fill="black"/>
<path opacity="0.11" d="M78.424 81.5586L77.1092 81.9072L75.7944 81.5586L77.1092 81.21L78.424 81.5586Z" fill="black"/>
<path opacity="0.11" d="M45.7209 103.23L45.376 101.619L45.7209 99.8672L46.0658 101.619L45.7209 103.23Z" fill="black"/>
<path opacity="0.11" d="M47.0354 101.62L45.7206 101.968L44.4058 101.62L45.7206 101.271L47.0354 101.62Z" fill="black"/>
<path opacity="0.11" d="M20.8688 94.9667L20.5239 93.3562L20.8688 91.604L21.2139 93.3562L20.8688 94.9667Z" fill="black"/>
<path opacity="0.11" d="M22.1847 93.3565L20.8698 93.705L19.5552 93.3565L20.8698 93.0078L22.1847 93.3565Z" fill="black"/>
<path opacity="0.11" d="M72.403 69.585L72.0581 67.9743L72.403 66.2222L72.7479 67.9743L72.403 69.585Z" fill="black"/>
<path opacity="0.11" d="M73.718 67.9745L72.4032 68.3232L71.0884 67.9745L72.4032 67.626L73.718 67.9745Z" fill="black"/>
<path opacity="0.11" d="M19.529 72.9484L19.1357 71.1118L19.529 69.1138L19.9224 71.1118L19.529 72.9484Z" fill="black"/>
<path opacity="0.11" d="M21.0288 71.1119L19.5295 71.5094L18.0303 71.1119L19.5295 70.7144L21.0288 71.1119Z" fill="black"/>
<path opacity="0.11" d="M68.5659 62.968L68.3433 61.9283L68.5659 60.7974L68.7886 61.9283L68.5659 62.968Z" fill="black"/>
<path opacity="0.11" d="M69.4152 61.9286L68.5665 62.1535L67.7178 61.9286L68.5665 61.7036L69.4152 61.9286Z" fill="black"/>
<path opacity="0.11" d="M80.8461 97.2576L80.6235 96.2179L80.8461 95.0869L81.0688 96.2179L80.8461 97.2576Z" fill="black"/>
<path opacity="0.11" d="M81.6945 96.2176L80.8458 96.4427L79.9971 96.2176L80.8458 95.9927L81.6945 96.2176Z" fill="black"/>
<path d="M28.957 139.562H30.5215V144.953C30.5215 145.941 30.2266 146.707 29.6367 147.25C29.0469 147.793 28.2051 148.064 27.1113 148.064C26.0176 148.064 25.1758 147.793 24.5859 147.25C23.9961 146.707 23.7012 145.941 23.7012 144.953V139.562H25.2598V144.953C25.2598 145.496 25.4102 145.916 25.7109 146.213C26.0156 146.51 26.4824 146.658 27.1113 146.658C27.7363 146.658 28.1992 146.51 28.5 146.213C28.8047 145.916 28.957 145.496 28.957 144.953V139.562ZM32.0391 139.674C32.0391 139.432 32.125 139.229 32.2969 139.064C32.4727 138.896 32.6836 138.812 32.9297 138.812C33.1758 138.812 33.3848 138.896 33.5566 139.064C33.7324 139.229 33.8203 139.432 33.8203 139.674C33.8203 139.916 33.7324 140.125 33.5566 140.301C33.3848 140.473 33.1758 140.559 32.9297 140.559C32.6836 140.559 32.4727 140.473 32.2969 140.301C32.125 140.125 32.0391 139.916 32.0391 139.674ZM32.1504 141.666H33.709V148H32.1504V141.666ZM42.9492 139.562H44.5137V144.953C44.5137 145.941 44.2188 146.707 43.6289 147.25C43.0391 147.793 42.1973 148.064 41.1035 148.064C40.0098 148.064 39.168 147.793 38.5781 147.25C37.9883 146.707 37.6934 145.941 37.6934 144.953V139.562H39.252V144.953C39.252 145.496 39.4023 145.916 39.7031 146.213C40.0078 146.51 40.4746 146.658 41.1035 146.658C41.7285 146.658 42.1914 146.51 42.4922 146.213C42.7969 145.916 42.9492 145.496 42.9492 144.953V139.562ZM49.9453 141.666H51.7441L49.5469 144.906L51.7441 148H49.9453L48.5801 146.02L47.2266 148H45.416L47.6191 144.906L45.416 141.666H47.2207L48.5801 143.793L49.9453 141.666ZM62.8359 146.436V148H61.6641C62.1836 148.34 62.4434 148.758 62.4434 149.254C62.4434 149.727 62.2676 150.139 61.916 150.49C61.5645 150.846 61.0996 151.111 60.5215 151.287C59.9434 151.467 59.2988 151.557 58.5879 151.557C57.291 151.557 56.3047 151.26 55.6289 150.666C54.9531 150.076 54.6152 149.193 54.6152 148.018C54.6152 147.033 54.8008 145.863 55.1719 144.508L56.6133 144.9C56.2852 146.193 56.1211 147.201 56.1211 147.924C56.1211 148.662 56.3262 149.191 56.7363 149.512C57.1465 149.836 57.7949 149.998 58.6816 149.998C59.1191 149.998 59.5098 149.963 59.8535 149.893C60.2012 149.826 60.4883 149.711 60.7148 149.547C60.9414 149.387 61.0547 149.189 61.0547 148.955C61.0547 148.682 60.8711 148.484 60.5039 148.363C60.1367 148.246 59.4375 148.125 58.4062 148L58.6289 146.436H62.8359ZM65.6309 142.439C65.8965 142.439 66.1738 142.488 66.4629 142.586C66.752 142.684 67.1289 142.836 67.5938 143.043C67.9414 143.195 68.2168 143.314 68.4199 143.4C68.623 143.482 68.9043 143.582 69.2637 143.699C69.623 143.816 69.9688 143.908 70.3008 143.975V145.252L67.7285 146.969C67.1855 147.332 66.623 147.596 66.041 147.76C65.4629 147.92 64.8223 148 64.1191 148H62.8359C62.7578 148 62.7012 147.945 62.666 147.836C62.6309 147.723 62.6133 147.518 62.6133 147.221C62.6133 146.924 62.6309 146.719 62.666 146.605C62.7012 146.492 62.7578 146.436 62.8359 146.436H64.4062C64.9375 146.436 65.4043 146.387 65.8066 146.289C66.2129 146.188 66.625 146.01 67.043 145.756L68.4609 144.877C68 144.783 67.4531 144.6 66.8203 144.326C66.6367 144.244 66.498 144.186 66.4043 144.15C66.3105 144.111 66.1953 144.074 66.0586 144.039C65.9258 144.004 65.8047 143.986 65.6953 143.986C65.1914 143.986 64.8633 144.342 64.7109 145.053L64.6641 145.275L63.4336 145.053L63.4805 144.777C63.6211 144.016 63.8594 143.436 64.1953 143.037C64.5352 142.639 65.0137 142.439 65.6309 142.439ZM73.1309 148H71.5664V139.639H73.1309V148ZM75.4102 144.197L76.8984 143.693L77.2734 144.959C77.3672 145.283 77.4551 145.535 77.5371 145.715C77.623 145.895 77.7285 146.043 77.8535 146.16C77.9824 146.273 78.127 146.348 78.2871 146.383C78.4473 146.418 78.6602 146.436 78.9258 146.436H78.9375V148H78.9258C78.2852 148 77.8047 147.828 77.4844 147.484C77.4258 148.414 77.1016 149.193 76.5117 149.822C75.9219 150.451 75.0059 150.996 73.7637 151.457L73.0898 150.051C74.1484 149.668 74.8984 149.256 75.3398 148.814C75.7852 148.377 76.0078 147.809 76.0078 147.109C76.0078 146.387 75.8086 145.416 75.4102 144.197ZM78.9492 148C78.8711 148 78.8145 147.945 78.7793 147.836C78.7402 147.723 78.7207 147.518 78.7207 147.221C78.7207 146.924 78.7402 146.719 78.7793 146.605C78.8145 146.492 78.8711 146.436 78.9492 146.436H79.6934C79.7129 146.408 79.7441 146.363 79.7871 146.301C79.8301 146.238 79.8613 146.189 79.8809 146.154V139.639H81.4395V143.283C81.4395 143.857 81.3965 144.35 81.3105 144.76C82.2051 143.568 83.1719 142.973 84.2109 142.973C84.918 142.973 85.4844 143.205 85.9102 143.67C86.3398 144.131 86.5547 144.705 86.5547 145.393C86.5547 145.693 86.5215 145.965 86.4551 146.207C86.3887 146.449 86.2656 146.686 86.0859 146.916C85.9102 147.143 85.6777 147.334 85.3887 147.49C85.0996 147.643 84.7207 147.766 84.252 147.859C83.7871 147.953 83.2441 148 82.623 148H78.9492ZM81.5273 146.436H82.9688C83.2578 146.436 83.5098 146.422 83.7246 146.395C83.9395 146.363 84.1348 146.312 84.3105 146.242C84.4863 146.172 84.6191 146.07 84.709 145.938C84.8027 145.801 84.8496 145.633 84.8496 145.434C84.8496 145.156 84.7656 144.934 84.5977 144.766C84.4336 144.594 84.2109 144.508 83.9297 144.508C83.5938 144.508 83.2207 144.662 82.8105 144.971C82.4043 145.275 81.9766 145.764 81.5273 146.436Z" fill="white"/>
<defs>
<filter id="filter0_d_75_4977" x="0" y="0" width="108" height="188" filterUnits="userSpaceOnUse" color-interpolation-filters="sRGB">
<feFlood flood-opacity="0" result="BackgroundImageFix"/>
<feColorMatrix in="SourceAlpha" type="matrix" values="0 0 0 0 0 0 0 0 0 0 0 0 0 0 0 0 0 0 127 0" result="hardAlpha"/>
<feOffset/>
<feGaussianBlur stdDeviation="2"/>
<feComposite in2="hardAlpha" operator="out"/>
<feColorMatrix type="matrix" values="0 0 0 0 0 0 0 0 0 0 0 0 0 0 0 0 0 0 0.25 0"/>
<feBlend mode="normal" in2="BackgroundImageFix" result="effect1_dropShadow_75_4977"/>
<feBlend mode="normal" in="SourceGraphic" in2="effect1_dropShadow_75_4977" result="shape"/>
</filter>
<linearGradient id="paint0_linear_75_4977" x1="104" y1="274" x2="204" y2="274" gradientUnits="userSpaceOnUse">
<stop stop-color="#F77062"/>
<stop offset="1" stop-color="#FE5196"/>
</linearGradient>
</defs>
</svg>
