<svg width="108" height="188" viewBox="0 0 108 188" fill="none" xmlns="http://www.w3.org/2000/svg">
<g filter="url(#filter0_d_78_6250)">
<rect x="104" y="184" width="100" height="180" rx="50" transform="rotate(180 104 184)" fill="url(#paint0_linear_78_6250)"/>
<rect x="103" y="183" width="98" height="178" rx="49" transform="rotate(180 103 183)" stroke="#FBFBFB" stroke-width="2"/>
</g>
<path d="M45.5678 109.354C45.3264 109.885 45.3316 110.61 45.5199 110.972C46.6084 113.078 48.1937 115.673 49.8732 116.1C51.3679 116.48 52.8895 116.121 53.2852 115.291C53.572 114.689 53.3079 113.616 52.9706 113.241C52.5305 112.752 51.2981 112.431 50.5024 111.495C49.6605 110.504 48.3532 109.975 47.3178 109.221C46.8533 108.883 45.6149 109.218 45.5678 109.354Z" fill="#281504"/>
<path d="M45.6943 110.502C45.2733 109.333 45.7099 109.272 45.7265 108.704C45.7483 107.947 45.8093 107.153 46.0734 106.89C46.1823 106.781 46.327 106.706 46.4595 106.641C46.8822 106.437 47.338 106.483 47.7981 106.532C48.4884 106.605 49.0218 106.797 49.5891 107.214C49.9743 107.496 49.7425 107.837 50.0415 108.589C50.3936 109.473 53.1293 112.248 53.3358 114.107C53.3969 114.652 53.0517 115.165 52.5314 115.342C51.9074 115.554 51.0629 115.656 50.4066 115.563C48.3237 115.267 45.8503 110.936 45.6943 110.502Z" fill="url(#paint1_linear_78_6250)"/>
<path d="M64.4414 72.8275C64.722 71.8888 64.905 70.5161 64.9547 70.3244C65.1709 69.479 65.4532 68.8489 66.357 68.808C67.1902 68.7705 67.6478 69.1086 67.8778 70.0185C68.1776 71.2012 68.3223 71.6648 68.3354 72.7743C68.3397 73.1621 68.0304 74.4398 67.68 74.058C67.5083 73.8715 67.7436 72.7787 67.7436 72.7787L67.5083 71.9184C67.5083 71.9184 67.3924 73.6214 67.3645 74.2341C67.3471 74.6106 66.8747 75.3105 66.6908 75.639C66.5723 75.8517 66.3919 76.1602 66.2995 75.7784C66.2333 75.5039 66.7605 74.4633 66.717 74.2167C66.6655 73.9204 66.6446 73.6188 66.5976 73.3208C66.5679 73.1299 66.5679 72.9913 66.4503 72.9068C66.4128 73.3382 66.4006 73.8838 66.4076 74.2481C66.4154 74.6246 65.8838 75.3976 65.7042 75.7288C65.5883 75.9432 65.4114 76.0452 65.3147 75.6643C65.2449 75.3898 65.8794 74.4738 65.8716 74.2236C65.862 73.9535 65.8167 73.075 65.8036 72.681C65.7888 72.6767 65.7748 72.6723 65.7609 72.668C65.6903 73.0845 65.618 73.5935 65.6049 73.8968C65.5892 74.2507 65.1099 74.5505 64.9216 74.8503C64.7996 75.0438 64.6253 75.0193 64.5582 74.6559C64.5094 74.3945 65.0968 73.8184 65.1038 73.5831C65.1116 73.3329 65.1212 72.81 65.1273 72.4274C65.0611 72.5773 65.0009 72.729 64.973 72.9085C64.9294 73.1874 64.6889 73.4489 64.4179 73.6153C64.2619 73.7112 64.0265 73.8585 64.0048 73.5648C63.9908 73.3521 64.3874 73.0079 64.4414 72.8275Z" fill="url(#paint2_linear_78_6250)"/>
<path opacity="0.5" d="M66.4518 72.9068C66.5703 72.9913 66.5694 73.1308 66.5991 73.3208C66.6461 73.6188 66.6662 73.9204 66.7185 74.2167C66.7612 74.4633 66.2348 75.5039 66.301 75.7785C66.3167 75.8429 66.335 75.8822 66.355 75.9109C66.6427 75.6137 67.0505 74.8172 67.1691 74.3988C67.2144 74.2367 67.2989 73.3356 67.3207 72.5922C67.3495 71.6038 66.7821 70.6652 65.8522 70.3279C65.8461 70.3253 65.8391 70.3235 65.833 70.3209C65.3972 70.1658 64.9301 70.4456 64.8534 70.9014C64.7636 71.4348 64.6233 72.2209 64.442 72.8257C64.388 73.0052 63.9914 73.3504 64.0063 73.5622C64.0272 73.8559 64.2634 73.7086 64.4194 73.6127C64.6904 73.4463 64.931 73.1857 64.9745 72.9059C65.0024 72.7272 65.0634 72.5756 65.1288 72.4248C65.1227 72.8074 65.1122 73.3303 65.1053 73.5805C65.0983 73.8158 64.5109 74.3919 64.5597 74.6533C64.6277 75.0159 64.802 75.0411 64.9231 74.8477C65.1114 74.5479 65.5907 74.2472 65.6064 73.8942C65.6195 73.5909 65.6918 73.0819 65.7624 72.6654C65.7763 72.6697 65.7903 72.6741 65.8051 72.6784C65.8182 73.0732 65.8635 73.9509 65.8731 74.221C65.8818 74.4712 65.2473 75.388 65.3162 75.6617C65.4129 76.0426 65.5898 75.9397 65.7058 75.7262C65.8853 75.395 66.4161 74.622 66.4091 74.2455C66.4021 73.8838 66.4143 73.3391 66.4518 72.9068Z" fill="#9FA4A5"/>
<path d="M67.0692 68.074C67.1956 68.3215 67.308 69.0876 67.2802 69.3264C67.2139 69.8938 65.9938 70.0977 65.6417 69.6384C65.6417 69.6384 65.2347 68.6684 65.3305 68.2596C65.4421 67.7794 66.3764 67.5337 66.8479 67.8239C66.9446 67.8831 67.017 67.9711 67.0692 68.074Z" fill="#363633"/>
<path d="M62.106 55.0711C62.5923 54.6693 63.2338 54.5386 63.9598 54.9439C64.6187 55.3117 64.9559 56.0594 65.1268 56.7514C65.4832 58.1895 66.7182 65.3012 67.14 67.3223C67.4442 68.7777 65.2505 68.6827 65.0675 68.1301C64.3572 65.9853 61.53 59.339 61.1996 57.7598C61.0097 56.8464 61.3879 55.6646 62.106 55.0711Z" fill="url(#paint3_linear_78_6250)"/>
<path d="M63.706 55.4046C64.0276 55.8648 63.7783 56.5934 63.15 57.0327C62.5216 57.4719 61.7512 57.4545 61.4296 56.9943C61.108 56.5341 61.3572 55.8047 61.9856 55.3663C62.614 54.927 63.3844 54.9445 63.706 55.4046Z" fill="#9FA4A5"/>
<path d="M59.4778 46.7373C59.958 48.5553 63.4947 54.5488 63.6647 55.7402C63.5941 56.4741 62.6877 57.2009 61.8658 56.9848C61.7185 56.9464 61.6 56.8471 61.505 56.7285C60.1062 54.9864 58.3213 52.1164 57.1944 50.3097C56.7273 49.5611 57.0855 50.0544 57.2737 49.209C57.4106 48.5911 58.9383 46.366 59.4778 46.7373Z" fill="#363633"/>
<path d="M58.609 51.5541C60.9133 50.7497 61.5931 46.161 59.1694 44.8764C56.3622 43.3896 52.8412 48.0401 55.1839 50.3339C55.6798 50.8194 56.4668 51.3493 57.137 51.5558C57.6782 51.7223 58.1724 51.7057 58.609 51.5541Z" fill="url(#paint4_linear_78_6250)"/>
<path d="M58.2733 104.018C58.1714 104.24 58.1025 105.177 58.5121 105.45C59.3863 106.032 59.8168 106.19 60.7982 106.866C61.4675 107.326 62.4715 108.297 63.2524 108.583C64.0394 108.873 65.2865 109.154 66.1363 109.105C67.251 109.04 68.1609 108.767 68.2663 107.574C68.3291 106.861 67.7399 106.32 67.6737 106.272C67.1037 105.856 64.8299 105.695 63.6516 105.109C62.4044 104.486 61.1415 103.906 59.9414 103.237C59.4046 102.938 58.3065 103.867 58.2733 104.018Z" fill="#281504"/>
<path d="M58.5696 104.736C57.9281 104.158 58.485 103.331 58.6001 102.653C58.6681 102.256 58.6358 101.613 58.9661 101.321C59.4211 100.919 60.3858 101.258 60.9184 101.302C61.3184 101.335 62.0287 101.314 62.3756 101.529C62.7486 101.761 62.7686 102.359 63.0318 102.689C63.743 103.582 64.8359 103.984 65.7928 104.571C66.8143 105.198 68.1477 106.047 68.2654 107.368C68.3037 107.798 67.9943 108.248 67.5943 108.41C66.1685 108.987 64.2729 108.393 62.9455 107.616C61.8579 106.978 61.0256 105.944 59.883 105.411C59.435 105.202 58.9374 105.067 58.5696 104.736Z" fill="url(#paint5_linear_78_6250)"/>
<path d="M62.1362 99.1671C62.1362 99.7039 62.328 101.473 62.328 101.882C62.328 102.591 61.297 102.688 60.7514 102.688C59.6698 102.688 59.3125 102.199 59.2985 101.898C59.2942 101.809 59.2689 99.8077 59.2802 99.7214C59.4092 98.7644 60.0611 99.168 61.0538 99.168C62.1362 99.1671 62.1362 99.1671 62.1362 99.1671Z" fill="#363633"/>
<path d="M63.5348 87.8059C63.5217 87.6168 62.9927 81.4577 61.654 76.4803C61.403 75.5469 61.0405 74.6492 60.6988 73.7446C60.4095 72.9777 60.2265 72.1183 59.6957 71.4656C59.2198 70.8799 58.7858 71.1039 58.2193 71.4167C57.3094 71.9196 56.6584 72.8591 56.0849 73.7193C55.2213 75.017 54.7768 76.6538 54.6626 78.1973C54.5397 79.861 54.8317 82.6621 55.3781 84.7398C55.8409 86.4986 56.4728 88.2939 57.1988 90.0762C57.1238 95.8396 58.2158 96.4985 58.7335 100.138L58.9366 101.122C59.5615 101.456 60.345 101.577 60.8278 100.864C61.0135 100.59 61.3133 100.4 61.6183 100.284C61.8126 100.21 62.0236 100.202 62.2205 100.139C62.5099 100.047 62.4768 99.9698 62.4157 99.6997C62.3042 99.202 62.2658 98.6878 62.3094 98.1797C62.5229 95.7037 62.9979 94.2962 63.2376 91.3478C63.3866 90.4257 63.6246 89.1454 63.5348 87.8059Z" fill="url(#paint6_linear_78_6250)"/>
<path d="M59.029 71.4663C57.8839 71.2711 55.8384 74.7956 55.4584 75.8937C54.9825 77.2655 54.8483 79.5341 55.0801 80.8762C55.2013 81.5752 55.617 81.8802 56.3439 81.8445C60.8288 81.6249 60.6884 71.7495 59.029 71.4663Z" fill="#9FA4A5"/>
<path d="M54.0742 75.1438L55.6874 79.4475C57.0662 82.069 58.7683 78.8748 59.3121 76.425C59.4917 75.6153 59.4123 74.7708 59.1396 73.9873L57.644 69.6846C56.4753 70.1125 54.1509 74.7072 54.0742 75.1438Z" fill="#363633"/>
<path d="M53.1479 75.584L52.0428 81.988C49.8544 82.1292 48.2273 79.6968 47.3984 77.2478L47.8621 71.6543C49.1014 71.7772 52.9649 75.1796 53.1479 75.584Z" fill="#363633"/>
<path d="M55.9956 77.8667C57.0684 77.0257 57.1782 75.4238 57.4292 74.194C57.641 73.1561 57.933 72.2287 58.6102 71.4261C59.0869 70.8613 59.5723 70.2103 59.7832 69.4869C60.0098 68.7112 59.8547 67.7691 59.8434 66.9717C59.5366 71.1001 51.7739 71.4967 50.5389 71.5359C48.8046 71.5908 47.5208 70.9014 46.5316 70.2774C46.4035 71.0374 46.556 71.6675 46.6946 72.0431C46.7748 72.2593 46.9665 72.4074 47.1966 72.4222C48.3304 72.4937 50.5834 73.1203 51.8802 74.6437C52.5434 75.4238 53.0707 76.3284 53.55 77.2279C54.0085 78.0881 54.7388 78.6214 55.7236 78.0488C55.8213 77.9939 55.911 77.9329 55.9956 77.8667Z" fill="url(#paint7_linear_78_6250)"/>
<path opacity="0.9" d="M55.9956 77.8667C57.0684 77.0257 57.1782 75.4238 57.4292 74.194C57.641 73.1561 57.933 72.2287 58.6102 71.4261C59.0869 70.8613 59.5723 70.2103 59.7832 69.4869C60.0098 68.7112 59.8547 67.7691 59.8434 66.9717C59.5366 71.1001 51.7739 71.4967 50.5389 71.5359C48.8046 71.5908 47.5208 70.9014 46.5316 70.2774C46.4035 71.0374 46.556 71.6675 46.6946 72.0431C46.7748 72.2593 46.9665 72.4074 47.1966 72.4222C48.3304 72.4937 50.5834 73.1203 51.8802 74.6437C52.5434 75.4238 53.0707 76.3284 53.55 77.2279C54.0085 78.0881 54.7388 78.6214 55.7236 78.0488C55.8213 77.9939 55.911 77.9329 55.9956 77.8667Z" fill="url(#paint8_radial_78_6250)"/>
<path d="M59.7414 66.8819C60.1083 68.3086 58.7043 70.5615 55.057 71.4993C51.4087 72.437 46.8986 71.7049 46.5316 70.2782C46.1647 68.8515 48.8464 67.7665 52.4729 66.7476C56.637 65.5772 59.3745 65.4552 59.7414 66.8819Z" fill="#9FA4A5"/>
<path d="M59.0992 61.6006V66.9727C59.0992 66.9727 59.345 70.0013 54.4697 70.9356C47.8948 72.1958 47.2821 69.8915 47.2821 69.8915L46.856 64.7965L59.0992 61.6006Z" fill="#363633"/>
<path d="M48.0165 68.5211C50.7574 69.8659 52.9459 67.9424 54.7255 66.2002C56.262 64.696 57.836 63.8035 59.797 64.1504C59.7264 60.1213 59.6244 55.6111 59.5442 54.5705C59.5067 54.0877 59.4388 53.6188 59.3586 53.1621C59.3516 52.9913 59.3446 52.8379 59.3359 52.7246C59.1494 50.3113 58.9403 49.2428 58.6727 48.4227C58.2918 47.2558 57.0194 46.4923 55.8167 46.7416C51.9096 47.5495 47.9163 49.2821 45.0193 52.0396C44.9635 52.3533 45.788 61.2325 46.3545 67.1781C46.8791 67.7219 47.4169 68.2265 48.0165 68.5211Z" fill="url(#paint9_linear_78_6250)"/>
<path opacity="0.9" d="M48.0165 68.5211C50.7574 69.8659 52.9459 67.9424 54.7255 66.2002C56.262 64.696 57.836 63.8035 59.797 64.1504C59.7264 60.1213 59.6244 55.6111 59.5442 54.5705C59.5067 54.0877 59.4388 53.6188 59.3586 53.1621C59.3516 52.9913 59.3446 52.8379 59.3359 52.7246C59.1494 50.3113 58.9403 49.2428 58.6727 48.4227C58.2918 47.2558 57.0194 46.4923 55.8167 46.7416C51.9096 47.5495 47.9163 49.2821 45.0193 52.0396C44.9635 52.3533 45.788 61.2325 46.3545 67.1781C46.8791 67.7219 47.4169 68.2265 48.0165 68.5211Z" fill="url(#paint10_radial_78_6250)"/>
<path d="M49.2705 104.968C49.2705 105.505 49.4623 107.273 49.4623 107.683C49.4623 108.392 48.4312 108.489 47.8857 108.489C46.8041 108.489 46.4468 108 46.4328 107.699C46.4285 107.609 46.4032 105.608 46.4145 105.522C46.5435 104.565 47.1954 104.969 48.1881 104.969C49.2705 104.968 49.2705 104.968 49.2705 104.968Z" fill="#363633"/>
<path d="M54.2581 83.6452C53.9121 81.1883 53.2794 78.6069 51.7272 76.6084C50.9733 75.6384 49.9954 74.5072 48.8346 73.9363C47.8166 73.4352 46.5546 74.0862 46.3533 75.214C46.1529 76.3775 45.6134 77.7519 45.4722 78.9241C45.1968 81.2249 44.9284 83.5423 45.4033 88.0194C45.4304 88.2756 45.9359 91.4454 46.2609 92.9775C46.4823 94.0199 46.2958 95.0945 45.9812 96.1124C44.761 100.06 46.3063 101.713 45.9672 105.754C45.921 106.3 46.1511 106.916 46.9721 106.916C47.6502 106.916 47.7678 106.55 48.5687 106.401C49.0559 106.31 49.4403 106.681 49.6948 106.449C49.9388 106.227 49.7932 105.731 49.8316 105.446C50.4861 100.583 51.0422 100.06 51.6775 98.5013C51.7708 98.273 51.8614 98.0289 51.918 97.7884C52.1298 96.8776 52.6466 95.9067 52.6493 94.5637C52.6493 94.4504 53.2114 91.3033 53.6524 88.5362C53.73 88.4116 53.7857 88.2861 53.8032 88.164C53.8563 87.5819 54.1361 85.4736 54.3505 83.8866C54.3052 83.8221 54.272 83.7436 54.2581 83.6452Z" fill="url(#paint11_linear_78_6250)"/>
<path d="M51.0925 48.3785C50.8145 48.4971 50.5818 48.6226 50.3909 48.7533C48.9259 49.7555 49.9046 51.0602 51.6895 51.6729C52.7388 52.0329 55.0527 52.1941 55.5469 50.8545C56.6145 47.9602 52.8521 47.6299 51.0925 48.3785Z" fill="#9FA4A5"/>
<path d="M41.7902 77.9558C41.7118 78.2225 41.7414 78.9956 41.8129 79.2257C41.9819 79.7712 43.2186 79.7477 43.4801 79.2318C43.4801 79.2318 43.7015 78.2042 43.5324 77.819C43.3346 77.3675 42.3706 77.297 41.961 77.6691C41.8782 77.7458 41.8233 77.8452 41.7902 77.9558Z" fill="#363633"/>
<path d="M43.6394 55.5121C43.8181 57.3832 42.5753 64.2309 42.828 65.4074C43.1479 66.0715 44.2503 66.4393 44.9458 65.9521C45.0705 65.865 45.1471 65.7308 45.196 65.587C45.9045 63.4683 46.586 60.1582 47.0183 58.0735C47.1979 57.2089 47.0323 57.7963 46.5634 57.0677C46.2209 56.5361 44.0168 54.977 43.6394 55.5121Z" fill="#363633"/>
<path d="M44.2817 64.2631C43.7301 63.958 43.0755 63.9467 42.4367 64.4784C41.8563 64.9612 41.6628 65.7577 41.6209 66.4698C41.5347 67.9488 41.627 75.1668 41.5835 77.2306C41.5521 78.7174 43.69 78.2206 43.7684 77.6437C44.0726 75.4047 45.6309 68.3523 45.6657 66.7391C45.6866 65.8066 45.0966 64.7137 44.2817 64.2631Z" fill="url(#paint12_linear_78_6250)"/>
<path d="M43.9969 79.8469C43.9393 79.5166 43.8382 79.1689 43.5829 78.9353C43.3075 78.6843 43.0085 78.6922 42.6634 78.7279C42.4848 78.7462 42.2067 78.7183 41.9993 78.7453C41.9496 78.7514 41.9043 78.761 41.8651 78.775C41.3282 78.9658 41.099 79.8705 41.0093 80.3594C40.9735 80.5546 40.9387 80.7577 40.9134 80.9582L40.9125 80.9564C40.8925 81.1821 40.6258 82.1713 40.6694 82.8921C40.6807 83.0795 40.9134 84.1375 41.0502 84.2996C41.2402 84.5244 41.2585 84.2569 41.2664 84.0747C41.2786 83.7924 41.1827 83.2171 41.2062 82.9356C41.2219 82.7552 41.2716 82.6001 41.3274 82.445C41.3291 82.4459 41.33 82.4467 41.3317 82.4476C41.3474 82.8354 41.3919 83.6128 41.4006 83.8577C41.4093 84.093 41.7579 85.2461 41.9505 85.4291C42.2189 85.6827 42.2032 85.3472 42.1876 85.1188C42.1632 84.765 41.913 84.2316 41.9043 83.8778C41.8965 83.5745 41.9339 83.0612 41.9758 82.6411C41.9906 82.6446 42.0045 82.648 42.0194 82.6515C42.0594 83.0446 42.1658 83.917 42.1937 84.1863C42.2198 84.4355 42.6678 85.6365 42.8848 85.8178C43.1872 86.0688 43.148 85.7132 43.1157 85.4718C43.0661 85.0979 42.7636 84.5489 42.7305 84.1732C42.6983 83.8107 42.673 83.2651 42.6808 82.8328C42.8046 82.9086 42.8133 83.0472 42.856 83.2354C42.9231 83.53 42.965 83.829 43.0364 84.1209C43.0966 84.3641 43.5114 85.3602 43.7267 85.5433C44.0256 85.7978 43.9908 85.4422 43.9611 85.2008C43.9158 84.826 43.7685 84.4608 43.6831 84.0939C43.582 83.6582 43.4033 83.2084 43.372 82.7631C43.358 82.567 43.385 81.8933 43.5376 81.7739C43.8618 81.5194 44.1529 82.2838 44.2156 82.4903C44.3411 82.8999 44.1049 83.469 44.4135 83.829C44.7507 84.222 44.8666 83.1221 44.8605 82.9574C44.8222 81.8497 44.1825 80.9119 43.9969 79.8469Z" fill="url(#paint13_linear_78_6250)"/>
<path d="M47.2804 58.0941C49.5847 57.2897 50.2645 52.7011 47.8408 51.4164C45.0336 49.9296 41.5126 54.5801 43.8553 56.874C44.3512 57.3594 45.1382 57.8893 45.8084 58.0959C46.3505 58.2623 46.8446 58.2458 47.2804 58.0941Z" fill="url(#paint14_linear_78_6250)"/>
<path d="M47.9868 43.5804C48.4479 43.9926 50.455 48.7843 50.7661 49.6297C51.2097 50.8333 52.5624 51.3266 53.7598 51.2054C54.1834 51.1627 54.7856 51.0529 55.0157 50.6607C55.4375 49.9417 55.2641 48.7294 55.2859 47.9337C55.3077 47.1406 55.3643 46.2874 55.1839 45.5074C55.0445 44.9017 53.8644 44.8162 53.4182 44.3805C53.0827 44.0528 52.8116 43.6249 52.4203 43.3669C52.0795 43.142 51.6699 43.1115 51.2882 42.986C50.1412 42.6078 48.6352 42.1433 47.9868 43.5804Z" fill="#363633"/>
<path d="M56.8298 38.8832C56.7819 37.032 54.4165 33.145 50.5905 34.169C48.7655 34.6571 47.0974 35.9278 46.6486 39.0217C46.435 40.492 46.7078 42.0555 47.243 43.4421C47.2909 43.5668 47.3702 43.6687 47.4783 43.7463C48.1572 44.2335 50.8032 46.0593 51.9841 45.8589C52.7284 45.7325 54.5176 46.672 54.7216 45.926C55.0179 44.8444 55.4118 44.3659 55.6846 41.4027C55.7718 40.4702 56.8542 39.8192 56.8298 38.8832Z" fill="url(#paint15_linear_78_6250)"/>
<path d="M56.9038 39.4748C56.855 37.6228 55.7116 35.193 52.5854 36.3852C51.1352 36.9378 49.4827 38.7131 49.1533 41.1177C48.83 43.4795 49.0644 45.2905 50.2192 47.0057C50.8136 47.8886 53.4273 48.8595 54.7886 48.6276C55.5329 48.5013 55.7369 47.5008 55.9408 46.7556C56.2371 45.674 56.631 45.1955 56.9038 42.2332C56.991 41.2989 56.9282 40.41 56.9038 39.4748Z" fill="url(#paint16_linear_78_6250)"/>
<path d="M57.0488 89.6761C57.102 89.8094 57.1456 89.9427 57.1996 90.0761C57.1979 90.2077 57.1996 90.3219 57.1996 90.4482C58.0546 91.1681 59.9763 91.5098 60.7921 91.4645C61.6505 91.4165 62.6597 91.3224 63.3169 90.8596C63.4371 90.1162 63.5548 89.2211 63.5409 88.2686C63.4738 89.894 58.35 89.7423 57.0488 89.6761Z" fill="#363633"/>
<path d="M52.2727 96.6141C52.4496 96.0607 52.6074 95.4498 52.6327 94.7334C51.5598 95.6546 47.6065 94.2811 46.3524 93.8096C46.3594 94.119 46.3332 94.4284 46.2905 94.7369C46.9756 95.6145 48.5103 96.4268 49.2476 96.6211C50.249 96.8843 51.4787 97.1519 52.2727 96.6141Z" fill="#363633"/>
<path d="M26.3633 146.436V148H25.1914C25.7109 148.34 25.9707 148.758 25.9707 149.254C25.9707 149.727 25.7949 150.139 25.4434 150.49C25.0918 150.846 24.627 151.111 24.0488 151.287C23.4707 151.467 22.8262 151.557 22.1152 151.557C20.8184 151.557 19.832 151.26 19.1562 150.666C18.4805 150.076 18.1426 149.193 18.1426 148.018C18.1426 147.033 18.3281 145.863 18.6992 144.508L20.1406 144.9C19.8125 146.193 19.6484 147.201 19.6484 147.924C19.6484 148.662 19.8535 149.191 20.2637 149.512C20.6738 149.836 21.3223 149.998 22.209 149.998C22.6465 149.998 23.0371 149.963 23.3809 149.893C23.7285 149.826 24.0156 149.711 24.2422 149.547C24.4688 149.387 24.582 149.189 24.582 148.955C24.582 148.682 24.3984 148.484 24.0312 148.363C23.6641 148.246 22.9648 148.125 21.9336 148L22.1562 146.436H26.3633ZM28.4961 144.947C28.4961 145.283 28.6074 145.551 28.8301 145.75C29.0527 145.949 29.334 146.049 29.6738 146.049C29.8379 146.049 30.0469 146.023 30.3008 145.973L32.2637 145.598L32.5508 147.139L29.3516 147.742C28.4297 147.914 27.5156 148 26.6094 148H26.3633C26.2812 148 26.2246 147.939 26.1934 147.818C26.1582 147.697 26.1406 147.498 26.1406 147.221C26.1406 146.943 26.1582 146.744 26.1934 146.623C26.2246 146.498 26.2812 146.436 26.3633 146.436H26.5449C26.9043 146.436 27.2422 146.414 27.5586 146.371C27.1445 146.016 26.9375 145.551 26.9375 144.977C26.9375 144.418 27.0664 143.914 27.3242 143.465C27.5859 143.016 27.9375 142.668 28.3789 142.422C28.8203 142.176 29.3047 142.053 29.832 142.053C30.2812 142.053 30.6836 142.135 31.0391 142.299C31.3945 142.463 31.7461 142.725 32.0938 143.084L31.2676 144.215C30.8418 143.812 30.3789 143.611 29.8789 143.611C29.4844 143.611 29.1543 143.732 28.8887 143.975C28.627 144.213 28.4961 144.537 28.4961 144.947ZM36.8398 146.424C36.7305 145.119 36.3906 144.467 35.8203 144.467C35.5469 144.467 35.3379 144.594 35.1934 144.848C35.0488 145.102 34.9766 145.412 34.9766 145.779C34.9766 146.018 35.0469 146.188 35.1875 146.289C35.332 146.387 35.5586 146.436 35.8672 146.436C36.3203 146.436 36.6445 146.432 36.8398 146.424ZM36.6465 148H35.6738C35.0176 148 34.5078 147.824 34.1445 147.473C33.7812 147.117 33.5996 146.6 33.5996 145.92C33.5996 145.639 33.627 145.359 33.6816 145.082C33.7402 144.805 33.8281 144.539 33.9453 144.285C34.0664 144.027 34.2129 143.801 34.3848 143.605C34.5566 143.406 34.7695 143.248 35.0234 143.131C35.2773 143.014 35.5527 142.955 35.8496 142.955C36.1816 142.955 36.4805 143.02 36.7461 143.148C37.0156 143.273 37.2363 143.443 37.4082 143.658C37.584 143.869 37.7324 144.129 37.8535 144.438C37.9785 144.742 38.0723 145.057 38.1348 145.381C38.1973 145.701 38.2402 146.053 38.2637 146.436H38.7676V148H38.2051C38.0645 148.793 37.6504 149.471 36.9629 150.033C36.2754 150.596 35.3145 151.064 34.0801 151.439L33.4238 150.021C35.248 149.49 36.3223 148.816 36.6465 148ZM41.9844 144.93C41.9844 145.23 42 145.469 42.0312 145.645C42.0625 145.816 42.125 145.967 42.2188 146.096C42.3164 146.225 42.4531 146.314 42.6289 146.365C42.8047 146.412 43.0391 146.436 43.332 146.436H43.625V148H43.3145C42.8145 148 42.3691 147.898 41.9785 147.695C41.5879 147.492 41.3262 147.215 41.1934 146.863C41.0605 147.211 40.7891 147.488 40.3789 147.695C39.9688 147.898 39.5117 148 39.0078 148H38.7617C38.6836 148 38.627 147.945 38.5918 147.836C38.5566 147.723 38.5391 147.518 38.5391 147.221C38.5391 146.924 38.5566 146.719 38.5918 146.605C38.627 146.492 38.6836 146.436 38.7617 146.436H39.0078C39.3125 146.436 39.5566 146.412 39.7402 146.365C39.9238 146.314 40.0664 146.225 40.168 146.096C40.2695 145.967 40.3359 145.814 40.3672 145.639C40.4023 145.463 40.4199 145.227 40.4199 144.93V143.934H41.9844V144.93ZM39.5586 141.854L40.5957 140.816L41.627 141.854L40.5957 142.879L39.5586 141.854ZM45.2832 143.934H46.8477V145C46.8555 145.219 46.8848 145.377 46.9355 145.475C46.9902 145.572 47.0723 145.656 47.1816 145.727C47.6855 144.832 48.2402 144.15 48.8457 143.682C49.4512 143.209 50.082 142.973 50.7383 142.973C51.4492 142.973 52.0195 143.203 52.4492 143.664C52.8789 144.121 53.0938 144.697 53.0938 145.393C53.0938 145.709 53.0234 145.998 52.8828 146.26C53.1172 146.377 53.4297 146.436 53.8203 146.436V148C53.0352 148 52.4609 147.791 52.0977 147.373C51.4688 147.791 50.543 148 49.3203 148C48.5312 148 47.8535 147.902 47.2871 147.707C46.7246 147.508 46.3145 147.227 46.0566 146.863C45.9238 147.211 45.6523 147.488 45.2422 147.695C44.832 147.898 44.375 148 43.8711 148H43.625C43.5469 148 43.4902 147.945 43.4551 147.836C43.4199 147.723 43.4023 147.518 43.4023 147.221C43.4023 146.924 43.4199 146.719 43.4551 146.605C43.4902 146.492 43.5469 146.436 43.625 146.436H43.8711C44.1758 146.436 44.4199 146.412 44.6035 146.365C44.7871 146.314 44.9297 146.225 45.0312 146.096C45.1328 145.967 45.1992 145.814 45.2305 145.639C45.2656 145.463 45.2832 145.227 45.2832 144.93V143.934ZM50.4629 144.508C49.7754 144.508 49.0254 145.088 48.2129 146.248C48.5059 146.373 48.9258 146.436 49.4727 146.436C49.8359 146.436 50.1523 146.406 50.4219 146.348C50.6953 146.285 50.9238 146.172 51.1074 146.008C51.291 145.844 51.3828 145.633 51.3828 145.375C51.3828 145.121 51.2988 144.914 51.1309 144.754C50.9629 144.59 50.7402 144.508 50.4629 144.508ZM53.8203 146.436C53.9922 146.436 54.1523 146.404 54.3008 146.342C54.4492 146.279 54.5742 146.207 54.6758 146.125C54.7773 146.039 54.8828 145.916 54.9922 145.756C55.1016 145.596 55.1875 145.459 55.25 145.346C55.3125 145.232 55.3945 145.072 55.4961 144.865C55.5859 144.689 55.6562 144.553 55.707 144.455C55.7578 144.357 55.8301 144.232 55.9238 144.08C56.0176 143.924 56.1016 143.803 56.1758 143.717C56.2539 143.627 56.3496 143.527 56.4629 143.418C56.5801 143.309 56.6953 143.227 56.8086 143.172C56.9258 143.113 57.0625 143.064 57.2188 143.025C57.375 142.986 57.5391 142.967 57.7109 142.967C58.1484 142.967 58.5449 143.1 58.9004 143.365C59.2559 143.631 59.5273 143.973 59.7148 144.391C59.9023 144.809 59.9961 145.254 59.9961 145.727C59.9961 146.441 59.8027 147.01 59.416 147.432C59.0293 147.85 58.4941 148.059 57.8105 148.059C57.4004 148.059 57.0078 147.971 56.6328 147.795C56.2578 147.615 55.9531 147.375 55.7188 147.074C55.4766 147.375 55.2051 147.605 54.9043 147.766C54.6035 147.922 54.2422 148 53.8203 148C53.7422 148 53.6855 147.945 53.6504 147.836C53.6152 147.723 53.5977 147.518 53.5977 147.221C53.5977 146.924 53.6152 146.719 53.6504 146.605C53.6855 146.492 53.7422 146.436 53.8203 146.436ZM56.5156 145.873C56.9219 146.291 57.3555 146.5 57.8164 146.5C58.0273 146.5 58.207 146.434 58.3555 146.301C58.5039 146.164 58.5781 145.973 58.5781 145.727C58.5781 145.398 58.4883 145.113 58.3086 144.871C58.1289 144.629 57.9238 144.508 57.6934 144.508C57.4785 144.508 57.2871 144.592 57.1191 144.76C56.9551 144.928 56.793 145.205 56.6328 145.592L56.5156 145.873ZM72.3125 148C71.8945 148 71.5742 147.863 71.3516 147.59C71.3008 148.719 70.9219 149.568 70.2148 150.139C69.5117 150.713 68.5664 151 67.3789 151C66.0117 151 64.9941 150.688 64.3262 150.062C63.6621 149.438 63.3301 148.527 63.3301 147.332C63.3301 146.312 63.5273 145.221 63.9219 144.057L65.334 144.484C65.0098 145.59 64.8477 146.48 64.8477 147.156C64.8477 147.926 65.0449 148.498 65.4395 148.873C65.8379 149.248 66.4805 149.436 67.3672 149.436C67.8242 149.436 68.2148 149.389 68.5391 149.295C68.8633 149.201 69.1211 149.062 69.3125 148.879C69.5039 148.695 69.6426 148.479 69.7285 148.229C69.8145 147.982 69.8574 147.691 69.8574 147.355C69.8574 146.695 69.6406 145.719 69.207 144.426L70.7422 143.834L71.1816 145.322C71.2832 145.725 71.4062 146.012 71.5508 146.184C71.6992 146.352 71.9121 146.436 72.1895 146.436C72.4473 146.436 72.6445 146.357 72.7812 146.201C72.918 146.041 73 145.793 73.0273 145.457L73.127 144.197L74.498 144.297L74.4219 145.434C74.3711 146.102 74.6387 146.436 75.2246 146.436C75.4863 146.436 75.6797 146.361 75.8047 146.213C75.9336 146.064 75.998 145.834 75.998 145.521C75.998 145.201 75.9297 144.656 75.793 143.887L77.3164 143.523C77.4648 144.207 77.5391 144.867 77.5391 145.504C77.5391 147.168 76.8535 148 75.4824 148C74.5723 148 73.998 147.652 73.7598 146.957C73.6738 147.281 73.498 147.537 73.2324 147.725C72.9668 147.908 72.6602 148 72.3125 148ZM71.5625 141.971L72.5996 140.934L73.6309 141.971L72.5996 142.996L71.5625 141.971ZM73.6133 141.971L74.6504 140.934L75.6816 141.971L74.6504 142.996L73.6133 141.971ZM72.5879 140.072L73.625 139.035L74.6562 140.072L73.625 141.098L72.5879 140.072ZM81.7695 146.424C81.6602 145.119 81.3203 144.467 80.75 144.467C80.4766 144.467 80.2676 144.594 80.123 144.848C79.9785 145.102 79.9062 145.412 79.9062 145.779C79.9062 146.018 79.9766 146.188 80.1172 146.289C80.2617 146.387 80.4883 146.436 80.7969 146.436C81.25 146.436 81.5742 146.432 81.7695 146.424ZM81.5762 148H80.6035C79.9473 148 79.4375 147.824 79.0742 147.473C78.7109 147.117 78.5293 146.6 78.5293 145.92C78.5293 145.639 78.5566 145.359 78.6113 145.082C78.6699 144.805 78.7578 144.539 78.875 144.285C78.9961 144.027 79.1426 143.801 79.3145 143.605C79.4863 143.406 79.6992 143.248 79.9531 143.131C80.207 143.014 80.4824 142.955 80.7793 142.955C81.1113 142.955 81.4102 143.02 81.6758 143.148C81.9453 143.273 82.166 143.443 82.3379 143.658C82.5137 143.869 82.6621 144.129 82.7832 144.438C82.9082 144.742 83.002 145.057 83.0645 145.381C83.127 145.701 83.1699 146.053 83.1934 146.436H83.6973V148H83.1348C82.9941 148.793 82.5801 149.471 81.8926 150.033C81.2051 150.596 80.2441 151.064 79.0098 151.439L78.3535 150.021C80.1777 149.49 81.252 148.816 81.5762 148ZM83.6914 146.436H84.1133C84.4922 146.436 84.8184 146.395 85.0918 146.312C84.5723 145.793 84.3125 145.281 84.3125 144.777C84.3125 144.418 84.3965 144.074 84.5645 143.746C84.7363 143.418 84.9746 143.148 85.2793 142.938L84.5469 142.621L85.1562 141.18L88.5312 142.627C89.6094 143.096 90.3828 143.574 90.8516 144.062C91.3242 144.551 91.5605 145.143 91.5605 145.838C91.5605 146.482 91.3398 147.016 90.8984 147.438C90.4609 147.855 89.8594 148.064 89.0938 148.064C88.293 148.064 87.4609 147.855 86.5977 147.438C85.8984 147.812 85.1035 148 84.2129 148H83.6914C83.6133 148 83.5566 147.943 83.5215 147.83C83.4863 147.717 83.4688 147.514 83.4688 147.221C83.4688 146.928 83.4863 146.725 83.5215 146.611C83.5566 146.494 83.6133 146.436 83.6914 146.436ZM86.627 145.979C87.248 145.674 87.5586 145.254 87.5586 144.719C87.5586 144.41 87.4863 144.162 87.3418 143.975C87.2012 143.787 86.9902 143.693 86.709 143.693C86.4355 143.693 86.209 143.805 86.0293 144.027C85.8535 144.246 85.7656 144.506 85.7656 144.807C85.7656 145.26 86.0527 145.65 86.627 145.979ZM88.0098 146.307C88.3926 146.432 88.7637 146.494 89.123 146.494C89.7363 146.494 90.043 146.246 90.043 145.75C90.043 145.48 89.9355 145.236 89.7207 145.018C89.5098 144.795 89.166 144.582 88.6895 144.379C88.7949 144.758 88.7832 145.117 88.6543 145.457C88.5254 145.797 88.3105 146.08 88.0098 146.307Z" fill="white"/>
<defs>
<filter id="filter0_d_78_6250" x="0" y="0" width="108" height="188" filterUnits="userSpaceOnUse" color-interpolation-filters="sRGB">
<feFlood flood-opacity="0" result="BackgroundImageFix"/>
<feColorMatrix in="SourceAlpha" type="matrix" values="0 0 0 0 0 0 0 0 0 0 0 0 0 0 0 0 0 0 127 0" result="hardAlpha"/>
<feOffset/>
<feGaussianBlur stdDeviation="2"/>
<feComposite in2="hardAlpha" operator="out"/>
<feColorMatrix type="matrix" values="0 0 0 0 0 0 0 0 0 0 0 0 0 0 0 0 0 0 0.25 0"/>
<feBlend mode="normal" in2="BackgroundImageFix" result="effect1_dropShadow_78_6250"/>
<feBlend mode="normal" in="SourceGraphic" in2="effect1_dropShadow_78_6250" result="shape"/>
</filter>
<linearGradient id="paint0_linear_78_6250" x1="104" y1="274" x2="204" y2="274" gradientUnits="userSpaceOnUse">
<stop stop-color="#FF5858"/>
<stop offset="1" stop-color="#F09819"/>
</linearGradient>
<linearGradient id="paint1_linear_78_6250" x1="45.5114" y1="111.044" x2="53.3426" y2="111.044" gradientUnits="userSpaceOnUse">
<stop stop-color="#B2B9BB"/>
<stop offset="1" stop-color="#D6DCDD"/>
</linearGradient>
<linearGradient id="paint2_linear_78_6250" x1="65.5818" y1="72.5126" x2="68.0396" y2="72.1029" gradientUnits="userSpaceOnUse">
<stop stop-color="#B2B9BB"/>
<stop offset="1" stop-color="#D6DCDD"/>
</linearGradient>
<linearGradient id="paint3_linear_78_6250" x1="62.8285" y1="62.0008" x2="65.7788" y2="61.3199" gradientUnits="userSpaceOnUse">
<stop stop-color="#B2B9BB"/>
<stop offset="1" stop-color="#D6DCDD"/>
</linearGradient>
<linearGradient id="paint4_linear_78_6250" x1="55.7391" y1="50.5656" x2="60.448" y2="44.8921" gradientUnits="userSpaceOnUse">
<stop stop-color="#B2B9BB"/>
<stop offset="0.4476" stop-color="#D6DCDD"/>
<stop offset="1" stop-color="#E9ECED"/>
</linearGradient>
<linearGradient id="paint5_linear_78_6250" x1="58.2659" y1="104.883" x2="68.2682" y2="104.883" gradientUnits="userSpaceOnUse">
<stop stop-color="#B2B9BB"/>
<stop offset="1" stop-color="#D6DCDD"/>
</linearGradient>
<linearGradient id="paint6_linear_78_6250" x1="56.2925" y1="86.6922" x2="61.043" y2="86.0254" gradientUnits="userSpaceOnUse">
<stop stop-color="#B2B9BB"/>
<stop offset="1" stop-color="#D6DCDD"/>
</linearGradient>
<linearGradient id="paint7_linear_78_6250" x1="46.4837" y1="72.6303" x2="59.9059" y2="72.6303" gradientUnits="userSpaceOnUse">
<stop stop-color="#B2B9BB"/>
<stop offset="1" stop-color="#D6DCDD"/>
</linearGradient>
<radialGradient id="paint8_radial_78_6250" cx="0" cy="0" r="1" gradientUnits="userSpaceOnUse" gradientTransform="translate(57.3779 67.5311) scale(11.4228 11.4228)">
<stop stop-color="#E9ECED"/>
<stop offset="1"/>
</radialGradient>
<linearGradient id="paint9_linear_78_6250" x1="45.0177" y1="57.834" x2="59.7976" y2="57.834" gradientUnits="userSpaceOnUse">
<stop stop-color="#B2B9BB"/>
<stop offset="1" stop-color="#D6DCDD"/>
</linearGradient>
<radialGradient id="paint10_radial_78_6250" cx="0" cy="0" r="1" gradientUnits="userSpaceOnUse" gradientTransform="translate(56.9995 47.4091) scale(22.0462 22.0462)">
<stop stop-color="#E9ECED"/>
<stop offset="1"/>
</radialGradient>
<linearGradient id="paint11_linear_78_6250" x1="43.8612" y1="90.2013" x2="49.8751" y2="90.4282" gradientUnits="userSpaceOnUse">
<stop stop-color="#B2B9BB"/>
<stop offset="1" stop-color="#D6DCDD"/>
</linearGradient>
<linearGradient id="paint12_linear_78_6250" x1="41.4381" y1="70.8896" x2="44.8421" y2="71.4002" gradientUnits="userSpaceOnUse">
<stop stop-color="#B2B9BB"/>
<stop offset="1" stop-color="#D6DCDD"/>
</linearGradient>
<linearGradient id="paint13_linear_78_6250" x1="40.6642" y1="82.3074" x2="44.8622" y2="82.3074" gradientUnits="userSpaceOnUse">
<stop stop-color="#B2B9BB"/>
<stop offset="1" stop-color="#D6DCDD"/>
</linearGradient>
<linearGradient id="paint14_linear_78_6250" x1="43.4654" y1="56.791" x2="48.3824" y2="53.387" gradientUnits="userSpaceOnUse">
<stop stop-color="#B2B9BB"/>
<stop offset="0.4476" stop-color="#D6DCDD"/>
<stop offset="1" stop-color="#E9ECED"/>
</linearGradient>
<linearGradient id="paint15_linear_78_6250" x1="46.5757" y1="40.1079" x2="56.8307" y2="40.1079" gradientUnits="userSpaceOnUse">
<stop stop-color="#B2B9BB"/>
<stop offset="1" stop-color="#D6DCDD"/>
</linearGradient>
<linearGradient id="paint16_linear_78_6250" x1="56.4271" y1="38.3837" x2="50.9049" y2="45.8726" gradientUnits="userSpaceOnUse">
<stop stop-color="#E9ECED"/>
<stop offset="1" stop-color="#D6DCDD"/>
</linearGradient>
</defs>
</svg>
