<svg width="108" height="188" fill="none" xmlns="http://www.w3.org/2000/svg"><g filter="url(#a)"><rect x="104" y="184" width="100" height="180" rx="50" transform="rotate(180 104 184)" fill="url(#b)"/><rect x="103" y="183" width="98" height="178" rx="49" transform="rotate(180 103 183)" stroke="#FBFBFB" stroke-width="2"/></g><path d="M45.568 109.354c-.242.531-.236 1.256-.048 1.618 1.088 2.106 2.674 4.701 4.353 5.128 1.495.38 3.017.021 3.412-.809.287-.602.023-1.675-.314-2.05-.44-.489-1.673-.81-2.469-1.746-.842-.991-2.149-1.52-3.184-2.274-.465-.338-1.703-.003-1.75.133z" fill="#281504"/><path d="M45.694 110.502c-.42-1.169.016-1.23.032-1.798.022-.757.083-1.551.347-1.814.11-.109.254-.184.386-.249.423-.204.879-.158 1.34-.109.69.073 1.223.265 1.79.682.385.282.154.623.453 1.375.352.884 3.087 3.659 3.294 5.518a1.181 1.181 0 0 1-.805 1.235c-.624.212-1.468.314-2.124.221-2.083-.296-4.557-4.627-4.713-5.061z" fill="url(#c)"/><path d="M64.441 72.828c.281-.94.464-2.312.514-2.504.216-.845.498-1.475 1.402-1.516.833-.038 1.29.3 1.52 1.21.3 1.183.445 1.647.458 2.756.005.388-.305 1.666-.655 1.284-.172-.187.064-1.28.064-1.28l-.236-.86s-.116 1.703-.143 2.316c-.018.377-.49 1.077-.674 1.405-.119.213-.3.521-.392.14-.066-.275.461-1.316.418-1.562-.052-.297-.072-.598-.12-.896-.03-.191-.03-.33-.147-.414-.037.431-.05.977-.042 1.341.007.377-.524 1.15-.704 1.48-.116.215-.293.317-.39-.064-.07-.274.565-1.19.558-1.44-.01-.27-.055-1.149-.068-1.543l-.043-.013c-.07.416-.143.925-.156 1.229-.016.354-.495.653-.683.953-.122.194-.297.17-.364-.194-.049-.262.539-.838.546-1.073.008-.25.017-.773.023-1.156-.066.15-.126.302-.154.481-.044.28-.284.54-.555.707-.156.096-.392.244-.413-.05-.014-.213.382-.557.436-.737z" fill="url(#d)"/><path opacity=".5" d="M66.452 72.907c.118.084.117.224.147.414.047.298.067.6.12.896.042.246-.484 1.287-.418 1.561a.383.383 0 0 0 .054.133c.288-.297.695-1.094.814-1.512.045-.162.13-1.063.152-1.807.029-.988-.539-1.927-1.469-2.264l-.019-.007a.743.743 0 0 0-.98.58c-.09.534-.23 1.32-.411 1.925-.054.18-.45.524-.436.736.021.294.257.147.413.05.271-.166.512-.426.556-.706.027-.179.088-.33.154-.481-.006.382-.017.905-.024 1.156-.007.235-.594.81-.545 1.072.068.363.242.388.363.195.188-.3.668-.6.683-.954.014-.303.086-.812.156-1.229.014.005.028.01.043.013.013.395.058 1.273.068 1.543.009.25-.626 1.167-.557 1.44.097.382.274.279.39.065.18-.331.71-1.104.703-1.48-.007-.362.005-.907.043-1.34z" fill="#9FA4A5"/><path d="M67.07 68.074c.126.248.238 1.014.21 1.252-.066.568-1.286.772-1.638.312 0 0-.407-.97-.311-1.378.111-.48 1.045-.726 1.517-.436.097.06.169.147.221.25z" fill="#363633"/><path d="M62.106 55.071c.486-.402 1.128-.532 1.854-.127.659.368.996 1.115 1.167 1.807.356 1.439 1.591 8.55 2.013 10.571.304 1.456-1.89 1.36-2.073.808-.71-2.145-3.537-8.791-3.867-10.37-.19-.914.188-2.095.906-2.689z" fill="url(#e)"/><path d="M63.706 55.405c.322.46.072 1.188-.556 1.628-.628.439-1.399.422-1.72-.039-.322-.46-.073-1.19.556-1.628.628-.439 1.398-.422 1.72.039z" fill="#9FA4A5"/><path d="M59.478 46.737c.48 1.818 4.017 7.812 4.187 9.003-.07.734-.977 1.46-1.8 1.245a.7.7 0 0 1-.36-.257c-1.399-1.742-3.184-4.612-4.31-6.418-.468-.749-.11-.256.079-1.101.137-.618 1.664-2.843 2.204-2.472z" fill="#363633"/><path d="M58.609 51.554c2.304-.804 2.984-5.393.56-6.678-2.807-1.486-6.328 3.164-3.985 5.458.496.485 1.283 1.015 1.953 1.222.541.166 1.035.15 1.472-.002z" fill="url(#f)"/><path d="M58.273 104.018c-.102.222-.17 1.159.24 1.432.873.582 1.304.74 2.285 1.416.67.46 1.673 1.431 2.454 1.717.787.29 2.035.571 2.884.522 1.115-.065 2.025-.338 2.13-1.531.063-.713-.526-1.254-.592-1.302-.57-.416-2.844-.577-4.022-1.163-1.248-.623-2.51-1.203-3.71-1.872-.537-.299-1.636.63-1.669.781z" fill="#281504"/><path d="M58.57 104.736c-.642-.578-.085-1.405.03-2.083.068-.397.036-1.04.366-1.332.455-.402 1.42-.063 1.952-.019.4.033 1.11.012 1.458.227.373.232.393.83.656 1.16.711.893 1.804 1.295 2.76 1.882 1.022.627 2.356 1.476 2.473 2.797.039.43-.27.88-.67 1.042-1.427.577-3.322-.017-4.65-.794-1.087-.638-1.92-1.672-3.062-2.205-.448-.209-.946-.344-1.313-.675z" fill="url(#g)"/><path d="M62.136 99.167c0 .537.192 2.306.192 2.715 0 .709-1.031.806-1.577.806-1.081 0-1.438-.489-1.453-.79-.004-.089-.03-2.09-.018-2.177.13-.957.781-.553 1.774-.553h1.082z" fill="#363633"/><path d="M63.535 87.806c-.013-.19-.542-6.348-1.881-11.326-.251-.933-.614-1.83-.955-2.735-.29-.767-.472-1.627-1.003-2.28-.476-.585-.91-.361-1.477-.048-.91.503-1.56 1.442-2.134 2.302-.864 1.298-1.308 2.935-1.422 4.478-.123 1.664.169 4.465.715 6.543.463 1.759 1.095 3.554 1.82 5.336-.074 5.764 1.018 6.423 1.535 10.062l.204.984c.625.334 1.408.455 1.89-.258.187-.274.486-.464.791-.58.195-.074.406-.082.602-.145.29-.092.257-.17.196-.44a5.008 5.008 0 0 1-.107-1.52c.214-2.475.689-3.883.929-6.831.149-.922.387-2.203.297-3.542z" fill="url(#h)"/><path d="M59.029 71.466c-1.145-.195-3.19 3.33-3.57 4.428-.477 1.371-.61 3.64-.379 4.982.121.7.537 1.004 1.264.968 4.485-.22 4.344-10.094 2.685-10.378z" fill="#9FA4A5"/><path d="m54.074 75.144 1.613 4.303c1.38 2.622 3.081-.572 3.625-3.022.18-.81.1-1.654-.172-2.438l-1.496-4.302c-1.169.427-3.493 5.022-3.57 5.459zM53.148 75.584l-1.105 6.404c-2.189.141-3.816-2.291-4.645-4.74l.464-5.594c1.24.123 5.103 3.526 5.286 3.93z" fill="#363633"/><path d="M55.996 77.867c1.072-.841 1.182-2.443 1.433-3.673.212-1.038.504-1.965 1.181-2.768.477-.565.962-1.216 1.173-1.94.227-.775.072-1.717.06-2.514-.306 4.128-8.07 4.525-9.304 4.564-1.734.055-3.018-.635-4.007-1.259-.128.76.024 1.39.163 1.766.08.216.272.364.502.38 1.133.07 3.386.697 4.683 2.22.663.78 1.19 1.685 1.67 2.585.459.86 1.189 1.393 2.174.82.097-.054.187-.115.272-.181z" fill="url(#i)"/><path opacity=".9" d="M55.996 77.867c1.072-.841 1.182-2.443 1.433-3.673.212-1.038.504-1.965 1.181-2.768.477-.565.962-1.216 1.173-1.94.227-.775.072-1.717.06-2.514-.306 4.128-8.07 4.525-9.304 4.564-1.734.055-3.018-.635-4.007-1.259-.128.76.024 1.39.163 1.766.08.216.272.364.502.38 1.133.07 3.386.697 4.683 2.22.663.78 1.19 1.685 1.67 2.585.459.86 1.189 1.393 2.174.82.097-.054.187-.115.272-.181z" fill="url(#j)"/><path d="M59.741 66.882c.367 1.427-1.037 3.68-4.684 4.617-3.648.938-8.158.206-8.525-1.22-.367-1.427 2.314-2.513 5.94-3.531 4.165-1.17 6.902-1.293 7.27.134z" fill="#9FA4A5"/><path d="M59.1 61.6v5.373s.245 3.028-4.63 3.963c-6.575 1.26-7.188-1.045-7.188-1.045l-.426-5.095 12.243-3.195z" fill="#363633"/><path d="M48.017 68.521c2.74 1.345 4.929-.579 6.708-2.32 1.537-1.505 3.111-2.397 5.072-2.05-.07-4.03-.173-8.54-.253-9.58a14.712 14.712 0 0 0-.185-1.409c-.007-.17-.014-.324-.023-.437-.187-2.414-.396-3.482-.663-4.302-.381-1.167-1.654-1.93-2.856-1.681-3.907.808-7.9 2.54-10.798 5.298-.055.313.769 9.193 1.336 15.138.524.544 1.062 1.049 1.662 1.343z" fill="url(#k)"/><path opacity=".9" d="M48.017 68.521c2.74 1.345 4.929-.579 6.708-2.32 1.537-1.505 3.111-2.397 5.072-2.05-.07-4.03-.173-8.54-.253-9.58a14.712 14.712 0 0 0-.185-1.409c-.007-.17-.014-.324-.023-.437-.187-2.414-.396-3.482-.663-4.302-.381-1.167-1.654-1.93-2.856-1.681-3.907.808-7.9 2.54-10.798 5.298-.055.313.769 9.193 1.336 15.138.524.544 1.062 1.049 1.662 1.343z" fill="url(#l)"/><path d="M49.27 104.968c0 .537.192 2.305.192 2.715 0 .709-1.03.806-1.576.806-1.082 0-1.44-.489-1.453-.79a101.5 101.5 0 0 1-.019-2.177c.13-.957.781-.553 1.774-.553l1.082-.001z" fill="#363633"/><path d="M54.258 83.645c-.346-2.457-.979-5.038-2.53-7.037-.755-.97-1.733-2.1-2.893-2.672-1.018-.5-2.28.15-2.482 1.278-.2 1.163-.74 2.538-.88 3.71-.276 2.3-.545 4.618-.07 9.095.027.257.533 3.426.858 4.959.221 1.042.035 2.117-.28 3.134-1.22 3.948.325 5.601-.014 9.642-.046.546.184 1.162 1.005 1.162.678 0 .796-.366 1.597-.515.487-.091.871.28 1.126.048.244-.222.098-.718.137-1.003.654-4.863 1.21-5.386 1.846-6.945.093-.228.183-.472.24-.713.212-.91.729-1.881.731-3.224 0-.114.562-3.26 1.003-6.028a.99.99 0 0 0 .151-.372c.053-.582.333-2.69.547-4.277a.543.543 0 0 1-.092-.242z" fill="url(#m)"/><path d="M51.093 48.379a4.07 4.07 0 0 0-.702.374c-1.465 1.002-.486 2.307 1.299 2.92 1.049.36 3.363.521 3.857-.819 1.068-2.894-2.695-3.224-4.454-2.475z" fill="#9FA4A5"/><path d="M41.79 77.956c-.078.266-.049 1.04.023 1.27.169.545 1.406.522 1.667.006 0 0 .222-1.028.052-1.413-.197-.451-1.161-.522-1.571-.15a.63.63 0 0 0-.17.287zM43.64 55.512c.178 1.871-1.065 8.719-.812 9.895.32.665 1.422 1.032 2.118.545a.708.708 0 0 0 .25-.365c.709-2.119 1.39-5.429 1.822-7.514.18-.864.014-.277-.455-1.005-.342-.532-2.546-2.091-2.924-1.556z" fill="#363633"/><path d="M44.282 64.263c-.552-.305-1.206-.316-1.845.215-.58.483-.774 1.28-.816 1.992-.086 1.479.006 8.697-.038 10.76-.03 1.487 2.107.99 2.185.414.305-2.24 1.863-9.292 1.898-10.905.02-.932-.57-2.025-1.384-2.476z" fill="url(#n)"/><path d="M43.997 79.847c-.058-.33-.159-.678-.414-.912-.276-.25-.575-.243-.92-.207-.178.018-.456-.01-.664.017a.631.631 0 0 0-.134.03c-.537.19-.766 1.096-.856 1.584-.035.196-.07.399-.096.6v-.003c-.02.226-.287 1.215-.244 1.936.012.188.244 1.246.381 1.408.19.224.209-.043.216-.225.013-.283-.083-.858-.06-1.14a1.9 1.9 0 0 1 .121-.49c.002 0 .003.002.005.003.015.387.06 1.165.069 1.41.008.235.357 1.388.55 1.571.268.254.252-.082.237-.31-.025-.354-.275-.887-.284-1.241-.008-.303.03-.817.072-1.237l.043.01c.04.394.147 1.266.175 1.535.026.25.474 1.45.69 1.632.303.25.264-.105.232-.346-.05-.374-.352-.923-.386-1.299a14.079 14.079 0 0 1-.05-1.34c.125.076.133.214.176.402.067.295.109.594.18.886.06.243.475 1.24.69 1.422.3.255.265-.1.235-.342-.045-.375-.192-.74-.278-1.107-.101-.436-.28-.886-.311-1.33-.014-.197.013-.87.166-.99.324-.255.615.51.678.716.125.41-.111.979.197 1.339.338.393.454-.707.448-.872-.039-1.107-.678-2.045-.864-3.11z" fill="url(#o)"/><path d="M47.28 58.094c2.305-.804 2.984-5.393.56-6.678-2.806-1.486-6.327 3.164-3.985 5.458.496.485 1.283 1.015 1.953 1.222.542.166 1.037.15 1.472-.002z" fill="url(#p)"/><path d="M47.987 43.58c.46.413 2.468 5.204 2.78 6.05.443 1.203 1.795 1.697 2.993 1.575.423-.042 1.026-.152 1.256-.544.422-.72.248-1.932.27-2.727.022-.793.078-1.647-.102-2.427-.14-.605-1.32-.69-1.766-1.127-.335-.327-.606-.755-.998-1.013-.34-.225-.75-.255-1.132-.381-1.147-.378-2.653-.843-3.301.594z" fill="#363633"/><path d="M56.83 38.883c-.048-1.851-2.413-5.738-6.24-4.714-1.825.488-3.493 1.759-3.941 4.853-.214 1.47.059 3.034.594 4.42a.66.66 0 0 0 .235.304c.68.487 3.325 2.313 4.506 2.113.744-.127 2.534.813 2.738.067.296-1.082.69-1.56.963-4.523.087-.933 1.17-1.584 1.145-2.52z" fill="url(#q)"/><path d="M56.904 39.475c-.049-1.852-1.192-4.282-4.319-3.09-1.45.553-3.102 2.328-3.432 4.733-.323 2.361-.089 4.172 1.066 5.888.595.883 3.208 1.853 4.57 1.622.744-.127.948-1.127 1.152-1.872.296-1.082.69-1.56.963-4.523.087-.934.024-1.823 0-2.758z" fill="url(#r)"/><path d="M57.049 89.676c.053.133.097.267.15.4v.372c.856.72 2.777 1.062 3.593 1.017.858-.049 1.868-.143 2.525-.605.12-.744.238-1.639.224-2.591-.067 1.625-5.191 1.473-6.492 1.407zM52.273 96.614c.177-.553.334-1.164.36-1.88-1.073.92-5.027-.453-6.28-.924.006.309-.02.618-.063.927.686.878 2.22 1.69 2.958 1.884 1.001.263 2.23.53 3.025-.007z" fill="#363633"/><path d="M26.363 146.436V148h-1.172c.52.34.78.758.78 1.254 0 .473-.176.885-.528 1.236-.351.356-.816.621-1.394.797-.578.18-1.223.27-1.934.27-1.297 0-2.283-.297-2.959-.891-.675-.59-1.013-1.473-1.013-2.648 0-.985.185-2.155.556-3.51l1.442.392c-.328 1.293-.493 2.301-.493 3.024 0 .738.206 1.267.616 1.588.41.324 1.058.486 1.945.486.438 0 .828-.035 1.172-.105.348-.067.635-.182.861-.346.227-.16.34-.358.34-.592 0-.273-.184-.471-.55-.592-.368-.117-1.067-.238-2.098-.363l.222-1.564h4.207zm2.133-1.489c0 .336.111.604.334.803.223.199.504.299.844.299.164 0 .373-.026.627-.076l1.963-.375.287 1.541-3.2.603c-.921.172-1.835.258-2.742.258h-.246c-.082 0-.138-.061-.17-.182-.035-.121-.052-.32-.052-.597 0-.278.017-.477.052-.598.032-.125.088-.187.17-.187h.182c.36 0 .697-.022 1.014-.065-.415-.355-.622-.82-.622-1.394 0-.559.13-1.063.387-1.512a2.76 2.76 0 0 1 1.055-1.043 2.935 2.935 0 0 1 1.453-.369c.45 0 .852.082 1.207.246.355.164.707.426 1.055.785l-.826 1.131c-.426-.403-.89-.604-1.39-.604-.394 0-.724.121-.99.364-.261.238-.392.562-.392.972zm8.344 1.477c-.11-1.305-.45-1.957-1.02-1.957-.273 0-.482.127-.627.381-.144.254-.216.564-.216.931 0 .239.07.409.21.51.145.098.372.147.68.147.453 0 .778-.004.973-.012zM36.646 148h-.972c-.656 0-1.166-.176-1.53-.527-.363-.356-.544-.873-.544-1.553a3.749 3.749 0 0 1 .346-1.635c.12-.258.267-.484.439-.68.172-.199.385-.357.638-.474a1.95 1.95 0 0 1 .827-.176c.332 0 .63.065.896.193.27.125.49.295.662.51.176.211.324.471.445.78.125.304.22.619.282.943.062.32.105.672.129 1.055h.504V148h-.563c-.14.793-.555 1.471-1.242 2.033-.688.563-1.648 1.031-2.883 1.406l-.656-1.418c1.824-.531 2.898-1.205 3.223-2.021zm5.338-3.07c0 .3.016.539.047.715.032.171.094.322.188.451a.761.761 0 0 0 .41.269c.176.047.41.071.703.071h.293V148h-.31c-.5 0-.946-.102-1.337-.305-.39-.203-.652-.48-.785-.832-.133.348-.404.625-.814.832-.41.203-.867.305-1.371.305h-.246c-.078 0-.135-.055-.17-.164-.035-.113-.053-.318-.053-.615s.018-.502.053-.616c.035-.113.092-.169.17-.169h.246c.304 0 .549-.024.732-.071a.795.795 0 0 0 .428-.269c.102-.129.168-.282.2-.457a3.78 3.78 0 0 0 .052-.709v-.996h1.564v.996zm-2.425-3.076 1.037-1.038 1.031 1.038-1.031 1.025-1.037-1.025zm5.724 2.08h1.565V145c.008.219.037.377.087.475a.732.732 0 0 0 .247.252c.503-.895 1.058-1.577 1.664-2.045.605-.473 1.236-.709 1.892-.709.711 0 1.282.23 1.711.691.43.457.645 1.033.645 1.729 0 .316-.07.605-.211.867.234.117.547.176.937.176V148c-.785 0-1.36-.209-1.722-.627-.63.418-1.555.627-2.778.627-.789 0-1.467-.098-2.033-.293-.562-.199-.972-.48-1.23-.844-.133.348-.405.625-.815.832-.41.203-.867.305-1.37.305h-.247c-.078 0-.135-.055-.17-.164-.035-.113-.053-.318-.053-.615s.018-.502.053-.616c.035-.113.092-.169.17-.169h.246c.305 0 .549-.024.732-.071a.795.795 0 0 0 .428-.269c.102-.129.168-.282.2-.457a3.78 3.78 0 0 0 .052-.709v-.996zm5.18.574c-.688 0-1.438.58-2.25 1.74.293.125.713.188 1.26.188.363 0 .68-.03.949-.088a1.52 1.52 0 0 0 .685-.34.81.81 0 0 0 .276-.633.82.82 0 0 0-.252-.621c-.168-.164-.39-.246-.668-.246zm3.357 1.928c.172 0 .332-.032.48-.094.15-.063.274-.135.376-.217.101-.086.207-.209.316-.369.11-.16.196-.297.258-.41.063-.114.145-.274.246-.481l.211-.41a6.1 6.1 0 0 1 .217-.375 2.7 2.7 0 0 1 .252-.363c.078-.09.174-.19.287-.299a1.44 1.44 0 0 1 .346-.246 2.025 2.025 0 0 1 .902-.205c.437 0 .834.133 1.19.398.355.266.626.608.814 1.026.187.418.281.863.281 1.336 0 .714-.193 1.283-.58 1.705-.387.418-.922.627-1.605.627a2.74 2.74 0 0 1-1.178-.264c-.375-.18-.68-.42-.914-.721a2.657 2.657 0 0 1-.815.692c-.3.156-.662.234-1.084.234-.078 0-.135-.055-.17-.164-.035-.113-.052-.318-.052-.615s.017-.502.052-.616c.035-.113.092-.169.17-.169zm2.696-.563c.406.418.84.627 1.3.627a.78.78 0 0 0 .54-.199c.148-.137.222-.328.222-.574 0-.329-.09-.614-.27-.856-.18-.242-.384-.363-.615-.363a.791.791 0 0 0-.574.252c-.164.168-.326.445-.486.832l-.117.281zM72.313 148c-.419 0-.739-.137-.961-.41-.051 1.129-.43 1.978-1.137 2.549-.703.574-1.649.861-2.836.861-1.367 0-2.385-.312-3.053-.938-.664-.624-.996-1.535-.996-2.73 0-1.02.197-2.111.592-3.275l1.412.427c-.324 1.106-.486 1.996-.486 2.672 0 .77.197 1.342.591 1.717.399.375 1.042.563 1.928.563a4.25 4.25 0 0 0 1.172-.141c.324-.094.582-.233.773-.416.192-.184.33-.4.416-.65a2.66 2.66 0 0 0 .13-.874c0-.66-.217-1.636-.651-2.929l1.535-.592.44 1.488c.101.403.224.69.369.862.148.168.361.252.638.252.258 0 .456-.079.592-.235.137-.16.219-.408.246-.744l.1-1.26 1.371.1-.076 1.137c-.05.668.217 1.002.803 1.002.261 0 .455-.075.58-.223.129-.149.193-.379.193-.692 0-.32-.068-.865-.205-1.634l1.523-.364c.149.684.223 1.344.223 1.981 0 1.664-.686 2.496-2.057 2.496-.91 0-1.484-.348-1.722-1.043-.086.324-.262.58-.528.768a1.582 1.582 0 0 1-.92.275zm-.75-6.029 1.037-1.037 1.03 1.037-1.03 1.025-1.037-1.025zm2.05 0 1.037-1.037 1.032 1.037-1.032 1.025-1.037-1.025zm-1.025-1.899 1.037-1.037 1.031 1.037-1.031 1.026-1.037-1.026zm9.181 6.352c-.109-1.305-.449-1.957-1.019-1.957-.273 0-.482.127-.627.381-.145.254-.217.564-.217.931 0 .239.07.409.211.51.145.098.371.147.68.147.453 0 .777-.004.972-.012zM81.576 148h-.972c-.657 0-1.166-.176-1.53-.527-.363-.356-.545-.873-.545-1.553a3.749 3.749 0 0 1 .346-1.635c.121-.258.268-.484.44-.68.171-.199.384-.357.638-.474a1.95 1.95 0 0 1 .826-.176c.332 0 .631.065.897.193.27.125.49.295.662.51.176.211.324.471.445.78.125.304.219.619.281.943.063.32.106.672.13 1.055h.503V148h-.562c-.14.793-.555 1.471-1.242 2.033-.688.563-1.649 1.031-2.883 1.406l-.657-1.418c1.825-.531 2.899-1.205 3.223-2.021zm2.115-1.564h.422c.38 0 .705-.041.979-.124-.52-.519-.78-1.031-.78-1.535a2.233 2.233 0 0 1 .967-1.839l-.732-.317.61-1.441 3.374 1.447c1.078.469 1.852.947 2.32 1.435.473.489.71 1.081.71 1.776 0 .644-.221 1.178-.663 1.6-.437.417-1.039.626-1.804.626-.801 0-1.633-.209-2.496-.626-.7.374-1.495.562-2.385.562h-.522c-.078 0-.134-.057-.17-.17-.035-.113-.052-.316-.052-.609s.017-.496.053-.61c.035-.117.091-.175.17-.175zm2.936-.457c.621-.305.932-.725.932-1.26 0-.309-.073-.557-.217-.744-.14-.188-.352-.282-.633-.282a.84.84 0 0 0-.68.334 1.208 1.208 0 0 0-.263.78c0 .453.287.843.861 1.172zm1.383.328c.383.125.754.187 1.113.187.613 0 .92-.248.92-.744 0-.27-.108-.514-.322-.732-.211-.223-.555-.436-1.032-.639a1.69 1.69 0 0 1-.035 1.078c-.129.34-.343.623-.644.85z" fill="#fff"/><defs><linearGradient id="b" x1="104" y1="274" x2="204" y2="274" gradientUnits="userSpaceOnUse"><stop stop-color="#FF5858"/><stop offset="1" stop-color="#F09819"/></linearGradient><linearGradient id="c" x1="45.511" y1="111.044" x2="53.343" y2="111.044" gradientUnits="userSpaceOnUse"><stop stop-color="#B2B9BB"/><stop offset="1" stop-color="#D6DCDD"/></linearGradient><linearGradient id="d" x1="65.582" y1="72.513" x2="68.04" y2="72.103" gradientUnits="userSpaceOnUse"><stop stop-color="#B2B9BB"/><stop offset="1" stop-color="#D6DCDD"/></linearGradient><linearGradient id="e" x1="62.828" y1="62.001" x2="65.779" y2="61.32" gradientUnits="userSpaceOnUse"><stop stop-color="#B2B9BB"/><stop offset="1" stop-color="#D6DCDD"/></linearGradient><linearGradient id="f" x1="55.739" y1="50.566" x2="60.448" y2="44.892" gradientUnits="userSpaceOnUse"><stop stop-color="#B2B9BB"/><stop offset=".448" stop-color="#D6DCDD"/><stop offset="1" stop-color="#E9ECED"/></linearGradient><linearGradient id="g" x1="58.266" y1="104.883" x2="68.268" y2="104.883" gradientUnits="userSpaceOnUse"><stop stop-color="#B2B9BB"/><stop offset="1" stop-color="#D6DCDD"/></linearGradient><linearGradient id="h" x1="56.292" y1="86.692" x2="61.043" y2="86.025" gradientUnits="userSpaceOnUse"><stop stop-color="#B2B9BB"/><stop offset="1" stop-color="#D6DCDD"/></linearGradient><linearGradient id="i" x1="46.484" y1="72.63" x2="59.906" y2="72.63" gradientUnits="userSpaceOnUse"><stop stop-color="#B2B9BB"/><stop offset="1" stop-color="#D6DCDD"/></linearGradient><linearGradient id="k" x1="45.018" y1="57.834" x2="59.798" y2="57.834" gradientUnits="userSpaceOnUse"><stop stop-color="#B2B9BB"/><stop offset="1" stop-color="#D6DCDD"/></linearGradient><linearGradient id="m" x1="43.861" y1="90.201" x2="49.875" y2="90.428" gradientUnits="userSpaceOnUse"><stop stop-color="#B2B9BB"/><stop offset="1" stop-color="#D6DCDD"/></linearGradient><linearGradient id="n" x1="41.438" y1="70.89" x2="44.842" y2="71.4" gradientUnits="userSpaceOnUse"><stop stop-color="#B2B9BB"/><stop offset="1" stop-color="#D6DCDD"/></linearGradient><linearGradient id="o" x1="40.664" y1="82.307" x2="44.862" y2="82.307" gradientUnits="userSpaceOnUse"><stop stop-color="#B2B9BB"/><stop offset="1" stop-color="#D6DCDD"/></linearGradient><linearGradient id="p" x1="43.465" y1="56.791" x2="48.382" y2="53.387" gradientUnits="userSpaceOnUse"><stop stop-color="#B2B9BB"/><stop offset=".448" stop-color="#D6DCDD"/><stop offset="1" stop-color="#E9ECED"/></linearGradient><linearGradient id="q" x1="46.576" y1="40.108" x2="56.831" y2="40.108" gradientUnits="userSpaceOnUse"><stop stop-color="#B2B9BB"/><stop offset="1" stop-color="#D6DCDD"/></linearGradient><linearGradient id="r" x1="56.427" y1="38.384" x2="50.905" y2="45.873" gradientUnits="userSpaceOnUse"><stop stop-color="#E9ECED"/><stop offset="1" stop-color="#D6DCDD"/></linearGradient><radialGradient id="j" cx="0" cy="0" r="1" gradientUnits="userSpaceOnUse" gradientTransform="translate(57.378 67.531) scale(11.4228)"><stop stop-color="#E9ECED"/><stop offset="1"/></radialGradient><radialGradient id="l" cx="0" cy="0" r="1" gradientUnits="userSpaceOnUse" gradientTransform="translate(57 47.41) scale(22.0462)"><stop stop-color="#E9ECED"/><stop offset="1"/></radialGradient><filter id="a" x="0" y="0" width="108" height="188" filterUnits="userSpaceOnUse" color-interpolation-filters="sRGB"><feFlood flood-opacity="0" result="BackgroundImageFix"/><feColorMatrix in="SourceAlpha" values="0 0 0 0 0 0 0 0 0 0 0 0 0 0 0 0 0 0 127 0" result="hardAlpha"/><feOffset/><feGaussianBlur stdDeviation="2"/><feComposite in2="hardAlpha" operator="out"/><feColorMatrix values="0 0 0 0 0 0 0 0 0 0 0 0 0 0 0 0 0 0 0.25 0"/><feBlend in2="BackgroundImageFix" result="effect1_dropShadow_78_6250"/><feBlend in="SourceGraphic" in2="effect1_dropShadow_78_6250" result="shape"/></filter></defs></svg>