<svg width="68" height="68" fill="none" xmlns="http://www.w3.org/2000/svg"><g filter="url(#a)"><rect x="4" y="4" width="60" height="60" rx="30" fill="#fff"/><g clip-path="url(#b)"><path d="M28.529 35.624a34.73 34.73 0 0 0-.788-.142c-.357-.056-1.47-.457-1.856-.668l-.435-.237c-1.006-.554-2.287-1.705-3.085-2.771a10.24 10.24 0 0 1-1.462-2.906c-.332-1.107-.377-1.406-.396-2.583-.016-.957-.012-1.016.109-1.756.07-.422.153-.867.186-.99.108-.392.31-1.025.346-1.088.019-.034.122-.27.23-.526.161-.382.706-1.311.891-1.522.023-.027.043-.06.043-.075a.495.495 0 0 1 .09-.135c.05-.06.137-.173.191-.249.105-.143 1.331-1.383 1.475-1.49.29-.216.45-.344.484-.383.165-.186 1.56-.99 1.969-1.135.095-.034.19-.072.282-.113.444-.203 1.456-.469 2.161-.567.518-.072 2.022-.087 2.337-.023.107.021.412.078.678.124.596.105.775.152 1.306.335.513.177.597.23.63.398.025.106.053.21.085.314.068.217.253.846.443 1.513.236.83.295 1.03.506 1.744.167.562.197.709.161.776-.078.144-.187.097-.433-.187-.298-.343-.396-.436-.575-.545a1.393 1.393 0 0 1-.165-.11c-.104-.12-1.136-.728-1.233-.728-.017 0-.061-.025-.096-.054-.09-.077-.423-.171-1.012-.288-.216-.042-.431-.09-.645-.142-.079-.023-.47-.04-.869-.04-.653 0-.776.013-1.211.116-.973.23-1.434.446-2.663 1.25-.136.09-.578.523-.915.9-.051.058-.163.18-.247.27-.057.056-.107.118-.15.186a.298.298 0 0 1-.064.092c-.2.222-.291.371-.57.934-.256.513-.334.72-.46 1.21-.082.324-.18.7-.218.833-.056.202-.064.395-.05 1.17.013.855.024.962.126 1.352.153.582.254.87.397 1.13.118.214.184.32.698 1.108.301.461.858 1.012 1.533 1.516.425.317.632.439 1.09.644l.686.307c.068.03.349.115.626.188l.505.133h9.728l.281-.106c.156-.059.439-.155.627-.216 1.104-.351 2.063-.91 2.736-1.59.244-.247.71-.915.965-1.378.377-.689.463-.864.56-1.135.059-.163.12-.315.137-.338a.525.525 0 0 0 .054-.162l.114-.564c.075-.375.09-.58.092-1.312.003-.738-.013-.978-.104-1.594a42.79 42.79 0 0 1-.135-.97c-.045-.414-.13-.731-.502-1.897-.064-.2-.191-.607-.285-.908-.285-.929-.63-2.025-.889-2.826a21.72 21.72 0 0 1-.16-.524c-.05-.166-.135-.43-.19-.585-.168-.497-.328-.998-.48-1.5-.075-.248-.137-.535-.137-.636v-.186h1.451c1.116 0 1.457.011 1.482.05.017.029.18.496.363 1.04.183.545.56 1.662.84 2.483 1.456 4.294 1.42 4.166 1.657 5.765.086.59.1.816.1 1.739 0 .585-.017 1.15-.037 1.26-.02.108-.076.506-.122.883a9.218 9.218 0 0 1-.17.989c-.133.468-.54 1.564-.602 1.614-.039.064-.07.132-.095.203-.028.076-.062.15-.103.221a4.323 4.323 0 0 0-.163.283c-.125.22-.257.435-.396.645-.378.576-1.44 1.617-2.373 2.324-.38.286-.712.523-.736.523-.026 0-.047.014-.047.034 0 .056-1.161.593-1.705.788-.541.2-1.098.353-1.665.46l-.525.11-4.884.006-4.885.007-.463-.09zm1.594-3.656a2.062 2.062 0 0 1-.043-.387 2.209 2.209 0 0 0-.04-.385c-.013-.02-.135-.036-.273-.036-.36 0-.916-.1-1.11-.198-.277-.14-.308-.124-.433.228-.166.467-.144.46-.63.217-.561-.277-.792-.41-1.052-.596-.369-.263-.557-.442-.557-.527 0-.048.1-.17.242-.299.133-.12.242-.252.242-.293 0-.043-.092-.169-.206-.28a2.495 2.495 0 0 1-.562-.85c-.054-.13-.119-.245-.143-.255-.025-.01-.178.047-.34.126-.108.057-.22.105-.335.144-.068 0-.265-.233-.332-.393-.077-.18-.28-.988-.327-1.303a2.536 2.536 0 0 1-.023-.435c.016-.259.072-.291.488-.291.158 0 .298-.022.335-.05.048-.038.07-.16.09-.474.024-.435.114-.905.19-.995.047-.056.06-.264.02-.33-.014-.023-.13-.073-.258-.11-.343-.1-.453-.168-.453-.278 0-.133.453-1 .677-1.293.223-.294.527-.62.628-.675.062-.033.12.007.35.247.151.156.285.285.298.285.012 0 .111-.078.22-.171.247-.216.364-.312.513-.417.142-.1.633-.34.693-.34.107 0 .085-.151-.067-.447-.09-.173-.153-.342-.14-.376.034-.09.332-.218 1.006-.433.214-.067.413-.093.819-.107l.538-.018-.028.4-.027.401.45.049c.51.056.882.14 1.102.253.2.1.22.098.287-.057.091-.209.182-.445.21-.543.015-.055.055-.091.104-.091.09 0 1.018.472 1.038.529.008.019.037.036.066.036.067 0 .686.447.835.605.1.103.11.135.072.207-.073.136-.326.4-.383.4-.03 0-.073.033-.096.075-.034.061-.008.11.146.272.392.416.635.794.795 1.24.02.06.05.068.137.048.06-.016.12-.043.13-.06.032-.048.353-.204.421-.204.094 0 .252.168.306.324.19.55.32 1.266.322 1.74.001.447-.011.458-.457.42l-.337-.027-.027.294c-.034.366-.138.948-.194 1.084a5.59 5.59 0 0 1-.105.233c-.038.08-.049.146-.026.167.02.02.176.075.347.124.222.065.315.113.329.167.022.087-.186.601-.372.915-.05.079-.092.162-.126.249a.058.058 0 0 1-.03.048.815.815 0 0 0-.13.16c-.214.31-.504.6-.597.6-.05 0-.09-.013-.09-.03s-.103-.136-.228-.266l-.227-.236-.186.184a3.84 3.84 0 0 1-.47.415c-.172.135-.63.377-.715.38a.305.305 0 0 0-.13.061c-.079.059-.078.064.05.296.146.264.165.444.059.54-.106.093-.66.263-1.158.353-.468.085-1.052.106-1.09.04h-.002zm.634-3.07c.1-.037.197-.077.294-.12a4.78 4.78 0 0 1 .274-.11c.146-.054.309-.188.696-.574.277-.275.504-.516.504-.534 0-.018-1.078-.034-2.394-.034-2.419 0-2.49.006-2.49.14 0 .063.646.73.82.847.157.108.413.233.753.369.189.075.307.09.776.093.467.005.588-.008.768-.076zm-1.18-1.654c0-.061-.182-.12-.365-.12-.132 0-.159.013-.159.08 0 .072.027.081.262.081.153 0 .262-.018.262-.041zm-.88-.21.187-.213.479.011c.508.011.72-.023.72-.115 0-.04-.063-.064-.203-.078-.16-.016-.203-.037-.215-.102-.016-.086-.12-.221-.172-.221a.968.968 0 0 0-.206.117c-.269.18-.607.354-.751.386a.693.693 0 0 0-.241.118c-.07.056-.145.11-.22.16-.175.108-.133.148.16.148l.274.001.188-.213zm2.311.039c.012-.072.027-.195.033-.273l.01-.14.407-.02c.367-.02.425-.033.578-.139.24-.166.21-.244-.098-.252a20.894 20.894 0 0 1-.327-.01c-.14-.007-.238-.33-.131-.436.045-.045-.066-.11-.332-.194a.794.794 0 0 1-.214-.128c-.144-.12-.253-.101-.472.08-.183.15-.192.198-.063.299.051.04.14.146.197.236.11.175.273.757.273.974 0 .18.11.183.14.003zm1.72-.054c.119-.245.098-.666-.041-.855-.169-.225-1.03-.437-1.03-.251 0 .043.076.073.268.104.266.044.512.18.517.287.004.091-.135.315-.27.43-.1.087-.216.132-.475.182-.33.064-.403.108-.36.22.016.043.169.057.661.06l.642.006.088-.183zm-5.123-.194c.104-.191.385-.427.509-.427.031 0 .166-.113.3-.248.284-.285.284-.285-.132-.492-.215-.107-.26-.148-.27-.242-.02-.177.051-.23.317-.23.22 0 .238-.008.315-.131.075-.12.414-.434.469-.434a.377.377 0 0 0 .112-.082 3.72 3.72 0 0 1 .3-.228c.211-.145.213-.146.465-.105l.253.04.132-.143a.653.653 0 0 0 .132-.18c0-.018.048-.098.108-.177.1-.131.12-.14.269-.117a.762.762 0 0 1 .27.105c.042.034.09.06.141.08.062 0 .137.146.139.267 0 .129-.09.267-.338.509-.067.067-.102.13-.08.15.258.24.523.444.608.464.092.023.434.268.5.357.014.018.158.079.323.135.164.057.33.13.367.163.06.053.07.05.093-.025.057-.175-.222-.883-.525-1.339a2.955 2.955 0 0 0-1.474-1.128c-.295-.106-.378-.117-.87-.122-.3-.002-.566.013-.593.034-.073.039-.15.069-.23.09-.354.108-.927.467-1.186.744-.19.202-.55.7-.55.76a.151.151 0 0 1-.038.093 2.288 2.288 0 0 0-.16.36c-.113.29-.125.367-.125.773 0 .348.017.489.076.626.04.097.086.21.101.25.042.124.16.058.272-.15zm2.448-.41c.067-.045.09-.104.09-.217 0-.2-.084-.278-.223-.204-.086.046-.133.04-.372-.052a7.027 7.027 0 0 0-.36-.128c-.048-.015-.098-.052-.11-.084-.037-.098-.153-.073-.139.031.014.093.03.104.569.353.245.114.272.139.272.245 0 .097.017.119.092.119a.379.379 0 0 0 .181-.063zm-.855-1.006c.174-.134.259-.22.259-.266 0-.066-.106-.04-.182.043-.04.045-.096.081-.123.081-.083 0-.235.145-.204.195.043.07.105.057.25-.053zm4.306 6.446c-.012-.03-.014-.06-.005-.067.194-.142.396-.27.605-.386.02 0 .035-.014.035-.032 0-.017.053-.062.117-.101.22-.128 1.106-1.057 1.4-1.465.282-.391.542-.824.542-.904 0-.02.045-.137.101-.259.056-.121.102-.232.102-.246 0-.014.044-.128.102-.251.214-.465.324-1.134.337-2.03a5.688 5.688 0 0 0-.276-1.845c-.177-.558-.34-1.12-.489-1.687a33.92 33.92 0 0 0-.16-.567.861.861 0 0 1-.04-.204.21.21 0 0 0-.034-.118c-.019-.021-.092-.266-.164-.543a67.006 67.006 0 0 0-.207-.788 54.31 54.31 0 0 1-.175-.666c-.054-.21-.18-.692-.282-1.069-.1-.378-.255-.967-.344-1.311-.166-.647-.335-1.293-.507-1.939-.176-.648-.234-.925-.21-.989.02-.051.219-.06 1.456-.06h1.434l.06.09c.059.127.105.259.137.395.077.289.117.431.268.928.037.122.101.34.14.483.041.145.125.428.185.627.062.2.153.509.203.686.071.25.145.499.22.747.142.473.148.494.318 1.09.066.233.14.488.166.565.025.078.079.259.12.403.085.306.435 1.494.613 2.079.167.556.167.555.376 1.372.293 1.146.32 1.338.315 2.298-.004.915-.027 1.22-.116 1.63l-.141.674c-.073.355-.251.855-.512 1.434a5.772 5.772 0 0 0-.154.383c-.053.14-.119.275-.196.403a6.554 6.554 0 0 0-.184.323.71.71 0 0 1-.085.14.887.887 0 0 0-.096.158c-.083.165-.108.197-.344.454l-.18.197-2.217.01c-1.781.008-2.219 0-2.234-.042zm5.61-.05c-.05-.02-.09-.046-.09-.057 0-.052.097-.225.127-.225.018 0 .034-.018.034-.04 0-.02.087-.171.193-.334.104-.158.194-.323.27-.495.024-.078.058-.151.1-.22.09-.07.617-1.625.664-1.962.03-.197.187-1.055.27-1.458.055-.276.053-1.953-.003-2.279a5.766 5.766 0 0 0-.162-.619 15.81 15.81 0 0 1-.177-.585 72.428 72.428 0 0 0-.385-1.311c-.02-.068-.157-.557-.305-1.09-.095-.357-.197-.71-.306-1.063a.58.58 0 0 1-.039-.183c0-.05-.016-.108-.036-.13a.724.724 0 0 1-.076-.219 15.62 15.62 0 0 0-.14-.545c-1.126-4.09-1.25-4.581-1.193-4.65.035-.043.33-.052 1.502-.043l1.457.01.117.364c.065.2.14.427.17.504.026.079.117.36.2.626.082.266.183.584.222.706a270.91 270.91 0 0 1 1.952 6.377l.164.633c.188.717.223 1.056.225 2.137 0 1.015-.028 1.31-.184 1.853-.2.695-.261.87-.357 1.04-.053.094-.18.328-.281.521-.082.16-.174.315-.278.462-.245.292-.806.895-.927.993a6.99 6.99 0 0 1-.664.5c-.522.35-1.152.614-1.912.802a.309.309 0 0 1-.152-.02z" fill="#000"/></g><path d="M14.604 48.483c-.07.43-.133.75-.19.962a4.2 4.2 0 0 1-.152.486.83.83 0 0 1-.151.254c-.054.059-.154.115-.3.168a2.99 2.99 0 0 1-.364.11 1.871 1.871 0 0 1-.183.035c-.025-.002-.04-.006-.047-.013-.006-.008 0-.026.017-.053.031-.044.096-.105.193-.181.1-.076.216-.172.35-.286.135-.114.235-.214.302-.3.067-.088.125-.207.176-.356.052-.152.102-.31.151-.474.05-.164.084-.276.105-.334.023-.06.046-.088.069-.086.026.005.034.028.024.068zm1.277 1.082c-.098.236-.18.405-.247.508a.88.88 0 0 1-.168.21.754.754 0 0 1-.203.1 2.91 2.91 0 0 1-.276.083c-.097.023-.17.034-.217.034-.02 0-.03 0-.03-.002-.012-.017.054-.071.2-.164.149-.093.271-.177.367-.254.096-.076.182-.16.256-.251a.863.863 0 0 0 .164-.286.604.604 0 0 1-.149.041 1.503 1.503 0 0 1-.08.008.31.31 0 0 1-.069-.003.377.377 0 0 1-.232-.092.26.26 0 0 1-.085-.208.786.786 0 0 1 .034-.144c.018-.055.055-.142.112-.261.057-.12.12-.22.186-.298.068-.078.132-.117.19-.117.101 0 .185.043.252.13a.587.587 0 0 1 .12.307c.003.06.001.12-.006.18-.004.06-.012.111-.021.152a2.36 2.36 0 0 1-.098.327zm1.45-1.065a.467.467 0 0 1-.105.08.556.556 0 0 1-.146.052c-.114.08-.2.133-.26.161a.47.47 0 0 1-.224.059.837.837 0 0 1-.315.146c-.058.033-.127.07-.205.115a.533.533 0 0 1-.146.068 1.118 1.118 0 0 1-.076-.078.167.167 0 0 1-.041-.073.131.131 0 0 1 .004-.086.367.367 0 0 1 .069-.112l.127-.034c.063-.018.124-.04.183-.069.058-.026.1-.05.127-.073a.247.247 0 0 0 .063-.078c.018-.03.03-.045.037-.046.015-.01.034-.005.058.014.02.017.04.026.061.03.077.003.154-.056.232-.176.01-.021.027-.025.052-.012a.193.193 0 0 0 .151-.008c.031-.014.085-.078.161-.19.01-.008.024-.006.042.007.018.013.044.018.08.015a.18.18 0 0 0 .071-.02l.027.08c.006.035.01.056.01.064a.328.328 0 0 1-.037.164zm-.012-2.339a.246.246 0 0 1-.003.142.524.524 0 0 1-.07.151 1.735 1.735 0 0 1-.086.12.917.917 0 0 1-.149.151.177.177 0 0 1-.041.02.057.057 0 0 1-.03-.003.097.097 0 0 1-.021-.012 15.798 15.798 0 0 1-.169-.137 1.366 1.366 0 0 0-.178-.132c-.008-.011-.012-.02-.012-.024 0-.006.004-.016.012-.03l.37-.57c.012-.015.023-.022.033-.02a.07.07 0 0 1 .036.012 1.636 1.636 0 0 1 .19.137.561.561 0 0 1 .074.09c.021.031.036.066.044.105zm-.337-.881a.247.247 0 0 1-.002.141.525.525 0 0 1-.071.152 1.76 1.76 0 0 1-.086.12.906.906 0 0 1-.149.15.187.187 0 0 1-.041.02.057.057 0 0 1-.03-.002.096.096 0 0 1-.022-.012 14.44 14.44 0 0 1-.168-.137 1.366 1.366 0 0 0-.178-.132c-.008-.011-.012-.02-.012-.024 0-.007.004-.017.012-.03l.371-.57c.011-.016.022-.022.032-.02a.07.07 0 0 1 .036.012c.033.02.065.04.098.063a.508.508 0 0 1 .166.164c.021.03.036.066.044.105zm-.435.862a.176.176 0 0 1 .008.022.34.34 0 0 1 .01.021l.007.023c0 .006 0 .01.002.014v.01a.022.022 0 0 1 .003.01v.007l.002.007a.352.352 0 0 1-.012.093v.007l-.01.03-.007.014a.09.09 0 0 0-.005.013.016.016 0 0 1-.005.012l-.015.03-.029.046-.041.06a.536.536 0 0 1-.057.076l-.039.044a.524.524 0 0 1-.041.042l-.024.024-.013.01a.17.17 0 0 1-.051.032.05.05 0 0 1-.034.002.196.196 0 0 1-.017-.005.9.9 0 0 0-.01-.01l-.059-.046-.024-.022-.144-.117-.017-.012a1.673 1.673 0 0 0-.1-.071c-.01-.008-.015-.016-.015-.022 0-.008.004-.019.012-.032l.374-.569c.011-.018.024-.025.039-.022l.005.003.012.005a1.348 1.348 0 0 1 .073.046c.021.013.043.027.064.042l.027.021a.673.673 0 0 1 .09.093l.014.02.023.039.004.01zm1.75-.872c.103-.078.205-.149.306-.212.1-.064.203-.13.305-.198 1.421-.959 2.244-1.526 2.468-1.702.256-.198.39-.305.4-.32.053-.034.064-.014.033.061-.03.074-.15.24-.362.5-.368.333-.835.689-1.401 1.068-.566.377-1.154.746-1.763 1.106l-.12.078a2.796 2.796 0 0 1-.11.063c-.08.05-.12.052-.119.01 0-.018.055-.1.164-.246a1.29 1.29 0 0 1 .2-.208zm-.966 2.922a.424.424 0 0 0 .085-.07.695.695 0 0 0 .118-.19c.044-.092.072-.242.085-.45a19.093 19.093 0 0 1 0-.806.524.524 0 0 1 .037-.198l.227-.666c.01-.03.023-.035.041-.017a.2.2 0 0 1 .008.061c0-.015-.006.059-.017.22-.012.16-.02.466-.025.92 0 .11-.018.27-.054.483a2.594 2.594 0 0 1-.131.501 1.165 1.165 0 0 1-.188.32 4.428 4.428 0 0 1-.186.2.267.267 0 0 1 0-.308zm2.195.42-.217.467a4.36 4.36 0 0 0-.179.45c-.105.318-.15.57-.131.754a.633.633 0 0 0 .229.461c.14.114.34.171.598.171.215 0 .422-.045.623-.137.15-.066.282-.149.398-.246.115-.098.204-.199.266-.303a.537.537 0 0 0 .095-.264c.002-.032-.015-.06-.049-.083a.483.483 0 0 0-.12-.058 1.958 1.958 0 0 0-.146-.044.907.907 0 0 1-.122-.04.442.442 0 0 1-.183-.121c-.046-.056-.068-.138-.066-.247 0-.14.046-.307.137-.5.09-.196.218-.398.38-.606a3.744 3.744 0 0 1 .657-.608c.095-.068.187-.125.276-.17a.701.701 0 0 1 .103-.047c.042-.012.073-.014.093-.007.02.005.033.02.036.048a3.32 3.32 0 0 1-.195.496 1.152 1.152 0 0 1-.049.085c-.015.022-.025.031-.032.03-.006.003-.014 0-.024-.008s-.027-.012-.052-.012a1.15 1.15 0 0 0-.64.276 1.683 1.683 0 0 0-.294.3c-.069.093-.103.157-.103.193a.141.141 0 0 0 .051.135c.038.029.106.061.205.097.101.036.164.064.188.083.08.054.12.153.12.298 0 .218-.043.469-.13.752a2.426 2.426 0 0 1-.354.735 1.925 1.925 0 0 1-.234.285 1.439 1.439 0 0 1-.303.237c-.21.145-.451.218-.725.218-.31-.005-.547-.107-.708-.306a.913.913 0 0 1-.151-.322 1.35 1.35 0 0 1-.042-.322c.005-.186.03-.372.074-.56.044-.186.1-.371.168-.553.069-.183.146-.36.232-.535a10.908 10.908 0 0 1 .293-.542c.018-.024.035-.037.051-.037h.003c.005.005.005.015 0 .03a.637.637 0 0 1-.027.078zm3.271-.563.254-.598c.021-.05.039-.074.052-.074.02 0 .027.016.02.047-.01.034-.022.093-.035.178a11.42 11.42 0 0 0-.03.195 12.083 12.083 0 0 0-.056.603 73.75 73.75 0 0 1-.024.32 7.33 7.33 0 0 1-.027.281c-.026.252-.066.46-.12.625a3.195 3.195 0 0 1-.187.454c-.072.138-.13.21-.174.217-.011 0-.008-.029.01-.087.021-.056.04-.125.059-.208.02-.083.036-.172.05-.266a7.85 7.85 0 0 0 .07-.579c.01-.084.02-.21.029-.378.008-.17.02-.313.036-.43.016-.117.04-.217.073-.3zm.926 1.95a1.41 1.41 0 0 1 .27-.248.681.681 0 0 1 .382-.13c.065 0 .131.009.2.027a.74.74 0 0 0 .114.022c.122 0 .24-.036.352-.108.11-.068.164-.13.164-.185 0-.025-.032-.065-.096-.122a2.363 2.363 0 0 0-.053-.044.213.213 0 0 1-.059.03.355.355 0 0 1-.144.036.328.328 0 0 1-.215-.066c-.057-.044-.085-.113-.085-.208 0-.01.065-.167.195-.473a.96.96 0 0 1 .125-.215c.043-.052.09-.078.139-.078.127 0 .25.06.368.183a.68.68 0 0 1 .176.483c0 .16-.046.35-.139.572-.085.19-.17.349-.259.476a2.072 2.072 0 0 1-.327.364.736.736 0 0 1-.464.185.667.667 0 0 1-.217-.044.64.64 0 0 0-.22-.046.5.5 0 0 0-.251.068.967.967 0 0 0-.181.14c-.07.063-.12.084-.149.063-.027-.015-.041-.034-.041-.059 0-.034.02-.082.063-.144a3.21 3.21 0 0 1 .169-.242c.09-.123.15-.202.183-.236zm1.528-3.671a.264.264 0 0 1-.003.146.518.518 0 0 1-.075.159.828.828 0 0 1-.073.102 1.296 1.296 0 0 1-.118.122.7.7 0 0 1-.056.042.27.27 0 0 1-.056.03c-.018.004-.03.002-.039-.008a7.517 7.517 0 0 1-.173-.144 1.508 1.508 0 0 0-.188-.137c-.012-.008-.017-.015-.017-.022a.13.13 0 0 1 .014-.034l.39-.596c.012-.016.024-.023.035-.022a.07.07 0 0 1 .037.012c.034.02.068.042.102.066a.753.753 0 0 1 .096.081.458.458 0 0 1 .124.203zm2.607 2.17a8.113 8.113 0 0 1-.112.193 1.431 1.431 0 0 1-.29.337.715.715 0 0 1-.196.11.717.717 0 0 0-.154.083.58.58 0 0 0-.215.286l-.097.253c-.033.09-.07.178-.11.264a.662.662 0 0 1-.518.388l-.446.076-.05.005c-.017 0-.03-.001-.038-.003-.038-.011-.049-.036-.034-.073.014-.04.053-.078.114-.117l.3-.2a49.4 49.4 0 0 1 .184-.127 3.095 3.095 0 0 0 .205-.152.856.856 0 0 0 .273-.312c.03-.057.056-.112.08-.166a2.757 2.757 0 0 1 .164-.313c.031-.052.067-.104.108-.156a.794.794 0 0 1 .17-.151c.072-.05.159-.1.26-.15a.482.482 0 0 0 .15-.114c.038-.038.08-.088.128-.151.049-.066.1-.148.154-.247a.582.582 0 0 0-.169-.08.878.878 0 0 0-.263-.062.308.308 0 0 0-.19.042.5.5 0 0 0-.135.14c-.04.06-.076.087-.105.082-.01-.005-.011-.025-.005-.06a.883.883 0 0 1 .244-.42.42.42 0 0 1 .286-.106c.08 0 .18.02.3.059.075.026.14.039.193.039a.57.57 0 0 0 .334-.12c.025 0 .033.017.025.049a4.22 4.22 0 0 1-.059.195.394.394 0 0 1-.058.135 6.467 6.467 0 0 1-.127.092.508.508 0 0 0-.103.103 1.298 1.298 0 0 0-.085.134c-.03.052-.067.124-.113.215zm2.388 1.067c-.098.236-.18.405-.246.508a.88.88 0 0 1-.169.21.754.754 0 0 1-.203.1c-.086.03-.178.058-.276.083-.097.023-.17.034-.217.034-.02 0-.029 0-.029-.002-.013-.017.054-.071.2-.164a4.05 4.05 0 0 0 .366-.254c.096-.076.182-.16.257-.251a.863.863 0 0 0 .163-.286.602.602 0 0 1-.149.041 1.516 1.516 0 0 1-.08.008.31.31 0 0 1-.069-.003.377.377 0 0 1-.232-.092.26.26 0 0 1-.085-.208.776.776 0 0 1 .034-.144c.018-.055.056-.142.113-.261.056-.12.118-.22.185-.298.068-.078.132-.117.19-.117.101 0 .185.043.252.13a.588.588 0 0 1 .12.307c.003.06.001.12-.005.18-.005.06-.012.111-.022.152a2.44 2.44 0 0 1-.098.327zm1.702-.955-.218.467a4.344 4.344 0 0 0-.178.449c-.105.319-.15.57-.132.754a.633.633 0 0 0 .23.462c.14.114.34.17.598.17.215 0 .422-.045.623-.136a1.66 1.66 0 0 0 .398-.247c.115-.097.204-.198.266-.302a.538.538 0 0 0 .095-.264c.002-.033-.015-.06-.049-.083a.484.484 0 0 0-.12-.059 1.944 1.944 0 0 0-.146-.044.911.911 0 0 1-.122-.039.443.443 0 0 1-.183-.122c-.046-.055-.068-.137-.066-.246 0-.13.043-.284.13-.462a.168.168 0 0 1 .05-.046.084.084 0 0 1 .05-.012c.016.001.03.007.04.017.014.01.023.023.028.041-.005.025.01.049.046.073a1.1 1.1 0 0 0 .205.09c.101.037.164.064.188.084.08.053.12.153.12.298 0 .218-.043.468-.13.752a2.427 2.427 0 0 1-.354.735 1.925 1.925 0 0 1-.234.285 1.44 1.44 0 0 1-.303.237c-.21.145-.451.217-.725.217-.31-.005-.547-.106-.708-.305a.911.911 0 0 1-.151-.322 1.346 1.346 0 0 1-.042-.322c.005-.186.03-.372.073-.56.044-.187.1-.372.169-.554.068-.182.146-.36.232-.535a10.956 10.956 0 0 1 .293-.541c.02-.031.037-.044.051-.037h.003c.005.005.005.015 0 .03a.637.637 0 0 1-.027.077zm2.17-.11a.098.098 0 0 1-.056-.007.444.444 0 0 1-.054-.03.423.423 0 0 0-.102-.05c-.11-.035-.242.003-.393.114-.15.11-.24.21-.269.3a.064.064 0 0 1-.041.025.186.186 0 0 1-.1-.01c-.015-.005-.024-.01-.027-.015.06-.117.146-.24.258-.37.113-.133.234-.236.364-.311a.932.932 0 0 1 .42-.124l.042.097a.392.392 0 0 1 .017.115c0 .044-.006.09-.017.139l-.042.127zm-.803-2.195a.264.264 0 0 1-.002.147 1.033 1.033 0 0 1-.147.261 1.913 1.913 0 0 1-.12.122.734.734 0 0 1-.056.041.266.266 0 0 1-.056.03c-.018.005-.03.002-.039-.008a7.304 7.304 0 0 1-.173-.144 1.507 1.507 0 0 0-.188-.136c-.012-.009-.017-.016-.015-.022a.08.08 0 0 1 .012-.034l.39-.596c.012-.017.024-.024.035-.022a.07.07 0 0 1 .037.012c.034.02.068.042.102.066a.752.752 0 0 1 .095.08.459.459 0 0 1 .125.203zm.803 1.717c.098.034.17.048.215.043a.25.25 0 0 0 .122-.043c.036-.025.054-.068.054-.13a.23.23 0 0 0-.051-.132c-.035-.04-.07-.06-.105-.06a.365.365 0 0 1-.174.048.66.66 0 0 1-.215-.046c-.066-.03-.1-.076-.1-.14 0-.045.013-.1.037-.163.027-.072.067-.164.12-.276.052-.112.103-.207.153-.286.047-.075.09-.112.13-.112a.49.49 0 0 1 .315.156c.136.13.205.296.205.496 0 .098-.012.196-.037.295a1.385 1.385 0 0 1-.112.328 2.231 2.231 0 0 1-.242.368c-.086.098-.161.147-.224.147l-.09-.015a.853.853 0 0 1-.057-.269.363.363 0 0 1 .056-.21zm.94-3.204a.265.265 0 0 1-.002.147.52.52 0 0 1-.076.158.82.82 0 0 1-.073.103 1.247 1.247 0 0 1-.117.122.72.72 0 0 1-.057.042.262.262 0 0 1-.056.029c-.018.005-.03.002-.039-.007a7.517 7.517 0 0 1-.173-.144 1.506 1.506 0 0 0-.188-.137c-.011-.008-.017-.016-.017-.022a.131.131 0 0 1 .014-.034l.391-.596c.011-.016.023-.024.034-.022a.07.07 0 0 1 .037.012c.034.02.068.042.102.066a.752.752 0 0 1 .096.08.462.462 0 0 1 .124.203zm1.033 4.28a7.175 7.175 0 0 0-.108.279 3.637 3.637 0 0 0-.144.55 1.375 1.375 0 0 0-.02.253c.027.244.127.423.301.537.174.116.38.18.615.19.318 0 .623-.084.916-.253a1.71 1.71 0 0 0 .525-.545c.2-.304.295-.724.285-1.26a9.19 9.19 0 0 1-.002-.21c0-.07-.002-.14-.005-.21a.51.51 0 0 1 .007-.092c.022-.124.097-.18.227-.169a.595.595 0 0 0 .19-.002.43.43 0 0 0 .3-.2.027.027 0 0 1 .011-.01.032.032 0 0 1 .03-.005.448.448 0 0 0 .065.017.091.091 0 0 0 .059-.017.262.262 0 0 0 .063-.068.923.923 0 0 0 .083-.144c.025-.059.046-.083.064-.073.014.004.017.039.007.102a1.176 1.176 0 0 1-.112.347.567.567 0 0 1-.154.197.335.335 0 0 1-.2.057.607.607 0 0 1-.147.156.542.542 0 0 1-.241.085l-.015.098c-.044.523-.147.99-.308 1.401a3.68 3.68 0 0 1-.412.77c-.396.535-.871.803-1.426.805a1.061 1.061 0 0 1-.684-.278c-.185-.171-.283-.413-.293-.725.007-.498.164-1.044.472-1.639l.087-.18c.005-.002.01.003.013.014a.145.145 0 0 1 .002.05.585.585 0 0 1-.04.149l-.011.024zm3.581-2.714a.247.247 0 0 1-.002.141.525.525 0 0 1-.07.152 1.702 1.702 0 0 1-.086.12.907.907 0 0 1-.15.15.185.185 0 0 1-.04.02.057.057 0 0 1-.03-.002.093.093 0 0 1-.022-.012 14.454 14.454 0 0 1-.169-.137 1.366 1.366 0 0 0-.178-.132c-.008-.011-.012-.02-.012-.024 0-.007.004-.017.012-.03l.371-.57c.012-.016.022-.022.032-.02a.07.07 0 0 1 .037.012 1.602 1.602 0 0 1 .19.136.555.555 0 0 1 .073.09c.022.032.036.067.044.106zm-.337-.882a.246.246 0 0 1-.002.142.524.524 0 0 1-.07.151 1.735 1.735 0 0 1-.086.12.917.917 0 0 1-.15.151.177.177 0 0 1-.04.02.056.056 0 0 1-.03-.002.097.097 0 0 1-.022-.013 15.798 15.798 0 0 1-.168-.136 1.366 1.366 0 0 0-.179-.132c-.008-.012-.012-.02-.012-.025 0-.006.004-.016.012-.029l.371-.571c.012-.015.022-.021.032-.02a.07.07 0 0 1 .037.012 1.636 1.636 0 0 1 .19.137.561.561 0 0 1 .073.09c.022.031.036.066.044.105zm-.434.862a.175.175 0 0 1 .007.022.296.296 0 0 1 .01.022l.007.022c0 .007.001.012.003.015v.01a.02.02 0 0 1 .002.01v.007c.002.001.003.004.003.007a.353.353 0 0 1-.013.093v.007l-.01.03-.007.014a.116.116 0 0 0-.005.012.017.017 0 0 1-.004.013l-.015.029-.03.046-.04.061a.535.535 0 0 1-.057.076l-.04.044a.492.492 0 0 1-.04.041l-.025.025-.012.01a.17.17 0 0 1-.051.031.051.051 0 0 1-.035.003.305.305 0 0 1-.017-.005l-.01-.01-.058-.046-.024-.022-.145-.117-.017-.013a1.586 1.586 0 0 0-.1-.07c-.01-.009-.014-.016-.014-.023 0-.008.004-.018.012-.031l.373-.57c.012-.017.025-.024.04-.021l.004.002.012.005a1.464 1.464 0 0 1 .073.046l.064.042.027.022a.674.674 0 0 1 .09.093l.015.02.022.038.005.01zm2.329 2.12c-.07.43-.133.75-.19.961a4.2 4.2 0 0 1-.152.486.83.83 0 0 1-.151.254c-.054.059-.154.115-.3.168a2.99 2.99 0 0 1-.364.11 1.865 1.865 0 0 1-.183.035c-.025-.002-.04-.006-.047-.013-.006-.008 0-.026.017-.053.031-.044.096-.105.193-.181.1-.076.216-.172.35-.286.134-.114.235-.214.302-.3.067-.088.125-.207.176-.356.052-.152.102-.31.151-.474.05-.164.084-.276.105-.334.023-.06.046-.088.069-.086.026.005.034.028.024.068zm.168-1.331a.264.264 0 0 1-.002.146.518.518 0 0 1-.076.159.83.83 0 0 1-.073.102 1.274 1.274 0 0 1-.117.123.685.685 0 0 1-.056.041.266.266 0 0 1-.056.03c-.018.004-.031.002-.04-.008a7.304 7.304 0 0 1-.173-.144 1.505 1.505 0 0 0-.188-.137c-.011-.008-.017-.015-.017-.022a.13.13 0 0 1 .015-.034l.39-.596c.012-.016.023-.023.035-.022a.07.07 0 0 1 .036.013c.034.02.069.041.103.066a.752.752 0 0 1 .095.08.459.459 0 0 1 .124.203zm1.109 2.412c-.098.236-.18.405-.247.508a.882.882 0 0 1-.168.21.754.754 0 0 1-.203.1c-.086.03-.178.058-.276.083-.097.023-.17.034-.217.034-.02 0-.03 0-.03-.002-.012-.017.054-.071.2-.164.149-.093.271-.177.367-.254.096-.076.182-.16.257-.251a.861.861 0 0 0 .163-.286.594.594 0 0 1-.298.046.377.377 0 0 1-.232-.092.26.26 0 0 1-.085-.208.786.786 0 0 1 .034-.144c.018-.055.055-.142.112-.261.057-.12.12-.22.186-.298.068-.078.132-.117.19-.117.101 0 .185.043.252.13a.587.587 0 0 1 .12.307c.003.06.001.12-.005.18-.005.06-.013.111-.023.152a2.372 2.372 0 0 1-.097.327zm-.178-1.273V48.241c.016-.086.09-.186.222-.3a.608.608 0 0 0 .256-.256c.044-.087.114-.214.21-.381a1.642 1.642 0 0 1 .322-.359c.017-.018.061-.08.135-.188.014-.026.043-.066.085-.12.04-.003.103.056.19.178a.614.614 0 0 1 .127.345c0 .1-.025.196-.075.285a.561.561 0 0 1-.183.203.255.255 0 0 1-.144.044.78.78 0 0 1-.11-.015 1.24 1.24 0 0 0-.105-.007.417.417 0 0 0-.115.015c-.119.05-.233.185-.344.405a3.026 3.026 0 0 1-.112.21 1.5 1.5 0 0 1-.137.2.58.58 0 0 1-.127.14.5.5 0 0 1-.132.065l.037-.413zm2.666-.243.254-.598c.02-.05.038-.074.05-.074.022 0 .029.016.02.047-.01.034-.02.093-.034.178l-.03.195a11.558 11.558 0 0 0-.055.603l-.025.32a7.12 7.12 0 0 1-.027.281c-.026.252-.066.46-.12.625a3.196 3.196 0 0 1-.187.454c-.072.138-.13.21-.174.217-.01 0-.008-.029.01-.087.021-.056.04-.125.059-.208.02-.083.037-.172.051-.266a7.85 7.85 0 0 0 .069-.579c.01-.084.02-.21.029-.378.008-.17.02-.313.036-.43.017-.117.041-.217.074-.3zm.64-2.444c.082.008.162.01.239.007.078-.005.157-.02.236-.044.08-.024.162-.06.245-.107a1.855 1.855 0 0 0 .327-.254l.063-.066a.736.736 0 0 1 .056-.051c.017-.015.028-.022.034-.022.015-.002.024.01.027.037.004.024-.005.055-.024.092-.04.078-.095.17-.166.276-.07.104-.147.199-.232.283a1.986 1.986 0 0 1-.444.352c-.14.075-.308.116-.503.124-.087 0-.163-.001-.23-.005a2.217 2.217 0 0 0-.27.003.883.883 0 0 0-.316.07c-.096.043-.18.09-.254.14a.122.122 0 0 1-.034.005c-.01-.002-.016-.006-.02-.012-.004-.007.005-.033.028-.078a1.08 1.08 0 0 1 .158-.235c.078-.093.18-.185.303-.278.125-.095.244-.159.356-.193.114-.036.254-.05.42-.044zm4.345 3.066-.012.123c-.047.522-.152.989-.313 1.4-.107.274-.245.53-.412.77-.396.535-.871.802-1.426.8a1.011 1.011 0 0 1-.672-.273c-.185-.17-.283-.412-.293-.725-.001-.498.152-1.044.46-1.638l.092-.18c.012-.004.016.016.012.058a.624.624 0 0 1-.053.178 24.31 24.31 0 0 0-.112.278 3.718 3.718 0 0 0-.096.279c-.027.09-.05.181-.066.27-.014.089-.02.173-.014.255.032.244.136.423.312.537.178.115.384.177.62.185.318.004.623-.08.916-.249a1.71 1.71 0 0 0 .525-.544c.216-.295.308-.698.276-1.211-.002-.108.01-.205.034-.293s.093-.28.207-.579a.375.375 0 0 1 .059-.124c.015-.015.025-.017.032-.008.006.009.005.032-.003.071l-.036.254-.037.366zm-1.086.594a.295.295 0 0 1-.01.139.635.635 0 0 1-.074.158 1.482 1.482 0 0 1-.122.164 1.273 1.273 0 0 1-.146.13.068.068 0 0 1-.015.002c-.024 0-.04-.007-.049-.022a.768.768 0 0 0-.065-.068 1.866 1.866 0 0 0-.108-.093l-.203-.164c-.014-.013-.019-.025-.014-.036a.43.43 0 0 1 .366-.618c.005-.007.01-.01.015-.01.005-.002.01 0 .017.005.006.005.016.01.03.017a13.1 13.1 0 0 1 .229.176.439.439 0 0 1 .149.22zm1.809-.144c-.013.162-.05.3-.11.415-.06.114-.129.17-.205.17 0-.061.02-.253.058-.576l.09-.69a31 31 0 0 1 .071-.445c.026-.156.052-.282.076-.378.028-.08.057-.16.088-.242.032-.081.066-.162.1-.242.023-.036.037-.03.044.017-.04.27-.078.551-.112.843-.034.29-.058.497-.071.622a4.308 4.308 0 0 0-.017.22 5.41 5.41 0 0 0-.012.286zm.002.131c0 .162.032.283.095.364.065.082.139.122.22.122.015-.005.04-.058.073-.16.036-.103.066-.181.09-.235.072.014.123.05.154.105a.35.35 0 0 1 .054.16c0 .186-.038.367-.115.543-.11.234-.258.351-.444.351-.107 0-.208-.061-.3-.185-.095-.124-.142-.327-.142-.61a2.947 2.947 0 0 1 .117-.33c.023-.052.05-.1.083-.142a.445.445 0 0 1 .115-.112v.13zm2.278-.769c-.07.43-.134.75-.19.962a4.2 4.2 0 0 1-.152.486.83.83 0 0 1-.151.254c-.054.059-.154.115-.3.168a2.996 2.996 0 0 1-.364.11 1.871 1.871 0 0 1-.183.035c-.025-.002-.04-.006-.047-.013-.006-.008 0-.026.017-.053.031-.044.096-.105.193-.181.1-.076.216-.172.35-.286.134-.114.235-.214.302-.3.067-.088.125-.207.176-.356.052-.152.102-.31.151-.474.049-.164.084-.276.105-.334.023-.06.046-.088.069-.086.025.005.034.028.024.068zm.168-1.33a.264.264 0 0 1-.002.146.516.516 0 0 1-.076.159.82.82 0 0 1-.073.102 1.3 1.3 0 0 1-.117.123.7.7 0 0 1-.056.041.27.27 0 0 1-.056.03c-.018.004-.031.002-.04-.008a7.73 7.73 0 0 1-.173-.144 1.498 1.498 0 0 0-.188-.137c-.011-.008-.017-.015-.017-.022a.13.13 0 0 1 .015-.034l.39-.596c.012-.016.023-.023.034-.022a.07.07 0 0 1 .037.013c.034.02.069.041.103.066a.753.753 0 0 1 .095.08.458.458 0 0 1 .124.203zm.428 1.968c-.013.162-.05.3-.11.415-.06.114-.129.17-.205.17 0-.061.02-.253.058-.576l.09-.69a31 31 0 0 1 .071-.445c.026-.156.052-.282.076-.378.028-.08.057-.16.088-.242.032-.081.066-.162.1-.242.023-.036.038-.03.044.017-.04.27-.078.551-.112.843-.035.29-.058.497-.071.622a4.308 4.308 0 0 0-.017.22 5.41 5.41 0 0 0-.012.286zm1.296.664a.39.39 0 0 1-.088.02c-.03 0-.058.003-.085.007a.292.292 0 0 0-.157.046c-.053.037-.144.146-.273.327-.142.21-.303.315-.483.315a.45.45 0 0 1-.435-.264 1.256 1.256 0 0 1-.088-.53c.018-.271.055-.474.11-.607.059-.134.114-.2.166-.2.011 0 .024.01.04.031v.225c.006.071.024.154.055.249.033.094.087.17.161.23.08.053.182.08.305.08.18-.003.316-.058.408-.164.093-.105.163-.165.21-.178a.178.178 0 0 1 .093 0 .344.344 0 0 0 .308-.08.842.842 0 0 0 .183-.232.03.03 0 0 1 .034-.008.357.357 0 0 0 .073.015.101.101 0 0 0 .066-.02.261.261 0 0 0 .07-.078 1.43 1.43 0 0 0 .086-.168c.025-.07.048-.1.071-.088.016.003.019.04.007.112-.035.158-.08.287-.131.386a.67.67 0 0 1-.157.212.544.544 0 0 1-.207.096 1.506 1.506 0 0 1-.164.153.889.889 0 0 1-.178.113z" fill="#000"/></g><defs><clipPath id="b"><path fill="#fff" transform="translate(20.5 11.5)" d="M0 0h27v27H0z"/></clipPath><filter id="a" x="0" y="0" width="68" height="68" filterUnits="userSpaceOnUse" color-interpolation-filters="sRGB"><feFlood flood-opacity="0" result="BackgroundImageFix"/><feColorMatrix in="SourceAlpha" values="0 0 0 0 0 0 0 0 0 0 0 0 0 0 0 0 0 0 127 0" result="hardAlpha"/><feOffset/><feGaussianBlur stdDeviation="2"/><feComposite in2="hardAlpha" operator="out"/><feColorMatrix values="0 0 0 0 0 0 0 0 0 0 0 0 0 0 0 0 0 0 0.25 0"/><feBlend in2="BackgroundImageFix" result="effect1_dropShadow_94_14286"/><feBlend in="SourceGraphic" in2="effect1_dropShadow_94_14286" result="shape"/></filter></defs></svg>