<svg width="32" height="32" fill="none" xmlns="http://www.w3.org/2000/svg"><path d="M27.337 4.656a15.796 15.796 0 0 0-5.166-3.455A15.86 15.86 0 0 0 16.064 0C7.284 0 .13 7.12.13 15.855c0 2.8.74 5.52 2.122 7.92L0 32l8.442-2.208a16.003 16.003 0 0 0 7.622 1.936c8.78 0 15.936-7.12 15.936-15.856 0-4.24-1.656-8.224-4.663-11.216zM16.064 29.04c-2.38 0-4.711-.64-6.753-1.84l-.483-.288-5.017 1.312 1.335-4.864-.322-.496a13.167 13.167 0 0 1-2.026-7.008c0-7.264 5.95-13.184 13.25-13.184 3.538 0 6.867 1.376 9.359 3.872a13.082 13.082 0 0 1 2.878 4.277 13.029 13.029 0 0 1 .997 5.051c.033 7.264-5.917 13.168-13.218 13.168zm7.269-9.856c-.402-.192-2.364-1.152-2.718-1.296-.37-.128-.627-.192-.9.192-.274.4-1.03 1.296-1.255 1.552-.225.272-.466.304-.868.096-.402-.192-1.688-.624-3.2-1.968-1.19-1.056-1.978-2.352-2.22-2.752-.224-.4-.031-.608.178-.816.177-.176.402-.464.595-.688.193-.224.273-.4.402-.656.128-.272.064-.496-.032-.688-.097-.192-.9-2.144-1.223-2.944-.321-.768-.659-.672-.9-.688h-.772c-.273 0-.691.096-1.061.496-.354.4-1.383 1.36-1.383 3.312 0 1.952 1.431 3.84 1.624 4.096.193.272 2.814 4.272 6.802 5.984.949.416 1.688.656 2.267.832.95.304 1.817.256 2.509.16.772-.112 2.364-.96 2.685-1.888.338-.928.338-1.712.225-1.888-.112-.176-.353-.256-.755-.448z" fill="#fff"/></svg>