<svg width="118" height="118" fill="none" xmlns="http://www.w3.org/2000/svg"><g filter="url(#a)"><rect x="4" y="4" width="110" height="110" rx="55" fill="#FBFBFB"/><g clip-path="url(#b)"><path d="M48.464 63.353a65.36 65.36 0 0 0-1.517-.278c-.69-.11-2.832-.897-3.575-1.312l-.839-.466c-1.937-1.086-4.404-3.345-5.94-5.439a20.248 20.248 0 0 1-2.817-5.704c-.64-2.173-.726-2.76-.763-5.07-.03-1.877-.022-1.994.21-3.447.135-.828.295-1.7.36-1.944.208-.768.596-2.011.665-2.135.037-.066.236-.53.444-1.032.31-.75 1.359-2.574 1.716-2.987.044-.053.083-.12.083-.148a.97.97 0 0 1 .173-.265c.097-.12.264-.34.368-.488.202-.28 2.563-2.717 2.84-2.926.558-.424.867-.674.932-.751.319-.365 3.006-1.944 3.792-2.228.184-.068.365-.141.544-.221.856-.4 2.804-.921 4.162-1.113.997-.142 3.894-.172 4.5-.047.206.042.793.153 1.307.243 1.148.208 1.492.298 2.515.658.988.347 1.149.45 1.214.782.046.207.1.413.162.616.132.426.488 1.66.854 2.97.455 1.63.567 2.021.975 3.423.32 1.105.379 1.392.31 1.524-.15.283-.36.19-.835-.366-.574-.674-.762-.857-1.107-1.072a2.7 2.7 0 0 1-.318-.216c-.2-.234-2.189-1.429-2.375-1.429-.032 0-.117-.048-.184-.106-.173-.15-.815-.335-1.95-.565a25.86 25.86 0 0 1-1.242-.278c-.151-.045-.903-.08-1.672-.078-1.26 0-1.495.025-2.334.228-1.874.45-2.762.874-5.128 2.453-.262.177-1.114 1.027-1.762 1.765-.1.115-.314.353-.476.53-.11.11-.207.234-.29.366a.584.584 0 0 1-.122.181c-.386.435-.561.73-1.099 1.833-.491 1.007-.643 1.414-.884 2.377-.16.636-.346 1.373-.42 1.634-.108.397-.123.775-.097 2.296.026 1.679.045 1.889.242 2.655.295 1.141.49 1.707.765 2.22.228.419.355.626 1.343 2.172.581.906 1.654 1.988 2.954 2.977.819.623 1.217.861 2.1 1.263l1.32.603c.13.06.672.225 1.205.369l.973.26h18.735l.542-.207c.301-.115.845-.305 1.207-.424 2.127-.69 3.974-1.785 5.27-3.12.47-.486 1.368-1.796 1.858-2.706.726-1.351.893-1.696 1.08-2.228.112-.32.231-.618.263-.663.052-.099.087-.206.105-.318l.218-1.108c.145-.735.174-1.14.178-2.575.004-1.449-.026-1.919-.201-3.13a85.807 85.807 0 0 1-.26-1.903c-.087-.812-.25-1.435-.967-3.723-.123-.393-.368-1.192-.548-1.782a457.653 457.653 0 0 0-1.712-5.547 42.975 42.975 0 0 1-.31-1.03c-.095-.326-.26-.843-.363-1.148a88.324 88.324 0 0 1-.926-2.946c-.145-.486-.264-1.049-.264-1.248v-.364h2.795c2.15 0 2.806.022 2.853.1.033.055.347.971.7 2.04.351 1.069 1.08 3.262 1.617 4.874 2.805 8.429 2.734 8.177 3.191 11.315.167 1.157.193 1.604.193 3.414 0 1.149-.032 2.26-.072 2.474a45.73 45.73 0 0 0-.233 1.733c-.075.653-.184 1.3-.328 1.941-.255.919-1.04 3.07-1.159 3.17a2.05 2.05 0 0 0-.184.397 2.91 2.91 0 0 1-.197.435c-.111.18-.216.365-.314.554-.241.431-.495.854-.763 1.268-.728 1.13-2.775 3.173-4.572 4.56-.73.563-1.369 1.027-1.417 1.027-.05 0-.09.029-.09.066 0 .11-2.237 1.166-3.283 1.548a19.657 19.657 0 0 1-3.207.903l-1.012.215-9.405.013-9.408.013-.892-.177zm3.07-7.177a4.115 4.115 0 0 1-.083-.76 4.402 4.402 0 0 0-.078-.755c-.023-.037-.26-.07-.524-.07-.695 0-1.766-.195-2.138-.389-.533-.276-.594-.243-.835.448-.32.917-.277.901-1.213.427-1.081-.546-1.525-.804-2.026-1.17-.71-.518-1.072-.869-1.072-1.037 0-.092.19-.33.466-.585.255-.236.465-.494.465-.576 0-.084-.177-.331-.396-.55a4.904 4.904 0 0 1-1.083-1.667c-.104-.256-.228-.482-.276-.502-.047-.02-.342.093-.654.248a4.406 4.406 0 0 1-.646.282c-.13 0-.509-.457-.639-.77-.147-.354-.537-1.94-.63-2.558a5.045 5.045 0 0 1-.044-.854c.03-.508.14-.572.94-.572.304 0 .575-.042.646-.1.091-.072.135-.313.172-.93.047-.852.22-1.775.366-1.951.09-.11.117-.52.04-.647-.027-.047-.25-.144-.497-.217-.661-.196-.874-.329-.874-.545 0-.26.874-1.964 1.305-2.54.429-.576 1.014-1.217 1.209-1.325.119-.064.232.015.674.486.292.307.55.559.574.559.024 0 .214-.153.422-.336.477-.424.702-.612.99-.817.273-.199 1.218-.67 1.335-.67.206 0 .163-.295-.13-.876-.173-.34-.295-.671-.269-.738.065-.176.64-.428 1.937-.85.412-.132.795-.183 1.578-.21l1.035-.035-.054.786-.052.786.87.095c.98.11 1.696.276 2.12.497.386.199.425.192.553-.11.175-.41.35-.875.403-1.067.03-.108.108-.179.201-.179.174 0 1.961.928 2 1.038.015.038.072.07.126.07.13 0 1.321.88 1.61 1.189.19.203.212.265.138.406-.14.268-.628.784-.739.784-.058 0-.14.067-.184.148-.065.122-.015.217.282.535.754.817 1.222 1.559 1.53 2.435.038.115.097.133.264.093.117-.03.23-.084.251-.117.06-.095.678-.402.81-.402.18 0 .486.331.59.636.364 1.082.617 2.487.62 3.417.002.876-.022.898-.88.825l-.65-.055-.052.579c-.065.718-.264 1.86-.373 2.127-.043.11-.136.315-.201.457-.074.156-.096.287-.052.329.04.037.34.145.67.243.426.128.606.22.632.326.043.173-.358 1.182-.715 1.798a2.634 2.634 0 0 0-.243.488.113.113 0 0 1-.058.095 1.586 1.586 0 0 0-.252.314c-.411.607-.97 1.179-1.148 1.179-.095 0-.173-.027-.173-.06s-.2-.267-.44-.523l-.438-.464-.357.362c-.43.43-.499.495-.904.815-.334.265-1.213.74-1.378.744a.58.58 0 0 0-.251.122c-.152.115-.15.126.095.58.282.52.319.873.115 1.06-.204.184-1.27.517-2.23.694-.9.166-2.025.208-2.101.08l-.002-.003zm1.222-6.024c.19-.073.379-.152.565-.236.087-.042.323-.14.527-.217.281-.106.596-.369 1.34-1.126.534-.541.972-1.014.972-1.049 0-.035-2.076-.066-4.611-.066-4.658 0-4.797.01-4.797.276 0 .121 1.246 1.43 1.58 1.66.303.212.797.458 1.451.725.364.148.591.176 1.495.183.9.009 1.131-.015 1.478-.15zm-2.273-3.248c0-.12-.351-.237-.704-.237-.254 0-.306.027-.306.16 0 .14.052.158.505.158.295 0 .505-.035.505-.081zm-1.697-.414.362-.417.921.022c.98.022 1.387-.044 1.387-.225 0-.08-.122-.126-.39-.155-.308-.03-.39-.07-.414-.198-.03-.17-.232-.435-.332-.435-.14.06-.274.136-.396.23-.518.353-1.17.695-1.447.757a1.326 1.326 0 0 0-.464.232 5.336 5.336 0 0 1-.425.313c-.336.214-.255.292.31.292l.527.002.361-.418zm4.453.078c.022-.142.052-.382.063-.535l.02-.276.784-.04c.706-.037.816-.063 1.111-.271.462-.327.405-.48-.188-.495-.21-.005-.42-.011-.629-.02-.27-.013-.46-.647-.253-.856.086-.089-.126-.217-.64-.38a1.526 1.526 0 0 1-.411-.252c-.277-.236-.488-.199-.91.159-.351.294-.368.387-.121.585.1.08.27.287.379.464.212.342.526 1.486.526 1.912 0 .354.213.358.269.005zm3.313-.106c.227-.482.188-1.308-.08-1.679-.325-.441-1.985-.856-1.985-.492 0 .084.147.144.518.205.511.087.986.354.994.563.009.18-.26.619-.518.844-.195.17-.418.258-.916.358-.637.126-.776.212-.693.433.03.081.325.11 1.273.117l1.236.01.17-.36zm-9.867-.38c.2-.375.74-.84.98-.84.06 0 .32-.22.578-.485.546-.56.546-.56-.254-.967-.416-.21-.503-.29-.522-.475-.04-.347.1-.45.61-.45.426 0 .46-.016.608-.259.145-.236.797-.85.903-.85a.723.723 0 0 0 .217-.161c.184-.16.377-.31.576-.449.407-.285.412-.287.897-.205l.488.08.253-.283c.104-.102.19-.22.254-.351 0-.038.093-.195.208-.35.195-.258.231-.275.517-.229.185.034.361.104.52.206.082.066.175.12.273.156.12 0 .265.287.267.526 0 .252-.173.523-.65.998-.13.133-.197.254-.156.294.498.472 1.01.872 1.172.912.178.044.836.525.964.7.026.035.304.154.622.265.316.112.635.256.706.32.115.104.135.1.18-.049.109-.344-.429-1.733-1.012-2.628a5.706 5.706 0 0 0-2.838-2.214c-.568-.208-.728-.23-1.677-.239-.576-.004-1.09.024-1.142.066a2.13 2.13 0 0 1-.442.177c-.682.212-1.785.916-2.283 1.46-.367.397-1.062 1.375-1.062 1.492a.301.301 0 0 1-.072.182 4.502 4.502 0 0 0-.31.706c-.216.57-.238.722-.238 1.517 0 .685.033.961.145 1.23.078.19.167.411.195.49.08.244.308.115.525-.293zm4.714-.806c.128-.088.174-.203.174-.426 0-.393-.163-.546-.43-.4-.166.09-.257.077-.716-.102a13.5 13.5 0 0 0-.694-.251c-.093-.029-.188-.102-.212-.166-.072-.192-.295-.141-.267.062.026.183.057.203 1.095.693.472.223.524.272.524.482 0 .19.032.232.178.232a.72.72 0 0 0 .348-.124zm-1.646-1.974c.333-.263.498-.433.498-.521 0-.13-.204-.08-.35.083-.077.089-.185.16-.237.16-.16 0-.453.284-.392.382.082.139.201.112.48-.104zm8.291 12.653c-.021-.057-.025-.117-.008-.132.372-.278.762-.53 1.166-.758.036 0 .067-.026.067-.061 0-.033.102-.122.225-.2.422-.25 2.13-2.075 2.695-2.874.544-.769 1.045-1.62 1.045-1.776 0-.04.086-.27.195-.508.108-.238.195-.455.195-.483 0-.027.086-.25.197-.493.412-.912.624-2.226.65-3.984a11.365 11.365 0 0 0-.533-3.621c-.341-1.096-.655-2.2-.94-3.313a68.27 68.27 0 0 0-.31-1.113 1.713 1.713 0 0 1-.076-.4.42.42 0 0 0-.065-.231c-.037-.042-.178-.522-.316-1.067-.13-.516-.263-1.031-.4-1.546-.114-.435-.227-.87-.337-1.307-.104-.413-.347-1.358-.542-2.098-.195-.742-.492-1.9-.663-2.575a379.39 379.39 0 0 0-.977-3.805c-.338-1.272-.45-1.815-.403-1.941.04-.102.42-.12 2.804-.12h2.76l.115.18c.115.247.204.506.266.772.148.568.226.848.516 1.822.072.241.195.667.27.95.079.285.24.839.356 1.23.12.393.295.998.39 1.347.138.49.279.978.423 1.466.275.928.286.97.613 2.138.128.46.27.958.32 1.11.048.153.152.509.23.791.165.601.839 2.933 1.181 4.081.323 1.091.323 1.09.726 2.694.563 2.249.615 2.626.606 4.51-.008 1.797-.052 2.396-.223 3.202-.063.291-.184.886-.273 1.32-.14.698-.483 1.679-.986 2.816a11.41 11.41 0 0 0-.296.751c-.103.275-.229.54-.377.793-.125.208-.243.419-.356.634-.043.098-.098.19-.162.276-.072.096-.134.2-.184.309-.16.322-.208.386-.663.89l-.35.386-4.267.022c-3.43.014-4.273-.002-4.303-.084zm10.806-.099c-.096-.04-.174-.088-.174-.11 0-.102.187-.442.245-.442.035 0 .065-.035.065-.077 0-.042.167-.338.373-.658.2-.309.372-.634.518-.972.048-.151.114-.297.195-.433.173-.135 1.187-3.189 1.278-3.849.056-.386.36-2.071.518-2.862.108-.543.104-3.834-.004-4.474-.082-.41-.186-.816-.313-1.215-.12-.38-.234-.763-.34-1.148-.106-.4-.57-2.01-.74-2.575-.042-.132-.304-1.093-.59-2.14a53.984 53.984 0 0 0-.59-2.085 1.154 1.154 0 0 1-.073-.36c0-.097-.03-.211-.07-.253a1.443 1.443 0 0 1-.147-.431 31.41 31.41 0 0 0-.27-1.071c-2.167-8.027-2.408-8.992-2.297-9.127.067-.084.637-.102 2.892-.084l2.808.02.226.713c.123.393.268.84.325.99.052.154.227.706.385 1.23.159.52.354 1.146.43 1.384a540.04 540.04 0 0 1 3.568 11.846c.08.262.165.565.19.673l.317 1.241c.362 1.41.429 2.074.433 4.196 0 1.992-.054 2.573-.355 3.637-.386 1.365-.503 1.71-.687 2.043-.102.183-.347.643-.542 1.022a7.546 7.546 0 0 1-.535.906c-.472.574-1.553 1.758-1.785 1.95-.65.536-.795.651-1.278.98-1.006.687-2.22 1.206-3.684 1.575a.585.585 0 0 1-.292-.04z" fill="#000"/></g><path d="M19.708 84.967c-.14.86-.267 1.5-.38 1.924-.111.423-.212.747-.304.971-.09.222-.192.39-.302.508-.108.117-.308.23-.6.337a5.98 5.98 0 0 1-.728.22 3.628 3.628 0 0 1-.367.068c-.049-.003-.08-.011-.092-.024-.013-.017-.002-.052.034-.108.062-.088.19-.208.386-.361.198-.153.43-.343.698-.571.27-.228.472-.428.605-.6.134-.177.25-.414.352-.714.104-.303.205-.618.302-.947.098-.329.168-.552.21-.669.046-.117.092-.174.137-.17.052.009.069.054.049.136zm2.554 2.163c-.196.472-.36.81-.493 1.016-.13.205-.243.345-.337.42-.095.071-.23.138-.406.2a5.8 5.8 0 0 1-.551.166 2.13 2.13 0 0 1-.435.068c-.039 0-.059-.002-.059-.005-.026-.032.108-.142.4-.327.297-.186.541-.355.733-.508.192-.153.363-.32.513-.503.153-.182.262-.373.327-.571-.036.016-.08.032-.132.049a2.11 2.11 0 0 1-.166.034 2.912 2.912 0 0 1-.16.015.613.613 0 0 1-.138-.005.753.753 0 0 1-.463-.186.52.52 0 0 1-.171-.415c.01-.081.032-.177.068-.288.036-.11.11-.285.225-.522.114-.241.237-.44.37-.596.137-.156.264-.234.382-.234.201 0 .369.086.503.258.133.17.213.375.239.615.006.121.003.241-.01.362-.01.12-.024.221-.044.303a4.75 4.75 0 0 1-.195.654zm2.9-2.13a.923.923 0 0 1-.21.161 1.11 1.11 0 0 1-.293.103c-.228.16-.4.267-.517.322a.944.944 0 0 1-.308.103c-.085.01-.132.014-.142.014-.179.137-.389.234-.63.293l-.41.23c-.153.088-.25.133-.293.136a2.191 2.191 0 0 1-.151-.156.334.334 0 0 1-.083-.146.262.262 0 0 1 .01-.171.735.735 0 0 1 .136-.225c.043-.01.127-.032.254-.068.127-.036.25-.082.367-.137.117-.052.201-.1.253-.147a.497.497 0 0 0 .128-.156c.035-.058.06-.09.073-.093.029-.02.068-.01.117.03a.25.25 0 0 0 .122.058c.153.007.308-.11.464-.351.02-.043.053-.05.102-.025.114.036.215.031.303-.014.062-.03.17-.156.322-.381.02-.016.048-.011.083.014.036.027.09.036.161.03a.358.358 0 0 0 .142-.04l.054.162c.013.068.02.11.02.127a.648.648 0 0 1-.074.327zm-.024-4.678a.495.495 0 0 1-.005.284 1.05 1.05 0 0 1-.142.302 3.464 3.464 0 0 1-.17.24c-.056.071-.118.14-.186.205a.554.554 0 0 1-.113.097.373.373 0 0 1-.082.04.114.114 0 0 1-.06-.006.193.193 0 0 1-.043-.024 31.121 31.121 0 0 1-.337-.273 2.723 2.723 0 0 0-.356-.264c-.017-.023-.025-.04-.025-.049 0-.013.008-.032.025-.059l.742-1.142c.023-.03.044-.043.063-.04a.14.14 0 0 1 .073.025c.066.04.13.082.196.127a1.023 1.023 0 0 1 .332.327.576.576 0 0 1 .088.21zm-.674-1.762a.495.495 0 0 1-.005.283 1.054 1.054 0 0 1-.142.302 3.498 3.498 0 0 1-.17.24c-.056.071-.118.14-.186.205a.548.548 0 0 1-.112.097.364.364 0 0 1-.083.04.114.114 0 0 1-.059-.005.194.194 0 0 1-.044-.025 30.178 30.178 0 0 1-.337-.273 2.724 2.724 0 0 0-.356-.264c-.017-.023-.025-.039-.025-.049 0-.013.008-.032.025-.058l.742-1.143c.023-.03.044-.042.063-.039a.14.14 0 0 1 .074.025c.065.039.13.08.195.126a1.02 1.02 0 0 1 .332.328.576.576 0 0 1 .088.21zm-.87 1.723c.007.016.012.031.015.044a.594.594 0 0 1 .02.044l.015.044c0 .013.001.023.004.03v.019a.043.043 0 0 1 .005.02v.014c.004.003.005.008.005.015a.705.705 0 0 1-.024.185v.015l-.02.059-.014.029a.201.201 0 0 0-.01.024c0 .01-.003.018-.01.025l-.03.058-.058.093-.083.122a1.137 1.137 0 0 1-.112.151l-.078.088c-.026.03-.054.057-.083.083l-.05.05-.023.019a.337.337 0 0 1-.103.063.102.102 0 0 1-.068.005.48.48 0 0 1-.035-.01l-.02-.02-.116-.092-.05-.044-.287-.234-.034-.025a3.287 3.287 0 0 0-.2-.141c-.02-.017-.03-.031-.03-.044 0-.017.008-.038.024-.064l.748-1.138c.022-.035.048-.05.078-.043a2.036 2.036 0 0 0 .053.024c.043.026.085.054.127.083.043.026.085.054.127.083l.054.044c.036.03.068.058.098.088.029.03.057.062.083.097l.029.04.044.078.01.02zm3.502-1.743c.205-.156.408-.298.61-.425s.405-.259.61-.395c2.842-1.918 4.488-3.052 4.937-3.404.511-.397.778-.61.8-.64.105-.068.126-.027.064.123-.058.146-.3.48-.722 1-.736.665-1.67 1.376-2.803 2.135a76.64 76.64 0 0 1-3.526 2.212 5.443 5.443 0 0 1-.459.283c-.162.097-.242.104-.239.02 0-.037.11-.201.327-.494.137-.172.27-.31.4-.415zm-1.934 5.845c.042-.023.1-.07.171-.142.072-.072.15-.198.234-.38.088-.183.145-.483.171-.9-.01-.956-.01-1.493 0-1.61.003-.16.028-.292.073-.396l.455-1.333c.02-.059.047-.07.083-.034a.4.4 0 0 1 .014.122c0-.03-.011.117-.034.44-.023.318-.039.932-.049 1.84 0 .218-.036.54-.107.967-.078.43-.166.763-.264 1.001a2.336 2.336 0 0 1-.376.64 8.817 8.817 0 0 1-.37.4.533.533 0 0 1 0-.615zm4.39.84-.435.933a8.712 8.712 0 0 0-.356.899c-.212.638-.3 1.14-.264 1.508.03.388.182.695.46.923.279.228.678.342 1.195.342.43 0 .845-.091 1.245-.273.3-.134.565-.298.796-.493.232-.196.409-.398.533-.606.127-.208.19-.384.19-.527.003-.065-.03-.12-.098-.166a.965.965 0 0 0-.239-.118 3.81 3.81 0 0 0-.293-.087 1.816 1.816 0 0 1-.244-.079.885.885 0 0 1-.366-.244c-.091-.11-.135-.275-.132-.493 0-.28.091-.614.273-1 .183-.391.437-.795.762-1.212.287-.328.53-.58.733-.752.201-.175.395-.33.58-.464a4.19 4.19 0 0 1 .552-.341c.072-.04.14-.07.205-.093.085-.023.147-.028.186-.015.042.01.067.042.073.098-.016.058-.039.13-.068.215a6.924 6.924 0 0 1-.322.776 2.28 2.28 0 0 1-.098.171c-.03.042-.05.062-.064.059-.013.006-.029.001-.048-.015-.02-.016-.054-.025-.103-.025-.124 0-.303.04-.537.118-.234.075-.482.22-.742.434a3.37 3.37 0 0 0-.591.6c-.137.186-.205.315-.205.387a.282.282 0 0 0 .102.268c.075.059.212.124.41.195.202.072.328.127.377.166.16.108.239.306.239.596 0 .436-.087.938-.259 1.504a4.853 4.853 0 0 1-.708 1.47 3.85 3.85 0 0 1-.469.571 2.876 2.876 0 0 1-.605.474c-.42.29-.903.434-1.45.434-.622-.01-1.094-.213-1.416-.61a1.822 1.822 0 0 1-.303-.645 2.692 2.692 0 0 1-.083-.644 5.52 5.52 0 0 1 .146-1.118c.088-.375.2-.744.337-1.109.137-.364.292-.72.464-1.069a21.967 21.967 0 0 1 .586-1.084c.036-.049.07-.073.103-.073h.005c.01.01.01.029 0 .058a1.28 1.28 0 0 1-.054.157zm6.543-1.127.508-1.197c.042-.097.076-.146.102-.146.042 0 .055.03.04.093a3.33 3.33 0 0 0-.07.356l-.058.39a32.669 32.669 0 0 0-.112 1.206l-.049.64c-.016.209-.034.396-.054.562a6.135 6.135 0 0 1-.239 1.25 6.386 6.386 0 0 1-.376.908c-.143.277-.259.422-.347.435-.022 0-.016-.059.02-.176a2.89 2.89 0 0 0 .117-.415c.04-.166.073-.344.103-.532.029-.192.055-.388.078-.586.023-.202.042-.392.058-.572.023-.169.043-.421.059-.756.016-.339.04-.625.073-.86.033-.234.082-.434.147-.6zm1.85 3.901c.176-.205.357-.371.542-.498.258-.172.511-.259.762-.259.13 0 .264.018.4.054.124.03.2.044.23.044.244 0 .478-.072.703-.215.218-.137.327-.26.327-.371 0-.049-.063-.13-.19-.244a4.146 4.146 0 0 0-.108-.088.43.43 0 0 1-.117.059.709.709 0 0 1-.288.073.658.658 0 0 1-.43-.132c-.114-.088-.17-.226-.17-.415 0-.02.13-.336.39-.947.062-.15.145-.293.25-.43.087-.104.18-.156.277-.156.254 0 .5.122.738.366.234.25.351.573.351.967 0 .319-.093.7-.278 1.142a5.88 5.88 0 0 1-.518.952c-.211.293-.43.536-.654.728-.306.247-.615.371-.928.371-.123 0-.268-.03-.434-.088a1.284 1.284 0 0 0-.44-.093.999.999 0 0 0-.503.137 1.925 1.925 0 0 0-.36.278c-.14.127-.24.17-.299.127-.055-.029-.083-.068-.083-.117 0-.068.043-.164.127-.288.091-.146.204-.308.337-.483.18-.248.301-.406.366-.474zm3.057-7.344a.529.529 0 0 1-.005.293 1.037 1.037 0 0 1-.151.318 1.643 1.643 0 0 1-.147.205 2.545 2.545 0 0 1-.234.244c-.036.03-.073.057-.113.083a.532.532 0 0 1-.112.058c-.036.01-.062.005-.078-.014a14.78 14.78 0 0 1-.347-.288 3.014 3.014 0 0 0-.375-.274c-.023-.016-.035-.03-.035-.044a.261.261 0 0 1 .03-.068l.78-1.191c.024-.033.046-.048.07-.044a.14.14 0 0 1 .072.024c.069.04.137.083.206.132.068.049.131.102.19.161a.92.92 0 0 1 .151.186.641.641 0 0 1 .098.22zm5.215 4.341c-.072.127-.147.256-.225.386a2.844 2.844 0 0 1-.264.361c-.094.114-.2.218-.317.313a1.427 1.427 0 0 1-.39.22c-.12.048-.224.104-.308.165a1.164 1.164 0 0 0-.43.571l-.195.508a6.251 6.251 0 0 1-.22.528c-.078.17-.177.31-.298.42-.166.176-.412.294-.737.356l-.893.152a2.657 2.657 0 0 1-.098.01.447.447 0 0 1-.078-.005c-.075-.023-.098-.072-.069-.147.03-.078.106-.156.23-.234l.6-.4.367-.255c.094-.065.169-.118.224-.16.059-.043.12-.09.186-.142.263-.199.446-.407.547-.625.058-.114.112-.225.16-.332.05-.108.1-.214.152-.318a5.86 5.86 0 0 1 .176-.307c.062-.105.133-.209.215-.313.084-.104.198-.205.342-.303.143-.1.315-.2.517-.297a.984.984 0 0 0 .112-.064c.052-.036.116-.091.19-.166.076-.075.16-.176.255-.303.097-.13.2-.294.307-.493-.039-.039-.151-.093-.337-.161a1.755 1.755 0 0 0-.527-.122.614.614 0 0 0-.38.083 1.001 1.001 0 0 0-.27.278c-.08.12-.15.176-.21.166-.019-.01-.022-.05-.009-.122.016-.072.04-.141.068-.21.124-.283.264-.493.42-.63.16-.14.35-.21.572-.21.16 0 .36.04.6.117.15.053.279.079.386.079.224 0 .447-.08.669-.24.049 0 .065.033.049.098a10.815 10.815 0 0 1-.117.39c-.05.154-.088.243-.118.27l-.254.185a1.02 1.02 0 0 0-.205.205 2.59 2.59 0 0 0-.17.268c-.06.105-.134.248-.225.43zm4.775 2.134c-.195.472-.36.81-.493 1.016-.13.205-.242.345-.337.42-.094.071-.23.138-.405.2a5.789 5.789 0 0 1-.552.166 2.13 2.13 0 0 1-.434.068c-.04 0-.06-.002-.06-.005-.025-.032.108-.142.401-.327a8.07 8.07 0 0 0 .733-.508c.192-.153.363-.32.512-.503.153-.182.263-.373.328-.571-.036.016-.08.032-.132.049a2.099 2.099 0 0 1-.166.034 2.912 2.912 0 0 1-.161.015.613.613 0 0 1-.137-.005.753.753 0 0 1-.464-.186.52.52 0 0 1-.17-.415c.009-.081.032-.177.068-.288.035-.11.11-.285.224-.522.114-.241.238-.44.371-.596.137-.156.264-.234.381-.234.202 0 .37.086.503.258.133.17.213.375.24.615.006.121.003.241-.01.362-.01.12-.025.221-.044.303a4.816 4.816 0 0 1-.196.654zm3.404-1.91-.435.933a8.703 8.703 0 0 0-.356.899c-.212.638-.3 1.14-.264 1.508.03.388.182.695.459.923.28.228.678.342 1.196.342.43 0 .845-.091 1.245-.273.3-.134.565-.298.796-.493.231-.196.409-.397.532-.606.127-.208.19-.384.19-.527.004-.065-.029-.12-.097-.166a.96.96 0 0 0-.24-.117 3.81 3.81 0 0 0-.292-.088 1.84 1.84 0 0 1-.244-.078.886.886 0 0 1-.367-.245c-.09-.11-.135-.275-.131-.493 0-.26.086-.568.259-.923a.337.337 0 0 1 .102-.092.168.168 0 0 1 .098-.025c.032.004.06.015.083.034a.15.15 0 0 1 .053.083c-.01.05.022.098.093.147.075.049.212.109.41.18.202.072.328.127.376.167.16.107.24.306.24.595 0 .436-.087.938-.26 1.504a4.857 4.857 0 0 1-.707 1.47 3.845 3.845 0 0 1-.469.571 2.874 2.874 0 0 1-.605.474c-.42.29-.904.434-1.45.434-.622-.01-1.094-.213-1.417-.61a1.824 1.824 0 0 1-.302-.645 2.696 2.696 0 0 1-.083-.644 5.52 5.52 0 0 1 .146-1.118c.088-.374.2-.744.337-1.109.137-.364.291-.72.464-1.069a21.869 21.869 0 0 1 .586-1.084c.039-.062.073-.086.102-.073h.005c.01.01.01.03 0 .058a1.28 1.28 0 0 1-.053.157zm4.34-.22a.197.197 0 0 1-.112-.015.889.889 0 0 1-.107-.058.85.85 0 0 0-.206-.103c-.22-.068-.483.008-.786.23-.3.221-.478.421-.537.6a.128.128 0 0 1-.083.05.367.367 0 0 1-.2-.02c-.03-.01-.047-.02-.054-.03.12-.234.293-.481.518-.742.225-.264.467-.47.728-.62.26-.15.54-.233.84-.249l.082.195a.783.783 0 0 1 .034.23c0 .088-.01.18-.034.278l-.083.254zm-1.606-4.39a.529.529 0 0 1-.005.293c-.026.101-.077.207-.151.318a2.034 2.034 0 0 1-.142.205 4.066 4.066 0 0 1-.24.244c-.035.03-.072.057-.111.083a.53.53 0 0 1-.113.058c-.036.01-.062.005-.078-.014-.117-.094-.233-.19-.347-.288a3.012 3.012 0 0 0-.376-.274c-.022-.016-.032-.03-.029-.044 0-.016.008-.039.025-.068l.78-1.191c.023-.033.046-.048.07-.044a.14.14 0 0 1 .072.024c.069.04.137.083.205.132.069.049.132.103.19.161a.92.92 0 0 1 .152.186.639.639 0 0 1 .098.22zm1.606 3.433c.196.068.339.098.43.088a.501.501 0 0 0 .244-.088c.072-.049.108-.135.108-.259a.46.46 0 0 0-.103-.264c-.068-.08-.138-.122-.21-.122a.733.733 0 0 1-.347.098 1.32 1.32 0 0 1-.43-.093c-.133-.058-.2-.151-.2-.278 0-.091.025-.2.074-.327.055-.143.135-.327.239-.552.104-.224.207-.415.308-.571.094-.15.18-.225.258-.225.215.01.425.114.63.313.274.26.41.59.41.99 0 .196-.024.393-.073.592-.049.23-.123.449-.224.654a4.447 4.447 0 0 1-.484.737c-.172.196-.322.293-.449.293l-.18-.029a1.708 1.708 0 0 1-.113-.537.727.727 0 0 1 .112-.42zm1.88-6.406a.528.528 0 0 1-.005.293c-.026.1-.076.206-.151.317a1.649 1.649 0 0 1-.147.205 2.547 2.547 0 0 1-.234.244 1.41 1.41 0 0 1-.112.083.535.535 0 0 1-.112.059c-.036.01-.062.005-.079-.015-.117-.094-.232-.19-.346-.288a3.015 3.015 0 0 0-.376-.273c-.023-.017-.035-.031-.035-.044a.267.267 0 0 1 .03-.069l.781-1.191c.023-.032.046-.047.068-.044a.14.14 0 0 1 .074.025c.068.039.136.083.205.131.068.05.132.103.19.161a.925.925 0 0 1 .152.186.64.64 0 0 1 .097.22zm2.066 8.56c-.075.183-.147.368-.215.557a7.268 7.268 0 0 0-.171.556 5.585 5.585 0 0 0-.117.543c-.03.175-.043.345-.04.507.053.489.253.847.601 1.075a2.39 2.39 0 0 0 1.23.38 3.61 3.61 0 0 0 1.832-.507 3.42 3.42 0 0 0 1.05-1.09c.4-.608.59-1.448.57-2.519-.002-.14-.004-.28-.004-.42 0-.14-.003-.28-.01-.42 0-.071.005-.133.015-.185.042-.248.194-.36.454-.337.072.01.143.013.215.01a.978.978 0 0 0 .498-.142.863.863 0 0 0 .268-.273.056.056 0 0 1 .02-.02.065.065 0 0 1 .058-.01.878.878 0 0 0 .132.034.18.18 0 0 0 .118-.034.526.526 0 0 0 .126-.136c.05-.066.105-.162.166-.288.05-.118.092-.166.128-.147.029.01.034.078.014.205a2.344 2.344 0 0 1-.225.694c-.097.185-.2.317-.307.395a.67.67 0 0 1-.4.112c-.079.12-.176.225-.294.313a1.082 1.082 0 0 1-.483.17l-.03.196c-.087 1.045-.292 1.98-.614 2.803a7.36 7.36 0 0 1-.826 1.538c-.79 1.07-1.741 1.608-2.851 1.611-.54-.03-.996-.215-1.367-.556-.371-.342-.567-.826-.586-1.45.013-.997.327-2.089.942-3.277l.176-.361c.01-.004.018.006.024.029a.295.295 0 0 1 .005.098 1.188 1.188 0 0 1-.078.298l-.024.048zm7.163-5.43a.494.494 0 0 1-.005.284 1.05 1.05 0 0 1-.142.302 3.44 3.44 0 0 1-.17.24c-.056.071-.118.14-.186.205a.553.553 0 0 1-.112.097.366.366 0 0 1-.084.04.114.114 0 0 1-.058-.005.195.195 0 0 1-.044-.025 31.121 31.121 0 0 1-.337-.273 2.723 2.723 0 0 0-.356-.264c-.017-.023-.025-.039-.025-.049 0-.013.008-.032.025-.058l.742-1.143c.023-.03.044-.042.063-.039a.14.14 0 0 1 .073.025c.066.039.13.08.196.127a1.02 1.02 0 0 1 .332.327.573.573 0 0 1 .088.21zm-.674-1.762a.495.495 0 0 1-.005.283 1.048 1.048 0 0 1-.142.303 3.44 3.44 0 0 1-.17.24c-.056.07-.118.14-.186.204a.553.553 0 0 1-.112.098.368.368 0 0 1-.083.039.114.114 0 0 1-.059-.005.193.193 0 0 1-.044-.024 31.121 31.121 0 0 1-.337-.274 2.723 2.723 0 0 0-.356-.263c-.017-.023-.025-.04-.025-.05 0-.012.008-.032.025-.058l.742-1.142c.023-.03.044-.043.063-.04a.14.14 0 0 1 .074.025c.065.039.13.081.195.127a1.019 1.019 0 0 1 .332.327.577.577 0 0 1 .088.21zm-.87 1.724c.007.016.012.03.015.043a.573.573 0 0 1 .02.044l.015.044c0 .013.001.023.005.03v.02a.044.044 0 0 1 .004.019v.014c.004.004.005.008.005.015a.705.705 0 0 1-.024.186v.014l-.02.059-.014.03a.187.187 0 0 0-.01.023c0 .01-.003.018-.01.025l-.03.058-.058.093-.083.122a1.16 1.16 0 0 1-.112.152l-.078.088a1 1 0 0 1-.083.083l-.05.048-.024.02a.339.339 0 0 1-.102.063.101.101 0 0 1-.068.005.462.462 0 0 1-.035-.01 1.811 1.811 0 0 1-.02-.019l-.116-.093-.05-.044-.287-.234-.034-.024a3.345 3.345 0 0 0-.2-.142c-.02-.016-.03-.031-.03-.044a.13.13 0 0 1 .025-.064l.747-1.137c.022-.036.048-.05.078-.044l.01.005c.003 0 .01.003.024.01.006.006.013.01.02.01.042.025.084.053.126.082.043.026.085.054.127.083l.054.044c.036.03.068.059.098.088.029.03.057.062.083.098l.029.039.044.078a4 4 0 0 0 .01.02zm4.659 4.238c-.14.86-.267 1.5-.38 1.924-.112.423-.212.747-.304.971-.09.222-.192.39-.302.508-.108.117-.308.23-.601.337a5.98 5.98 0 0 1-.728.22 3.628 3.628 0 0 1-.366.068c-.048-.003-.08-.011-.093-.024-.013-.017-.001-.052.035-.108.062-.088.19-.208.385-.361.199-.153.432-.343.699-.571.27-.228.472-.428.605-.6.134-.177.25-.414.352-.714.104-.303.205-.618.302-.947.098-.329.168-.552.21-.669.046-.117.092-.174.137-.17.052.009.069.054.049.136zm.337-2.661a.529.529 0 0 1-.005.293c-.026.1-.076.206-.151.317a1.64 1.64 0 0 1-.147.205 2.545 2.545 0 0 1-.234.244c-.036.03-.074.057-.113.083a.53.53 0 0 1-.112.059c-.036.01-.062.005-.078-.015-.117-.094-.233-.19-.347-.288a3.012 3.012 0 0 0-.376-.273c-.022-.017-.034-.031-.034-.044a.263.263 0 0 1 .03-.069l.78-1.191c.023-.033.046-.047.07-.044a.14.14 0 0 1 .072.024c.069.04.137.083.205.132.069.05.132.103.19.161a.923.923 0 0 1 .152.186.64.64 0 0 1 .098.22zm2.217 4.824c-.196.472-.36.81-.493 1.016-.13.205-.243.345-.337.42-.095.071-.23.138-.406.2a5.789 5.789 0 0 1-.551.166c-.196.045-.34.068-.435.068-.04 0-.059-.002-.059-.005-.026-.032.108-.142.4-.327a8.07 8.07 0 0 0 .733-.508c.192-.153.363-.32.513-.503.153-.182.262-.373.327-.571-.036.016-.08.032-.132.049a2.108 2.108 0 0 1-.166.034 2.912 2.912 0 0 1-.16.015.613.613 0 0 1-.138-.005.753.753 0 0 1-.463-.186.52.52 0 0 1-.171-.415c.01-.081.032-.177.068-.288.036-.11.11-.285.225-.522.113-.241.237-.44.37-.596.137-.156.264-.234.382-.234.201 0 .369.086.502.258.134.17.214.375.24.615.006.121.003.241-.01.362-.01.12-.025.221-.044.303a4.816 4.816 0 0 1-.195.654zm-.357-1.545V85.482c.033-.172.18-.372.445-.6.22-.117.392-.288.512-.513.088-.172.228-.426.42-.762.049-.074.134-.185.254-.332.147-.166.277-.294.39-.385.033-.036.123-.162.27-.376.029-.052.086-.132.17-.24.078-.006.205.113.381.357.17.244.254.474.254.688 0 .202-.05.393-.151.572-.108.185-.23.32-.367.405a.509.509 0 0 1-.288.088 1.577 1.577 0 0 1-.22-.03 2.398 2.398 0 0 0-.21-.014.835.835 0 0 0-.229.03c-.237.1-.467.37-.688.81-.059.117-.108.21-.147.278a3.004 3.004 0 0 1-.352.542 1.16 1.16 0 0 1-.253.278 1.002 1.002 0 0 1-.264.132l.073-.825zm5.332-1.487.508-1.197c.042-.097.077-.146.103-.146.042 0 .055.03.039.093-.02.068-.043.187-.069.356-.026.166-.045.296-.058.39a24.68 24.68 0 0 0-.113 1.207l-.048.64c-.017.208-.035.395-.054.561a6.141 6.141 0 0 1-.24 1.25 6.375 6.375 0 0 1-.375.908c-.144.277-.26.422-.347.435-.023 0-.016-.059.02-.176a2.89 2.89 0 0 0 .117-.415c.039-.166.073-.344.102-.532.03-.192.056-.388.078-.586.023-.202.043-.392.059-.572.023-.169.042-.421.058-.756.017-.339.041-.625.074-.86.032-.234.081-.434.146-.6zm1.28-4.888c.166.016.325.021.478.015.156-.01.314-.04.474-.088.16-.05.322-.12.488-.215.166-.098.343-.228.532-.39a4.521 4.521 0 0 0 .249-.249c.043-.043.08-.077.113-.103.032-.03.055-.044.068-.044.03-.004.047.02.054.073a.329.329 0 0 1-.05.185c-.077.157-.188.34-.331.552a3.78 3.78 0 0 1-.464.567c-.313.316-.609.55-.889.703-.28.15-.615.233-1.006.249-.172 0-.325-.003-.459-.01a4.37 4.37 0 0 0-.542.005 1.76 1.76 0 0 0-.63.142 3.088 3.088 0 0 0-.507.278.248.248 0 0 1-.069.01c-.02-.004-.032-.012-.039-.025-.01-.013.008-.065.054-.156.059-.13.164-.287.317-.469a3.65 3.65 0 0 1 .606-.556c.25-.19.488-.318.713-.386.228-.072.507-.101.84-.088zm8.691 6.133c-.01.081-.018.162-.024.244-.095 1.045-.303 1.98-.626 2.803a7.362 7.362 0 0 1-.825 1.538c-.79 1.07-1.741 1.605-2.851 1.601-.53-.022-.978-.205-1.343-.547-.371-.341-.566-.825-.586-1.45-.003-.996.303-2.088.918-3.276l.186-.362c.022-.006.03.033.024.118a1.242 1.242 0 0 1-.107.356c-.075.183-.15.368-.225.557a7.545 7.545 0 0 0-.19.556c-.056.183-.1.363-.132.542-.03.176-.04.346-.03.508.066.488.274.847.625 1.075.355.23.769.354 1.24.37a3.535 3.535 0 0 0 1.832-.498c.436-.29.786-.652 1.05-1.088.433-.59.616-1.397.551-2.422-.003-.215.02-.41.069-.586.048-.176.187-.562.415-1.157.049-.14.088-.223.117-.25.03-.029.05-.034.063-.014.013.016.012.063-.005.142l-.073.507-.073.733zm-2.173 1.186c.016.088.01.181-.02.279a1.28 1.28 0 0 1-.146.317 2.939 2.939 0 0 1-.127.186 1.801 1.801 0 0 1-.234.258 2.55 2.55 0 0 1-.132.113.102.102 0 0 1-.073.034c-.05 0-.082-.015-.098-.044a1.562 1.562 0 0 0-.132-.137 3.731 3.731 0 0 0-.215-.185l-.405-.328c-.03-.026-.039-.05-.03-.073l.03-.058c.104-.186.215-.378.332-.577a65.91 65.91 0 0 1 .371-.6c.01-.013.02-.02.03-.02.01-.003.02 0 .034.01.013.01.032.021.058.034l.21.156c.082.056.165.121.25.196.162.143.261.29.297.44zm3.618-.288c-.026.326-.099.602-.22.83-.12.228-.257.342-.41.342 0-.124.04-.508.118-1.152.081-.645.141-1.105.18-1.382.043-.28.09-.576.142-.889.052-.312.102-.564.151-.757.055-.16.114-.32.176-.483.065-.163.132-.324.2-.483.046-.072.075-.06.088.034-.081.54-.156 1.102-.224 1.684-.069.58-.116.995-.142 1.246-.023.25-.034.397-.034.439a10.72 10.72 0 0 0-.025.571zm.005.264c0 .322.064.565.19.727.13.163.277.245.44.245.03-.01.078-.118.146-.323.072-.205.132-.361.181-.468.143.029.246.099.308.21.065.107.1.214.107.322 0 .37-.076.732-.23 1.084-.22.468-.517.703-.888.703-.215 0-.415-.124-.6-.371-.19-.248-.284-.654-.284-1.22.033-.115.069-.227.108-.338a2.37 2.37 0 0 1 .127-.322c.045-.104.1-.199.166-.283a.884.884 0 0 1 .23-.225v.259zm4.556-1.538c-.14.86-.267 1.5-.381 1.924-.11.423-.212.747-.303.971-.09.222-.192.39-.302.508-.108.117-.308.23-.601.337a5.98 5.98 0 0 1-.728.22 3.628 3.628 0 0 1-.366.068c-.049-.003-.08-.011-.093-.024-.013-.017-.001-.052.035-.108.061-.088.19-.208.385-.361.199-.153.432-.343.699-.571.27-.228.472-.428.605-.6.133-.177.25-.414.352-.714.104-.303.205-.618.302-.947.098-.329.168-.552.21-.669.046-.117.091-.174.137-.17.052.009.068.054.049.136zm.337-2.661a.528.528 0 0 1-.005.293c-.026.1-.077.206-.151.317a1.65 1.65 0 0 1-.147.205 2.545 2.545 0 0 1-.234.244 1.41 1.41 0 0 1-.113.083.528.528 0 0 1-.112.059c-.036.01-.062.005-.078-.015-.117-.094-.233-.19-.347-.288a2.998 2.998 0 0 0-.376-.273c-.023-.017-.034-.031-.034-.044a.26.26 0 0 1 .03-.069l.78-1.191c.023-.033.046-.047.069-.044a.14.14 0 0 1 .073.024c.069.04.137.083.205.132.069.05.132.103.19.161a.92.92 0 0 1 .152.186.638.638 0 0 1 .098.22zm.854 3.935c-.026.326-.1.602-.22.83-.12.228-.257.342-.41.342 0-.124.04-.508.117-1.152.082-.645.142-1.105.181-1.382.043-.28.09-.576.142-.889a9.57 9.57 0 0 1 .151-.757c.056-.16.114-.32.176-.483.065-.163.132-.324.2-.483.046-.072.075-.06.088.034a52.34 52.34 0 0 0-.225 1.684c-.068.58-.115.995-.141 1.246-.023.25-.034.397-.034.439-.017.267-.025.457-.025.571zm2.593 1.328a.76.76 0 0 1-.176.04 2.87 2.87 0 0 0-.17.014.584.584 0 0 0-.313.093c-.108.075-.29.293-.547.654-.283.42-.605.63-.967.63-.403 0-.693-.176-.869-.527a2.513 2.513 0 0 1-.176-1.06c.036-.543.11-.949.22-1.216.117-.267.228-.4.332-.4.023 0 .049.021.078.063v.45c.013.143.05.309.112.498a.97.97 0 0 0 .323.459c.16.107.363.16.61.16.358-.006.63-.115.816-.326.185-.212.325-.33.42-.357a.36.36 0 0 1 .185 0 .734.734 0 0 0 .181.015.687.687 0 0 0 .434-.176c.13-.114.246-.259.347-.435.003-.01.01-.02.019-.029a.061.061 0 0 1 .069-.014.723.723 0 0 0 .146.029c.046.003.09-.01.132-.04a.52.52 0 0 0 .142-.155c.048-.079.105-.191.171-.337.048-.14.096-.199.141-.176.033.006.038.081.015.224-.072.316-.16.573-.264.772a1.348 1.348 0 0 1-.312.425 1.096 1.096 0 0 1-.415.19 3.031 3.031 0 0 1-.328.308 1.746 1.746 0 0 1-.356.224z" fill="#000"/></g><defs><clipPath id="b"><path fill="#fff" transform="translate(33 16)" d="M0 0h52v53H0z"/></clipPath><filter id="a" x="0" y="0" width="118" height="118" filterUnits="userSpaceOnUse" color-interpolation-filters="sRGB"><feFlood flood-opacity="0" result="BackgroundImageFix"/><feColorMatrix in="SourceAlpha" values="0 0 0 0 0 0 0 0 0 0 0 0 0 0 0 0 0 0 127 0" result="hardAlpha"/><feOffset/><feGaussianBlur stdDeviation="2"/><feComposite in2="hardAlpha" operator="out"/><feColorMatrix values="0 0 0 0 0 0 0 0 0 0 0 0 0 0 0 0 0 0 0.25 0"/><feBlend in2="BackgroundImageFix" result="effect1_dropShadow_81_8814"/><feBlend in="SourceGraphic" in2="effect1_dropShadow_81_8814" result="shape"/></filter></defs></svg>