<svg width="108" height="188" fill="none" xmlns="http://www.w3.org/2000/svg"><g filter="url(#a)"><rect x="104" y="184" width="100" height="180" rx="50" transform="rotate(180 104 184)" fill="url(#b)"/><rect x="103" y="183" width="98" height="178" rx="49" transform="rotate(180 103 183)" stroke="#FBFBFB" stroke-width="2"/></g><path d="m55.999 104.132.015-.033.063.023.076.028.152.056.152.056.076.029.082.03c.023.008.69.237.781.275h.001l.005.003.003.001v.001l8.58 5.226.12.179-.12.324-.24.147-8.588-5.232-.005-.007c-.233-.213-.483-.497-.716-.709l-.437-.397z" fill="#599ECE"/><path d="M56.164 103.942a9.604 9.604 0 0 1 .139.051l.152.057.151.056.076.028.082.03-.179.209-.437-.398a.822.822 0 0 0 .016-.033z" fill="#ED7E24"/><path d="M56.764 104.164c.025.009.76.261.792.28-.017.03-.028.034-.078.063a.489.489 0 0 0-.232.372c0 .063.036.184.066.212-.236-.215-.49-.504-.726-.718-.025-.065.123-.217.178-.209z" fill="#FCE2BE"/><path d="M57.246 104.879c-.002.144.093.204.211.135a.498.498 0 0 0 .217-.385c.002-.144-.093-.205-.211-.136a.5.5 0 0 0-.217.386z" fill="#2C3F54"/><path d="m65.773 110.142-8.587-5.231.121.178 8.587 5.231-.12-.178z" fill="#ED7E24"/><path d="m65.893 109.817-8.587-5.232-.12.325 8.587 5.232.12-.325z" fill="#FFA04A"/><path d="m66.134 109.671-8.587-5.232-.241.147 8.587 5.231.241-.146z" fill="#FFA04A"/><path d="m65.893 109.817-.12.325.121.178.241-.146.12-.325-.121-.179-.241.147z" fill="#2C3F54"/><path d="m85.045 104.776-.015-.034-.063.023-.076.029-.152.056-.152.056-.076.028-.081.03c-.024.009-.692.238-.782.276l-.001-.001-.005.003-.003.002-8.58 5.226-.12.179.12.325.24.146 8.588-5.231.005-.007c.233-.213.484-.498.716-.709l.437-.397z" fill="#599ECE"/><path d="M84.88 104.585a1.977 1.977 0 0 1-.063.024l-.076.028-.152.056-.152.056-.076.028-.081.031.178.208.438-.397a.443.443 0 0 1-.016-.034z" fill="#2C3F54"/><path d="M84.28 104.808c-.025.009-.76.261-.792.28.017.03.028.034.078.063.118.069.23.228.232.372 0 .063-.036.185-.066.212.236-.215.49-.504.726-.718.025-.065-.123-.218-.178-.209z" fill="#FCE2BE"/><path d="M83.798 105.523c.001.143-.093.204-.211.135a.498.498 0 0 1-.217-.386c-.002-.144.093-.204.21-.135a.499.499 0 0 1 .218.386z" fill="#2C3F54"/><path d="m75.27 110.785 8.588-5.231-.121.179-8.587 5.231.12-.179z" fill="#2C3F54"/><path d="m75.151 110.461 8.587-5.232.12.325-8.587 5.232-.12-.325z" fill="#2C3F54"/><path d="m74.91 110.314 8.587-5.231.242.146-8.588 5.231-.24-.146zM75.151 110.46l.12.325-.121.179-.242-.147-.12-.324.122-.179.241.146z" fill="#2C3F54"/><path d="m54.256 105.255.016-.034.063.023.076.029.151.056.152.056.076.028.082.03c.023.009.691.238.782.276v-.001l.005.003.004.002 8.579 5.226.12.179-.12.325-.24.146-8.587-5.231-.005-.007c-.233-.213-.484-.498-.717-.709l-.437-.397z" fill="#599ECE"/><path d="m54.421 105.064.063.024.076.028.152.056.152.056.076.028.081.031-.178.208-.438-.397.016-.034z" fill="#FF5148"/><path d="M55.021 105.287c.025.009.76.261.792.28-.017.03-.028.034-.078.063a.488.488 0 0 0-.232.372c0 .062.036.185.066.212-.236-.215-.49-.504-.726-.718-.025-.065.123-.218.178-.209z" fill="#FCE2BE"/><path d="M55.503 106.002c-.001.143.093.204.212.135a.498.498 0 0 0 .216-.386c.002-.144-.092-.204-.21-.135a.499.499 0 0 0-.218.386z" fill="#2C3F54"/><path d="m64.03 111.264-8.587-5.231.12.179 8.588 5.231-.121-.179z" fill="#E8312D"/><path d="m64.15 110.94-8.588-5.232-.12.325 8.588 5.232.12-.325z" fill="#FF5148"/><path d="m64.39 110.793-8.586-5.231-.242.146 8.588 5.231.24-.146z" fill="#FF5148"/><path d="m64.15 110.939-.12.325.12.179.242-.146.12-.325-.121-.179-.242.146z" fill="#2C3F54"/><path d="m28.756 77.19-.015-.034a8.727 8.727 0 0 0-.063.023l-.076.028-.152.056-.152.057-.076.028-.082.03c-.023.008-.69.237-.781.275h-.001l-.005.003-.003.001v.001l-8.58 5.226-.12.179.12.325.24.146 8.588-5.231.005-.007c.233-.214.483-.498.716-.71l.437-.396z" fill="#599ECE"/><path d="m28.591 76.999-.063.023-.076.028-.151.057-.152.056-.076.028-.082.03.179.209.437-.398a.65.65 0 0 1-.016-.033z" fill="#FF5148"/><path d="M27.991 77.222c-.025.009-.76.26-.791.28.016.03.028.033.077.062.119.07.23.229.232.372 0 .063-.035.185-.065.212.235-.214.49-.503.726-.718.024-.065-.123-.217-.179-.209z" fill="#FCE2BE"/><path d="M27.51 77.936c0 .144-.094.204-.212.135a.498.498 0 0 1-.217-.385c-.002-.144.093-.205.211-.135.118.069.215.241.217.385z" fill="#2C3F54"/><path d="m18.982 83.199 8.587-5.231-.12.178-8.588 5.232.121-.179z" fill="#E8312D"/><path d="m18.863 82.874 8.587-5.231.12.325-8.588 5.23-.12-.324z" fill="#FF5148"/><path d="m18.621 82.728 8.587-5.231.242.146-8.587 5.231-.242-.146z" fill="#FF5148"/><path d="m18.863 82.874.12.325-.122.178-.241-.146-.12-.325.121-.178.242.146z" fill="#2C3F54"/><path d="m52.795 106.472.016-.034a9.604 9.604 0 0 1 .139.051l.152.057.152.056.075.028.082.03c.023.009.691.238.782.276v-.001l.006.003.003.001v.001l8.579 5.226.121.179-.12.325-.241.146-8.587-5.231-.005-.007c-.233-.214-.484-.498-.717-.709-.145-.132-.29-.265-.437-.397z" fill="#599ECE"/><path d="m52.96 106.281.063.024.076.028.152.056.152.056.076.028.081.03-.178.209-.438-.397.016-.034z" fill="#FFD96E"/><path d="M53.56 106.504c.025.009.76.261.792.28-.017.03-.028.034-.078.063a.489.489 0 0 0-.232.372c0 .062.036.184.066.212-.236-.215-.49-.504-.726-.718-.025-.065.123-.218.178-.209z" fill="#FCE2BE"/><path d="M54.042 107.218c-.001.144.093.205.211.136a.5.5 0 0 0 .217-.386c.002-.144-.092-.204-.21-.135a.498.498 0 0 0-.218.385z" fill="#2C3F54"/><path d="m62.57 112.481-8.588-5.231.121.179 8.587 5.231-.12-.179z" fill="#D8A739"/><path d="m62.69 112.156-8.588-5.231-.12.325 8.587 5.231.12-.325z" fill="#FFD96E"/><path d="m62.93 112.01-8.587-5.231-.24.146 8.586 5.231.241-.146z" fill="#FFD96E"/><path d="m62.689 112.157-.12.324.121.179.242-.146.12-.325-.122-.179-.241.147z" fill="#2C3F54"/><path d="m31.27 76.921 4.97 3.032 5.003-3.032-4.97-3.031-5.003 3.031z" fill="#599ECE"/><path d="m31.503 75.304.004 1.468 4.738 2.89-.004-1.468-4.738-2.89z" fill="#F48134"/><path d="m36.24 78.194.005 1.468 4.768-2.89-.004-1.468-4.768 2.89z" fill="#DD6B1D"/><path d="m31.503 75.304 4.738 2.89 4.768-2.89-4.737-2.89-4.769 2.89z" fill="#FFA04A"/><path d="m31.748 75.157 4.493 2.853 4.768-2.706-4.737-2.89-4.523 2.743z" fill="#DD6B1D"/><path d="M31.715 74.564c.74 1.109 3.224 2.312 4.264 2.774 1.107-.063 3.165-.871 5.03-2.034l-4.737-2.89c-1.685.938-3.342 1.854-4.557 2.15z" fill="#FFA04A"/><path d="m36.157 73.555.253-.164 3.084 1.86-.252.165-3.085-1.861zM35.18 74.186l.252-.164 3.085 1.861-.253.164-3.084-1.861zM34.46 74.722l2.275 1.374-.252.163-2.276-1.373.252-.164z" fill="#DD6B1D"/><path d="m47 75.95 4.97 3.03 5.003-3.03-4.97-3.032-5.002 3.031z" fill="#599ECE"/><path d="m47.234 74.333.004 1.468 4.737 2.89-.004-1.469-4.737-2.889z" fill="#F48134"/><path d="m51.971 77.222.004 1.468 4.769-2.89-.004-1.467-4.769 2.89z" fill="#DD6B1D"/><path d="m47.234 74.333 4.737 2.89 4.769-2.89-4.738-2.89-4.768 2.89z" fill="#FFA04A"/><path d="m47.479 74.186 4.492 2.853 4.769-2.706-4.738-2.89-4.523 2.743z" fill="#DD6B1D"/><path d="M47.446 73.593c.74 1.109 3.224 2.312 4.264 2.774 1.107-.064 3.164-.871 5.03-2.034l-4.737-2.89c-1.685.938-3.342 1.854-4.557 2.15z" fill="#FFA04A"/><path d="m51.888 72.583.252-.164 3.085 1.862-.253.163-3.084-1.86zM50.91 73.214l.253-.164 3.085 1.862-.253.163-3.084-1.86zM50.19 73.751l2.276 1.373-.252.164-2.276-1.373.252-.164z" fill="#DD6B1D"/><path d="m65.8 87.712 4.97 3.031 5.002-3.031-4.97-3.032-5.002 3.032z" fill="#599ECE"/><path d="m66.034 86.095.004 1.468 4.737 2.89-.004-1.468-4.737-2.89z" fill="#F4C551"/><path d="m70.772 88.985.003 1.468 4.769-2.89-.004-1.468-4.769 2.89z" fill="#D8A739"/><path d="m66.034 86.095 4.737 2.89 4.769-2.89-4.738-2.89-4.768 2.89z" fill="#FFD96E"/><path d="m70.687 84.345.253-.163 3.084 1.86-.253.165-3.084-1.862zM69.71 84.976l.252-.163 3.084 1.861-.252.164-3.084-1.862zM68.99 85.513l2.275 1.373-.252.164-2.276-1.373.253-.164z" fill="#D8A739"/><path d="m30.596 92.943-6.453 3.937-1.785-1.082 6.454-3.936 1.784 1.081z" fill="#599ECE"/><path d="M32.031 91.65 29.3 93.317l-1.035-.628 2.732-1.666 1.035.627z" fill="#599ECE"/><path d="M37.486 88.091c-.968-.586-2.258-.909-3.634-.909-1.375 0-2.662.323-3.622.909-.903.55-1.4 1.262-1.399 2.005.002.748.506 1.466 1.422 2.02.968.587 2.258.91 3.634.91 1.375 0 2.662-.323 3.623-.909.902-.55 1.398-1.262 1.398-2.005-.002-.748-.507-1.466-1.422-2.02z" fill="#599ECE"/><path d="M36.591 86.862c-1.488-.902-3.892-.902-5.37 0-.735.448-1.103 1.034-1.104 1.62l-.004 1.49c.001-.587.37-1.174 1.104-1.622 1.478-.901 3.882-.9 5.37 0 .749.454 1.123 1.05 1.121 1.645l.004-1.489c.002-.595-.372-1.19-1.12-1.644z" fill="#B9CED6"/><path d="M31.238 90.493c1.488.901 3.892.901 5.371 0 1.478-.902 1.47-2.364-.018-3.265-1.488-.902-3.892-.902-5.37 0-1.48.901-1.471 2.363.017 3.265z" fill="#55A0C9"/><mask id="c" style="mask-type:luminance" maskUnits="userSpaceOnUse" x="30" y="86" width="8" height="6"><path d="M31.237 90.493c1.488.901 3.893.901 5.372 0 1.478-.902 1.47-2.364-.018-3.265-1.488-.902-3.893-.902-5.371 0-1.479.901-1.47 2.363.017 3.265z" fill="#fff"/></mask><g mask="url(#c)" fill="#4A4A4A"><path d="m30.725 86.343-.235.655 7.785 3.076.234-.655-7.784-3.076zM30.354 87.471l-.038.106 7.785 3.074.038-.105-7.785-3.075z"/></g><path d="M37.38 90.466c-1.902 1.16-4.994 1.16-6.908 0-.963-.583-1.444-1.35-1.441-2.114l-.004 1.217c-.002.765.479 1.53 1.442 2.114 1.913 1.16 5.006 1.16 6.907 0 .944-.576 1.417-1.33 1.419-2.085l.004-1.217c-.002.755-.475 1.51-1.42 2.085z" fill="#B9CED6"/><path d="M38.798 88.503c0 .72-.48 1.41-1.355 1.943-.931.568-2.178.88-3.511.88-1.334 0-2.585-.312-3.522-.88-.888-.538-1.377-1.234-1.378-1.96-.001-.72.48-1.41 1.355-1.943.93-.568 2.178-.88 3.51-.88 1.334 0 2.585.313 3.523.88.887.539 1.377 1.234 1.378 1.96zm-2.207-1.64c-1.488-.903-3.893-.903-5.37-.001-1.48.902-1.471 2.364.017 3.265 1.488.902 3.892.902 5.371 0 1.478-.901 1.47-2.363-.018-3.265z" fill="#F5F5F5"/><path d="M30.74 91.816c.091-.055.147-.174.145-.343-.004-.332-.228-.73-.501-.89-.134-.078-.255-.084-.343-.03l-1.366.83c.088-.053.209-.046.343.032.273.16.497.558.5.89.003.168-.053.287-.143.342l1.366-.83z" fill="#1E3142"/><path d="M29.034 91.074c-.21-.122-.397-.132-.534-.048l-5.11 3.112c.137-.084.325-.074.534.048.425.249.774.869.78 1.386.003.262-.083.448-.224.534l5.11-3.112c.14-.087.227-.272.224-.534-.006-.517-.355-1.137-.78-1.386z" fill="#2C3F54"/><path d="M23.924 94.186c-.209-.122-.397-.131-.534-.048a1.089 1.089 0 0 0-.393.413c-.065.12-.093.213-.105.259a1.186 1.186 0 0 0 .11.891c.1.176.232.312.405.415a1.047 1.047 0 0 0 .917.069c.048-.021.11-.053.156-.079.141-.086.227-.271.224-.534-.006-.517-.355-1.137-.78-1.386z" fill="#1E3142"/><path d="M86.453 99.564c.555.337.558.882.007 1.219l-15.141 9.235c-.553.337-1.45.337-2.005 0l-12.658-7.608 17.14-10.454 12.657 7.608z" fill="#B58852"/><path d="M86.871 100.178c0 .015-.002.029-.003.044-.002.015-.002.031-.005.047l-.01.038c-.003.015-.006.03-.011.044-.004.013-.01.024-.015.036a.737.737 0 0 1-.02.047l-.02.033a.755.755 0 0 1-.033.052c-.012.016-.024.033-.037.048l-.01.012a.835.835 0 0 1-.103.099c-.013.011-.025.022-.04.033l-.05.036-.054.036-15.142 9.235a1.438 1.438 0 0 1-.133.071l-.041.019-.111.044-.041.015-.073.021a1.069 1.069 0 0 1-.056.016l-.078.018-.054.011c-.053.01-.107.017-.16.023l-.051.005a1.534 1.534 0 0 1-.096.006l-.061.002-.078.001-.065-.002-.072-.004a52.935 52.935 0 0 1-.136-.014l-.063-.01a1.937 1.937 0 0 1-.222-.049l-.049-.013a1.835 1.835 0 0 1-.152-.054c-.025-.01-.048-.021-.072-.032l-.036-.017a1.587 1.587 0 0 1-.105-.057l-12.657-7.608v.342l12.657 7.608a1.019 1.019 0 0 0 .14.074l.064.029.008.003c.049.02.1.038.152.054l.012.004.037.01a2.4 2.4 0 0 0 .088.022c.008.002.015.005.023.006l.035.007.076.014.03.005.033.004.07.008.035.004.031.002.072.004.036.002h.145l.023-.002.096-.007.039-.003.012-.001c.054-.006.108-.014.16-.024l.008-.001.046-.01c.026-.006.053-.011.078-.018.02-.004.038-.01.056-.015a1.71 1.71 0 0 0 .073-.022l.016-.005.025-.01c.038-.014.075-.028.111-.044l.04-.018c.047-.022.092-.045.134-.071l15.142-9.236a.14.14 0 0 0 .017-.011l.037-.025.05-.036c.015-.011.027-.022.04-.033l.044-.037.008-.008a.803.803 0 0 0 .051-.054l.01-.011c.01-.011.019-.022.027-.034l.01-.015a.594.594 0 0 0 .033-.052l.014-.022.005-.011c.008-.015.015-.031.02-.046.005-.009.01-.018.013-.027l.003-.01c.005-.014.008-.029.012-.044l.008-.03v-.008c.004-.016.005-.031.006-.047l.003-.03v-.014l.001-.342z" fill="#A06C33"/><path d="m86.447 99.19-16.123 9.825-12.861-7.769 16.85-10.253 12.133 7.463c.269.163.27.57.001.733z" fill="#fff"/><path d="M86.647 98.823v.894l-16.329 10.22.006-.923 16.323-10.191z" fill="#DAE5EA"/><path d="m70.324 109.015-.005.922-12.919-7.853.006-.897 12.918 7.828z" fill="#B9CED6"/><path d="M44.65 70.586c.995.603 1 1.58.012 2.182-.988.602-2.594.602-3.589 0-.994-.603-1-1.58-.011-2.182.988-.602 2.594-.602 3.588 0z" fill="#599ECE"/><path d="m40.684 71.302-.983-6.609c.063.421.352.832.87 1.16l.718 6.254c-.36-.228-.561-.513-.605-.805z" fill="#1E3142"/><path d="m46.023 64.674-.947 6.614c-.044.312-.269.617-.67.852-.878.514-2.274.5-3.117-.033l-.717-6.255c1.213.767 3.222.788 4.487.048.578-.338.9-.777.965-1.226z" fill="#2C3F54"/><path d="M40.572 65.853c-1.214-.767-1.172-1.988.093-2.728 1.264-.74 3.273-.72 4.487.047 1.213.767 1.172 1.988-.093 2.728-1.265.74-3.274.72-4.487-.047z" fill="#47627A"/><path d="M40.81 65.713c1.088.686 2.887.705 4.02.042 1.132-.663 1.17-1.757.083-2.443-1.087-.687-2.886-.706-4.019-.043-1.133.663-1.17 1.757-.083 2.444z" fill="#2C3F54"/><mask id="d" style="mask-type:luminance" maskUnits="userSpaceOnUse" x="37" y="55" width="11" height="17"><path d="M37.836 55.986v15.592h2.94a.9.9 0 0 1-.092-.276l-.983-6.609.004.016a1.172 1.172 0 0 1-.015-.173h.33c.008.424.27.847.791 1.176 1.087.687 2.886.706 4.019.043.569-.333.861-.774.874-1.219h.331a1.184 1.184 0 0 1-.018.174l.007-.036-.947 6.614a.91.91 0 0 1-.098.29h2.452V55.986h-9.595z" fill="#fff"/></mask><g mask="url(#d)"><path d="M43.536 62.833a4.603 4.603 0 0 0-.64-.048l-.852 3.382c.208.038.422.06.637.068l.855-3.402zM41.993 66.368l-.168.67c.063.118.14.238.233.359.078.1.166.197.258.29l.315-1.253a5.001 5.001 0 0 1-.638-.066z" fill="#1E3142"/><path d="m44.458 58.322-.003.067-.004.08-.009.16-.008.162-.004.08-.004.087-.23-.116.229-.526.033.006z" fill="#2C3F54"/><path d="M44.425 58.958c0 .026-.023.8-.031.835-.03-.008-.037-.018-.076-.058-.092-.095-.26-.16-.386-.122-.055.016-.152.083-.167.12.123-.285.307-.606.43-.89.05-.042.223.06.23.115z" fill="#FCE2BE"/><path d="M43.932 59.612c-.126.037-.153.144-.061.239a.433.433 0 0 0 .394.105c.126-.037.153-.144.061-.239a.433.433 0 0 0-.394-.105z" fill="#2C3F54"/><path d="m41.12 71.379 2.768-11.816-.123.164-2.768 11.816.123-.165z" fill="#ED7E24"/><path d="m41.436 71.406 2.768-11.815-.315-.028-2.768 11.816.315.027z" fill="#FFA04A"/><path d="m41.628 71.599 2.768-11.816-.192-.192-2.769 11.815.193.193z" fill="#FFA04A"/><path d="m41.436 71.406-.316-.028-.123.164.192.193.316.028.123-.165-.192-.192z" fill="#2C3F54"/></g><mask id="e" style="mask-type:luminance" maskUnits="userSpaceOnUse" x="37" y="55" width="11" height="17"><path d="M37.836 55.986v15.592h2.94a.9.9 0 0 1-.092-.276l-.983-6.609.004.016a1.172 1.172 0 0 1-.015-.173h.33c.008.424.27.847.791 1.176 1.087.687 2.886.706 4.019.043.569-.333.861-.774.874-1.219h.331a1.184 1.184 0 0 1-.018.174l.007-.036-.947 6.614a.91.91 0 0 1-.098.29h2.452V55.986h-9.595z" fill="#fff"/></mask><g mask="url(#e)"><path d="M45.06 65.9c-.188.11-.392.2-.607.276l-.542 4.04.056.2.303.097.246-.103.611-4.552-.068.042zM45.174 65.512l.237-1.77a2.045 2.045 0 0 0-.498-.43c-.022-.015-.047-.027-.07-.04l-.356 2.652c.12-.051.235-.106.343-.17.129-.075.243-.156.344-.242z" fill="#1E3142"/><path d="m45.788 56.812-.02.063-.025.076a139.424 139.424 0 0 1-.099.306l-.024.076-.027.082.255-.017-.026-.578-.034-.008z" fill="#2C3F54"/><path d="M45.593 57.415c-.008.025-.261.752-.266.787.03.005.04-.002.09-.024.12-.052.299-.046.402.037.046.037.111.137.113.177-.014-.312-.07-.683-.085-.994-.032-.058-.227-.032-.254.017z" fill="#FCE2BE"/><path d="M45.82 58.215c.103.083.09.193-.029.245a.43.43 0 0 1-.403-.056c-.103-.083-.091-.193.028-.246a.43.43 0 0 1 .403.057z" fill="#2C3F54"/><path d="m44.26 70.235 1.617-12.049.057.2-1.617 12.049-.056-.2z" fill="#E8312D"/><path d="m43.958 70.137 1.617-12.048.302.097-1.617 12.049-.302-.098zM43.711 70.24l1.617-12.048.247-.103-1.617 12.048-.247.104z" fill="#FF5148"/><path d="m43.958 70.137.303.098.056.2-.247.104-.302-.097-.057-.201.247-.104z" fill="#2C3F54"/></g><mask id="f" style="mask-type:luminance" maskUnits="userSpaceOnUse" x="37" y="55" width="11" height="17"><path d="M37.836 55.986v15.592h2.94a.9.9 0 0 1-.092-.276l-.983-6.609.004.016a1.172 1.172 0 0 1-.015-.173h.33c.008.424.27.847.791 1.176 1.087.687 2.886.706 4.019.043.569-.333.861-.774.874-1.219h.331a1.184 1.184 0 0 1-.018.174l.007-.036-.947 6.614a.91.91 0 0 1-.098.29h2.452V55.986h-9.595z" fill="#fff"/></mask><g mask="url(#f)"><path d="M44.899 68.012c-.198.086-.411.15-.633.2l-.989 3.945.034.207.29.133.256-.073 1.114-4.445-.072.033z" fill="#1E3142"/><path d="m46.637 59.076-.027.06-.033.073-.066.145-.066.146-.033.073-.035.078.254.014.039-.578-.033-.011z" fill="#2C3F54"/><path d="M46.376 59.65c-.01.024-.344.715-.353.75.03.008.041.003.093-.013.124-.037.302-.01.395.086.041.042.095.15.093.19.02-.312.006-.687.026-.998-.025-.062-.222-.06-.254-.014z" fill="#FCE2BE"/><path d="M46.511 60.473c.094.096.07.204-.055.24a.433.433 0 0 1-.394-.105c-.093-.095-.069-.203.055-.24.124-.038.3.01.394.105z" fill="#2C3F54"/><path d="m43.622 72.219 2.95-11.767.034.206-2.95 11.766-.034-.205z" fill="#ED7E24"/><path d="m43.333 72.085 2.95-11.767.29.134-2.95 11.767-.29-.134z" fill="#FFA04A"/><path d="m43.076 72.157 2.95-11.766.257-.073-2.95 11.767-.257.072z" fill="#FFA04A"/></g><mask id="g" style="mask-type:luminance" maskUnits="userSpaceOnUse" x="37" y="55" width="11" height="17"><path d="M37.836 55.986v15.592h2.94a.9.9 0 0 1-.092-.276l-.983-6.609.004.016a1.172 1.172 0 0 1-.015-.173h.33c.008.424.27.847.791 1.176 1.087.687 2.886.706 4.019.043.569-.333.861-.774.874-1.219h.331a1.184 1.184 0 0 1-.018.174l.007-.036-.947 6.614a.91.91 0 0 1-.098.29h2.452V55.986h-9.595z" fill="#fff"/></mask><g mask="url(#g)"><path d="M40.677 65.9c.187.11.391.2.605.276l.543 4.04-.057.2-.302.097-.247-.103-.61-4.552.068.042zM40.561 65.512l-.237-1.77c.125-.154.291-.3.498-.43.022-.015.047-.027.07-.04l.356 2.652a3.1 3.1 0 0 1-.343-.17 2.397 2.397 0 0 1-.344-.242z" fill="#1E3142"/><path d="m40.217 58.209.02.063.025.076.05.153.049.153.024.076.027.082-.255-.017.026-.578.034-.008z" fill="#2C3F54"/><path d="M40.412 58.812c.008.025.261.752.266.787-.03.005-.04-.002-.09-.024-.12-.052-.299-.046-.403.037-.045.037-.11.137-.112.177.014-.312.07-.683.084-.994.032-.058.228-.032.255.017z" fill="#FCE2BE"/><path d="M40.185 59.612c-.103.083-.09.193.028.245.12.053.3.028.403-.056.104-.083.092-.193-.027-.245a.43.43 0 0 0-.404.056z" fill="#2C3F54"/><path d="m41.744 71.632-1.617-12.049-.056.2 1.617 12.05.056-.201z" fill="#ED7E24"/><path d="M42.047 71.534 40.43 59.486l-.303.097 1.617 12.049.303-.098z" fill="#FFA04A"/><path d="M42.294 71.638 40.677 59.59l-.247-.104 1.617 12.048.247.104z" fill="#FFA04A"/><path d="m42.047 71.534-.302.097-.056.201.246.104.302-.098.057-.2-.247-.104z" fill="#2C3F54"/></g><path d="M32.67 81.943c.067.04.067.107 0 .148l-7.908 4.824-1.836-1.112 7.909-4.824a.257.257 0 0 1 .243 0l1.592.964z" fill="#599ECE"/><path d="m22.721 85.658 1.961 1.188c-.154.093-1.102.248-1.338.297-.192.04-.731.216-1.46.66l-.11-.068-.44.269-.503-.305.44-.269-.114-.069c.727-.444 1.016-.772 1.08-.889.08-.143.331-.72.484-.814zM32.675 81.587c.073.045.073.117 0 .16L30.64 82.99a.279.279 0 0 1-.264 0l-1.2-.727c-.074-.044-.074-.116-.002-.16l2.036-1.242a.279.279 0 0 1 .264 0l1.2.727z" fill="#599ECE"/><path d="m32.67 80.96-.763.466-.001.438c0 .058-.02.1-.052.119l.766-.468a.238.238 0 0 0 .055-.046.289.289 0 0 0 .057-.092.454.454 0 0 0 .021-.08.553.553 0 0 0 .003-.045v-.175l.001-.044v-.175l.001-.044c0 .06-.029.11-.088.146z" fill="#D8A739"/><path d="m32.659 80.631-.156-.094-.156-.095-.156-.094-.155-.095-.156-.094-.156-.095-.156-.094-.155-.094-.156-.095-.156-.094c-.01-.006-.037-.023-.078-.034a.388.388 0 0 0-.05-.009h-.033a.263.263 0 0 0-.105.024c-.007.003-.017.01-.025.013h.002l-.765.466c.033-.02.077-.017.126.013l1.559.944.766-.467c.058-.034.113-.035.16-.006z" fill="#FFD96E"/><path d="M32.758 80.814a.23.23 0 0 0-.023-.109c-.01-.019-.027-.035-.027-.035-.02-.02-.028-.025-.05-.039-.049-.029-.105-.029-.165.008l-.763.466c.098.06.177.203.177.32l.766-.466v-.001a.166.166 0 0 0 .085-.144z" fill="#FFD96E"/><path d="m32.376 81.882-7.663 4.674c.042-.026.068-.08.068-.156l7.662-4.673c0 .076-.026.13-.067.155zM24.782 85.758l7.663-4.673-.002.642L24.78 86.4l.002-.642z" fill="#1E3142"/><path d="M30.487 79.619c-.064-.04-.123-.043-.165-.017l-7.662 4.673c.042-.025.1-.022.165.017l1.727 1.047 7.662-4.674-1.727-1.046z" fill="#2C3F54"/><path d="m24.552 85.339 7.662-4.674a.539.539 0 0 1 .23.42l-7.661 4.673a.538.538 0 0 0-.23-.419z" fill="#2C3F54"/><path d="M24.552 85.339a.54.54 0 0 1 .23.419l-.001.642c0 .154-.104.216-.232.139l-1.728-1.047a.54.54 0 0 1-.23-.42l.002-.641c0-.154.104-.216.232-.139l1.727 1.047z" fill="#1E3142"/><path d="M23.31 86.286c-.19.04-.726.22-1.45.66.001.123-.04.21-.106.25.03-.018.071-.043.102-.06.134-.076.142-.08.197-.108a4.208 4.208 0 0 1 .494-.219 2.61 2.61 0 0 1 .186-.059c.171-.046.255-.044.255-.044.056.003.066.004.229.02.182.018.28.025.33.028.072.005.223.015.36.01.203-.007.332-.037.447-.105.18-.109.29-.344.286-.678-.154.094-1.096.255-1.33.305z" fill="#D8A739"/><path d="M24.64 85.982c-.008-.655-.45-1.44-.988-1.755-.265-.155-.504-.167-.678-.06-.016.01-.04.024-.055.038a1.23 1.23 0 0 0-.104.1 1.397 1.397 0 0 0-.146.211c-.12.207-.237.476-.314.654-.053.123-.077.18-.096.219a1.161 1.161 0 0 1-.162.209 2.707 2.707 0 0 1-.26.247 4.05 4.05 0 0 1-.142.115c-.066.052-.087.066-.163.121a5.212 5.212 0 0 1-.29.19c.063-.038.152-.034.25.023.2.117.364.409.367.651.724-.44 1.26-.619 1.45-.66.235-.05 1.177-.21 1.33-.303z" fill="#FFD96E"/><path d="M21.86 86.945c.002.243-.157.345-.357.229-.2-.117-.363-.409-.366-.651-.003-.243.156-.345.356-.229.2.117.364.409.367.651z" fill="#D8A739"/><path d="M21.48 86.423c-.075-.046-.144-.05-.193-.02l-.54.458c.055-.001.38.228.543.342.096-.028.381-.105.381-.105.05-.03.08-.094.08-.183 0-.181-.121-.401-.271-.492z" fill="#FFD96E"/><path d="M21.016 86.99c.152.092.275.186.275.21 0 .023-.123-.032-.275-.124-.152-.092-.275-.186-.275-.21 0-.024.123.032.275.124z" fill="#FFD96E"/><path d="M33.357 71.406c.068.041.068.108.001.148l-7.908 4.824-1.836-1.112 7.909-4.824a.257.257 0 0 1 .243 0l1.591.964z" fill="#599ECE"/><path d="m23.41 75.121 1.96 1.188c-.154.094-1.103.249-1.339.297-.191.04-.73.217-1.459.66l-.11-.067-.441.269-.503-.305.44-.269-.113-.069c.726-.444 1.016-.773 1.08-.89.08-.143.33-.72.484-.814zM33.362 71.05c.073.045.074.117.001.161l-2.036 1.242a.28.28 0 0 1-.264 0l-1.2-.728c-.073-.044-.074-.116-.001-.16l2.036-1.242a.279.279 0 0 1 .263 0l1.201.728z" fill="#599ECE"/><path d="m33.357 70.423-.763.466v.438c-.001.058-.02.1-.053.12l.767-.468a.608.608 0 0 0 .055-.046.297.297 0 0 0 .072-.142.554.554 0 0 0 .008-.075l.001-.044V70.453l.001-.044v-.132c0 .06-.028.11-.088.146z" fill="#51AF51"/><path d="M33.346 70.095 33.19 70l-.156-.094-.156-.095-.155-.094-.156-.095-.156-.094-.156-.095-.155-.094-.156-.095-.156-.094a.295.295 0 0 0-.128-.042c-.01-.002-.023-.001-.033-.002a.265.265 0 0 0-.105.025l-.025.014.002-.001-.765.466c.033-.02.077-.016.126.013l1.559.945.766-.468c.058-.034.113-.034.16-.005zm-1.698-.95zm.102-.01z" fill="#79E07E"/><path d="M33.445 70.278a.226.226 0 0 0-.022-.11c-.01-.018-.027-.034-.027-.034-.02-.02-.029-.025-.05-.04-.05-.029-.105-.028-.165.008l-.763.466c.098.06.177.203.176.321l.767-.467a.165.165 0 0 0 .084-.144z" fill="#79E07E"/><path d="M33.063 71.346 25.4 76.019c.041-.025.067-.079.067-.155l7.662-4.674c0 .077-.026.13-.067.156z" fill="#1E3142"/><path d="m25.47 75.222 7.663-4.674-.002.642-7.662 4.674.002-.642z" fill="#1E3142"/><path d="M31.174 69.083c-.064-.04-.123-.043-.165-.017l-7.662 4.673c.042-.026.1-.022.165.017l1.727 1.047 7.662-4.674-1.727-1.046z" fill="#2C3F54"/><path d="m25.24 74.803 7.661-4.674a.539.539 0 0 1 .23.42l-7.661 4.673a.54.54 0 0 0-.23-.42z" fill="#2C3F54"/><path d="M25.24 74.803a.54.54 0 0 1 .23.419l-.002.642c0 .154-.104.216-.232.138l-1.727-1.046a.54.54 0 0 1-.23-.42l.001-.641c0-.154.105-.216.232-.14l1.728 1.048z" fill="#1E3142"/><path d="M23.997 75.75c-.19.04-.726.22-1.45.66.001.123-.04.21-.106.25l.102-.06c.134-.076.142-.08.197-.108a3.63 3.63 0 0 1 .494-.219c.054-.018.11-.037.187-.058.17-.047.254-.045.255-.045.056.004.066.004.229.02.182.018.28.026.329.029.072.005.223.014.361.01.202-.007.332-.038.447-.106.18-.109.29-.344.285-.677-.154.093-1.096.254-1.33.304z" fill="#51AF51"/><path d="M25.327 75.446c-.008-.655-.45-1.44-.988-1.755-.265-.155-.504-.167-.678-.06-.016.01-.04.024-.055.037a1.217 1.217 0 0 0-.104.1 1.4 1.4 0 0 0-.146.212c-.12.206-.237.476-.314.654-.053.123-.077.179-.096.219a1.164 1.164 0 0 1-.162.208 2.744 2.744 0 0 1-.26.248 4.1 4.1 0 0 1-.142.115 5.196 5.196 0 0 1-.454.312c.064-.04.153-.035.251.022.2.117.364.408.367.651.724-.44 1.26-.619 1.45-.66.235-.05 1.177-.21 1.331-.303z" fill="#79E07E"/><path d="M22.547 76.41c.003.243-.157.345-.356.228-.2-.117-.364-.408-.367-.651-.003-.243.157-.345.356-.228.2.116.364.408.367.65z" fill="#51AF51"/><path d="M22.168 75.887c-.076-.046-.144-.05-.194-.02l-.54.458c.055-.001.38.228.543.342.097-.028.382-.106.382-.106.049-.03.079-.093.08-.182 0-.181-.122-.401-.271-.492z" fill="#79E07E"/><path d="M21.704 76.454c.152.092.274.185.274.21 0 .023-.123-.032-.275-.124-.151-.092-.274-.186-.274-.21 0-.024.123.032.275.124z" fill="#79E07E"/><path d="M90.411 107.939c.068.041.068.107.001.148l-7.909 4.824-1.835-1.112 7.908-4.824a.256.256 0 0 1 .244 0l1.591.964z" fill="#599ECE"/><path d="m80.463 111.654 1.961 1.188c-.154.094-1.102.248-1.338.297-.192.039-.731.217-1.46.66l-.11-.068-.44.269-.504-.305.44-.268-.113-.069c.726-.445 1.016-.773 1.08-.89.08-.143.33-.72.484-.814zM90.416 107.584c.073.044.073.116 0 .16l-2.035 1.241a.274.274 0 0 1-.264 0l-1.2-.727c-.074-.044-.074-.116-.002-.16l2.036-1.242a.28.28 0 0 1 .264 0l1.2.728z" fill="#599ECE"/><path d="m90.412 106.956-.763.465-.001.438c0 .059-.02.1-.052.119l.766-.467a.547.547 0 0 0 .055-.046.287.287 0 0 0 .057-.092.532.532 0 0 0 .021-.081.542.542 0 0 0 .003-.044v-.132l.001-.043v-.176l.001-.044v-.043c0 .059-.029.11-.088.146z" fill="#E8312D"/><path d="m90.4 106.628-.156-.095-.156-.094-.155-.095-.156-.094-.156-.095-.156-.094-.155-.095-.156-.094-.156-.095-.156-.094c-.009-.005-.037-.022-.077-.033a.427.427 0 0 0-.05-.009c-.01-.002-.024-.001-.034-.001 0 0-.032 0-.066.01a.268.268 0 0 0-.038.014l-.025.014.001-.001-.764.466c.032-.019.076-.016.126.013l1.558.945.766-.468c.058-.034.113-.034.161-.005zm-1.697-.95zm.12-.004z" fill="#FF5148"/><path d="M90.5 106.81a.233.233 0 0 0-.023-.109c-.01-.018-.027-.034-.027-.035-.02-.019-.028-.024-.05-.038-.049-.03-.105-.029-.165.007l-.763.466a.412.412 0 0 1 .177.321l.766-.468a.165.165 0 0 0 .084-.144z" fill="#FF5148"/><path d="m90.117 107.879-7.662 4.673c.042-.025.067-.079.068-.156l7.662-4.673c0 .076-.026.13-.068.156zM82.524 111.754l7.662-4.673-.001.642-7.663 4.673.002-.642z" fill="#1E3142"/><path d="M88.229 105.615c-.065-.039-.123-.043-.165-.017l-7.662 4.673c.042-.025.1-.022.165.017l1.727 1.047 7.662-4.673-1.727-1.047z" fill="#2C3F54"/><path d="m82.294 111.335 7.662-4.673a.538.538 0 0 1 .23.419l-7.661 4.673a.538.538 0 0 0-.231-.419z" fill="#2C3F54"/><path d="M82.294 111.335a.54.54 0 0 1 .23.419l-.001.642c0 .154-.105.216-.232.139l-1.728-1.047a.538.538 0 0 1-.23-.419l.001-.642c0-.154.105-.216.233-.139l1.727 1.047z" fill="#1E3142"/><path d="M81.051 112.282c-.19.041-.726.219-1.45.66.001.123-.04.21-.106.251l.102-.061c.134-.076.143-.08.197-.108.086-.045.107-.055.181-.09.08-.037.155-.068.166-.073.095-.038.107-.042.147-.056.054-.019.11-.038.187-.059.17-.046.254-.044.255-.044.056.004.066.004.229.02.182.018.28.025.329.029.072.004.223.014.361.009.202-.007.332-.037.447-.105.18-.109.29-.344.285-.677-.153.093-1.095.254-1.33.304z" fill="#E8312D"/><path d="M82.382 111.978c-.008-.655-.45-1.44-.989-1.755-.265-.155-.504-.167-.677-.061-.016.012-.04.025-.055.039a1.1 1.1 0 0 0-.104.1 1.419 1.419 0 0 0-.146.211c-.121.207-.237.476-.314.655-.053.122-.077.178-.096.218a1.159 1.159 0 0 1-.162.209c-.056.06-.097.099-.14.141-.033.031-.052.047-.12.107a3.966 3.966 0 0 1-.305.236 5.729 5.729 0 0 1-.291.19c.064-.039.153-.035.251.023.2.117.364.408.367.651.724-.441 1.26-.619 1.45-.66.235-.05 1.177-.211 1.33-.304z" fill="#FF5148"/><path d="M79.601 112.941c.003.243-.157.346-.356.229-.2-.117-.364-.408-.367-.651-.003-.243.157-.345.356-.229.2.117.364.409.367.651z" fill="#E8312D"/><path d="M79.222 112.419c-.076-.046-.144-.05-.194-.02l-.54.459c.055-.002.38.227.544.341.096-.028.381-.105.381-.105.049-.03.08-.093.08-.183a.633.633 0 0 0-.271-.492z" fill="#FF5148"/><path d="M78.758 112.986c.152.092.275.186.275.21 0 .024-.123-.032-.275-.123-.152-.093-.275-.187-.275-.211 0-.023.123.032.275.124z" fill="#FF5148"/><path d="M57.032 97.974c.313.19.315.498.003.687l-7.628 4.653c-.311.19-.818.19-1.13 0L36.088 95.93c-.313-.19-.314-.498-.003-.688l7.628-4.653c.312-.19.818-.19 1.131 0l12.187 7.385z" fill="#1E3142"/><path d="m36.432 95.031 13.325 8.069 7.027-4.286-13.326-8.069-7.026 4.286z" fill="#1E3142"/><path d="m48.249 101.791-10.91-6.61 6.349-3.873h.016l10.909 6.61-6.348 3.873h-.017z" fill="#2C3F54"/><path d="m38.783 94.864-.027-.05-.465.284a.096.096 0 0 0 0 .162l.497.3.028-.05-.415-.25a.096.096 0 0 1 0-.162l.382-.234zM48.336 101.183c-.05.03-.11.03-.16 0l-.282-.171-.027.05.31.188c.049.03.11.03.16-.001l.289-.176-.028-.05-.262.16zM53.339 97.644l-.027.05.317.193a.04.04 0 0 1 0 .067l-.194.12.027.05.276-.17a.04.04 0 0 0 0-.067l-.4-.243zM43.272 92.06l.028.05.317-.193c.05-.03.11-.03.16 0l.316.191.027-.05-.343-.208a.153.153 0 0 0-.16 0l-.345.21z" fill="#47627A"/><path d="m57.267 98.334-.001.013a.42.42 0 0 1-.002.011c0 .004 0 .009-.002.013 0 .004 0 .007-.002.01a.166.166 0 0 1-.006.024.247.247 0 0 1-.003.012l-.004.011-.005.013a.164.164 0 0 1-.011.023.199.199 0 0 1-.015.025l-.005.01a.43.43 0 0 1-.011.016l-.006.007a.444.444 0 0 1-.053.059l-.012.01-.01.01-.013.01-.012.01-.014.01-.013.008a.36.36 0 0 1-.033.022l-7.628 4.653a3.26 3.26 0 0 1-.054.03l-.015.007a.904.904 0 0 1-.05.023l-.008.003a4.53 4.53 0 0 1-.098.033l-.032.009-.044.01-.032.007a1.03 1.03 0 0 1-.117.015l-.054.004-.035.001h-.044l-.037-.001-.04-.003c-.013 0-.025-.002-.037-.003l-.04-.004-.036-.006a.585.585 0 0 1-.042-.008l-.033-.007a9.281 9.281 0 0 1-.05-.012l-.032-.009-.017-.006a.794.794 0 0 1-.048-.017l-.014-.006-.042-.018-.021-.01-.059-.032-12.186-7.385a.532.532 0 0 1-.191-.184.32.32 0 0 1-.045-.162l-.002.672c0 .125.078.25.236.346l12.187 7.384c.018.012.038.022.058.033l.02.009a.502.502 0 0 0 .037.016l.006.003.014.005.049.018.017.005.011.004.02.005a.843.843 0 0 0 .05.013l.013.003.02.004.043.008.017.003.018.002.04.005.02.002.017.001.04.002.021.001H48.887l.013-.001a.97.97 0 0 0 .054-.004l.022-.001.01-.002.016-.002a1.001 1.001 0 0 0 .07-.01l.006-.001.026-.006a.672.672 0 0 0 .044-.01l.031-.009.041-.012.01-.003.048-.018.007-.003a.844.844 0 0 0 .05-.023l.015-.007a.545.545 0 0 0 .054-.03l7.629-4.653.01-.006.008-.006.015-.01.013-.008a.802.802 0 0 0 .013-.01l.012-.01.013-.01.01-.01.012-.01.005-.004.004-.005a.456.456 0 0 0 .045-.05v-.001l.005-.006.011-.017.006-.009a.584.584 0 0 0 .008-.015l.003-.004.003-.006.006-.012a1.094 1.094 0 0 0 .01-.024l.002-.005.002-.005.004-.013.003-.01.002-.013.002-.007v-.004c.002-.004.002-.008.003-.013l.001-.01.001-.013v-.015l.002-.672v.015z" fill="#142430"/><path d="m55.675 98.97-5.814 3.486a.377.377 0 0 1-.037.019h-.002l-.007.002a1.881 1.881 0 0 1-.036.012.02.02 0 0 0-.007.002l-.007.001a.226.226 0 0 1-.026.005l-.009.001-.006.001-.01.001-.025.002h-.027c-.01-.001-.02-.001-.029-.003h-.003l-.008-.001a6.081 6.081 0 0 1-.022-.003l-.01-.003a.23.23 0 0 1-.025-.007l-.014-.003-.01-.004a.045.045 0 0 0-.01-.004c-.013-.006-.025-.011-.037-.018l-.525-.321-.004-.002-.012-.01-.019-.014-.001-.002a.114.114 0 0 1-.017-.018l-.002-.004-.003-.004-.005-.008a.09.09 0 0 1-.007-.015v-.003l-.001-.003a.085.085 0 0 1-.005-.025V101.822c0 .009.001.018.004.028v.003a.126.126 0 0 0 .013.025l.003.004a.107.107 0 0 0 .02.024l.019.015.016.011.525.321a.234.234 0 0 0 .047.022.21.21 0 0 0 .024.008 3.663 3.663 0 0 0 .065.014l.044.002h.007l.043-.002.006-.001.042-.007a.22.22 0 0 0 .043-.014l.006-.002a.266.266 0 0 0 .04-.02l5.813-3.486a.155.155 0 0 0 .072-.081.102.102 0 0 0 .005-.03v.202c.001.04-.024.08-.075.112z" fill="#142430"/><path d="M48.97 101.709c-.102.062-.102.162-.002.223l.526.321a.385.385 0 0 0 .367 0l2.942-1.764-.887-.546-2.946 1.766z" fill="#2C3F54"/><path d="m52.102 99.831-.186.112.887.546.186-.112-.887-.546z" fill="#1E3142"/><path d="M55.674 98.767c.102-.061.102-.161.001-.223l-.526-.32a.388.388 0 0 0-.366 0l-2.681 1.607.886.546 2.686-1.61z" fill="#2C3F54"/><path d="m43.145 94.806.036.046-.12.172a.025.025 0 0 0 .004-.006l.001-.002A.04.04 0 0 0 43.07 95c0-.004 0-.008-.002-.012a.088.088 0 0 0-.008-.024.141.141 0 0 0-.015-.022.112.112 0 0 0-.02-.018.088.088 0 0 0-.022-.012.044.044 0 0 0-.02-.003.028.028 0 0 0-.008.002.02.02 0 0 0-.007.004l.177-.11z" fill="#142430"/><path d="M43.068 94.987v-.002l-.001-.003-.001-.003-.001-.002-.001-.004-.002-.003-.001-.003-.001-.002-.003-.004-.002-.004-.002-.004-.001-.001a.085.085 0 0 0-.016-.018l-.003-.004-.002-.001a.2.2 0 0 0-.006-.005l-.001-.001-.003-.002-.004-.002-.003-.002-.003-.002-.003-.001-.002-.001-.003-.001L43 94.91h-.003l-.002-.001h-.002l-.003-.001H42.98l-.003.001-1.2.484.014-.004a.231.231 0 0 1 .012-.004l.014-.003a.322.322 0 0 1 .03-.004h.023a.328.328 0 0 1 .028.002h.004a.28.28 0 0 1 .057.01l.002.001a.41.41 0 0 1 .054.018l.012.005.01.004.01.006a.251.251 0 0 1 .011.005l.01.004a.421.421 0 0 1 .013.007l.009.005a.44.44 0 0 1 .014.01c.003 0 .006.003.009.004l.02.013.005.004a1.007 1.007 0 0 1 .074.056l.004.004a.709.709 0 0 1 .063.06l.001.002.027.03a.733.733 0 0 1 .03.035l.003.005a.863.863 0 0 1 .055.078l.004.007.013.02a.803.803 0 0 1 .014.027l.004.007.009.017.004.008.007.015.004.008.004.01.006.014.003.008a.45.45 0 0 1 .005.014c.001.003.003.006.003.01l.005.013.003.009a.237.237 0 0 1 .007.023l.003.013.003.01.003.018a.367.367 0 0 1 .008.06l.001.008v.055l-.002.012-.002.015-.002.006a.24.24 0 0 1-.02.062l.585-1.2.002-.004v-.004l.001-.004v-.016z" fill="#1E3142"/><path d="M36.79 100.317c-.23-.079-.377.057-.328.305.049.248.275.514.505.593.23.08.378-.057.33-.305-.05-.248-.276-.513-.506-.593z" fill="#142430"/><path d="M42.532 95.947a.02.02 0 0 0-.001-.004l-.002-.007-.002-.008-.002-.006-.002-.008-.001-.005-.004-.01c0-.002 0-.004-.002-.007v-.001l-.007-.02v-.002l-.007-.017-.001-.002a.193.193 0 0 1-.003-.008l-.004-.009a.056.056 0 0 0-.002-.005l-.003-.008-.003-.006a.126.126 0 0 1-.008-.016l-.002-.004a.265.265 0 0 0-.005-.01l-.004-.007v-.002l-.01-.02h-.001l-.001-.001-.01-.017-.001-.002-.004-.007a.41.41 0 0 0-.005-.008l-.004-.006-.004-.007a.134.134 0 0 0-.013-.02l-.002-.002a1.373 1.373 0 0 0-.012-.017l-.003-.005a.424.424 0 0 0-.01-.013l-.002-.003-.008-.01-.007-.008v-.002l-.023-.026-.002-.003-.002-.002a.848.848 0 0 0-.035-.038l-.003-.003a.833.833 0 0 0-.048-.045c-.005-.005-.01-.01-.015-.013l-.003-.003a.567.567 0 0 0-.018-.015h-.001a.285.285 0 0 0-.017-.013l-.002-.002-.008-.006-.009-.006-.003-.002-.009-.006-.007-.005-.004-.002-.009-.006-.006-.004-.005-.003-.01-.006-.005-.003a.115.115 0 0 0-.006-.003l-.009-.005-.004-.002-.008-.004-.008-.004a.1.1 0 0 0-.003-.002l-.01-.004-.007-.004h-.002l-.018-.008h-.001c-.006-.002-.011-.005-.017-.006l-.004-.002-.013-.004-.005-.002-.007-.002-.005-.001-.008-.002-.006-.002h-.002a.32.32 0 0 0-.033-.006h-.002l-.006-.001a.12.12 0 0 0-.008-.001h-.011l-.005-.001h-.033l-.006.001-.008.001h-.003l-.006.001-.009.002h-.003l-.004.002c-.004 0-.007.002-.011.003h-.004l-.002.002-.017.006h-.002a.182.182 0 0 0-.024.014l-.001.001-.01.006-.004.003a.141.141 0 0 0-.012.011l-5.24 4.946.013-.011a767913812.883 767913812.883 0 0 1 .017-.011.097.097 0 0 1 .022-.012l.002-.001c.005-.002.01-.005.017-.006a1.911 1.911 0 0 1 .018-.005l.006-.002.01-.002.007-.001.008-.001h.01l.007-.001H36.683a.017.017 0 0 0 .008.001l.012.001.005.001a3.543 3.543 0 0 0 .037.007l.006.001.013.004.007.002.018.006.02.007.002.001.02.008a1447936951.884 1447936951.884 0 0 1 .02.01l.008.004.012.006.01.005.01.006.01.006.01.007.01.005.011.008a.626.626 0 0 0 .02.014l.008.006.014.01.005.004a.27.27 0 0 1 .02.016l.002.002.016.014.02.018.028.027.005.005.032.036.004.004.022.027.008.01.008.01.012.016.003.004.014.02c0 .002.002.003.003.005l.01.015.004.007.01.014.003.006.011.019v.002a1.076 1.076 0 0 1 .016.028l.007.014.004.008.006.014.004.008.006.014c0 .003.002.005.003.008l.007.019v.002c.004.008.006.015.008.022l.002.006.005.015.002.008.004.014.002.007a.789.789 0 0 1 .008.043v.006l.003.014v.009l.002.012V101.032l-.002.013-.001.007a.247.247 0 0 1-.004.022v.002a.213.213 0 0 1-.008.027l-.001.002a.185.185 0 0 1-.011.025.266.266 0 0 1-.01.018v.001l-.013.017-.003.004a.388.388 0 0 1-.014.015l5.241-4.947.014-.014.003-.004a.189.189 0 0 0 .012-.017l.001-.002a.245.245 0 0 0 .01-.017l.002-.005a.217.217 0 0 0 .01-.02v-.002a.29.29 0 0 0 .008-.027v-.002a.345.345 0 0 0 .004-.022v-.002l.001-.005.002-.013V96.015l-.002-.008v-.004l-.002-.011v-.007a.366.366 0 0 0-.007-.038z" fill="#142430"/><path d="M40.512 96.749c-.078.073-.061.16.038.195a.348.348 0 0 0 .32-.07l.914-.858c.078-.074.061-.16-.038-.195a.348.348 0 0 0-.32.07l-.914.858zM37.174 101.072a.283.283 0 0 0 .01-.167.701.701 0 0 0-.41-.481.254.254 0 0 0-.152-.011.467.467 0 0 0-.202.615.433.433 0 0 0 .369.253.431.431 0 0 0 .385-.209z" fill="#2C3F54"/><path d="m81.096 87.482.496-.298a.393.393 0 0 0 .003-.662L50.257 67.243a.35.35 0 0 0-.365-.002l-.496.298a.393.393 0 0 0-.003.663L80.73 87.48a.35.35 0 0 0 .366.002z" fill="#599ECE"/><path d="m68.508 80.1-3.326 2.028a.5.5 0 0 1-.521.002l-6.14-3.697a.561.561 0 0 1-.002-.948l3.327-2.029a.5.5 0 0 1 .521-.001l6.139 3.697c.348.21.35.736.002.947z" fill="#599ECE"/><path d="m68.629 75.824.031.016-6.383-3.893a.178.178 0 0 1-.01-.006l-.022-.011a1.221 1.221 0 0 0-.088-.044l-.008-.004-.055-.024-.057-.025a.856.856 0 0 1-.062-.03l-.024-.013 6.384 3.894.006.003c.005.004.012.006.018.01l.062.03.005.003.051.022.064.027c.029.013.058.028.088.045z" fill="#838383"/><path d="m65.021 81.646-6.383-3.894-.002-.47 6.384 3.893.001.47z" fill="#2C3F54"/><path d="M68.704 77.404c-.001-.738-.144-.957-.323-1.066l-6.383-3.894c.179.11.32.328.323 1.066.001.38.004 1.537-1.92 2.703l-1.764 1.07 6.383 3.893 1.765-1.07c1.924-1.165 1.92-2.322 1.92-2.702z" fill="#142430"/><path d="m67.661 73.534-6.383-3.893.39-.212 6.383 3.894-.39.211z" fill="#9E9E9E"/><path d="M67.93 76.075c-.058-.066-.232-.268-.268-1.536a17.433 17.433 0 0 1 0-1.005l-6.384-3.893a19.53 19.53 0 0 0 0 1.004c.037 1.269.211 1.47.268 1.536a.518.518 0 0 0 .13.109l6.383 3.893a.543.543 0 0 1-.13-.108z" fill="#9E9E9E"/><path d="m67.661 73.534.39-.211c-.005.209-.011.583 0 .97.03 1.018.15 1.264.2 1.322.058.067.14.1.226.137.274.115.614.256.617 1.416a3.317 3.317 0 0 1-.623 1.914c-.39.554-.94 1.043-1.685 1.494l-1.765 1.07-.001-.47 1.765-1.07c1.924-1.166 1.92-2.323 1.92-2.702-.003-.943-.234-1.038-.479-1.14a.725.725 0 0 1-.296-.189c-.058-.066-.232-.268-.268-1.536-.012-.41-.006-.792 0-1.005z" fill="#142430"/><path d="m50.222 44.214.912-.556-.049 17.912-.912.556.049-17.912z" fill="#C5C5C5"/><path d="m50.173 62.126.912-.556L80.53 79.412l-.912.556-29.444-17.842z" fill="#599ECE"/><path d="m50.222 44.214.912-.556L80.578 61.5l-.912.556-29.444-17.842z" fill="#A7A7A7"/><path d="m79.666 62.056.912-.556-.048 17.912-.912.556.048-17.912z" fill="#969696"/><path d="m79.665 62.056-.048 17.913-29.444-17.842.049-17.913 29.443 17.842z" fill="#55A0C9"/><path d="M79.236 60.133 50.661 42.817c-.895-.542-1.64-.21-1.79.73l-.078 19.09c-.003 1.206.805 2.675 1.806 3.281l28.575 17.316c1 .606 1.813.12 1.816-1.087l.05-18.733c.004-1.207-.803-2.675-1.804-3.281zm.382 19.835L50.174 62.126l.048-17.913 29.444 17.843-.048 17.912z" fill="#2C3F54"/><path d="M64.921 51.7c.272.165.492.564.491.892 0 .328-.222.46-.494.296-.272-.165-.492-.565-.49-.893 0-.328.221-.46.493-.295z" fill="#142430"/><path d="M64.92 52.11c.084.052.152.175.152.276 0 .101-.069.142-.153.091a.353.353 0 0 1-.15-.275c0-.101.068-.142.151-.091z" fill="#2C3F54"/><path d="M80.148 59.576 51.573 42.261c-.504-.305-.96-.334-1.29-.133l-.911.556c.329-.2.785-.172 1.289.133l28.575 17.316c1 .606 1.808 2.074 1.805 3.281l-.05 18.734c-.002.6-.204 1.02-.529 1.219l.912-.556c.325-.199.526-.62.528-1.22l.05-18.733c.004-1.207-.804-2.675-1.804-3.282z" fill="#142430"/><mask id="h" style="mask-type:luminance" maskUnits="userSpaceOnUse" x="50" y="44" width="30" height="36"><path d="m79.665 62.056-.048 17.913-29.444-17.842.048-17.913 29.444 17.842z" fill="#fff"/></mask><g mask="url(#h)" fill="#7ABFE5"><path d="m69.692 42.984-26.137 5.274 1.535 8.383 26.137-5.274-1.535-8.383zM79.674 57.03l-33.967 6.853.645 3.522 33.967-6.854-.645-3.522zM86.128 65.185l-27.246 5.498.415 2.26 27.246-5.497-.415-2.261z"/></g><path d="M36.49 81.858H35.44v.512h1.048v-.512zM68.39 91.462h-.834v.799h.835v-.8z" fill="#142430"/><path d="M68.123 91.607c.355.215.357.945.005 1.16l-7.611 4.26c-.353.215-.925.215-1.28 0L35.708 82.769c-.355-.215-.356-.563-.004-.778l7.61-4.642c.353-.215.926-.215 1.28 0l23.53 14.258z" fill="#142430"/><path d="M68.123 91.074c.355.215.357.564.005.778l-7.611 4.643c-.353.214-.925.214-1.28 0L35.708 82.235c-.355-.214-.356-.563-.004-.777l7.61-4.643c.353-.214.926-.215 1.28 0l23.53 14.258z" fill="#2C3F54"/><path d="m45.474 78.344-.777.474a.413.413 0 0 1-.39 0l-.783-.474c-.054-.033-.08-.076-.08-.12l-.002.236c0 .043.027.086.082.12l.782.473a.413.413 0 0 0 .39 0l.778-.474c.053-.032.08-.075.08-.117v-.236c0 .043-.026.085-.08.118z" fill="#DAE5EA"/><path d="M45.473 78.107c.108.065.11.171.002.237l-.778.474a.412.412 0 0 1-.39 0l-.782-.474c-.108-.065-.109-.172-.001-.237l.777-.475a.412.412 0 0 1 .39 0l.782.475z" fill="#fff"/><path d="m46.952 79.24-.777.474a.413.413 0 0 1-.39 0l-.783-.475c-.054-.032-.08-.076-.08-.119l-.002.235c0 .044.027.087.082.12l.782.474a.413.413 0 0 0 .39 0l.778-.474c.053-.033.08-.075.08-.118v-.235c0 .042-.026.085-.08.117z" fill="#DAE5EA"/><path d="M46.951 79.002c.108.066.11.172.002.237l-.778.474a.412.412 0 0 1-.39 0l-.782-.474c-.108-.065-.109-.171-.001-.237l.777-.474a.412.412 0 0 1 .39 0l.782.474z" fill="#fff"/><path d="m48.43 80.135-.777.474a.413.413 0 0 1-.39 0l-.783-.474c-.054-.033-.08-.076-.08-.12l-.002.236c0 .043.027.086.082.12l.782.473a.412.412 0 0 0 .39 0l.778-.474c.053-.032.08-.075.08-.118v-.235c0 .043-.026.086-.08.118z" fill="#DAE5EA"/><path d="M48.43 79.898c.107.065.108.171 0 .237l-.777.474a.413.413 0 0 1-.39 0l-.783-.474c-.108-.065-.108-.172 0-.237l.777-.474a.412.412 0 0 1 .39 0l.782.474z" fill="#fff"/><path d="m49.909 81.03-.778.475a.413.413 0 0 1-.39 0l-.783-.474c-.054-.033-.08-.076-.08-.12l-.002.236c0 .043.027.086.082.12l.782.473a.413.413 0 0 0 .39 0l.778-.474c.053-.032.08-.075.08-.118v-.235c0 .043-.026.086-.08.118z" fill="#DAE5EA"/><path d="M49.907 80.794c.108.065.109.171.001.237l-.777.474a.413.413 0 0 1-.39 0l-.783-.474c-.108-.065-.108-.172 0-.237l.777-.474a.412.412 0 0 1 .39 0l.782.474z" fill="#fff"/><path d="m51.387 81.926-.778.474a.413.413 0 0 1-.39 0l-.783-.474c-.054-.032-.08-.076-.08-.119l-.002.235c0 .043.027.087.082.12l.782.474a.412.412 0 0 0 .39 0l.778-.474c.053-.033.08-.076.08-.118v-.235c0 .042-.026.085-.08.117z" fill="#DAE5EA"/><path d="M51.385 81.69c.108.065.109.17.001.236l-.777.474a.413.413 0 0 1-.39 0l-.783-.474c-.108-.065-.108-.171 0-.237l.777-.474a.412.412 0 0 1 .39 0l.782.474z" fill="#fff"/><path d="m52.865 82.822-.778.474a.412.412 0 0 1-.39 0l-.783-.474c-.054-.033-.08-.076-.08-.12l-.002.236c0 .043.027.086.082.12l.782.473a.412.412 0 0 0 .39 0l.778-.474c.053-.032.08-.075.08-.118v-.235c0 .043-.026.085-.08.118z" fill="#DAE5EA"/><path d="M52.864 82.585c.108.065.108.171 0 .237l-.776.474a.413.413 0 0 1-.39 0l-.783-.474c-.108-.065-.109-.172-.001-.237l.777-.474a.412.412 0 0 1 .39 0l.783.474z" fill="#fff"/><path d="m54.343 83.718-.778.474a.412.412 0 0 1-.39 0l-.782-.474c-.055-.033-.082-.076-.082-.12v.236c0 .043.026.086.08.12l.784.473a.412.412 0 0 0 .39 0l.777-.474c.053-.032.08-.075.08-.118V83.6c0 .043-.026.085-.08.118z" fill="#DAE5EA"/><path d="M54.342 83.481c.108.065.108.171 0 .237l-.776.474a.413.413 0 0 1-.39 0l-.783-.474c-.108-.065-.109-.172-.001-.237l.777-.474a.412.412 0 0 1 .39 0l.783.474z" fill="#fff"/><path d="m55.82 84.613-.777.475a.412.412 0 0 1-.39 0l-.782-.475c-.055-.032-.082-.076-.082-.119v.235c0 .043.026.087.08.12l.784.474a.412.412 0 0 0 .39 0l.777-.474c.053-.033.08-.076.08-.118v-.235c0 .042-.026.085-.08.117z" fill="#DAE5EA"/><path d="M55.82 84.376c.107.066.108.172 0 .237l-.776.475a.413.413 0 0 1-.39 0l-.783-.475c-.108-.065-.109-.171-.001-.237l.777-.474a.412.412 0 0 1 .39 0l.783.474z" fill="#fff"/><path d="m57.299 85.509-.778.474a.412.412 0 0 1-.39 0l-.782-.474c-.055-.033-.082-.076-.082-.12v.236c0 .043.027.086.08.12l.784.473a.412.412 0 0 0 .39 0l.777-.474c.053-.032.08-.075.08-.118v-.235c0 .043-.026.085-.08.118z" fill="#DAE5EA"/><path d="M57.298 85.272c.108.065.108.171.001.237l-.777.474a.412.412 0 0 1-.39 0l-.783-.474c-.108-.065-.109-.172-.001-.237l.777-.474a.412.412 0 0 1 .39 0l.783.474z" fill="#fff"/><path d="m58.777 86.405-.778.474a.413.413 0 0 1-.39 0l-.782-.474c-.055-.033-.082-.076-.082-.12v.236c0 .043.027.086.08.12l.784.473a.413.413 0 0 0 .39 0l.777-.474c.054-.032.08-.075.08-.118l.001-.235c0 .043-.027.085-.08.118z" fill="#DAE5EA"/><path d="M58.776 86.168c.108.065.108.171.001.237l-.777.474a.413.413 0 0 1-.39 0l-.783-.474c-.108-.065-.109-.172-.001-.237l.777-.474a.411.411 0 0 1 .39 0l.783.474z" fill="#fff"/><path d="m60.255 87.3-.778.475a.412.412 0 0 1-.39 0l-.782-.475c-.055-.032-.082-.076-.082-.119v.235c0 .044.027.087.08.12l.784.474a.413.413 0 0 0 .39 0l.777-.474c.053-.033.08-.076.08-.118v-.235c0 .042-.026.085-.08.117z" fill="#DAE5EA"/><path d="M60.254 87.064c.108.065.108.17.001.236l-.777.475a.412.412 0 0 1-.39 0l-.783-.475c-.108-.065-.108-.171-.001-.237l.777-.474a.412.412 0 0 1 .39 0l.783.475z" fill="#fff"/><path d="m61.732 88.196-.777.474a.413.413 0 0 1-.39 0l-.783-.474c-.054-.033-.081-.076-.081-.12v.236c-.001.043.026.086.08.12l.783.473a.413.413 0 0 0 .39 0l.778-.474c.053-.032.08-.075.08-.117v-.236c0 .043-.026.085-.08.118z" fill="#DAE5EA"/><path d="M61.73 87.959c.108.065.11.171.002.237l-.778.474a.413.413 0 0 1-.39 0l-.783-.474c-.107-.065-.108-.172 0-.237l.777-.474a.412.412 0 0 1 .39 0l.782.474z" fill="#fff"/><path d="m45.387 80.142-.778.474a.412.412 0 0 1-.39 0l-2.217-1.344a.245.245 0 0 1-.036-.026.14.14 0 0 1-.04-.06.103.103 0 0 1-.005-.033l-.001.235c0 .01.002.022.005.032a.14.14 0 0 0 .04.061c.01.01.023.018.036.026l2.217 1.344a.412.412 0 0 0 .39 0l.778-.474c.053-.033.08-.075.08-.118v-.235c0 .043-.026.085-.08.118z" fill="#DAE5EA"/><path d="M45.385 79.904c.108.066.109.172.002.237l-.778.475a.413.413 0 0 1-.39 0l-2.217-1.344c-.108-.065-.109-.172-.001-.237l.777-.474a.412.412 0 0 1 .39 0l2.217 1.343z" fill="#fff"/><path d="m43.038 80.57-.777.474a.412.412 0 0 1-.39 0L40.48 80.2c-.055-.033-.082-.077-.082-.12v.235c0 .043.027.087.081.12l1.39.843a.412.412 0 0 0 .39 0l.779-.474c.053-.033.08-.075.08-.118v-.235c0 .042-.026.085-.08.117z" fill="#DAE5EA"/><path d="M43.037 80.332c.108.066.109.172.002.238l-.778.474a.413.413 0 0 1-.39 0L40.48 80.2c-.108-.066-.109-.172-.002-.237l.778-.475a.412.412 0 0 1 .39 0l1.391.843z" fill="#fff"/><path d="m40.957 81.099-.778.474a.412.412 0 0 1-.39 0l-.782-.474c-.054-.033-.081-.076-.081-.12l-.001.236c0 .043.027.086.081.119l.783.474a.412.412 0 0 0 .39 0l.777-.474c.054-.033.08-.075.08-.118l.001-.235c0 .043-.027.085-.08.118z" fill="#DAE5EA"/><path d="M40.956 80.862c.108.065.109.171.001.237l-.777.474a.412.412 0 0 1-.39 0l-.783-.474c-.108-.066-.108-.172 0-.237l.776-.475a.412.412 0 0 1 .39 0l.783.475z" fill="#fff"/><path d="m44.516 81.466-.777.474a.413.413 0 0 1-.39 0l-.783-.474c-.055-.033-.081-.076-.081-.12l-.001.235c0 .044.027.087.081.12l.783.474a.413.413 0 0 0 .39 0l.777-.474c.054-.033.08-.075.08-.118l.001-.235c0 .042-.027.085-.08.118z" fill="#DAE5EA"/><path d="M44.515 81.229c.108.065.109.171.001.236l-.777.474a.412.412 0 0 1-.39 0l-.783-.474c-.108-.065-.108-.171 0-.237l.777-.474a.412.412 0 0 1 .39 0l.782.475z" fill="#fff"/><path d="m42.435 81.995-.778.474a.412.412 0 0 1-.39 0l-.782-.474c-.054-.033-.081-.076-.081-.12l-.001.236c0 .043.027.086.081.119l.783.474a.412.412 0 0 0 .39 0l.777-.474c.053-.033.08-.075.08-.118v-.235c0 .043-.026.085-.08.118z" fill="#DAE5EA"/><path d="M42.434 81.758c.108.065.109.171.002.237l-.778.474a.412.412 0 0 1-.39 0l-.782-.474c-.108-.066-.109-.172-.001-.238l.777-.474a.412.412 0 0 1 .39 0l.782.475z" fill="#fff"/><path d="m46.864 81.037-.777.474a.412.412 0 0 1-.39 0l-.783-.474c-.054-.033-.08-.076-.08-.119l-.002.235c0 .043.027.087.082.12l.782.474a.412.412 0 0 0 .39 0l.778-.475c.053-.032.08-.075.08-.117v-.235c0 .042-.026.085-.08.117z" fill="#DAE5EA"/><path d="M46.863 80.8c.108.066.109.172.001.237l-.777.474a.412.412 0 0 1-.39 0l-.783-.474c-.108-.065-.108-.171 0-.237l.777-.474a.412.412 0 0 1 .39 0l.782.474z" fill="#fff"/><path d="m45.994 82.361-.777.474a.413.413 0 0 1-.39 0l-.783-.474c-.054-.033-.081-.076-.081-.12l-.001.236c0 .043.027.086.081.12l.783.474a.413.413 0 0 0 .39 0l.777-.475c.054-.032.08-.075.08-.117l.001-.236c0 .043-.027.085-.08.118z" fill="#DAE5EA"/><path d="M45.993 82.124c.108.065.109.171.001.237l-.777.474a.412.412 0 0 1-.39 0l-.783-.474c-.108-.065-.108-.172 0-.237l.777-.474a.412.412 0 0 1 .39 0l.782.474z" fill="#fff"/><path d="m43.914 82.89-.778.474a.413.413 0 0 1-.39 0l-.782-.474c-.054-.033-.081-.076-.081-.119l-.001.235c0 .043.027.087.081.12l.783.474a.413.413 0 0 0 .39 0l.777-.474c.054-.033.08-.076.08-.118l.001-.235c0 .042-.027.085-.08.117z" fill="#DAE5EA"/><path d="M43.913 82.653c.107.066.108.172 0 .237l-.777.474a.412.412 0 0 1-.39 0l-.782-.474c-.108-.065-.109-.171-.001-.237l.777-.474a.412.412 0 0 1 .39 0l.782.474z" fill="#fff"/><path d="m48.343 81.933-.778.474a.413.413 0 0 1-.39 0l-.782-.474c-.055-.033-.082-.076-.082-.12v.236c0 .043.026.086.08.119l.784.474a.412.412 0 0 0 .39 0l.777-.474c.053-.033.08-.075.08-.118v-.235c0 .043-.026.085-.08.118z" fill="#DAE5EA"/><path d="M48.341 81.696c.108.065.109.171.002.237l-.778.474a.413.413 0 0 1-.39 0l-.783-.474c-.108-.066-.108-.172 0-.238l.777-.474a.412.412 0 0 1 .39 0l.782.475z" fill="#fff"/><path d="m47.472 83.257-.777.474a.413.413 0 0 1-.39 0l-.783-.474c-.054-.033-.081-.076-.081-.12l-.001.236c0 .043.027.086.081.12l.783.473a.413.413 0 0 0 .39 0l.777-.474c.054-.032.08-.075.08-.117l.001-.236c0 .043-.026.085-.08.118z" fill="#DAE5EA"/><path d="M47.471 83.02c.108.065.109.171.001.237l-.777.474a.413.413 0 0 1-.39 0l-.783-.474c-.108-.065-.108-.172 0-.237l.776-.474a.412.412 0 0 1 .39 0l.783.474z" fill="#fff"/><path d="m45.392 83.786-.778.474a.413.413 0 0 1-.39 0l-.783-.474c-.054-.033-.08-.076-.08-.119l-.002.235c0 .043.027.087.082.12l.782.474a.413.413 0 0 0 .39 0l.778-.474c.053-.033.08-.076.08-.118v-.235c0 .042-.026.085-.08.117z" fill="#DAE5EA"/><path d="M45.39 83.55c.108.065.109.17.001.236l-.777.474a.412.412 0 0 1-.39 0l-.783-.474c-.108-.065-.108-.171 0-.237l.776-.474a.412.412 0 0 1 .39 0l.783.474z" fill="#fff"/><path d="m49.82 82.829-.777.474a.412.412 0 0 1-.39 0l-.782-.474c-.055-.033-.082-.076-.082-.12v.236c0 .043.026.086.08.119l.784.474a.412.412 0 0 0 .39 0l.777-.474c.053-.033.08-.075.08-.118v-.235c0 .043-.026.085-.08.118z" fill="#DAE5EA"/><path d="M49.82 82.592c.107.065.108.171 0 .237l-.776.474a.412.412 0 0 1-.39 0l-.783-.474c-.108-.066-.109-.172-.001-.237l.777-.475a.412.412 0 0 1 .39 0l.783.475z" fill="#fff"/><path d="m48.95 84.153-.777.474a.413.413 0 0 1-.39 0L47 84.153c-.054-.033-.081-.077-.081-.12l-.001.235c0 .043.027.087.081.12l.783.474a.413.413 0 0 0 .39 0l.777-.474c.054-.033.08-.075.08-.118l.001-.235c0 .042-.026.085-.08.118z" fill="#DAE5EA"/><path d="M48.95 83.915c.107.066.108.172 0 .237l-.777.474a.412.412 0 0 1-.39 0L47 84.153c-.108-.065-.108-.171 0-.237l.776-.474a.412.412 0 0 1 .39 0l.783.474z" fill="#fff"/><path d="m46.87 84.681-.778.474a.413.413 0 0 1-.39 0l-.783-.474c-.054-.033-.081-.076-.081-.119l-.001.235c0 .044.027.087.081.12l.783.474a.413.413 0 0 0 .39 0l.777-.475c.054-.032.08-.075.08-.117l.001-.235c0 .042-.026.085-.08.117z" fill="#DAE5EA"/><path d="M46.868 84.444c.108.066.109.172.001.237l-.777.474a.413.413 0 0 1-.39 0l-.783-.474c-.108-.065-.108-.171 0-.237l.777-.474a.412.412 0 0 1 .39 0l.782.474z" fill="#fff"/><path d="m51.299 83.724-.778.474a.412.412 0 0 1-.39 0l-.782-.474c-.055-.033-.082-.076-.082-.119v.235c0 .043.027.087.08.12l.784.474a.412.412 0 0 0 .39 0l.777-.475c.053-.032.08-.075.08-.117v-.235c0 .042-.026.085-.08.117z" fill="#DAE5EA"/><path d="M51.298 83.487c.107.065.108.172 0 .237l-.776.474a.412.412 0 0 1-.39 0l-.783-.474c-.108-.065-.109-.171-.001-.237l.777-.474a.412.412 0 0 1 .39 0l.783.474z" fill="#fff"/><path d="m50.428 85.048-.777.474a.413.413 0 0 1-.39 0l-.783-.474c-.054-.033-.08-.076-.08-.12l-.002.236c0 .043.027.086.082.12l.782.473a.413.413 0 0 0 .39 0l.778-.474c.053-.032.08-.075.08-.117v-.236c0 .043-.026.085-.08.118z" fill="#DAE5EA"/><path d="M50.428 84.811c.107.065.108.171 0 .237l-.777.474a.412.412 0 0 1-.39 0l-.782-.474c-.108-.065-.109-.172-.001-.237l.777-.474a.412.412 0 0 1 .39 0l.782.474z" fill="#fff"/><path d="m48.347 85.577-.778.474a.413.413 0 0 1-.39 0l-.783-.474c-.054-.033-.08-.076-.08-.119l-.002.235c0 .044.027.087.082.12l.782.474a.413.413 0 0 0 .39 0l.778-.475c.053-.032.08-.075.08-.117v-.235c0 .042-.026.085-.08.117z" fill="#DAE5EA"/><path d="M48.346 85.34c.107.066.108.172 0 .237l-.777.474a.413.413 0 0 1-.39 0l-.782-.474c-.108-.065-.109-.171-.001-.237l.777-.474a.412.412 0 0 1 .39 0l.783.474z" fill="#fff"/><path d="m52.777 84.62-.778.474a.412.412 0 0 1-.39 0l-.782-.474c-.055-.033-.082-.076-.082-.12v.236c0 .043.027.086.08.119l.784.474a.412.412 0 0 0 .39 0l.777-.474c.053-.033.08-.075.08-.118v-.235c0 .043-.026.085-.08.118z" fill="#DAE5EA"/><path d="M52.775 84.383c.108.065.109.171.002.237l-.778.474a.412.412 0 0 1-.39 0l-.783-.474c-.108-.066-.108-.172 0-.238l.777-.474a.412.412 0 0 1 .39 0l.782.475z" fill="#fff"/><path d="m51.907 85.944-.778.474a.413.413 0 0 1-.39 0l-.783-.475c-.054-.032-.08-.075-.08-.119l-.002.235c0 .044.027.087.082.12l.782.474a.413.413 0 0 0 .39 0l.778-.474c.053-.033.08-.075.08-.118v-.235c0 .042-.026.085-.08.118z" fill="#DAE5EA"/><path d="M51.905 85.707c.108.065.109.171.001.237l-.777.474a.413.413 0 0 1-.39 0l-.783-.475c-.108-.065-.108-.171 0-.237l.777-.474a.412.412 0 0 1 .39 0l.782.475z" fill="#fff"/><path d="m49.826 86.473-.778.474a.413.413 0 0 1-.39 0l-.783-.474c-.054-.033-.08-.076-.08-.12l-.002.236c0 .043.027.086.082.119l.782.474a.413.413 0 0 0 .39 0l.778-.474c.053-.033.08-.075.08-.118v-.235c0 .043-.026.085-.08.118z" fill="#DAE5EA"/><path d="M49.824 86.236c.108.065.109.171.001.237l-.777.474a.413.413 0 0 1-.39 0l-.783-.474c-.108-.066-.108-.172 0-.237l.776-.475a.412.412 0 0 1 .39 0l.783.475z" fill="#fff"/><path d="m54.255 85.516-.777.474a.413.413 0 0 1-.39 0l-.783-.474c-.054-.033-.081-.076-.081-.12v.236c-.001.043.026.086.08.119l.783.474a.412.412 0 0 0 .39 0l.778-.474c.053-.033.08-.075.08-.118v-.235c0 .043-.026.085-.08.118z" fill="#DAE5EA"/><path d="M54.254 85.279c.108.065.108.171.001.237l-.777.474a.412.412 0 0 1-.39 0l-.783-.474c-.108-.066-.108-.172-.001-.238l.777-.474a.412.412 0 0 1 .39 0l.783.475z" fill="#fff"/><path d="m53.384 86.84-.777.474a.413.413 0 0 1-.39 0l-.783-.474c-.054-.033-.081-.077-.081-.12v.235c-.001.044.026.087.08.12l.783.474a.413.413 0 0 0 .39 0l.777-.474c.054-.033.08-.075.08-.118l.001-.235c0 .042-.026.085-.08.118z" fill="#DAE5EA"/><path d="M53.383 86.602c.108.066.109.172.001.237l-.777.475a.413.413 0 0 1-.39 0l-.783-.474c-.108-.066-.108-.172 0-.238l.777-.474a.412.412 0 0 1 .39 0l.782.474z" fill="#fff"/><path d="m51.304 87.369-.778.474a.413.413 0 0 1-.39 0l-.783-.474c-.054-.033-.08-.076-.08-.12l-.002.236c0 .043.027.086.082.119l.782.474a.413.413 0 0 0 .39 0l.778-.474c.053-.033.08-.075.08-.118v-.235c0 .043-.026.085-.08.118z" fill="#DAE5EA"/><path d="M51.302 87.132c.108.065.109.171.001.237l-.777.474a.412.412 0 0 1-.39 0l-.783-.474c-.108-.066-.108-.172 0-.237l.776-.475a.412.412 0 0 1 .39 0l.783.475z" fill="#fff"/><path d="m55.733 86.411-.778.474a.413.413 0 0 1-.39 0l-.782-.474c-.055-.033-.082-.076-.082-.119v.235c0 .043.027.087.08.12l.784.474a.413.413 0 0 0 .39 0l.777-.474c.053-.033.08-.076.08-.118v-.235c0 .042-.026.085-.08.117z" fill="#DAE5EA"/><path d="M55.732 86.174c.108.066.108.172.001.237l-.777.474a.412.412 0 0 1-.39 0l-.783-.474c-.108-.065-.108-.171-.001-.237l.777-.474a.412.412 0 0 1 .39 0l.783.474z" fill="#fff"/><path d="m54.863 87.735-.778.474a.413.413 0 0 1-.39 0l-.782-.474c-.055-.033-.082-.076-.082-.12v.236c0 .043.026.086.08.12l.783.474a.413.413 0 0 0 .39 0l.778-.475c.053-.032.08-.075.08-.117v-.236c0 .043-.026.085-.08.118z" fill="#DAE5EA"/><path d="M54.862 87.498c.107.065.108.171 0 .237l-.776.474a.413.413 0 0 1-.39 0l-.783-.474c-.108-.065-.109-.172-.001-.237l.777-.474a.412.412 0 0 1 .39 0l.783.474z" fill="#fff"/><path d="m52.782 88.264-.778.474a.413.413 0 0 1-.39 0l-.783-.474c-.054-.033-.08-.076-.08-.119l-.002.235c0 .044.027.087.082.12l.782.474a.413.413 0 0 0 .39 0l.778-.475c.053-.032.08-.075.08-.117v-.235c0 .042-.026.085-.08.117z" fill="#DAE5EA"/><path d="M52.78 88.027c.108.066.109.172.001.237l-.777.474a.413.413 0 0 1-.39 0l-.783-.474c-.108-.065-.108-.171 0-.237l.777-.474a.412.412 0 0 1 .39 0l.782.474z" fill="#fff"/><path d="m57.212 87.307-.777.474a.413.413 0 0 1-.39 0l-.783-.474c-.054-.033-.082-.076-.082-.12v.236c0 .043.027.086.08.119l.784.474a.413.413 0 0 0 .39 0l.777-.474c.053-.033.08-.075.08-.118v-.235c0 .043-.026.085-.08.118z" fill="#DAE5EA"/><path d="M57.21 87.07c.109.065.11.171.002.237l-.777.474a.413.413 0 0 1-.39 0l-.783-.474c-.108-.066-.108-.172-.001-.237l.777-.475a.412.412 0 0 1 .39 0l.783.475z" fill="#fff"/><path d="M56.782 88.23c-.054-.034-.081-.077-.081-.12v.235c-.001.043.026.086.08.12l1.139.689v-.235l-1.138-.69z" fill="#DAE5EA"/><path d="M57.92 88.919v.235c.04.025.06.056.06.088v-.235c0-.032-.02-.064-.06-.088z" fill="#2C3F54"/><path d="m57.21 89.157-.778.475a.412.412 0 0 1-.39 0l-1.651-1.002c-.055-.032-.082-.076-.082-.119v.235c0 .044.027.087.081.12l1.652 1a.412.412 0 0 0 .39 0l.777-.474c.053-.032.08-.075.08-.117l.001-.235c0 .042-.027.085-.08.117z" fill="#DAE5EA"/><path d="M57.209 88.92c.108.066.108.172.001.238l-.777.474a.412.412 0 0 1-.39 0L54.39 88.63c-.108-.066-.108-.172-.001-.237l.777-.474a.412.412 0 0 1 .39 0l1.652 1z" fill="#fff"/><path d="M60.21 88.888c.107.065.108.171 0 .237l-.777.474-.745.454-.777.474a.412.412 0 0 1-.39 0l-.783-.474c-.107-.065-.108-.171 0-.237l1.184-.723c.08-.048.079-.126 0-.174l-1.139-.69c-.108-.065-.108-.171 0-.237l.777-.474a.412.412 0 0 1 .39 0l.782.474.695.421.783.475z" fill="#fff"/><path d="m60.21 89.125-.776.474-.745.454-.778.475a.412.412 0 0 1-.39 0l-.782-.475c-.055-.033-.082-.076-.082-.119v.235c0 .043.027.087.081.12l.783.474a.412.412 0 0 0 .39 0l.777-.475.745-.454.777-.474c.053-.032.08-.075.08-.117v-.236c0 .043-.026.085-.08.118zM54.26 89.16l-.778.474a.413.413 0 0 1-.39 0l-.782-.474c-.055-.033-.082-.076-.082-.12v.236c0 .043.026.086.08.119l.784.474a.412.412 0 0 0 .39 0l.777-.474c.053-.033.08-.075.08-.118v-.235c0 .043-.026.085-.08.118z" fill="#DAE5EA"/><path d="M54.258 88.923c.108.065.109.171.001.237l-.777.474a.413.413 0 0 1-.39 0l-.783-.474c-.108-.066-.108-.172 0-.237l.777-.475a.412.412 0 0 1 .39 0l.782.475z" fill="#fff"/><path d="m55.738 90.055-.778.474a.412.412 0 0 1-.39 0l-.782-.474c-.055-.033-.082-.076-.082-.119v.235c0 .043.026.087.08.12l.783.474a.413.413 0 0 0 .39 0l.778-.474c.053-.033.08-.075.08-.118v-.235c0 .042-.026.085-.08.117z" fill="#DAE5EA"/><path d="M55.737 89.819c.107.065.108.171.001.237l-.777.474a.413.413 0 0 1-.39 0l-.783-.474c-.108-.066-.109-.172-.001-.237l.777-.475a.412.412 0 0 1 .39 0l.783.475z" fill="#fff"/><path d="m57.216 90.951-.778.474a.412.412 0 0 1-.39 0l-.782-.474c-.055-.033-.082-.076-.082-.119v.235c0 .044.027.087.08.12l.784.474a.412.412 0 0 0 .39 0l.777-.475c.053-.032.08-.075.08-.117v-.235c0 .042-.026.085-.08.117z" fill="#DAE5EA"/><path d="M57.214 90.714c.108.066.109.172.002.237l-.778.474a.413.413 0 0 1-.39 0l-.783-.474c-.108-.065-.108-.171 0-.237l.777-.474a.412.412 0 0 1 .39 0l.782.474z" fill="#fff"/><path d="m40.891 82.936-.777.474a.412.412 0 0 1-.39 0l-.783-.474-1.478-.895c-.054-.033-.081-.076-.08-.12l-.002.236c0 .043.027.086.082.119l1.477.895.783.475a.413.413 0 0 0 .39 0l.778-.475c.053-.032.08-.075.08-.117v-.235c0 .043-.026.085-.08.117z" fill="#DAE5EA"/><path d="M40.89 82.7c.108.064.109.17.001.236l-.777.474a.412.412 0 0 1-.39 0l-.783-.474-1.478-.895c-.108-.066-.108-.172 0-.238l.776-.474a.412.412 0 0 1 .39 0l1.478.896.783.474z" fill="#fff"/><path d="m43.413 84.464-.778.475a.413.413 0 0 1-.39 0l-.782-.475-.261-.158-.783-.474c-.054-.033-.081-.076-.08-.12l-.002.236c0 .043.027.086.082.12l.782.474.26.158.783.474a.413.413 0 0 0 .39 0l.778-.474c.053-.033.08-.075.08-.118v-.235c0 .042-.026.085-.08.117z" fill="#DAE5EA"/><path d="M43.411 84.227c.109.066.11.172.002.237l-.777.475a.412.412 0 0 1-.39 0l-.783-.475-.26-.158-.783-.474c-.108-.065-.109-.171-.001-.237l.777-.474a.411.411 0 0 1 .39 0l.782.474.26.158.783.474z" fill="#fff"/><path d="m50.195 88.574-.778.474a.412.412 0 0 1-.39 0l-6.086-3.688c-.055-.033-.082-.076-.081-.12l-.001.236c0 .043.027.087.081.12l6.086 3.687a.412.412 0 0 0 .39 0l.778-.474c.053-.032.08-.075.08-.118v-.235c0 .043-.026.085-.08.118z" fill="#DAE5EA"/><path d="M50.193 88.337c.108.065.109.171.002.237l-.778.474a.412.412 0 0 1-.39 0l-6.086-3.688c-.108-.065-.109-.172-.001-.237l.777-.474a.412.412 0 0 1 .39 0l6.086 3.688z" fill="#fff"/><path d="m52.716 90.102-.778.474a.413.413 0 0 1-.39 0l-.782-.474-.261-.159-.783-.474c-.054-.033-.08-.076-.08-.119l-.001.235c0 .043.027.087.08.12l.783.474.261.158.782.474a.413.413 0 0 0 .39 0l.778-.474c.053-.033.08-.075.08-.118v-.235c0 .043-.026.085-.08.118z" fill="#DAE5EA"/><path d="M52.714 89.864c.108.066.11.172.002.238l-.778.474a.412.412 0 0 1-.39 0l-.782-.474-.261-.159-.783-.474c-.108-.065-.108-.171 0-.237l.777-.474a.411.411 0 0 1 .39 0l.782.474.26.158.783.474z" fill="#fff"/><path d="m54.194 90.997-.777.474a.412.412 0 0 1-.39 0l-.783-.474c-.054-.033-.081-.076-.081-.12v.236c-.001.043.026.087.08.12l.783.474a.412.412 0 0 0 .39 0l.777-.475c.054-.032.08-.075.08-.117l.001-.235c0 .042-.026.085-.08.117z" fill="#DAE5EA"/><path d="M54.193 90.76c.107.065.108.171 0 .237l-.776.474a.413.413 0 0 1-.39 0l-.783-.474c-.108-.065-.109-.171-.001-.237l.777-.474a.412.412 0 0 1 .39 0l.783.474z" fill="#fff"/><path d="m55.672 91.893-.778.474a.412.412 0 0 1-.39 0l-.782-.474c-.055-.033-.082-.076-.082-.12v.236c0 .043.027.086.08.119l.784.474a.412.412 0 0 0 .39 0l.777-.474c.053-.033.08-.075.08-.118v-.235c0 .043-.026.085-.08.118z" fill="#DAE5EA"/><path d="M55.67 91.656c.109.065.11.171.002.237l-.777.474a.413.413 0 0 1-.39 0l-.783-.474c-.108-.066-.108-.172-.001-.238l.777-.474a.412.412 0 0 1 .39 0l.783.475z" fill="#fff"/><path d="m57.411 92.947-.777.474a.413.413 0 0 1-.39 0l-.783-.474c-.054-.033-.081-.076-.081-.12l-.001.236c0 .043.027.086.081.12l.783.473a.412.412 0 0 0 .39 0l.777-.474c.054-.032.08-.075.08-.118l.001-.235c0 .043-.026.085-.08.118z" fill="#DAE5EA"/><path d="M57.41 92.71c.107.065.108.171 0 .237l-.776.474a.413.413 0 0 1-.39 0l-.783-.474c-.108-.065-.109-.172-.001-.237l.777-.474a.412.412 0 0 1 .39 0l.783.474z" fill="#fff"/><path d="m60.411 92.914-.777.474a.412.412 0 0 1-.39 0l-.783-.474c-.054-.033-.081-.076-.081-.12l-.001.236c0 .043.027.086.081.119l.783.474a.412.412 0 0 0 .39 0l.777-.474c.054-.033.08-.075.08-.118v-.235c.001.043-.026.085-.079.118z" fill="#DAE5EA"/><path d="M60.41 92.677c.108.065.109.171.001.237l-.777.474a.413.413 0 0 1-.39 0l-.783-.474c-.108-.066-.108-.172 0-.238l.777-.474a.412.412 0 0 1 .39 0l.782.475z" fill="#fff"/><path d="m58.89 93.842-.778.475a.412.412 0 0 1-.39 0l-.783-.475c-.054-.032-.081-.076-.081-.119l-.001.235c0 .044.027.087.081.12l.783.474a.412.412 0 0 0 .39 0l.777-.474c.054-.033.08-.076.08-.118l.001-.235c0 .042-.027.085-.08.117z" fill="#DAE5EA"/><path d="M58.888 93.605c.108.066.109.172.001.237l-.777.475a.413.413 0 0 1-.39 0l-.783-.475c-.108-.065-.108-.171 0-.237l.777-.474a.412.412 0 0 1 .39 0l.782.474z" fill="#fff"/><path d="m60.367 94.738-.777.474a.412.412 0 0 1-.39 0l-.783-.474c-.054-.033-.081-.076-.081-.12l-.001.236c0 .043.027.086.081.12l.783.473a.412.412 0 0 0 .39 0l.777-.474c.054-.032.08-.075.08-.117l.001-.236c0 .043-.027.085-.08.118z" fill="#DAE5EA"/><path d="M60.366 94.5c.107.066.108.172 0 .238l-.777.474a.412.412 0 0 1-.39 0l-.782-.474c-.108-.065-.109-.172-.001-.237l.777-.474a.412.412 0 0 1 .39 0l.783.474z" fill="#fff"/><path d="m63.471 89.25-.388.237a.413.413 0 0 1-.39 0l-.783-.474c-.054-.033-.081-.076-.081-.12v.236c-.001.043.026.086.08.119l.783.474a.412.412 0 0 0 .39 0l.389-.237c.053-.032.08-.075.08-.118v-.235c0 .043-.026.085-.08.118z" fill="#DAE5EA"/><path d="M63.471 89.013c.108.065.109.171.001.237l-.388.237a.413.413 0 0 1-.39 0l-.783-.474c-.108-.065-.109-.172-.001-.237l.388-.237a.413.413 0 0 1 .39 0l.783.474z" fill="#fff"/><path d="m64.95 90.145-.389.237a.413.413 0 0 1-.39 0l-.783-.474c-.054-.032-.081-.076-.081-.119v.235c-.001.043.026.087.08.12l.783.474a.412.412 0 0 0 .39 0l.389-.237c.053-.033.08-.076.08-.118v-.235c0 .042-.026.085-.08.117z" fill="#DAE5EA"/><path d="M64.949 89.909c.108.065.108.171 0 .237l-.388.237a.413.413 0 0 1-.39 0l-.783-.474c-.107-.066-.108-.172 0-.238l.388-.237a.412.412 0 0 1 .39 0l.783.475z" fill="#fff"/><path d="m66.428 91.042-.389.236a.412.412 0 0 1-.39 0l-.782-.474c-.055-.033-.082-.076-.082-.119v.235c0 .043.027.087.08.12l.784.474a.412.412 0 0 0 .39 0l.388-.237c.053-.033.08-.076.08-.118l.001-.235c0 .042-.027.085-.08.118z" fill="#DAE5EA"/><path d="M66.427 90.804c.107.066.108.172 0 .237l-.388.238a.413.413 0 0 1-.39 0l-.783-.474c-.108-.066-.108-.172 0-.238l.388-.237a.412.412 0 0 1 .39 0l.783.474z" fill="#fff"/><path d="m62.327 89.948-.389.237a.413.413 0 0 1-.39 0l-.782-.474c-.055-.033-.082-.076-.082-.12v.236c0 .043.027.086.08.12l.784.474a.413.413 0 0 0 .39 0l.388-.238c.054-.032.08-.075.08-.118l.001-.235c0 .043-.027.086-.08.118z" fill="#DAE5EA"/><path d="M62.326 89.71c.108.066.109.172.001.238l-.388.237a.413.413 0 0 1-.39 0l-.783-.474c-.108-.065-.109-.172-.001-.237l.388-.237a.413.413 0 0 1 .39 0l.783.474z" fill="#fff"/><path d="m63.804 90.844-.388.237a.413.413 0 0 1-.39 0l-.783-.474c-.054-.033-.081-.076-.081-.12v.236c-.001.043.026.086.08.119l.783.474a.413.413 0 0 0 .39 0l.389-.237c.053-.032.08-.075.08-.118v-.235c0 .042-.026.085-.08.118z" fill="#DAE5EA"/><path d="M63.804 90.606c.108.066.108.172 0 .238l-.388.237a.413.413 0 0 1-.39 0l-.783-.475c-.108-.065-.108-.171 0-.237l.388-.237a.413.413 0 0 1 .39 0l.783.474z" fill="#fff"/><path d="m65.284 91.74-.389.236a.413.413 0 0 1-.39 0l-.783-.474c-.054-.033-.081-.076-.081-.12v.236c-.001.043.026.086.08.12l.783.474a.413.413 0 0 0 .39 0l.389-.238c.053-.032.08-.075.08-.118v-.235c0 .043-.026.086-.08.118z" fill="#DAE5EA"/><path d="M65.282 91.502c.108.066.109.172.001.238l-.388.236a.413.413 0 0 1-.39 0l-.783-.474c-.108-.065-.108-.171-.001-.237l.388-.237a.413.413 0 0 1 .39 0l.783.474z" fill="#fff"/><path d="M53.8 51.7c-1.04-.764-2.37-1.867-4.428-2.475.58-1.966.33-3.387.35-5.665l4.76 2.847c.075 2-.184 4.182-.682 5.293z" fill="#FFD96E"/><path d="m53.601 47.083.008-.311-3.083-1.863-.008.311 3.083 1.863zM53.572 48.287l.008-.311-3.083-1.863-.008.311 3.083 1.863zM53.492 49.21l-2.275-1.374-.008.311 2.275 1.375.008-.311z" fill="#D8A739"/><path d="M77.904 83.36c-1.04-.764-2.37-1.866-4.428-2.474.58-1.967.33-3.388.35-5.665l4.76 2.846c.075 2-.184 4.182-.682 5.293z" fill="#FFA04A"/><path d="m77.705 78.744.008-.311-3.084-1.864-.007.312 3.083 1.863zM77.676 79.948l.008-.312-3.083-1.863-.008.312 3.083 1.863zM77.596 80.87l-2.275-1.374-.008.312 2.275 1.374.008-.311z" fill="#DD6B1D"/><path d="m73.99 94.891-1.458-.87 2.173-1.236 1.457.87-2.173 1.236z" fill="#A06C33"/><path d="m75.891 96.027-1.457-.87 2.173-1.237 1.457.87-2.173 1.237z" fill="#142430"/><path d="m77.793 97.162-1.457-.87 2.173-1.236 1.457.87-2.173 1.236z" fill="#FF5148"/><path d="m79.695 98.298-1.457-.87 2.173-1.237 1.457.87-2.173 1.237z" fill="#79E07E"/><path d="m81.597 99.433-1.457-.87 2.172-1.236 1.457.87-2.172 1.236z" fill="#FFD96E"/><path d="m71.13 96.52-1.457-.87 2.172-1.237 1.457.87-2.172 1.236z" fill="#FFA04A"/><path d="m73.032 97.655-1.457-.87 2.173-1.237 1.457.87-2.173 1.237z" fill="#DD6B1D"/><path d="m74.934 98.79-1.457-.87 2.172-1.236 1.458.87-2.173 1.236z" fill="#2C3F54"/><path d="m76.836 99.926-1.457-.87 2.172-1.237 1.457.87-2.172 1.237z" fill="#E8312D"/><path d="m78.738 101.062-1.457-.87 2.173-1.237 1.457.87-2.173 1.237z" fill="#D8A739"/><path d="M83.975 94.367c1.69 0 3.06-.663 3.06-1.48 0-.816-1.37-1.478-3.06-1.478s-3.06.662-3.06 1.479c0 .816 1.37 1.478 3.06 1.478z" fill="#599ECE"/><mask id="i" style="mask-type:luminance" maskUnits="userSpaceOnUse" x="81" y="91" width="6" height="3"><path d="m81.338 91.852.001.494c.001.407.256.814.766 1.125 1.026.626 2.694.626 3.727 0 .52-.315.78-.728.778-1.141l-.001-.494c0 .413-.259.826-.778 1.141-1.033.626-2.702.626-3.728 0-.509-.31-.764-.717-.765-1.125z" fill="#fff"/></mask><g mask="url(#i)"><path d="m81.338 91.852.001.494c0 .246.094.492.28.717v-.494a1.122 1.122 0 0 1-.281-.717z" fill="#B9CED6"/><path d="m81.618 92.57.001.493c.123.147.284.285.486.408.372.227.829.372 1.31.434l-.002-.494a3.362 3.362 0 0 1-1.31-.434 1.933 1.933 0 0 1-.485-.408z" fill="#DAE5EA"/><path d="m83.413 93.411.002.494c.843.11 1.76-.035 2.417-.434.52-.315.78-.728.778-1.141l-.001-.494c0 .413-.259.826-.779 1.141-.657.399-1.573.543-2.417.434z" fill="#DAE5EA"/></g><path d="M82.116 90.711c-1.033.626-1.038 1.64-.012 2.266 1.025.626 2.694.626 3.727 0 1.032-.626 1.038-1.64.012-2.266-1.026-.626-2.694-.626-3.727 0z" fill="#fff"/><path d="M82.466 92.757c.827.505 2.172.505 3.003 0 .146-.088.267-.186.361-.29.448-.491.331-1.12-.35-1.536-.827-.504-2.172-.504-3.004 0-.257.155-.433.34-.533.536-.224.442-.05.941.523 1.29z" fill="#B9CED6"/><path d="M82.466 92.757c.827.504 2.172.504 3.003 0 .146-.088.267-.187.361-.29.225-.443.051-.942-.522-1.292-.826-.505-2.17-.505-3.003 0a1.607 1.607 0 0 0-.362.291c-.224.442-.05.942.523 1.291z" fill="#DAE5EA"/><path d="M82.342 92.012c.175.106.46.106.637 0a.348.348 0 0 0 .076-.062c.048-.094.011-.2-.11-.274a.671.671 0 0 0-.637 0 .335.335 0 0 0-.077.062c-.048.094-.01.2.111.274z" fill="#A4A4A4"/><path d="m80.21 82.445 1.129 9.438c-.007.413.248.828.765 1.143.778.475 1.926.588 2.886.343l.785-10.924H80.21z" fill="#B58852"/><path d="M85.775 82.445 84.99 93.37c.306-.078.593-.192.842-.343.521-.316.78-.73.778-1.144l1.128-9.437h-1.963z" fill="#A06C33"/><mask id="j" style="mask-type:luminance" maskUnits="userSpaceOnUse" x="79" y="81" width="10" height="5"><path d="m79.88 81.734.002.767c.002.632.398 1.58 1.19 2.063 1.592.972 4.184.972 5.787 0 .807-.49 1.21-1.131 1.209-1.772l-.002-1.084c.001.642-.402 1.284-1.21 1.773-1.602.972-4.194.972-5.787 0-.791-.483-1.188-1.115-1.19-1.747z" fill="#fff"/></mask><g mask="url(#j)"><path d="m79.88 81.733.002.767c0 .383.146 1.081.435 1.43l-.002-1.083c-.29-.349-.434-.731-.435-1.114z" fill="#B9CED6"/><path d="m80.315 82.847.002 1.083c.19.229.441.443.754.634.578.352 1.288.577 2.034.674l-.002-1.084c-.746-.096-1.456-.32-2.034-.673a2.997 2.997 0 0 1-.754-.634z" fill="#DAE5EA"/><path d="m83.103 84.154.002 1.084c1.31.17 2.732-.055 3.754-.674.807-.49 1.21-1.131 1.209-1.772l-.002-1.084c.001.641-.402 1.283-1.21 1.772-1.02.62-2.443.844-3.753.674z" fill="#B9CED6"/></g><path d="M81.087 79.962c-1.603.971-1.611 2.547-.019 3.519 1.594.971 4.185.971 5.788 0 1.605-.972 1.613-2.548.02-3.52-1.593-.971-4.184-.971-5.789 0z" fill="#fff"/><mask id="k" style="mask-type:luminance" maskUnits="userSpaceOnUse" x="80" y="80" width="8" height="4"><path d="m80.414 80.987.001.667c.002.55.346 1.1 1.035 1.52 1.385.845 3.639.845 5.034 0 .702-.426 1.052-.984 1.05-1.542l-.001-.667c.001.558-.35 1.116-1.051 1.542-1.395.845-3.649.845-5.034 0-.688-.42-1.033-.97-1.034-1.52z" fill="#fff"/></mask><g mask="url(#k)"><path d="m80.413 80.987.002.667c0 .332.127.665.379.968l-.002-.667c-.252-.303-.378-.635-.379-.968z" fill="#B9CED6"/><path d="m80.792 81.956.002.666c.165.2.383.385.655.552.503.306 1.12.502 1.77.586l-.003-.667c-.649-.084-1.266-.28-1.769-.586a2.6 2.6 0 0 1-.655-.551z" fill="#DAE5EA"/><path d="m83.216 83.093.002.667c1.14.148 2.377-.048 3.265-.586.702-.426 1.053-.984 1.051-1.542l-.001-.667c.001.558-.35 1.116-1.052 1.542-.888.538-2.125.733-3.265.586z" fill="#DAE5EA"/></g><path d="M81.464 79.447c-1.394.845-1.401 2.215-.016 3.06 1.385.845 3.64.845 5.034 0 1.395-.845 1.402-2.216.017-3.06-1.386-.846-3.64-.846-5.035 0z" fill="#fff"/><path d="M81.938 82.21c1.117.681 2.933.681 4.056 0a2.18 2.18 0 0 0 .488-.392c.605-.663.447-1.512-.473-2.075-1.117-.68-2.934-.68-4.058 0-.346.21-.585.459-.719.724-.303.597-.068 1.272.706 1.743z" fill="#B9CED6"/><path d="M81.938 82.21c1.117.681 2.933.681 4.056 0 .197-.12.36-.252.488-.392.304-.597.069-1.272-.705-1.745-1.116-.681-2.933-.681-4.057 0-.198.12-.36.252-.488.394-.303.596-.068 1.271.706 1.743z" fill="#DAE5EA"/><path d="M82.583 81.085c.04.025.074.052.1.08a.406.406 0 0 0 .05-.045c.064-.127.014-.27-.15-.37a.908.908 0 0 0-.86 0 .452.452 0 0 0-.104.083c-.048.096-.031.2.05.29a.516.516 0 0 1 .054-.038.907.907 0 0 1 .86 0z" fill="#B9CED6"/><path d="M82.63 81.204a.51.51 0 0 0 .053-.038.464.464 0 0 0-.1-.08.907.907 0 0 0-.86 0 .507.507 0 0 0-.054.037.46.46 0 0 0 .1.08.908.908 0 0 0 .86 0z" fill="#775137"/><path d="m36.46 143.107 1.43.323c-.136.613-.205 1.105-.205 1.476 0 .582.196.983.587 1.201.394.219 1.113.329 2.156.329 2.012 0 3.017-.35 3.017-1.049 0-.672-.922-1.666-2.765-2.983v-1.306c1.718-1.059 3.465-1.805 5.238-2.239l.328 1.53c-1.371.371-2.619.845-3.744 1.423v.059c.617.52 1.105.988 1.465 1.406.36.414.685.891.978 1.43.367.664.713 1.119 1.037 1.365.325.242.748.364 1.272.364h.012V148h-.012c-1.227 0-2.123-.502-2.69-1.506-.195.496-.64.871-1.336 1.125-.695.254-1.619.381-2.771.381-1.5 0-2.586-.232-3.258-.697-.668-.465-1.002-1.219-1.002-2.262 0-.566.088-1.211.264-1.934zm14.017 1.823c0 .3.015.539.046.715.032.171.094.322.188.451a.762.762 0 0 0 .41.269c.176.047.41.071.703.071h.293V148h-.31c-.5 0-.946-.102-1.336-.305-.39-.203-.653-.48-.785-.832-.133.348-.405.625-.815.832-.41.203-.867.305-1.371.305h-.246c-.078 0-.135-.055-.17-.164-.035-.113-.053-.318-.053-.615s.018-.502.053-.616c.035-.113.092-.169.17-.169h.246c.305 0 .549-.024.732-.071a.795.795 0 0 0 .428-.269c.102-.129.168-.282.2-.457a3.78 3.78 0 0 0 .052-.709v-.996h1.565v.996zm-2.702 5.103 1.038-1.037 1.03 1.037-1.03 1.026-1.038-1.026zm-2.05 0 1.037-1.037 1.031 1.037-1.031 1.026-1.037-1.026zm7.968-11.678 1.038-1.037 1.03 1.037-1.03 1.026-1.038-1.026zm2.034 5.573c-.106-1.258-.446-1.887-1.02-1.887-.273 0-.484.131-.633.393-.144.257-.217.572-.217.943 0 .238.07.408.211.51.145.097.373.146.686.146.312 0 .637-.035.973-.105zm-3.61 2.508h.645c.492 0 .89-.004 1.195-.012.305-.012.586-.033.844-.065a2.98 2.98 0 0 0 .58-.123.863.863 0 0 0 .334-.222.646.646 0 0 0 .176-.328c.027-.122.04-.276.04-.463a5.045 5.045 0 0 1-1.353.175c-.664 0-1.174-.142-1.53-.427-.355-.285-.532-.752-.532-1.401 0-.359.04-.711.123-1.054.086-.344.213-.668.38-.973.169-.309.4-.557.698-.744.3-.192.642-.287 1.025-.287a2.041 2.041 0 0 1 1.524.656c.175.191.33.422.462.691.133.27.235.537.305.803.074.262.133.543.176.844a8.997 8.997 0 0 1 .111 1.412c0 .453-.039.838-.117 1.154a2.292 2.292 0 0 1-.416.862 2.028 2.028 0 0 1-.809.609c-.343.148-.777.262-1.3.34a13.13 13.13 0 0 1-1.899.117h-.662c-.078 0-.135-.055-.17-.164-.035-.113-.053-.318-.053-.615s.018-.502.053-.616c.035-.113.092-.169.17-.169zM60.15 148h-1.564v-8.361h1.564V148zm2.28-3.803 1.488-.504.375 1.266c.094.324.182.576.264.756.086.18.191.328.316.445a.964.964 0 0 0 .434.223c.16.035.373.053.638.053h.012V148h-.012c-.64 0-1.12-.172-1.441-.516-.059.93-.383 1.709-.973 2.338s-1.506 1.174-2.748 1.635l-.674-1.406c1.059-.383 1.809-.795 2.25-1.237.446-.437.668-1.005.668-1.705 0-.722-.199-1.693-.597-2.912zm8.906-5.338.328 1.53a19.264 19.264 0 0 0-3.744 1.423v.059c.879.703 1.521 1.35 1.928 1.94.406.585.609 1.164.609 1.734 0 .766-.328 1.367-.984 1.805-.653.433-1.555.65-2.707.65h-.809c-.148 0-.223-.262-.223-.785 0-.277.018-.477.053-.598s.092-.181.17-.181h.774c.707 0 1.244-.084 1.61-.252.372-.168.557-.416.557-.745 0-.351-.224-.769-.673-1.253-.45-.489-1.157-1.082-2.121-1.782v-1.306c1.714-1.059 3.459-1.805 5.232-2.239zm-.709-1.646.182.803c-1.602.379-3.1.998-4.495 1.857l-.427-.703a16.2 16.2 0 0 1 4.74-1.957z" fill="#fff"/><defs><linearGradient id="b" x1="104" y1="274" x2="204" y2="274" gradientUnits="userSpaceOnUse"><stop stop-color="#0BA360"/><stop offset="1" stop-color="#3CBA92"/></linearGradient><filter id="a" x="0" y="0" width="108" height="188" filterUnits="userSpaceOnUse" color-interpolation-filters="sRGB"><feFlood flood-opacity="0" result="BackgroundImageFix"/><feColorMatrix in="SourceAlpha" values="0 0 0 0 0 0 0 0 0 0 0 0 0 0 0 0 0 0 127 0" result="hardAlpha"/><feOffset/><feGaussianBlur stdDeviation="2"/><feComposite in2="hardAlpha" operator="out"/><feColorMatrix values="0 0 0 0 0 0 0 0 0 0 0 0 0 0 0 0 0 0 0.25 0"/><feBlend in2="BackgroundImageFix" result="effect1_dropShadow_75_5995"/><feBlend in="SourceGraphic" in2="effect1_dropShadow_75_5995" result="shape"/></filter></defs></svg>