<svg width="108" height="188" fill="none" xmlns="http://www.w3.org/2000/svg"><g filter="url(#a)"><rect x="104" y="184" width="100" height="180" rx="50" transform="rotate(180 104 184)" fill="url(#b)"/><rect x="103" y="183" width="98" height="178" rx="49" transform="rotate(180 103 183)" stroke="#FBFBFB" stroke-width="2"/></g><path opacity=".11" d="m35.96 84.328 10.126-9.793a1.391 1.391 0 0 1 1.876-.207l27.13 18.313c.667.491 1.117 2.146-.178 3.453l-9.977 11.427a1.392 1.392 0 0 1-1.876.207L36.334 88.04c-.952-.961-1.61-2.464-.373-3.712z" fill="#000"/><path d="m33.77 76.83 10.125-9.793a1.391 1.391 0 0 1 1.876-.207l27.13 18.314c.667.49 1.117 2.145-.178 3.452l-9.977 11.427a1.391 1.391 0 0 1-1.876.207L34.143 80.542c-.952-.96-1.609-2.464-.373-3.712z" fill="#8466BB"/><path d="M61.696 100.575c-.302 0-.606-.094-.868-.288L34.1 80.599c-.55-.555-.915-1.188-1.034-1.791-.148-.747.078-1.448.653-2.028l10.126-9.794a1.452 1.452 0 0 1 1.966-.213L72.94 85.085c.365.269.628.823.673 1.416.06.775-.239 1.537-.84 2.146l-9.975 11.423a1.46 1.46 0 0 1-1.102.505zM33.818 76.881c-.547.553-.754 1.192-.614 1.899.114.576.465 1.184.988 1.712l26.718 19.681a1.316 1.316 0 0 0 1.783-.197L72.67 88.55c.576-.582.86-1.305.804-2.038-.043-.553-.284-1.067-.614-1.31L45.732 66.888a1.317 1.317 0 0 0-1.785.195l-10.129 9.797z" fill="#333"/><path d="m33.918 76.624 9.977-11.426a1.391 1.391 0 0 1 1.877-.207l26.726 19.688c.667.49.771 1.453.226 2.078l-9.978 11.427a1.391 1.391 0 0 1-1.876.207L36.41 80.373l-2.267-1.67a1.424 1.424 0 0 1-.225-2.079z" fill="#fff"/><path d="m38.755 83.59-1.21-.869a.558.558 0 0 1-.231-.454v-.425c0-.16.18-.254.309-.161l1.131.813a.623.623 0 0 1 .259.505v.456c0 .134-.15.212-.258.134zM44.813 87.988l-4.407-3.18a.615.615 0 0 1-.255-.499v-.354c0-.178.2-.281.343-.178l4.354 3.142c.138.1.22.26.22.43v.507a.16.16 0 0 1-.255.132zM67.329 94.38l1.122-1.285a.85.85 0 0 0 .21-.56v-.437a.127.127 0 0 0-.222-.085l-1.245 1.424a.445.445 0 0 0-.11.293v.556c0 .13.16.19.245.093zM66.479 94.862c0-.105-.086-.148-.192-.096-.105.052-.19.179-.19.283 0 .104.085.148.19.096.106-.05.192-.177.192-.282zM70.728 90.005c0-.105-.086-.148-.192-.096-.105.052-.19.18-.19.283 0 .105.085.148.19.097.106-.052.192-.178.192-.284zM71.262 89.433c0-.106-.086-.149-.191-.096-.106.052-.192.178-.192.283 0 .104.086.147.192.096.105-.051.19-.178.19-.283zM71.79 88.857c0-.105-.086-.148-.191-.096-.106.052-.191.179-.191.283 0 .104.085.147.19.096.107-.051.192-.178.192-.283zM72.272 88.282c0-.105-.086-.148-.191-.096-.106.052-.191.179-.191.283 0 .105.085.148.19.096.106-.05.192-.177.192-.283zM39.23 77.41c-.144-.837.095-1.686.717-2.547l2.289-3.169 1.923 1.417-2.247 3.11c-.305.423-.453.785-.442 1.088.01.302.158.557.44.765.283.208.568.271.856.189.288-.082.585-.334.89-.757l2.247-3.11 1.89 1.392-2.288 3.169c-.622.86-1.35 1.35-2.184 1.467-.834.117-1.688-.146-2.563-.79-.875-.645-1.384-1.386-1.528-2.223zM48.675 76.438l1.924 1.417-4.162 5.76-1.923-1.416 4.161-5.761zM50.916 86.02c-.144-.838.095-1.687.717-2.548l2.289-3.169 1.923 1.417-2.247 3.11c-.305.423-.453.785-.442 1.088.011.302.158.557.44.765.283.208.568.27.856.189.288-.082.585-.334.89-.757l2.247-3.11 1.89 1.392-2.288 3.169c-.622.861-1.35 1.35-2.184 1.467-.834.117-1.688-.146-2.563-.79-.874-.645-1.384-1.386-1.528-2.223zM59.73 93.407l.125-2.265-2.073.83-2.192-1.614 4.16-1.386.074-4.32 2.16 1.59-.077 2.163 1.992-.752 2.07 1.524-3.99 1.323-.05 4.528-2.2-1.62z" fill="#42335E"/><path opacity=".37" d="m58.778 86.882 8.283-9.36a.696.696 0 0 1 .93-.103l4.415 3.199a.712.712 0 0 1 .114 1.046l-8.282 9.36a.696.696 0 0 1-.93.103l-4.416-3.199a.712.712 0 0 1-.114-1.046zM40.997 75.76l8.283-9.36a.696.696 0 0 1 .935-.1l8.767 6.447a.712.712 0 0 1 .11 1.043l-8.283 9.36a.696.696 0 0 1-.935.1l-8.767-6.446a.712.712 0 0 1-.11-1.043z" fill="#1A1A1A"/><path d="m40.63 73.717 8.283-9.36a.696.696 0 0 1 .935-.101l8.767 6.447a.712.712 0 0 1 .11 1.043l-8.283 9.36a.696.696 0 0 1-.934.101L40.74 74.76a.712.712 0 0 1-.11-1.043z" fill="#DA9FF9"/><path d="M49.92 81.414a.765.765 0 0 1-.453-.15l-8.768-6.447a.782.782 0 0 1-.12-1.147l8.282-9.361a.763.763 0 0 1 1.029-.11l8.767 6.446a.781.781 0 0 1 .12 1.148l-8.282 9.36a.765.765 0 0 1-.575.26zm-9.237-7.65a.64.64 0 0 0 .099.939l8.767 6.447a.624.624 0 0 0 .841-.09l8.283-9.362a.641.641 0 0 0-.099-.938l-8.767-6.447a.624.624 0 0 0-.841.09l-8.283 9.36z" fill="#333"/><path d="m49.336 78.003 2.748-3.106a.268.268 0 0 1 .36-.038l1.235.908a.28.28 0 0 1 .043.41l-.232.262-1.225 1.385-.741.838-.545.615a.294.294 0 0 1-.395.043l-1.203-.885a.295.295 0 0 1-.045-.432z" fill="#B088F9"/><path d="M50.545 78.344a.14.14 0 0 1-.093-.036.143.143 0 0 1-.012-.2l1.967-2.222a.14.14 0 0 1 .198-.01.142.142 0 0 1 .01.199l-1.966 2.222a.14.14 0 0 1-.104.047z" fill="#fff"/><path d="m52.927 73.955 2.748-3.106a.268.268 0 0 1 .36-.039l1.235.908a.28.28 0 0 1 .043.41l-.232.263-1.225 1.384-.742.838-.544.615a.294.294 0 0 1-.395.043l-1.203-.885a.295.295 0 0 1-.045-.431z" fill="#B088F9"/><path d="M54.135 74.295a.139.139 0 0 1-.094-.035.142.142 0 0 1-.01-.2l1.966-2.222a.14.14 0 0 1 .197-.012.142.142 0 0 1 .011.2l-1.966 2.222a.14.14 0 0 1-.104.047z" fill="#fff"/><path d="m40.63 73.717 8.283-9.36a.696.696 0 0 1 .935-.101l4.44 3.265-9.22 10.42-4.328-3.18a.712.712 0 0 1-.11-1.044z" fill="#8466BB"/><path d="m45.078 78.037-4.379-3.22a.782.782 0 0 1-.12-1.147l8.282-9.361a.763.763 0 0 1 1.029-.11l4.502 3.31-9.315 10.528zm-4.395-4.273a.64.64 0 0 0 .099.939l4.276 3.144 9.127-10.315-4.378-3.22a.624.624 0 0 0-.841.091l-8.283 9.36z" fill="#333"/><path d="M50.505 70.443c.982.888 1.115 2.33.242 3.22-.903.89-2.476.893-3.458.005a2.216 2.216 0 0 1-.042-3.224c.873-.89 2.307-.89 3.258 0z" fill="#fff"/><path d="M48.697 74.308c.749.095 1.519-.118 2.05-.646.52-.527.682-1.247.52-1.93-.505-.374-1.21-.38-1.811-.056a.94.94 0 0 0-.305-.654c-.375-.352-.956-.352-1.305 0a.883.883 0 0 0 .03 1.278c.195.18.447.267.696.263-.324.6-.295 1.287.125 1.745z" fill="#BEDCFA"/><path d="M49.042 74.4a2.8 2.8 0 0 1-.353-.022l-.025-.004-.017-.018c-.407-.443-.475-1.11-.187-1.727a1.052 1.052 0 0 1-.63-.278.968.968 0 0 1-.312-.695.938.938 0 0 1 .28-.684c.372-.376 1.002-.378 1.401-.002.175.162.285.37.318.596.611-.292 1.305-.253 1.792.108l.021.015.006.026c.176.744-.02 1.472-.538 1.997-.446.442-1.084.688-1.756.688zm-.31-.16c.747.088 1.48-.145 1.967-.628.477-.483.66-1.152.507-1.84-.47-.332-1.14-.346-1.716-.034l-.1.054-.004-.114a.864.864 0 0 0-.282-.604c-.345-.325-.887-.325-1.208-.002a.798.798 0 0 0-.238.581.827.827 0 0 0 .267.594.918.918 0 0 0 .646.245l.12-.003-.057.107c-.312.58-.273 1.222.098 1.644z" fill="#333"/><path d="M50.045 75.795a.139.139 0 0 1-.095-.038.143.143 0 0 1-.007-.2l2.958-3.195a.14.14 0 0 1 .198-.006c.057.053.06.142.007.2l-2.958 3.194a.14.14 0 0 1-.103.045z" fill="#fff"/><path d="m57.435 83.226 8.282-9.36a.696.696 0 0 1 .93-.103l4.415 3.199a.712.712 0 0 1 .115 1.046l-8.283 9.36a.696.696 0 0 1-.93.103l-4.415-3.199a.712.712 0 0 1-.114-1.046z" fill="#BEDCFA"/><path d="M62.371 87.675a.764.764 0 0 1-.449-.146l-4.415-3.2a.78.78 0 0 1-.126-1.15l8.283-9.36a.764.764 0 0 1 1.024-.114l4.415 3.2a.78.78 0 0 1 .125 1.15l-8.282 9.36a.766.766 0 0 1-.575.26zm-4.885-4.402a.641.641 0 0 0 .103.942l4.415 3.199c.263.19.622.15.837-.093l8.283-9.36a.641.641 0 0 0-.103-.942l-4.415-3.199a.624.624 0 0 0-.837.094l-8.283 9.36z" fill="#333"/><path d="M62.252 86.16a.282.282 0 0 1-.28-.283v-3.632c0-.156.125-.283.28-.283h2.76l-.287-2.112a.285.285 0 0 1 .066-.225.28.28 0 0 1 .212-.097h.629l.184-2.453a.281.281 0 0 1 .28-.261h2.95c.155 0 .28.126.28.282a.282.282 0 0 1-.28.283h-2.69l-.185 2.454a.281.281 0 0 1-.28.261h-.567l.288 2.112a.284.284 0 0 1-.278.322h-2.802v3.35a.281.281 0 0 1-.28.282z" fill="#98ACF8"/><path d="M62.252 86.23a.352.352 0 0 1-.35-.353v-3.632c0-.195.156-.354.35-.354h2.68l-.277-2.032a.356.356 0 0 1 .083-.28.349.349 0 0 1 .264-.121h.564l.18-2.388a.353.353 0 0 1 .35-.327h2.95c.193 0 .35.158.35.353a.352.352 0 0 1-.35.354H66.42l-.18 2.388a.353.353 0 0 1-.35.327h-.486l.277 2.032a.356.356 0 0 1-.083.28.35.35 0 0 1-.264.121h-2.732v3.28a.352.352 0 0 1-.35.353zm0-4.198a.211.211 0 0 0-.21.213v3.632c0 .117.094.212.21.212.115 0 .21-.095.21-.212v-3.42h2.872a.213.213 0 0 0 .208-.241l-.299-2.192h.648c.109 0 .201-.087.21-.197l.19-2.518h2.755c.116 0 .21-.096.21-.213a.212.212 0 0 0-.21-.212h-2.95a.212.212 0 0 0-.21.196l-.19 2.519h-.694a.213.213 0 0 0-.208.241l.299 2.192h-2.841z" fill="#333"/><path d="M69.046 77.582c.265 0 .48-.217.48-.485a.483.483 0 0 0-.48-.486.483.483 0 0 0-.48.486c0 .268.215.485.48.485zM62.772 86.06a.483.483 0 0 1-.48.485.483.483 0 0 1-.481-.485c0-.269.215-.486.48-.486.266 0 .48.218.48.486z" fill="#42335E"/><path d="M66.105 77.778a.678.678 0 0 0 .674-.681.678.678 0 0 0-.674-.681.678.678 0 0 0-.675.68c0 .377.302.682.674.682z" fill="#DA9FF9"/><path d="M66.104 77.849a.749.749 0 0 1-.744-.752c0-.415.334-.752.744-.752s.745.337.745.752a.749.749 0 0 1-.745.752zm0-1.363a.608.608 0 0 0-.604.611c0 .337.271.61.604.61a.608.608 0 0 0 .604-.61.608.608 0 0 0-.604-.61z" fill="#333"/><path d="m56.181 102.179-1.699-1.129a.307.307 0 0 0-.411.046l-3.662 4.138a.314.314 0 0 0 .05.462l1.7 1.13a.308.308 0 0 0 .41-.046l2.006-2.266 1.246-.102-.396-.859.806-.911a.315.315 0 0 0-.05-.463z" fill="#42335E"/><path d="m55.872 100.502-1.698-1.13a.308.308 0 0 0-.412.046l-3.662 4.139a.314.314 0 0 0 .05.462l1.7 1.13a.308.308 0 0 0 .411-.046l2.005-2.266 1.247-.102-.397-.859.807-.911a.315.315 0 0 0-.05-.463z" fill="#98ACF8"/><path d="M52.03 105.278a.38.38 0 0 1-.221-.072l-1.697-1.128a.385.385 0 0 1-.064-.569l3.662-4.138a.377.377 0 0 1 .505-.056l1.698 1.129a.387.387 0 0 1 .062.567l-.776.877.42.909-1.319.108-1.987 2.245a.38.38 0 0 1-.283.128zm1.962-5.893a.238.238 0 0 0-.178.08l-3.661 4.139a.243.243 0 0 0 .039.357l1.696 1.128a.239.239 0 0 0 .32-.033l2.025-2.288 1.174-.095-.374-.809.837-.947a.244.244 0 0 0-.038-.357l-1.697-1.128a.242.242 0 0 0-.142-.047z" fill="#333"/><path d="M51.558 104.079a.142.142 0 0 1-.106-.234l2.055-2.389a.138.138 0 0 1 .198-.015.143.143 0 0 1 .014.2l-2.055 2.389a.137.137 0 0 1-.106.049z" fill="#fff"/><path d="m54.395 100.243-.232.032v-.254a.12.12 0 0 0-.119-.12.12.12 0 0 0-.12.12v.286l-.263.036a.12.12 0 0 0 .016.24l.016-.001.232-.032v.244c0 .066.053.12.119.12a.12.12 0 0 0 .12-.12v-.276l.263-.036a.12.12 0 0 0-.032-.239z" fill="#DA9FF9"/><path d="M54.045 100.985a.19.19 0 0 1-.19-.192v-.162l-.152.021a.186.186 0 0 1-.213-.164.19.19 0 0 1 .037-.141.187.187 0 0 1 .125-.074l.204-.028v-.224a.19.19 0 0 1 .189-.19.19.19 0 0 1 .19.19v.173l.152-.021a.19.19 0 0 1 .213.164.19.19 0 0 1-.038.141.187.187 0 0 1-.125.074l-.203.028v.214a.19.19 0 0 1-.19.191zm-.05-.516v.324c0 .028.023.05.05.05a.05.05 0 0 0 .049-.05v-.337l.325-.045a.05.05 0 0 0 .042-.056.053.053 0 0 0-.02-.033.046.046 0 0 0-.035-.009l-.312.043v-.335a.05.05 0 0 0-.05-.05.05.05 0 0 0-.048.05v.348l-.325.044a.051.051 0 0 0-.033.019.051.051 0 0 0-.01.037.049.049 0 0 0 .05.043l.318-.043z" fill="#333"/><path d="m60.423 69.005 1.677-1.962a.557.557 0 0 1 .758-.085l2.372 1.778a.57.57 0 0 1 .09.825l-1.678 1.961a.557.557 0 0 1-.758.085l-2.371-1.778a.57.57 0 0 1-.09-.824z" fill="#42335E"/><path d="m60.423 65.986 1.677-1.962a.556.556 0 0 1 .758-.085l2.372 1.778a.57.57 0 0 1 .09.825l-1.678 1.961a.556.556 0 0 1-.758.085l-2.371-1.778a.57.57 0 0 1-.09-.825z" fill="#98ACF8"/><path d="M63.217 68.769a.623.623 0 0 1-.375-.125l-2.371-1.778a.64.64 0 0 1-.102-.927l1.678-1.962a.628.628 0 0 1 .853-.095l2.371 1.778a.64.64 0 0 1 .102.927l-1.678 1.962a.629.629 0 0 1-.478.22zm-2.742-2.738a.493.493 0 0 0-.116.378.49.49 0 0 0 .195.343l2.372 1.778a.49.49 0 0 0 .663-.073l1.678-1.962a.493.493 0 0 0 .116-.378.49.49 0 0 0-.195-.343l-2.372-1.778a.49.49 0 0 0-.663.074l-1.678 1.961z" fill="#333"/><path d="M61.942 65.3a.88.88 0 0 0 .098 1.23c.364.313 1.947.526 1.947.526s-.463-1.544-.827-1.857a.858.858 0 0 0-1.218.1zm.948.813a.4.4 0 0 1-.569.047.41.41 0 0 1-.046-.574.4.4 0 0 1 .569-.047.41.41 0 0 1 .046.574z" fill="#8466BB"/><path d="m64.085 67.139-.108-.015c-.065-.009-1.607-.219-1.982-.54a.94.94 0 0 1-.326-.644.943.943 0 0 1 .856-1.017c.248-.02.49.059.68.222.376.322.83 1.825.849 1.889l.031.105zm-1.483-2.077c-.022 0-.044 0-.066.002a.802.802 0 0 0-.728.864.8.8 0 0 0 .278.547c.29.25 1.439.439 1.8.493-.111-.352-.48-1.466-.771-1.715a.784.784 0 0 0-.513-.191zm-.02 1.265a.468.468 0 0 1-.306-.114.482.482 0 0 1-.054-.674.47.47 0 0 1 .832.27.479.479 0 0 1-.472.518zm0-.815a.331.331 0 0 0-.253.119.34.34 0 0 0 .038.474c.14.12.35.103.47-.038a.339.339 0 0 0-.039-.475.33.33 0 0 0-.215-.08z" fill="#333"/><path d="m35.636 62.263 1.677-1.962a.557.557 0 0 1 .758-.084l2.372 1.778a.57.57 0 0 1 .09.824l-1.678 1.962a.557.557 0 0 1-.758.084l-2.371-1.778a.57.57 0 0 1-.09-.824z" fill="#42335E"/><path d="m35.528 60.615 1.677-1.962a.556.556 0 0 1 .758-.084l2.372 1.778a.57.57 0 0 1 .09.824l-1.678 1.962a.556.556 0 0 1-.758.084l-2.371-1.778a.57.57 0 0 1-.09-.824z" fill="#BEDCFA"/><path d="M38.322 63.399a.622.622 0 0 1-.374-.125l-2.372-1.778a.64.64 0 0 1-.101-.927l1.677-1.962a.629.629 0 0 1 .853-.095l2.372 1.778a.64.64 0 0 1 .101.927L38.8 63.179a.628.628 0 0 1-.478.22zm-.692-4.87a.489.489 0 0 0-.372.17l-1.677 1.962a.492.492 0 0 0-.116.378.49.49 0 0 0 .195.343l2.371 1.778a.49.49 0 0 0 .664-.073l1.677-1.962a.493.493 0 0 0 .117-.378.49.49 0 0 0-.195-.343l-2.372-1.779a.484.484 0 0 0-.292-.096z" fill="#333"/><path d="M37.977 61.884c.541 0 .98-.444.98-.99a.985.985 0 0 0-.98-.991.985.985 0 0 0-.98.99c0 .547.438.99.98.99z" fill="#B088F9"/><path d="M37.977 61.953c-.58 0-1.05-.476-1.05-1.06 0-.585.47-1.061 1.05-1.061.579 0 1.05.476 1.05 1.06 0 .585-.471 1.061-1.05 1.061zm0-1.98a.916.916 0 0 0-.91.92c0 .507.408.919.91.919.501 0 .91-.412.91-.92a.916.916 0 0 0-.91-.918z" fill="#333"/><path d="M38.61 61.035h-.633a.14.14 0 0 1-.087-.03l-.417-.329a.143.143 0 0 1-.024-.199.14.14 0 0 1 .197-.024l.379.299h.585a.14.14 0 0 1 .14.141.14.14 0 0 1-.14.142zM31.434 90.152l1.677-1.962a.556.556 0 0 1 .758-.084l2.371 1.778a.57.57 0 0 1 .09.824l-1.677 1.962a.556.556 0 0 1-.758.084l-2.371-1.778a.57.57 0 0 1-.09-.824z" fill="#42335E"/><path d="m31.119 89.312 1.677-1.962a.556.556 0 0 1 .758-.084l2.371 1.778a.57.57 0 0 1 .09.824l-1.677 1.962a.556.556 0 0 1-.758.084l-2.371-1.778a.57.57 0 0 1-.09-.824z" fill="#8466BB"/><path d="M33.914 92.096a.623.623 0 0 1-.375-.125l-2.371-1.778a.64.64 0 0 1-.102-.927l1.678-1.962a.629.629 0 0 1 .853-.095l2.371 1.778a.64.64 0 0 1 .101.927l-1.677 1.962a.629.629 0 0 1-.478.22zm-.692-4.87a.488.488 0 0 0-.372.17l-1.678 1.962a.494.494 0 0 0-.116.378c.015.139.085.26.195.343l2.372 1.779a.49.49 0 0 0 .663-.074l1.678-1.962a.493.493 0 0 0 .116-.378.491.491 0 0 0-.195-.343l-2.372-1.778a.486.486 0 0 0-.291-.097z" fill="#333"/><path d="m32.263 90.012 1.456-1.702 1.305.986L33.568 91l-1.305-.987z" fill="#fff"/><path d="M32.262 90.084a.07.07 0 0 1-.068-.055.07.07 0 0 1 .053-.085l1.49-.344-.089-1.285a.07.07 0 0 1 .065-.076.07.07 0 0 1 .075.066l.094 1.345a.07.07 0 0 1-.055.074l-1.549.358a.053.053 0 0 1-.016.002zM40.725 87.062l2.32-2.713a.556.556 0 0 1 .758-.085l3.244 2.433a.57.57 0 0 1 .09.824l-2.32 2.713a.556.556 0 0 1-.759.085l-3.243-2.432a.57.57 0 0 1-.09-.825z" fill="#42335E"/><path d="m40.725 86.315 2.536-3.026a.557.557 0 0 1 .758-.085l3.244 2.433a.57.57 0 0 1 .09.824l-2.537 3.026a.557.557 0 0 1-.758.085l-3.243-2.432a.57.57 0 0 1-.09-.825z" fill="#DA9FF9"/><path d="M44.391 89.753a.623.623 0 0 1-.374-.124l-3.244-2.432a.64.64 0 0 1-.102-.928l2.537-3.026a.629.629 0 0 1 .853-.095l3.244 2.432a.64.64 0 0 1 .101.927l-2.536 3.026a.629.629 0 0 1-.479.22zm-.705-6.589a.489.489 0 0 0-.372.171l-2.536 3.027a.493.493 0 0 0-.117.378c.016.138.085.26.196.343l3.243 2.432a.489.489 0 0 0 .664-.074l2.536-3.026a.494.494 0 0 0 .116-.379.492.492 0 0 0-.195-.343l-3.243-2.432a.484.484 0 0 0-.292-.097z" fill="#333"/><path d="M45.11 87.503a.144.144 0 0 1-.056.035c-.057.02-1.394.478-2.25-.386a.779.779 0 0 1 0-1.093.76.76 0 0 1 .66-.217.779.779 0 0 1 .215-.667.761.761 0 0 1 1.083 0c.856.864.401 2.215.382 2.272a.143.143 0 0 1-.035.056z" fill="#BEDCFA"/><path d="M44.175 87.747c-.452 0-.994-.114-1.42-.545a.842.842 0 0 1-.245-.597c0-.225.087-.437.244-.596a.832.832 0 0 1 .632-.246.853.853 0 0 1 .243-.638.83.83 0 0 1 1.182 0c.888.896.419 2.287.399 2.345a.214.214 0 0 1-.133.134c-.03.011-.415.143-.902.143zm-.829-1.844a.694.694 0 0 0-.696.702c0 .188.072.364.203.497.825.833 2.123.388 2.177.37a.078.078 0 0 0 .047-.048c.02-.056.46-1.365-.365-2.2a.691.691 0 0 0-.984 0 .71.71 0 0 0-.195.607l.015.096-.095-.015a.666.666 0 0 0-.107-.009z" fill="#333"/><path opacity=".37" d="m43.987 94.911 7.315-8.36a.696.696 0 0 1 .943-.099l3.017 2.262c.33.247.379.726.107 1.037l-1.94 2.216-1.754 2.005-2.563 2.93-1.058 1.208a.696.696 0 0 1-.943.1l-3.017-2.263a.712.712 0 0 1-.107-1.036z" fill="#1A1A1A"/><path d="m43.56 93.58 7.316-8.36a.696.696 0 0 1 .942-.099l3.017 2.262c.33.247.38.726.108 1.037l-1.94 2.216-1.755 2.005-2.563 2.93-1.058 1.208a.696.696 0 0 1-.942.1l-3.017-2.263a.712.712 0 0 1-.108-1.036z" fill="#B088F9"/><path d="M47.103 97.09a.764.764 0 0 1-.46-.155l-3.017-2.262a.781.781 0 0 1-.118-1.14l7.315-8.36a.76.76 0 0 1 1.037-.11l3.017 2.263a.782.782 0 0 1 .118 1.14l-7.316 8.36a.764.764 0 0 1-.576.264zm4.296-12.04a.625.625 0 0 0-.471.217l-7.316 8.36a.634.634 0 0 0-.154.487c.019.18.108.338.251.445l3.017 2.263c.265.198.63.16.848-.09l7.316-8.36a.634.634 0 0 0 .154-.487.632.632 0 0 0-.251-.445l-3.017-2.263a.626.626 0 0 0-.377-.126z" fill="#333"/><path d="M46.527 94.378a.277.277 0 0 1-.185-.07.285.285 0 0 1-.025-.4l4.318-4.934a.278.278 0 0 1 .396-.025.285.285 0 0 1 .024.4l-4.318 4.934a.278.278 0 0 1-.21.095z" fill="#fff"/><path d="M53.444 87.86a.209.209 0 0 0-.297.019l-.302.346v-.003a.2.2 0 0 0 .003-.031l-.001-.016c0-.01-.002-.02-.004-.03-.001-.003 0-.006-.002-.01l-.208-.792a.21.21 0 1 0-.407.109l.055.206-.914-.685a.208.208 0 0 0-.294.044.214.214 0 0 0 .044.297l.886.664h-.2a.211.211 0 0 0-.21.212c0 .118.095.213.21.213h.835l.014-.002c.011 0 .023-.001.034-.004.004 0 .007-.003.011-.004l-.313.358a.214.214 0 0 0 .019.3.208.208 0 0 0 .296-.02l.763-.871a.213.213 0 0 0-.018-.3z" fill="#DA9FF9"/><path d="M52.543 89.174a.279.279 0 0 1-.186-.071.285.285 0 0 1-.024-.4l.201-.23h-.73a.282.282 0 0 1-.28-.283c0-.151.12-.276.268-.283l-.716-.537a.282.282 0 0 1 .126-.507.273.273 0 0 1 .208.053l.752.564-.003-.01a.28.28 0 1 1 .542-.145l.194.736.2-.23a.277.277 0 0 1 .396-.024.285.285 0 0 1 .024.4l-.763.87a.278.278 0 0 1-.21.097zm.21-.738-.315.36a.143.143 0 0 0 .012.2c.056.05.149.044.198-.012l.762-.871a.143.143 0 0 0-.012-.2.14.14 0 0 0-.198.012l-.447.511zm-.948-.388a.14.14 0 0 0-.14.142.14.14 0 0 0 .14.142h.834l.031-.004.094-.03.012-.084a.17.17 0 0 0 .002-.024.214.214 0 0 0-.003-.03l-.21-.8a.14.14 0 1 0-.27.073l.106.402-1.075-.805a.138.138 0 0 0-.196.03.14.14 0 0 0-.026.104.14.14 0 0 0 .055.093l1.056.792h-.41z" fill="#333"/><path d="m68.744 86.092 3.209-3.626a.27.27 0 0 1 .36-.04l1.71 1.24a.276.276 0 0 1 .045.405l-3.209 3.626a.27.27 0 0 1-.36.04l-1.71-1.24a.276.276 0 0 1-.045-.405z" fill="#42335E"/><path d="m68.767 84.83 2.113-2.388-.153-.851.818.1.43-.487a.27.27 0 0 1 .361-.04l1.71 1.239a.276.276 0 0 1 .045.405l-3.209 3.626a.27.27 0 0 1-.36.04l-1.71-1.24a.276.276 0 0 1-.045-.404z" fill="#DA9FF9"/><path d="M70.68 86.596a.338.338 0 0 1-.199-.065l-1.71-1.239a.345.345 0 0 1-.056-.51l2.09-2.361-.163-.912.875.107.407-.46a.338.338 0 0 1 .453-.05l1.71 1.24a.345.345 0 0 1 .056.51l-3.208 3.625a.339.339 0 0 1-.255.115zm.133-4.924.142.792-2.135 2.413a.203.203 0 0 0-.05.157.202.202 0 0 0 .083.143l1.71 1.24a.2.2 0 0 0 .267-.03l3.209-3.626a.202.202 0 0 0 .05-.158.201.201 0 0 0-.083-.143l-1.71-1.239a.2.2 0 0 0-.268.03l-.455.514-.76-.093z" fill="#333"/><path d="M71.853 83.521c.134.122.121.357-.029.526-.15.17-.38.208-.514.087s-.12-.357.03-.526c.15-.17.38-.208.513-.087z" fill="#B088F9"/><path d="M71.502 84.274a.349.349 0 0 1-.238-.088c-.162-.147-.152-.428.024-.626a.528.528 0 0 1 .303-.174c.119-.02.228.01.31.083.162.147.151.427-.024.625a.512.512 0 0 1-.375.18zm.16-.753a.29.29 0 0 0-.048.004.388.388 0 0 0-.222.13c-.124.14-.14.33-.035.426.105.094.291.058.415-.082s.14-.33.035-.425a.212.212 0 0 0-.145-.053z" fill="#333"/><path d="M72.675 82.596c.134.12.121.356-.029.525-.15.17-.38.208-.514.087s-.12-.357.03-.526c.15-.169.38-.208.513-.086z" fill="#B088F9"/><path d="M72.323 83.349a.348.348 0 0 1-.237-.089c-.162-.147-.152-.427.023-.625.176-.198.45-.24.613-.092.163.147.152.427-.024.625a.528.528 0 0 1-.375.18zm.16-.754a.374.374 0 0 0-.27.134c-.123.14-.138.33-.034.426a.225.225 0 0 0 .193.048.389.389 0 0 0 .222-.13c.124-.14.14-.33.035-.425a.213.213 0 0 0-.146-.053z" fill="#333"/><path d="M70.995 84.47c.134.122.121.357-.029.526-.15.17-.38.208-.514.087-.133-.121-.12-.357.03-.526.15-.169.38-.208.513-.087z" fill="#B088F9"/><path d="M70.644 85.224a.35.35 0 0 1-.238-.089.37.37 0 0 1-.115-.301.538.538 0 0 1 .139-.324.529.529 0 0 1 .303-.175.36.36 0 0 1 .31.083.37.37 0 0 1 .115.301.537.537 0 0 1-.14.324.512.512 0 0 1-.374.18zm.16-.753a.292.292 0 0 0-.047.004.39.39 0 0 0-.223.13.397.397 0 0 0-.103.237.23.23 0 0 0 .069.188c.105.095.29.058.415-.081a.396.396 0 0 0 .103-.237.23.23 0 0 0-.069-.189.212.212 0 0 0-.145-.052z" fill="#333"/><path d="m26.32 86.976 1.203.485.829-1.005-.086 1.305 1.203.485-1.255.321-.086 1.305-.69-1.106-1.255.322.828-1.006-.69-1.106z" fill="#DA9FF9"/><path d="m28.184 90.094-.778-1.246-1.415.362.933-1.133-.778-1.247 1.356.547.934-1.133-.097 1.47 1.356.547-1.415.363-.096 1.47zm-.714-1.41.603.967.074-1.14 1.096-.28-1.05-.423.074-1.14-.723.878-1.05-.423.603.965-.723.878 1.096-.281z" fill="#333"/><path d="m57.398 57.269 1.203.485.828-1.005-.085 1.305 1.203.485-1.256.321-.085 1.305-.69-1.106-1.256.321.829-1.005-.69-1.106z" fill="#DA9FF9"/><path d="m59.261 60.387-.778-1.247-1.415.362.934-1.133-.779-1.247 1.356.547.934-1.133-.096 1.47 1.355.548-1.415.362-.096 1.47zm-.714-1.41.603.966.075-1.139 1.095-.28-1.05-.424.075-1.139-.723.877-1.05-.423.603.965-.723.878 1.095-.28z" fill="#333"/><path d="m81.832 72.442 1.203.486.828-1.006-.085 1.305 1.203.485-1.255.322-.086 1.305-.69-1.106-1.256.32.829-1.004-.69-1.107z" fill="#DA9FF9"/><path d="m83.696 75.56-.779-1.246-1.415.362.934-1.133-.779-1.247 1.356.547.934-1.133-.096 1.47 1.356.548-1.415.362-.096 1.47zm-.715-1.409.603.966.075-1.14 1.095-.28-1.05-.423.075-1.14-.723.878-1.05-.423.603.965-.723.878 1.095-.28z" fill="#333"/><path d="m64.59 104.252 1.203.485.829-1.005-.086 1.305 1.203.485-1.255.321-.086 1.305-.69-1.106-1.255.321.828-1.005-.69-1.106z" fill="#DA9FF9"/><path d="m66.454 107.37-.778-1.247-1.415.362.934-1.133-.779-1.247 1.356.547.934-1.133-.096 1.471 1.355.547-1.415.362-.096 1.471zm-.714-1.409.603.965.075-1.139 1.095-.28-1.05-.424.075-1.139-.723.877-1.05-.423.603.966-.723.877 1.095-.28z" fill="#333"/><path d="m26.32 61.425 1.203.485.829-1.005-.086 1.305 1.203.485-1.255.322-.086 1.305-.69-1.107-1.255.322.828-1.005-.69-1.107z" fill="#DA9FF9"/><path d="m28.184 64.543-.778-1.246-1.415.362.933-1.133-.778-1.247 1.356.547.934-1.133-.097 1.47 1.356.547-1.415.363-.096 1.47zm-.714-1.409.603.966.074-1.14 1.096-.28-1.05-.423.074-1.14-.723.878-1.05-.423.603.965-.723.878 1.096-.28z" fill="#333"/><path opacity=".11" d="m17.178 83.466 9.737-11.188a.696.696 0 0 1 .93-.103l4.415 3.2a.712.712 0 0 1 .114 1.045l-9.736 11.188a.696.696 0 0 1-.931.103l-4.415-3.199a.712.712 0 0 1-.114-1.046z" fill="#000"/><path d="m19.707 78.262 9.736-11.187a.696.696 0 0 1 .931-.103l4.415 3.199a.712.712 0 0 1 .114 1.045l-9.736 11.188a.696.696 0 0 1-.931.103l-4.415-3.199a.712.712 0 0 1-.114-1.046z" fill="#98ACF8"/><path d="M24.645 82.711a.763.763 0 0 1-.45-.146l-4.414-3.2a.78.78 0 0 1-.126-1.15l9.737-11.187a.765.765 0 0 1 1.024-.114l4.415 3.199a.78.78 0 0 1 .125 1.15L25.22 82.45a.766.766 0 0 1-.575.261zm5.322-15.802a.627.627 0 0 0-.47.213L19.76 78.31a.642.642 0 0 0 .103.941l4.415 3.199c.262.19.622.15.837-.093l9.737-11.187a.642.642 0 0 0-.103-.942l-4.415-3.199a.624.624 0 0 0-.367-.12z" fill="#333"/><path d="m21.467 78.168 5.503-6.32a.557.557 0 0 1 .748-.086l2.584 1.873a.57.57 0 0 1 .095.833l-5.503 6.32a.557.557 0 0 1-.748.087l-2.585-1.873a.57.57 0 0 1-.094-.834z" fill="#BEDCFA"/><path d="M24.474 81.052a.625.625 0 0 1-.368-.12l-2.585-1.873a.639.639 0 0 1-.106-.937l5.503-6.32a.624.624 0 0 1 .841-.098l2.585 1.873a.64.64 0 0 1 .106.938l-5.503 6.32a.626.626 0 0 1-.473.218zm2.917-9.326a.487.487 0 0 0-.368.169l-5.502 6.32a.5.5 0 0 0 .082.73l2.585 1.873c.205.149.487.116.654-.076l5.503-6.32a.5.5 0 0 0-.083-.73l-2.585-1.872a.485.485 0 0 0-.286-.094z" fill="#333"/><path d="m31.184 68.835-.633.086v-.69a.326.326 0 0 0-.324-.328.326.326 0 0 0-.325.328v.778l-.719.098a.327.327 0 0 0 .087.65l.632-.087v.663c0 .181.145.328.325.328.179 0 .324-.147.324-.328v-.751l.72-.098a.327.327 0 0 0-.087-.65z" fill="#8466BB"/><path d="M30.228 70.732a.397.397 0 0 1-.395-.399v-.581l-.553.075a.398.398 0 0 1-.106-.79l.66-.09v-.716c0-.22.176-.398.394-.398.218 0 .394.178.394.398v.609l.553-.076a.398.398 0 0 1 .444.341.399.399 0 0 1-.338.449l-.658.09v.689c0 .22-.177.399-.395.399zm-.254-1.142v.743c0 .142.114.257.254.257s.254-.115.254-.257v-.813l.78-.106a.257.257 0 0 0-.067-.51l-.713.097v-.77a.256.256 0 0 0-.254-.257.256.256 0 0 0-.255.257v.84l-.78.106a.257.257 0 0 0 .069.51l.712-.097z" fill="#333"/><path d="M27.053 76.318c.662 0 1.199-.542 1.199-1.21 0-.669-.537-1.21-1.199-1.21s-1.198.541-1.198 1.21c0 .668.536 1.21 1.198 1.21z" fill="#DA9FF9"/><path d="M27.053 76.39c-.7 0-1.269-.576-1.269-1.282 0-.707.57-1.281 1.269-1.281.7 0 1.269.575 1.269 1.28 0 .707-.57 1.282-1.27 1.282zm0-2.422c-.622 0-1.129.512-1.129 1.14 0 .628.507 1.14 1.129 1.14s1.128-.511 1.128-1.14c0-.629-.506-1.14-1.128-1.14z" fill="#333"/><path d="M25.235 78.718c.619-.237.93-.936.696-1.561a1.195 1.195 0 0 0-1.546-.703c-.62.237-.93.936-.696 1.561.235.625.927.94 1.546.703z" fill="#DA9FF9"/><path d="M24.81 78.868c-.699 0-1.268-.575-1.268-1.281 0-.707.57-1.281 1.269-1.281.7 0 1.269.575 1.269 1.281s-.57 1.281-1.27 1.281zm0-2.42c-.622 0-1.128.51-1.128 1.14 0 .628.506 1.139 1.129 1.139.622 0 1.128-.511 1.128-1.14 0-.628-.506-1.14-1.128-1.14z" fill="#333"/><path d="M27.363 75.672a.14.14 0 0 1-.14-.142v-.672l-.663.133a.14.14 0 0 1-.165-.111.141.141 0 0 1 .11-.167l.831-.166a.14.14 0 0 1 .168.139v.844a.141.141 0 0 1-.14.142zM24.513 77.023c.077 0 .14.064.14.142v.672l.663-.133a.14.14 0 0 1 .165.112.141.141 0 0 1-.11.166l-.831.166a.14.14 0 0 1-.167-.139v-.844c0-.078.063-.142.14-.142z" fill="#fff"/><path opacity=".11" d="m70.26 101.883 2.967-3.54a.65.65 0 0 1 .887-.099l3.793 2.845a.666.666 0 0 1 .105.964l-2.966 3.539a.65.65 0 0 1-.887.099l-3.793-2.844a.666.666 0 0 1-.106-.964z" fill="#000"/><path d="m69.197 99.689 2.967-3.54a.65.65 0 0 1 .887-.099l3.793 2.845c.306.23.355.672.106.964l-2.967 3.539a.65.65 0 0 1-.887.099l-3.793-2.844a.667.667 0 0 1-.106-.964z" fill="#DA9FF9"/><path d="M73.485 103.697a.719.719 0 0 1-.431-.143l-3.794-2.845a.734.734 0 0 1-.117-1.066l2.967-3.54a.723.723 0 0 1 .982-.11l3.793 2.845a.736.736 0 0 1 .117 1.067l-2.966 3.539a.722.722 0 0 1-.551.253zm-.825-7.706c-.165 0-.33.07-.444.204l-2.966 3.54a.589.589 0 0 0-.14.451c.019.165.102.311.234.41l3.793 2.844a.583.583 0 0 0 .792-.088l2.966-3.539a.59.59 0 0 0 .14-.452.587.587 0 0 0-.234-.41l-3.793-2.844a.577.577 0 0 0-.348-.115z" fill="#333"/><path d="M73.474 101.689a1.958 1.958 0 0 0 1.493-2.322 1.939 1.939 0 0 0-2.3-1.508 1.958 1.958 0 0 0-1.492 2.322 1.94 1.94 0 0 0 2.3 1.508z" fill="#8466BB"/><path d="M73.073 101.802a2.02 2.02 0 0 1-2.008-2.028c0-1.118.9-2.028 2.008-2.028a2.02 2.02 0 0 1 2.009 2.028 2.02 2.02 0 0 1-2.009 2.028zm0-3.915a1.88 1.88 0 0 0-1.868 1.887 1.88 1.88 0 0 0 1.868 1.887 1.88 1.88 0 0 0 1.869-1.887 1.88 1.88 0 0 0-1.869-1.887z" fill="#333"/><path d="m73.757 98.91-1.704.461a.142.142 0 0 0-.063.237l1.248 1.26a.14.14 0 0 0 .234-.063l.457-1.722a.14.14 0 0 0-.172-.173z" fill="#fff"/><path d="m33.892 100.978 3.521-4.172a.632.632 0 0 1 .861-.096l2.693 2.02a.647.647 0 0 1 .103.935l-3.522 4.172a.632.632 0 0 1-.861.096l-2.693-2.019a.647.647 0 0 1-.102-.936z" fill="#42335E"/><path d="m33.487 98.65 3.522-4.172a.632.632 0 0 1 .86-.096l2.694 2.019a.647.647 0 0 1 .102.936l-3.521 4.172a.632.632 0 0 1-.861.096l-2.694-2.02a.647.647 0 0 1-.102-.935z" fill="#BEDCFA"/><path d="M36.66 101.801a.698.698 0 0 1-.42-.14l-2.693-2.019a.717.717 0 0 1-.114-1.039l3.522-4.171a.705.705 0 0 1 .956-.107l2.693 2.019a.717.717 0 0 1 .113 1.04l-3.52 4.171a.704.704 0 0 1-.537.246zm.83-7.475a.565.565 0 0 0-.429.198l-3.522 4.171a.57.57 0 0 0-.134.437c.018.16.098.3.226.397l2.693 2.019c.237.178.573.14.766-.086l3.521-4.171a.57.57 0 0 0 .135-.437.567.567 0 0 0-.225-.397l-2.693-2.019a.562.562 0 0 0-.337-.112z" fill="#333"/><path d="M38.245 98.641a.23.23 0 0 1-.15.081l-1.952.229a.232.232 0 0 1-.257-.205.234.234 0 0 1 .204-.26l1.952-.228a.232.232 0 0 1 .256.205.235.235 0 0 1-.053.178z" fill="#B088F9"/><path d="M36.116 99.023a.305.305 0 0 1-.035-.607l1.953-.228a.303.303 0 0 1 .334.267.308.308 0 0 1-.07.233.301.301 0 0 1-.194.105l-1.953.229a.343.343 0 0 1-.035.001zm1.953-.696c-.006 0-.013 0-.019.002l-1.952.228a.163.163 0 0 0-.142.18c.01.09.09.156.179.144l1.952-.229a.163.163 0 0 0-.019-.325z" fill="#333"/><path d="M36.902 97.783c.511.438.575 1.212.141 1.729-.434.516-1.2.58-1.712.142a1.235 1.235 0 0 1-.141-1.728c.433-.517 1.2-.58 1.712-.143z" fill="#B088F9"/><path d="M36.114 100.016a1.293 1.293 0 0 1-1.278-1.19 1.297 1.297 0 0 1 1.175-1.4c.341-.029.674.08.936.303.262.224.421.538.45.883a1.298 1.298 0 0 1-1.175 1.4 1.298 1.298 0 0 1-.108.004zm.004-2.453a1.147 1.147 0 0 0-1.142 1.251 1.152 1.152 0 0 0 1.235 1.057 1.155 1.155 0 0 0 1.046-1.247 1.152 1.152 0 0 0-1.139-1.06z" fill="#333"/><path d="M36.602 98.14c.317.27.356.75.088 1.07a.746.746 0 0 1-1.06.089.765.765 0 0 1-.088-1.07.746.746 0 0 1 1.06-.09z" fill="#fff"/><path d="m38.136 96.293-.363.485a.292.292 0 0 1-.412.058l-.48-.367a.3.3 0 0 1-.057-.416l.363-.485a.292.292 0 0 1 .412-.058l.48.366a.3.3 0 0 1 .057.417z" fill="#DA9FF9"/><path d="M37.538 96.966a.36.36 0 0 1-.22-.074l-.479-.367a.37.37 0 0 1-.07-.515l.362-.485a.362.362 0 0 1 .51-.071l.48.366a.369.369 0 0 1 .07.516l-.362.484a.362.362 0 0 1-.29.146zm-.116-1.445c-.01 0-.02 0-.031.002a.223.223 0 0 0-.148.087l-.363.485a.228.228 0 0 0 .044.317l.48.367c.098.076.239.056.313-.044l.363-.485a.226.226 0 0 0 .044-.167.225.225 0 0 0-.087-.15l-.48-.367a.222.222 0 0 0-.135-.046z" fill="#333"/><path opacity=".11" d="m80.159 87.228 6.385-7.333a.646.646 0 0 1 .867-.1l3 2.173a.66.66 0 0 1 .109.967l-6.385 7.334a.646.646 0 0 1-.868.1l-2.999-2.174a.66.66 0 0 1-.109-.966z" fill="#000"/><path d="m75.956 86.42 6.385-7.334a.646.646 0 0 1 .867-.1l3 2.174a.66.66 0 0 1 .109.967l-6.385 7.333a.646.646 0 0 1-.868.1l-2.999-2.173a.66.66 0 0 1-.11-.967z" fill="#8466BB"/><path d="M79.444 89.755a.712.712 0 0 1-.42-.138l-3-2.173a.73.73 0 0 1-.12-1.071l6.384-7.334a.713.713 0 0 1 .961-.11l2.999 2.173a.73.73 0 0 1 .121 1.071l-6.385 7.334a.716.716 0 0 1-.54.248zm3.385-10.822a.576.576 0 0 0-.436.2l-6.385 7.333a.59.59 0 0 0 .098.863l3 2.173a.574.574 0 0 0 .773-.09l6.385-7.333a.59.59 0 0 0-.098-.862l-2.999-2.174a.576.576 0 0 0-.338-.11z" fill="#333"/><path d="M85.551 81.567a.243.243 0 0 0-.335-.09l-3.5 2.065 1.5-3.803a.248.248 0 0 0-.137-.321.244.244 0 0 0-.319.138l-1.732 4.392-4.043 2.384a.249.249 0 0 0-.088.338.244.244 0 0 0 .336.09l3.5-2.065-1.5 3.803a.248.248 0 0 0 .227.339c.098 0 .19-.06.228-.156l1.733-4.392 4.042-2.384a.25.25 0 0 0 .088-.338z" fill="#BEDCFA"/><path d="M79.46 88.907a.32.32 0 0 1-.293-.436l1.425-3.612-3.325 1.96a.322.322 0 0 1-.43-.114.317.317 0 0 1-.033-.241.316.316 0 0 1 .145-.194l4.022-2.372 1.723-4.369a.314.314 0 0 1 .41-.177.32.32 0 0 1 .176.413l-1.425 3.612 3.325-1.96a.314.314 0 0 1 .431.114c.042.073.054.159.032.24a.315.315 0 0 1-.145.195l-4.022 2.371-1.723 4.37a.314.314 0 0 1-.293.2zm1.413-4.377-1.576 3.993a.178.178 0 0 0 .098.23.177.177 0 0 0 .228-.1l1.741-4.413 4.063-2.396a.177.177 0 0 0-.044-.324.173.173 0 0 0-.133.018l-3.676 2.168 1.576-3.993a.178.178 0 0 0-.098-.23.174.174 0 0 0-.228.099l-1.741 4.414-4.063 2.396a.177.177 0 0 0-.063.242c.047.08.159.111.24.063l3.675-2.167z" fill="#333"/><path opacity=".11" d="m82.774 98.721 1.964-2.343a.43.43 0 0 1 .587-.065l5.167 4.128a.44.44 0 0 1 .07.638l-1.964 2.343a.43.43 0 0 1-.587.065l-5.167-4.128a.44.44 0 0 1-.07-.638z" fill="#000"/><path d="m82.774 94.206 1.964-2.343a.43.43 0 0 1 .587-.065l5.167 4.128a.441.441 0 0 1 .07.638l-1.964 2.343a.43.43 0 0 1-.587.065l-5.167-4.128a.44.44 0 0 1-.07-.638z" fill="#DA9FF9"/><path d="M88.268 99.129a.498.498 0 0 1-.3-.1L82.8 94.9a.511.511 0 0 1-.08-.739l1.964-2.343a.503.503 0 0 1 .682-.076l5.169 4.13a.51.51 0 0 1 .079.74l-1.963 2.342a.503.503 0 0 1-.383.176zm-3.201-7.347a.364.364 0 0 0-.277.127l-1.963 2.344a.365.365 0 0 0-.087.28.365.365 0 0 0 .145.254l5.17 4.13c.15.113.366.089.49-.056l1.963-2.343a.366.366 0 0 0 .086-.28.365.365 0 0 0-.144-.255l-5.17-4.13a.355.355 0 0 0-.213-.07z" fill="#333"/><path d="m88.897 96.915-3.01-2.445 1.425.49.105-.309-2.848-.98 1.558 2.6.277-.17-.78-1.3 3.01 2.445.263-.33z" fill="#98ACF8"/><path d="m88.644 97.346-2.754-2.238.61 1.017-.397.243-1.694-2.826 3.097 1.065-.15.443-1.115-.383 2.754 2.237-.35.442zm-3.285-2.852 3.264 2.652.176-.22-3.265-2.653 1.735.598.06-.176-2.6-.894 1.421 2.372.157-.096-.948-1.583z" fill="#333"/><path d="m72.296 75.767 2.537-3.026a.556.556 0 0 1 .758-.085l3.244 2.432a.57.57 0 0 1 .09.825l-2.537 3.026a.556.556 0 0 1-.758.085l-3.243-2.433a.57.57 0 0 1-.09-.824z" fill="#42335E"/><path d="m71.698 73.558 2.536-3.027a.556.556 0 0 1 .759-.084l3.243 2.432a.57.57 0 0 1 .09.824L75.79 76.73a.557.557 0 0 1-.758.084l-3.244-2.432a.57.57 0 0 1-.09-.824z" fill="#B088F9"/><path d="M75.364 76.996a.622.622 0 0 1-.374-.125l-3.244-2.432a.64.64 0 0 1-.101-.927l2.536-3.027a.629.629 0 0 1 .853-.095l3.244 2.432a.64.64 0 0 1 .101.927l-2.536 3.026a.628.628 0 0 1-.479.22zm-.704-6.59a.488.488 0 0 0-.372.171l-2.537 3.027a.492.492 0 0 0-.116.378c.015.138.084.26.195.343l3.243 2.432a.489.489 0 0 0 .664-.074l2.536-3.026a.494.494 0 0 0 .117-.378.491.491 0 0 0-.195-.343l-3.244-2.433a.486.486 0 0 0-.291-.097z" fill="#333"/><path d="m76.469 73.935-.179-1.331-.613.084V72h-1.33v.868l-.79.108.177 1.331.613-.083v.65h1.33v-.832l.792-.108z" fill="#DA9FF9"/><path d="M75.747 74.945h-1.47v-.64l-.603.083-.197-1.471.8-.11v-.877h1.47v.677l.603-.083.197 1.471-.8.11v.84zm-1.33-.142h1.19v-.822l.782-.107-.16-1.19-.622.085v-.697h-1.19v.86l-.782.106.16 1.19.622-.084v.66z" fill="#333"/><path d="M82.497 103.631h-.28c0-.299.083-.456.156-.595a.84.84 0 0 0 .124-.461.841.841 0 0 0-.124-.462 1.115 1.115 0 0 1-.156-.595c0-.299.083-.456.156-.594a.84.84 0 0 0 .124-.461.841.841 0 0 0-.124-.462c-.073-.138-.156-.295-.156-.595s.083-.456.156-.594a.838.838 0 0 0 .124-.461h.28c0 .3-.083.456-.156.594a.839.839 0 0 0-.124.461c0 .229.057.337.124.462.073.138.156.295.156.595 0 .299-.083.456-.156.594a.84.84 0 0 0-.124.461c0 .229.057.337.124.462.073.138.156.295.156.595s-.083.456-.156.595a.84.84 0 0 0-.124.461zM83.198 103.631h-.28c0-.299.083-.456.156-.595a.84.84 0 0 0 .124-.461.841.841 0 0 0-.124-.462 1.115 1.115 0 0 1-.156-.595c0-.299.083-.456.156-.594a.84.84 0 0 0 .124-.461.841.841 0 0 0-.124-.462c-.073-.138-.156-.295-.156-.595s.083-.456.156-.594a.838.838 0 0 0 .124-.461h.28c0 .3-.084.456-.157.594a.839.839 0 0 0-.123.461c0 .229.057.337.123.462.073.138.157.295.157.595 0 .299-.084.456-.157.594a.84.84 0 0 0-.123.461c0 .229.057.337.123.462.073.138.157.295.157.595s-.083.456-.157.595a.84.84 0 0 0-.123.461zM83.898 103.631h-.28c0-.299.083-.456.156-.595a.84.84 0 0 0 .124-.461.841.841 0 0 0-.124-.462 1.114 1.114 0 0 1-.156-.595c0-.299.083-.456.156-.594a.84.84 0 0 0 .124-.461.841.841 0 0 0-.124-.462c-.073-.138-.156-.295-.156-.595s.083-.456.156-.594a.838.838 0 0 0 .124-.461h.28c0 .3-.083.456-.157.594a.839.839 0 0 0-.123.461c0 .229.057.337.123.462.074.138.157.295.157.595 0 .299-.083.456-.157.594a.84.84 0 0 0-.123.461c0 .229.057.337.123.462.074.138.157.295.157.595s-.083.456-.157.595a.84.84 0 0 0-.123.461zM20.628 89.795h-.28c0-.3.083-.457.156-.595a.84.84 0 0 0 .124-.462c0-.228-.057-.336-.124-.461a1.117 1.117 0 0 1-.156-.595c0-.3.083-.457.156-.595a.84.84 0 0 0 .124-.46c0-.23-.057-.337-.124-.462a1.116 1.116 0 0 1-.156-.595c0-.3.083-.456.156-.595a.84.84 0 0 0 .124-.46h.28c0 .299-.083.456-.157.594a.84.84 0 0 0-.123.461.84.84 0 0 0 .123.461c.074.138.157.296.157.595 0 .3-.083.456-.157.595a.84.84 0 0 0-.123.46c0 .23.057.337.123.462.074.139.157.296.157.595 0 .3-.083.457-.157.595-.066.125-.123.233-.123.462zM21.328 89.795h-.28c0-.3.083-.457.157-.595a.84.84 0 0 0 .123-.462c0-.228-.057-.336-.123-.461a1.117 1.117 0 0 1-.157-.595c0-.3.083-.457.157-.595a.84.84 0 0 0 .123-.46c0-.23-.057-.337-.123-.462-.074-.139-.157-.296-.157-.595 0-.3.083-.456.157-.595a.84.84 0 0 0 .123-.46h.28c0 .299-.083.456-.157.594a.84.84 0 0 0-.123.461c0 .229.057.336.123.461.074.138.157.296.157.595 0 .3-.083.456-.157.595a.84.84 0 0 0-.123.46c0 .23.057.337.123.462.074.139.157.296.157.595 0 .3-.083.457-.156.595-.067.125-.124.233-.124.462zM22.028 89.795h-.28c0-.3.083-.457.157-.595a.84.84 0 0 0 .123-.462c0-.228-.057-.336-.123-.461-.074-.139-.157-.296-.157-.595 0-.3.083-.457.157-.595a.84.84 0 0 0 .123-.46c0-.23-.057-.337-.123-.462-.074-.139-.157-.296-.157-.595 0-.3.083-.456.157-.595a.84.84 0 0 0 .123-.46h.28c0 .299-.083.456-.156.594a.84.84 0 0 0-.124.461c0 .229.058.336.124.461.073.138.156.296.156.595 0 .3-.083.456-.156.595a.84.84 0 0 0-.124.46c0 .23.058.337.124.462.073.139.156.296.156.595 0 .3-.083.457-.156.595-.067.125-.124.233-.124.462zM45.16 62.766h-.28c0-.413.075-.623.148-.825.068-.188.132-.365.132-.729 0-.363-.064-.54-.131-.728a2.1 2.1 0 0 1-.15-.825c0-.414.076-.623.15-.825.067-.188.131-.365.131-.728s-.064-.54-.131-.728a2.1 2.1 0 0 1-.15-.825c0-.413.076-.623.15-.825.067-.188.131-.365.131-.728h.28c0 .413-.075.622-.148.825-.068.187-.132.364-.132.727 0 .364.064.541.132.729.073.202.148.412.148.825s-.075.622-.148.825c-.068.187-.132.364-.132.727 0 .364.064.541.132.729.073.202.148.412.148.825a2.1 2.1 0 0 1-.148.825c-.068.188-.132.366-.132.729zM45.86 62.766h-.28c0-.413.076-.623.149-.825.067-.188.131-.365.131-.729 0-.363-.064-.54-.131-.728a2.1 2.1 0 0 1-.149-.825c0-.414.076-.623.149-.825.067-.188.131-.365.131-.728s-.064-.54-.131-.728a2.1 2.1 0 0 1-.149-.825c0-.413.076-.623.149-.825.067-.188.131-.365.131-.728h.28c0 .413-.075.622-.148.825-.068.187-.132.364-.132.727 0 .364.064.541.132.729.073.202.149.412.149.825s-.076.622-.15.825c-.067.187-.13.364-.13.727 0 .364.063.541.13.729.074.202.15.412.15.825a2.1 2.1 0 0 1-.15.825c-.067.188-.13.366-.13.729zM46.561 62.766h-.28c0-.413.075-.623.148-.825.068-.188.132-.365.132-.729 0-.363-.064-.54-.132-.728a2.1 2.1 0 0 1-.148-.825c0-.414.075-.623.148-.825.068-.188.132-.365.132-.728s-.064-.54-.132-.728a2.1 2.1 0 0 1-.148-.825c0-.413.075-.623.148-.825.068-.188.132-.365.132-.728h.28c0 .413-.075.622-.148.825-.068.187-.132.364-.132.727 0 .364.064.541.132.729.073.202.148.412.148.825s-.075.622-.148.825c-.068.187-.132.364-.132.727 0 .364.064.541.132.729.073.202.148.412.148.825s-.075.623-.148.825c-.068.188-.132.366-.132.729zM53.682 62.756a.505.505 0 0 1-.502-.507c0-.28.226-.508.502-.508.277 0 .502.228.502.508s-.225.507-.502.507zm0-.732c-.122 0-.222.101-.222.225 0 .123.1.224.222.224s.222-.1.222-.224-.1-.225-.222-.225zM78.173 67.678a.505.505 0 0 1-.502-.508c0-.28.225-.507.502-.507s.502.228.502.507c0 .28-.225.508-.502.508zm0-.732c-.122 0-.222.1-.222.225 0 .123.1.224.222.224s.222-.101.222-.224c0-.124-.1-.225-.222-.225zM25.483 94.405a.505.505 0 0 1-.502-.507c0-.28.225-.507.502-.507s.502.227.502.507-.225.507-.502.507zm0-.731c-.122 0-.222.1-.222.224 0 .123.1.224.222.224s.222-.1.222-.224-.1-.224-.222-.224zM89.898 87.662a.505.505 0 0 1-.502-.507c0-.28.225-.508.502-.508s.502.228.502.508-.225.507-.502.507zm0-.731c-.122 0-.222.1-.222.224 0 .123.1.224.222.224s.222-.1.222-.224-.1-.224-.222-.224zM22.546 70.285a.505.505 0 0 1-.502-.508c0-.28.226-.507.502-.507.277 0 .503.228.503.507 0 .28-.226.508-.503.508zm0-.732c-.122 0-.221.1-.221.224s.1.224.221.224c.123 0 .222-.1.222-.224 0-.123-.1-.224-.222-.224z" fill="#fff"/><path opacity=".11" d="m31.542 66.541-.345-1.61.345-1.752.345 1.752-.345 1.61z" fill="#000"/><path opacity=".11" d="m32.856 64.931-1.314.349-1.315-.349 1.315-.349 1.314.35zM77.11 83.169l-.346-1.61.345-1.753.345 1.752-.345 1.61z" fill="#000"/><path opacity=".11" d="m78.424 81.559-1.315.348-1.315-.348 1.315-.349 1.315.349zM45.72 103.23l-.344-1.611.345-1.752.345 1.752-.345 1.611z" fill="#000"/><path opacity=".11" d="m47.035 101.62-1.314.348-1.315-.348 1.315-.349 1.314.349zM20.869 94.967l-.345-1.61.345-1.753.345 1.752-.345 1.61z" fill="#000"/><path opacity=".11" d="m22.185 93.356-1.315.349-1.315-.349 1.315-.348 1.315.349zM72.403 69.585l-.345-1.61.345-1.753.345 1.752-.345 1.611z" fill="#000"/><path opacity=".11" d="m73.718 67.975-1.315.348-1.315-.348 1.315-.349 1.315.349zM19.529 72.948l-.393-1.836.393-1.998.393 1.998-.393 1.836z" fill="#000"/><path opacity=".11" d="m21.029 71.112-1.5.397-1.499-.397 1.5-.398 1.499.398zM68.566 62.968l-.223-1.04.223-1.13.223 1.13-.223 1.04z" fill="#000"/><path opacity=".11" d="m69.415 61.929-.849.224-.848-.224.849-.225.848.225zM80.846 97.258l-.222-1.04.222-1.131.223 1.13-.223 1.04z" fill="#000"/><path opacity=".11" d="m81.695 96.218-.85.225-.848-.225.849-.225.849.225z" fill="#000"/><path d="M28.957 139.562h1.564v5.391c0 .988-.294 1.754-.884 2.297-.59.543-1.432.814-2.526.814-1.093 0-1.935-.271-2.525-.814-.59-.543-.885-1.309-.885-2.297v-5.391h1.559v5.391c0 .543.15.963.45 1.26.306.297.772.445 1.401.445.625 0 1.088-.148 1.389-.445.305-.297.457-.717.457-1.26v-5.391zm3.082.112c0-.242.086-.445.258-.61a.883.883 0 0 1 .633-.252c.246 0 .455.084.627.252a.803.803 0 0 1 .263.61.857.857 0 0 1-.263.627.853.853 0 0 1-.627.258.873.873 0 0 1-.633-.258.867.867 0 0 1-.258-.627zm.111 1.992h1.559V148H32.15v-6.334zm10.8-2.104h1.564v5.391c0 .988-.295 1.754-.885 2.297-.59.543-1.432.814-2.526.814-1.093 0-1.935-.271-2.525-.814-.59-.543-.885-1.309-.885-2.297v-5.391h1.559v5.391c0 .543.15.963.451 1.26.305.297.772.445 1.4.445.625 0 1.088-.148 1.39-.445.304-.297.456-.717.456-1.26v-5.391zm6.995 2.104h1.8l-2.198 3.24L51.744 148h-1.799l-1.365-1.98-1.353 1.98h-1.811l2.203-3.094-2.203-3.24h1.805l1.36 2.127 1.364-2.127zm12.89 4.77V148h-1.17c.519.34.778.758.778 1.254 0 .473-.175.885-.527 1.236-.351.356-.816.621-1.394.797-.579.18-1.223.27-1.934.27-1.297 0-2.283-.297-2.96-.891-.675-.59-1.013-1.473-1.013-2.648 0-.985.186-2.155.557-3.51l1.441.392c-.328 1.293-.492 2.301-.492 3.024 0 .738.205 1.267.615 1.588.41.324 1.059.486 1.946.486.437 0 .828-.035 1.171-.105.348-.067.635-.182.862-.346.226-.16.34-.358.34-.592 0-.273-.184-.471-.551-.592-.367-.117-1.066-.238-2.098-.363l.223-1.564h4.207zm2.796-3.997c.266 0 .543.049.832.147.289.098.666.25 1.13.457.348.152.624.271.827.357.203.082.484.182.844.299.359.117.705.209 1.037.276v1.277l-2.573 1.717a5.92 5.92 0 0 1-1.687.791c-.578.16-1.219.24-1.922.24h-1.283c-.078 0-.135-.055-.17-.164-.035-.113-.053-.318-.053-.615s.018-.502.053-.616c.035-.113.092-.169.17-.169h1.57c.531 0 .998-.049 1.4-.147a4.466 4.466 0 0 0 1.237-.533l1.418-.879c-.461-.094-1.008-.277-1.64-.551a9.013 9.013 0 0 0-.417-.176 2.582 2.582 0 0 0-.345-.111 1.439 1.439 0 0 0-.364-.053c-.504 0-.832.356-.984 1.067l-.047.222-1.23-.222.047-.276c.14-.761.378-1.341.714-1.74.34-.398.819-.598 1.436-.598zm7.5 5.561h-1.565v-8.361h1.565V148zm2.28-3.803 1.487-.504.375 1.266c.094.324.182.576.264.756.086.18.191.328.316.445a.963.963 0 0 0 .434.223c.16.035.373.053.639.053h.011V148h-.011c-.64 0-1.121-.172-1.442-.516-.058.93-.382 1.709-.972 2.338s-1.506 1.174-2.748 1.635l-.674-1.406c1.058-.383 1.808-.795 2.25-1.237.445-.437.668-1.005.668-1.705 0-.722-.2-1.693-.598-2.912zM78.948 148c-.078 0-.135-.055-.17-.164-.039-.113-.058-.318-.058-.615s.02-.502.058-.616c.035-.113.092-.169.17-.169h.744l.094-.135c.043-.063.074-.112.094-.147v-6.515h1.558v3.644c0 .574-.042 1.067-.128 1.477.894-1.192 1.86-1.787 2.9-1.787.707 0 1.273.232 1.7.697.429.461.644 1.035.644 1.723 0 .3-.034.572-.1.814s-.19.479-.37.709a2.165 2.165 0 0 1-.696.574c-.29.153-.668.276-1.137.369a8.302 8.302 0 0 1-1.629.141h-3.674zm2.578-1.564h1.442c.289 0 .54-.014.756-.041.215-.032.41-.083.586-.153a.843.843 0 0 0 .398-.304.872.872 0 0 0 .14-.504c0-.278-.083-.5-.251-.668-.164-.172-.387-.258-.668-.258-.336 0-.71.154-1.12.463-.406.304-.833.793-1.283 1.465z" fill="#fff"/><defs><linearGradient id="b" x1="104" y1="274" x2="204" y2="274" gradientUnits="userSpaceOnUse"><stop stop-color="#F77062"/><stop offset="1" stop-color="#FE5196"/></linearGradient><filter id="a" x="0" y="0" width="108" height="188" filterUnits="userSpaceOnUse" color-interpolation-filters="sRGB"><feFlood flood-opacity="0" result="BackgroundImageFix"/><feColorMatrix in="SourceAlpha" values="0 0 0 0 0 0 0 0 0 0 0 0 0 0 0 0 0 0 127 0" result="hardAlpha"/><feOffset/><feGaussianBlur stdDeviation="2"/><feComposite in2="hardAlpha" operator="out"/><feColorMatrix values="0 0 0 0 0 0 0 0 0 0 0 0 0 0 0 0 0 0 0.25 0"/><feBlend in2="BackgroundImageFix" result="effect1_dropShadow_75_4977"/><feBlend in="SourceGraphic" in2="effect1_dropShadow_75_4977" result="shape"/></filter></defs></svg>