<svg width="108" height="188" fill="none" xmlns="http://www.w3.org/2000/svg"><g filter="url(#a)"><rect x="104" y="184" width="100" height="180" rx="50" transform="rotate(180 104 184)" fill="url(#b)"/><rect x="103" y="183" width="98" height="178" rx="49" transform="rotate(180 103 183)" stroke="#FBFBFB" stroke-width="2"/></g><path d="M43.006 103.282 24.14 116.99c-2.412 1.393-8.139-2.531-8.139-5.317L16 87.845c0-2.786 1.956-6.173 4.368-7.566l20.636-11.913c2.412-1.393 8.431 1.468 8.457 3.945l-2.088 23.405c.001 2.786-1.954 6.174-4.367 7.566z" fill="#B4ECFF"/><path d="M17.272 83.555C16.486 84.92 16 86.458 16 87.845l.001 23.829c0 2.786 5.726 6.71 8.139 5.317l18.866-13.708c1.231-.711 2.342-1.942 3.136-3.347-8.916-5.051-19.451-12.092-28.87-16.381z" fill="#3FA9F5"/><path d="M17.272 83.555C16.486 84.92 16 86.458 16 87.845l.001 23.829c0 2.786 5.726 6.71 8.139 5.317l18.866-13.708c1.231-.711 2.342-1.942 3.136-3.347-8.916-5.051-19.451-12.092-28.87-16.381z" fill="#3FA9F5"/><path d="M17.272 83.555C16.486 84.92 16 86.458 16 87.845l.001 23.829c0 2.786 5.726 6.71 8.139 5.317l18.866-13.708c1.231-.711 2.342-1.942 3.136-3.347-8.916-5.051-19.451-12.092-28.87-16.381z" fill="#95D0F9"/><path d="M45.323 104.827 24.687 116.74c-2.412 1.393-4.368.264-4.368-2.522l-.001-23.828c0-2.786 1.956-6.173 4.368-7.566L45.322 70.91c2.413-1.393 4.368-.264 4.368 2.522V97.26c0 2.786-1.955 6.173-4.367 7.566z" fill="#3FA9F5"/><path d="M22.613 101.245c-.195.113-.36.131-.493.054-.134-.077-.2-.228-.2-.454V90.421c0-.236.066-.465.2-.685.133-.231.297-.403.493-.516l2.667-1.54c.666-.385 1.258-.557 1.773-.516.516.041.916.283 1.2.724.294.426.44 1.03.44 1.81 0 .749-.146 1.5-.44 2.255a7.305 7.305 0 0 1-1.2 2.063 6.496 6.496 0 0 1-1.773 1.517l-1.974 1.14v3.371c0 .226-.066.455-.2.686a1.31 1.31 0 0 1-.493.515zm.693-6.05 1.974-1.14a3.873 3.873 0 0 0 1.08-.932c.311-.385.556-.808.733-1.27.178-.462.267-.924.267-1.386 0-.493-.089-.872-.267-1.14a.97.97 0 0 0-.733-.469c-.311-.036-.671.064-1.08.3l-1.974 1.14v4.896zm7.615 1.254c-.195.113-.36.13-.493.054-.134-.077-.2-.229-.2-.455V85.624c0-.236.066-.464.2-.685.133-.23.297-.403.493-.516.204-.118.369-.136.493-.054.133.067.2.219.2.455v4.419l6.187-3.572v-4.42c0-.236.067-.464.2-.685.133-.23.298-.403.493-.516.205-.118.37-.136.494-.053.124.071.186.225.186.462v10.423c0 .226-.061.452-.186.678a1.307 1.307 0 0 1-.493.516c-.196.113-.36.13-.493.054-.134-.077-.2-.229-.2-.454v-4.589l-6.188 3.572v4.589c0 .225-.066.454-.2.685a1.308 1.308 0 0 1-.493.516zm11.615-6.707c-.195.113-.36.131-.493.054-.133-.077-.2-.228-.2-.454V78.918c0-.236.066-.465.2-.685.133-.231.297-.403.493-.516l2.667-1.54c.666-.385 1.258-.557 1.773-.516.516.041.916.283 1.2.724.294.426.44 1.03.44 1.81 0 .749-.146 1.5-.44 2.255a7.304 7.304 0 0 1-1.2 2.063 6.496 6.496 0 0 1-1.773 1.517l-1.974 1.14v3.371c0 .226-.066.455-.2.686a1.308 1.308 0 0 1-.493.515zm.694-6.05 1.973-1.14a3.872 3.872 0 0 0 1.08-.932c.311-.385.556-.808.733-1.27.178-.462.267-.924.267-1.386 0-.492-.089-.872-.267-1.14a.97.97 0 0 0-.733-.469c-.311-.036-.671.064-1.08.3l-1.974 1.14v4.896z" fill="#fff"/><path opacity=".7" d="M49.69 79.79v-6.357c0-2.786-1.956-3.915-4.368-2.522L24.686 82.824c-2.413 1.393-4.368 4.78-4.368 7.566v16.828C28.603 95.013 38.865 85.124 49.69 79.79z" fill="url(#c)"/><path d="M84.697 103.282 65.83 116.99c-2.413 1.393-8.14-2.531-8.14-5.317V87.845c0-2.786 1.956-6.173 4.368-7.566l20.636-11.913c2.412-1.393 8.43 1.468 8.457 3.945l-2.088 23.405c0 2.786-1.955 6.173-4.367 7.566z" fill="#FFBCBE"/><path d="M58.963 83.554c-.786 1.366-1.271 2.903-1.271 4.291v23.828c0 2.786 5.727 6.71 8.14 5.317l18.866-13.708c1.23-.711 2.342-1.942 3.136-3.347-8.918-5.05-19.452-12.092-28.871-16.38z" fill="#FF6469"/><path d="M58.963 83.554c-.786 1.366-1.271 2.903-1.271 4.291v23.828c0 2.786 5.727 6.71 8.14 5.317l18.866-13.708c1.23-.711 2.342-1.942 3.136-3.347-8.918-5.05-19.452-12.092-28.871-16.38z" fill="#FFAAAC"/><path d="m87.013 104.826-20.636 11.913c-2.412 1.393-4.368.264-4.368-2.522l-.001-23.828c0-2.786 1.956-6.173 4.368-7.566L87.012 70.91c2.413-1.393 4.368-.264 4.368 2.522V97.26c0 2.786-1.955 6.173-4.367 7.566z" fill="#FF7B80"/><path d="M73.95 98.375c-.622.36-1.178.526-1.667.5a1.473 1.473 0 0 1-1.133-.654c-.267-.41-.4-.975-.4-1.693 0-.236.067-.465.2-.686.133-.23.298-.402.493-.515.205-.118.37-.136.493-.054.134.067.2.218.2.454 0 .441.076.788.227 1.04.16.246.374.39.64.43.276.026.591-.064.947-.269a3.37 3.37 0 0 0 .947-.824c.275-.354.489-.744.64-1.17.16-.431.24-.867.24-1.309v-7.683c0-.236.062-.462.186-.677.134-.231.298-.403.494-.516.204-.118.373-.139.506-.062.134.067.2.218.2.454v7.684c0 .718-.137 1.44-.413 2.163a7.3 7.3 0 0 1-1.133 1.963 6.074 6.074 0 0 1-1.667 1.424zm9.187-5.304c-.569.329-1.111.54-1.627.631-.515.093-.964.065-1.347-.084a1.501 1.501 0 0 1-.84-.793c-.088-.164-.088-.365 0-.6.098-.242.258-.452.48-.632.16-.133.316-.193.467-.177.16 0 .28.074.36.223.107.195.28.331.52.408.25.072.547.075.894.008.346-.067.71-.21 1.093-.431a5.55 5.55 0 0 0 1.173-.909c.365-.364.658-.754.88-1.17.223-.426.334-.854.334-1.285 0-.545-.187-.924-.56-1.14-.365-.22-.97-.139-1.814.246-1.102.514-1.969.64-2.6.378s-.947-.855-.947-1.779c0-.677.165-1.347.494-2.01a7.21 7.21 0 0 1 1.333-1.847 8.955 8.955 0 0 1 1.893-1.463c.543-.313 1.014-.497 1.414-.554.409-.061.764-.025 1.067.108a2 2 0 0 1 .786.639.72.72 0 0 1 .147.562 1.177 1.177 0 0 1-.253.608c-.17.22-.352.352-.547.393-.196.04-.342-.008-.44-.147a1.179 1.179 0 0 0-.52-.454c-.205-.087-.445-.108-.72-.061-.276.036-.6.161-.974.377a5.619 5.619 0 0 0-1.653 1.386c-.444.544-.667 1.119-.667 1.724 0 .308.067.567.2.778.142.195.396.29.76.285.374-.01.907-.175 1.6-.493 1.058-.488 1.88-.588 2.467-.3.596.272.894.916.894 1.932 0 .585-.107 1.155-.32 1.71a6.9 6.9 0 0 1-.84 1.577 8.052 8.052 0 0 1-1.2 1.34c-.445.4-.907.739-1.387 1.016z" fill="#fff"/><path opacity=".7" d="M91.38 79.79v-6.357c0-2.786-1.956-3.915-4.368-2.522L66.376 82.824c-2.413 1.393-4.368 4.78-4.368 7.566v16.828C70.293 95.012 80.555 85.124 91.38 79.79z" fill="url(#d)"/><path d="M31.371 146.436V148H30.2c.52.34.78.758.78 1.254 0 .473-.176.885-.528 1.236-.351.356-.816.621-1.394.797-.578.18-1.223.27-1.934.27-1.297 0-2.283-.297-2.959-.891-.676-.59-1.014-1.473-1.014-2.648 0-.985.186-2.155.557-3.51l1.441.392c-.328 1.293-.492 2.301-.492 3.024 0 .738.205 1.267.616 1.588.41.324 1.058.486 1.945.486.437 0 .828-.035 1.172-.105.347-.067.634-.182.861-.346.227-.16.34-.358.34-.592 0-.273-.184-.471-.55-.592-.368-.117-1.067-.238-2.099-.363l.223-1.564h4.207zm7.072 0c.27 0 .467-.075.592-.223.125-.149.188-.379.188-.692 0-.292-.07-.837-.211-1.634l1.517-.317.14 1.02c.075.512.173.896.294 1.154.125.258.293.438.504.539.215.102.515.153.902.153h.006V148h-.006c-.574 0-1.04-.102-1.4-.305a1.392 1.392 0 0 1-.68-.89c-.07.379-.25.674-.539.884-.29.207-.656.311-1.102.311-.425 0-.779-.09-1.06-.27a1.452 1.452 0 0 1-.592-.773c-.246.695-.797 1.043-1.652 1.043-.895 0-1.446-.371-1.653-1.113-.156.336-.423.605-.802.808a2.628 2.628 0 0 1-1.272.305h-.246c-.148 0-.223-.268-.223-.803 0-.273.018-.468.053-.586.035-.117.092-.175.17-.175h.246c.469 0 .815-.104 1.037-.311.227-.207.364-.555.41-1.043l.106-1.195 1.564.123-.123 1.342c-.07.703.188 1.064.774 1.084.27.007.474-.067.615-.223.145-.16.23-.412.258-.756l.105-1.26 1.371.1-.082 1.137c-.05.668.213 1.002.791 1.002zm6.645-3.51c.246 1.015.369 1.836.369 2.461 0 .828-.229 1.47-.685 1.927-.457.457-1.174.686-2.15.686h-.247c-.078 0-.135-.055-.17-.164-.035-.113-.053-.318-.053-.615s.018-.502.053-.616c.035-.113.092-.169.17-.169h.246c.457 0 .79-.1.996-.299.207-.199.31-.506.31-.92 0-.371-.103-1-.31-1.887l1.47-.404zm-2.004 7.107 1.037-1.037 1.031 1.037-1.03 1.026-1.038-1.026zm-2.05 0 1.036-1.037 1.032 1.037-1.032 1.026-1.037-1.026zm8.712-3.609c-.11-1.305-.45-1.957-1.02-1.957-.273 0-.482.127-.626.381-.145.254-.217.564-.217.931 0 .239.07.409.21.51.145.098.372.147.68.147.454 0 .778-.004.973-.012zM49.553 148h-.973c-.656 0-1.166-.176-1.53-.527-.362-.356-.544-.873-.544-1.553a3.749 3.749 0 0 1 .346-1.635c.12-.258.267-.484.439-.68a1.86 1.86 0 0 1 .639-.474 1.95 1.95 0 0 1 .826-.176c.332 0 .63.065.896.193.27.125.49.295.663.51.175.211.324.471.445.78.125.304.218.619.281.943.063.32.106.672.129 1.055h.504V148h-.563c-.14.793-.554 1.471-1.242 2.033-.687.563-1.648 1.031-2.883 1.406l-.656-1.418c1.824-.531 2.898-1.205 3.223-2.021zm4.828-5.074c.246 1.015.369 1.836.369 2.461 0 .828-.228 1.47-.685 1.927-.458.457-1.174.686-2.15.686h-.247c-.078 0-.135-.055-.17-.164-.035-.113-.053-.318-.053-.615s.018-.502.053-.616c.035-.113.092-.169.17-.169h.246c.457 0 .79-.1.996-.299.207-.199.31-.506.31-.92 0-.371-.103-1-.31-1.887l1.47-.404zm-2.35-1.858 1.037-1.037 1.032 1.037-1.032 1.026-1.037-1.026zm9.399 1.459-.07-1.007 1.564-.094.217 3.785c.027.441.138.756.334.943.199.188.552.282 1.06.282h.012V148h-.012c-.648 0-1.174-.082-1.576-.246a1.918 1.918 0 0 1-.92-.756 3.637 3.637 0 0 1-1.242.217c-.453 0-.861-.063-1.225-.188a1.965 1.965 0 0 1-.89-.615c-.23-.285-.346-.631-.346-1.037a2.421 2.421 0 0 1 .896-1.91c.286-.235.612-.43.979-.586a5.694 5.694 0 0 1 1.219-.352zm.1 1.43c-.583.047-1.02.182-1.313.404-.29.219-.434.469-.434.75 0 .203.096.368.287.493.196.125.479.187.85.187.273 0 .525-.031.756-.094a2.32 2.32 0 0 1-.065-.404l-.082-1.336zm3.017 2.479c.172 0 .332-.032.48-.094.149-.063.274-.135.375-.217.102-.086.207-.209.317-.369.11-.16.195-.297.258-.41.062-.114.144-.274.246-.481l.21-.41c.051-.098.124-.223.217-.375.094-.156.178-.277.252-.363.079-.09.174-.19.287-.299.118-.109.233-.191.346-.246a2.026 2.026 0 0 1 .902-.205c.438 0 .835.133 1.19.398.355.266.627.608.814 1.026.188.418.282.863.282 1.336 0 .714-.194 1.283-.58 1.705-.387.418-.922.627-1.606.627a2.74 2.74 0 0 1-1.178-.264c-.375-.18-.68-.42-.914-.721a2.658 2.658 0 0 1-.814.692c-.3.156-.662.234-1.084.234-.078 0-.135-.055-.17-.164-.035-.113-.053-.318-.053-.615s.018-.502.053-.616c.035-.113.092-.169.17-.169zm2.695-.563c.406.418.84.627 1.301.627.21 0 .39-.066.539-.199.149-.137.223-.328.223-.574 0-.329-.09-.614-.27-.856-.18-.242-.385-.363-.615-.363a.791.791 0 0 0-.574.252c-.164.168-.327.445-.487.832l-.117.281zm4.81-6.234h1.571v5.549c0 .464.096.789.287.972.196.184.555.276 1.078.276V148c-.941 0-1.666-.234-2.174-.703-.507-.473-.761-1.166-.761-2.08v-5.578zm5.65 3.287c.245 1.015.368 1.836.368 2.461 0 .828-.228 1.47-.685 1.927-.457.457-1.174.686-2.15.686h-.247c-.078 0-.135-.055-.17-.164-.035-.113-.052-.318-.052-.615s.017-.502.052-.616c.035-.113.092-.169.17-.169h.246c.457 0 .79-.1.997-.299.207-.199.31-.506.31-.92 0-.371-.103-1-.31-1.887l1.47-.404zm-2.35-1.858 1.037-1.037 1.03 1.037-1.03 1.026-1.037-1.026zm4.605 3.129 1.488-.504.375 1.266c.094.324.182.576.264.756.086.18.191.328.316.445a.963.963 0 0 0 .434.223c.16.035.373.053.639.053h.011V148h-.011c-.641 0-1.121-.172-1.442-.516-.058.93-.383 1.709-.972 2.338-.59.629-1.506 1.174-2.748 1.635l-.674-1.406c1.058-.383 1.808-.795 2.25-1.237.445-.437.668-1.005.668-1.705 0-.722-.2-1.693-.598-2.912zm6.24-1.271c.246 1.015.37 1.836.37 2.461 0 .828-.23 1.47-.686 1.927-.457.457-1.174.686-2.15.686h-.247c-.078 0-.134-.055-.17-.164-.035-.113-.052-.318-.052-.615s.017-.502.052-.616c.036-.113.092-.169.17-.169h.247c.457 0 .788-.1.996-.299.207-.199.31-.506.31-.92 0-.371-.103-1-.31-1.887l1.47-.404zm-2.918 7.107 1.037-1.037 1.032 1.037-1.032 1.026-1.037-1.026z" fill="#fff"/><defs><linearGradient id="b" x1="104" y1="274" x2="204" y2="274" gradientUnits="userSpaceOnUse"><stop stop-color="#16D9E3"/><stop offset=".47" stop-color="#30C7EC"/><stop offset="1" stop-color="#46AEF7"/></linearGradient><linearGradient id="c" x1="41.536" y1="109.674" x2="23.863" y2="56.254" gradientUnits="userSpaceOnUse"><stop stop-color="#EDFAFF"/><stop offset="1" stop-color="#30384F" stop-opacity="0"/></linearGradient><linearGradient id="d" x1="83.227" y1="109.674" x2="65.553" y2="56.254" gradientUnits="userSpaceOnUse"><stop stop-color="#EDFAFF"/><stop offset="1" stop-color="#30384F" stop-opacity="0"/></linearGradient><filter id="a" x="0" y="0" width="108" height="188" filterUnits="userSpaceOnUse" color-interpolation-filters="sRGB"><feFlood flood-opacity="0" result="BackgroundImageFix"/><feColorMatrix in="SourceAlpha" values="0 0 0 0 0 0 0 0 0 0 0 0 0 0 0 0 0 0 127 0" result="hardAlpha"/><feOffset/><feGaussianBlur stdDeviation="2"/><feComposite in2="hardAlpha" operator="out"/><feColorMatrix values="0 0 0 0 0 0 0 0 0 0 0 0 0 0 0 0 0 0 0.25 0"/><feBlend in2="BackgroundImageFix" result="effect1_dropShadow_75_5740"/><feBlend in="SourceGraphic" in2="effect1_dropShadow_75_5740" result="shape"/></filter></defs></svg>