<svg width="108" height="188" viewBox="0 0 108 188" fill="none" xmlns="http://www.w3.org/2000/svg">
<g filter="url(#filter0_d_75_5740)">
<rect x="104" y="184" width="100" height="180" rx="50" transform="rotate(180 104 184)" fill="url(#paint0_linear_75_5740)"/>
<rect x="103" y="183" width="98" height="178" rx="49" transform="rotate(180 103 183)" stroke="#FBFBFB" stroke-width="2"/>
</g>
<path d="M43.006 103.282L24.14 116.99C21.728 118.383 16.001 114.459 16.001 111.673L16 87.8448C16 85.0588 17.956 81.6718 20.368 80.2788L41.004 68.3658C43.416 66.9728 49.435 69.8338 49.461 72.3108L47.373 95.7158C47.374 98.5018 45.419 101.89 43.006 103.282Z" fill="#B4ECFF"/>
<path d="M17.272 83.5547C16.486 84.9207 16 86.4577 16 87.8457L16.001 111.674C16.001 114.46 21.727 118.384 24.14 116.991L43.006 103.283C44.237 102.572 45.348 101.341 46.142 99.9357C37.226 94.8847 26.691 87.8437 17.272 83.5547Z" fill="#3FA9F5"/>
<path d="M17.272 83.5547C16.486 84.9207 16 86.4577 16 87.8457L16.001 111.674C16.001 114.46 21.727 118.384 24.14 116.991L43.006 103.283C44.237 102.572 45.348 101.341 46.142 99.9357C37.226 94.8847 26.691 87.8437 17.272 83.5547Z" fill="#3FA9F5"/>
<path d="M17.272 83.5547C16.486 84.9207 16 86.4577 16 87.8457L16.001 111.674C16.001 114.46 21.727 118.384 24.14 116.991L43.006 103.283C44.237 102.572 45.348 101.341 46.142 99.9357C37.226 94.8847 26.691 87.8437 17.272 83.5547Z" fill="#95D0F9"/>
<path d="M45.3229 104.827L24.6869 116.74C22.2749 118.133 20.3189 117.004 20.3189 114.218L20.3179 90.3897C20.3179 87.6037 22.2739 84.2167 24.6859 82.8237L45.3219 70.9107C47.7349 69.5177 49.6899 70.6467 49.6899 73.4327L49.6909 97.2607C49.6909 100.047 47.7349 103.434 45.3229 104.827Z" fill="#3FA9F5"/>
<path d="M22.6132 101.245C22.4177 101.358 22.2532 101.376 22.1199 101.299C21.9865 101.222 21.9198 101.071 21.9198 100.845L21.9194 90.421C21.9194 90.1849 21.9861 89.9565 22.1194 89.7358C22.2527 89.5048 22.4172 89.3329 22.6128 89.22L25.2796 87.6802C25.9463 87.2953 26.5375 87.1233 27.0531 87.1644C27.5687 87.2055 27.9687 87.4467 28.2532 87.8881C28.5466 88.3141 28.6933 88.9171 28.6933 89.6973C28.6933 90.4466 28.5467 91.1985 28.2534 91.953C27.9689 92.7023 27.5689 93.3901 27.0533 94.0162C26.5378 94.6424 25.9466 95.148 25.2799 95.5329L23.3065 96.6723L23.3066 100.044C23.3066 100.27 23.2399 100.499 23.1066 100.73C22.9822 100.955 22.8177 101.127 22.6132 101.245ZM23.3064 95.1941L25.2799 94.0547C25.6888 93.8186 26.0488 93.5081 26.3599 93.1232C26.671 92.7383 26.9155 92.3148 27.0933 91.8529C27.271 91.391 27.3599 90.9291 27.3599 90.4671C27.3599 89.9744 27.271 89.5946 27.0931 89.3277C26.9153 89.0506 26.6709 88.894 26.3597 88.8581C26.0486 88.8222 25.6886 88.9223 25.2797 89.1584L23.3062 90.2978L23.3064 95.1941ZM30.921 96.4487C30.7255 96.5616 30.561 96.5796 30.4277 96.5026C30.2943 96.4256 30.2276 96.2742 30.2276 96.0483L30.2272 85.6243C30.2272 85.3882 30.2939 85.1598 30.4272 84.9391C30.5605 84.7082 30.725 84.5362 30.9206 84.4233C31.125 84.3053 31.2895 84.2873 31.4139 84.3694C31.5473 84.4361 31.614 84.5875 31.614 84.8236L31.6142 89.2427L37.8012 85.6705L37.801 81.2514C37.801 81.0153 37.8677 80.787 38.001 80.5663C38.1343 80.3353 38.2988 80.1634 38.4944 80.0504C38.6988 79.9324 38.8633 79.9144 38.9877 79.9966C39.1122 80.0684 39.1744 80.2224 39.1744 80.4585L39.1749 90.8825C39.1749 91.1083 39.1126 91.3342 38.9882 91.56C38.8638 91.7858 38.6993 91.9578 38.4948 92.0758C38.2993 92.1887 38.1348 92.2067 38.0015 92.1297C37.8681 92.0527 37.8014 91.9013 37.8014 91.6755L37.8013 87.0871L31.6142 90.6593L31.6144 95.2477C31.6144 95.4735 31.5477 95.7019 31.4144 95.9329C31.29 96.1587 31.1255 96.3306 30.921 96.4487ZM42.5363 89.7424C42.3408 89.8553 42.1763 89.8733 42.043 89.7963C41.9096 89.7193 41.8429 89.5679 41.8429 89.3421L41.8425 78.918C41.8425 78.6819 41.9092 78.4535 42.0425 78.2328C42.1758 78.0019 42.3403 77.8299 42.5359 77.717L45.2027 76.1773C45.8694 75.7923 46.4606 75.6204 46.9762 75.6615C47.4918 75.7025 47.8918 75.9437 48.1763 76.3851C48.4697 76.8111 48.6164 77.4142 48.6164 78.1943C48.6164 78.9437 48.4698 79.6956 48.1764 80.4501C47.892 81.1994 47.492 81.8871 46.9764 82.5133C46.4609 83.1395 45.8697 83.645 45.203 84.0299L43.2295 85.1694L43.2297 88.5414C43.2297 88.7672 43.163 88.9956 43.0297 89.2266C42.9052 89.4524 42.7408 89.6243 42.5363 89.7424ZM43.2295 83.6912L45.2029 82.5518C45.6119 82.3157 45.9719 82.0052 46.283 81.6203C46.5941 81.2353 46.8386 80.8119 47.0163 80.35C47.1941 79.888 47.283 79.4261 47.283 78.9642C47.283 78.4715 47.194 78.0917 47.0162 77.8248C46.8384 77.5476 46.594 77.3911 46.2828 77.3552C45.9717 77.3192 45.6117 77.4193 45.2027 77.6554L43.2293 78.7948L43.2295 83.6912Z" fill="white"/>
<path opacity="0.7" d="M49.6899 79.7897V73.4327C49.6899 70.6467 47.7339 69.5177 45.3219 70.9107L24.6859 82.8237C22.2729 84.2167 20.3179 87.6037 20.3179 90.3897L20.3189 107.218C28.6019 95.0127 38.8639 85.1237 49.6899 79.7897Z" fill="url(#paint1_linear_75_5740)"/>
<path d="M84.6969 103.282L65.8309 116.99C63.4179 118.383 57.6919 114.459 57.6919 111.673L57.6909 87.8453C57.6909 85.0593 59.6469 81.6723 62.0589 80.2793L82.6949 68.3663C85.1069 66.9733 91.1259 69.8343 91.1519 72.3113L89.0639 95.7163C89.0649 98.5023 87.1089 101.889 84.6969 103.282Z" fill="#FFBCBE"/>
<path d="M58.9629 83.5542C58.1769 84.9202 57.6919 86.4572 57.6919 87.8452L57.6929 111.673C57.6929 114.459 63.4189 118.383 65.8319 116.99L84.6979 103.282C85.9289 102.571 87.0399 101.34 87.8339 99.9352C78.9159 94.8842 68.3819 87.8432 58.9629 83.5542Z" fill="#FF6469"/>
<path d="M58.9629 83.5542C58.1769 84.9202 57.6919 86.4572 57.6919 87.8452L57.6929 111.673C57.6929 114.459 63.4189 118.383 65.8319 116.99L84.6979 103.282C85.9289 102.571 87.0399 101.34 87.8339 99.9352C78.9159 94.8842 68.3819 87.8432 58.9629 83.5542Z" fill="#FFAAAC"/>
<path d="M87.0128 104.826L66.3768 116.739C63.9648 118.132 62.0088 117.003 62.0088 114.217L62.0078 90.3892C62.0078 87.6032 63.9638 84.2162 66.3758 82.8232L87.0118 70.9102C89.4248 69.5172 91.3798 70.6462 91.3798 73.4322L91.3808 97.2602C91.3808 100.046 89.4248 103.433 87.0128 104.826Z" fill="#FF7B80"/>
<path d="M73.9502 98.3754C73.3279 98.7346 72.7723 98.9014 72.2834 98.8758C71.8033 98.8347 71.4255 98.6166 71.1499 98.2214C70.8832 97.8108 70.7499 97.2462 70.7498 96.5277C70.7498 96.2916 70.8165 96.0632 70.9498 95.8425C71.0832 95.6115 71.2476 95.4396 71.4432 95.3267C71.6476 95.2086 71.8121 95.1907 71.9365 95.2728C72.0699 95.3395 72.1366 95.4909 72.1366 95.727C72.1366 96.1684 72.2122 96.5149 72.3633 96.7663C72.5233 97.0127 72.7367 97.1564 73.0034 97.1975C73.279 97.2231 73.5945 97.1333 73.9501 96.928C74.3057 96.7227 74.6213 96.4481 74.8968 96.1043C75.1724 95.7501 75.3857 95.36 75.5368 94.9341C75.6968 94.5029 75.7768 94.0667 75.7768 93.6253L75.7765 85.942C75.7765 85.7059 75.8387 85.48 75.9632 85.2645C76.0965 85.0335 76.2609 84.8616 76.4565 84.7487C76.661 84.6306 76.8299 84.6101 76.9632 84.6871C77.0966 84.7538 77.1632 84.9052 77.1632 85.1413L77.1636 92.8246C77.1636 93.5432 77.0258 94.2643 76.7503 94.9879C76.4747 95.7014 76.0969 96.3557 75.6169 96.9511C75.1369 97.5362 74.5813 98.011 73.9502 98.3754ZM83.1371 93.0711C82.5682 93.3996 82.0259 93.6101 81.5103 93.7024C80.9947 93.7948 80.5458 93.7666 80.1635 93.6178C79.7813 93.4689 79.5012 93.2046 79.3234 92.8248C79.2345 92.6606 79.2345 92.4604 79.3234 92.2243C79.4212 91.9831 79.5812 91.7726 79.8034 91.593C79.9634 91.4596 80.119 91.4005 80.2701 91.4159C80.4301 91.4159 80.5501 91.4903 80.6302 91.6392C80.7368 91.8342 80.9102 91.9702 81.1502 92.0472C81.3991 92.1191 81.6969 92.1216 82.0436 92.0549C82.3903 91.9882 82.7548 91.8445 83.137 91.6238C83.5637 91.3774 83.9549 91.0746 84.3104 90.7153C84.6749 90.3509 84.9682 89.9609 85.1905 89.5451C85.4127 89.1191 85.5238 88.6906 85.5238 88.2595C85.5237 87.7154 85.337 87.3356 84.9637 87.1201C84.5992 86.8994 83.9947 86.9815 83.1502 87.3664C82.0479 87.8797 81.1812 88.0054 80.55 87.7436C79.9188 87.4819 79.6032 86.8891 79.6032 85.9652C79.6031 85.2878 79.7676 84.618 80.0965 83.9559C80.4254 83.2938 80.8698 82.6779 81.4298 82.1082C81.9988 81.5334 82.6299 81.0458 83.3233 80.6454C83.8655 80.3324 84.3367 80.1476 84.7367 80.0911C85.1456 80.0295 85.5012 80.0655 85.8035 80.1989C86.1057 80.3324 86.368 80.5454 86.5902 80.8379C86.7147 80.9919 86.7636 81.1792 86.7369 81.3999C86.7192 81.6052 86.6347 81.8079 86.4836 82.0081C86.3147 82.2288 86.1325 82.3597 85.9369 82.4007C85.7413 82.4418 85.5946 82.3931 85.4969 82.2545C85.3546 82.0389 85.1813 81.8875 84.9768 81.8003C84.7723 81.713 84.5323 81.6925 84.2567 81.7387C83.9812 81.7746 83.6567 81.9003 83.2833 82.1159C82.6255 82.4854 82.0744 82.9474 81.6299 83.5017C81.1855 84.0457 80.9632 84.6205 80.9633 85.2262C80.9633 85.5341 81.03 85.7933 81.1633 86.0037C81.3055 86.1988 81.5589 86.2937 81.9234 86.2886C82.2967 86.2783 82.8301 86.1141 83.5235 85.7959C84.5813 85.3083 85.4036 85.2082 85.9904 85.4956C86.586 85.7676 86.8838 86.4118 86.8838 87.428C86.8839 88.0131 86.7772 88.5828 86.5639 89.1371C86.3594 89.6863 86.0794 90.2124 85.7239 90.7153C85.3772 91.2029 84.9772 91.6495 84.5238 92.0549C84.0794 92.4553 83.6171 92.794 83.1371 93.0711Z" fill="white"/>
<path opacity="0.7" d="M91.3798 79.7902V73.4332C91.3798 70.6472 89.4238 69.5182 87.0118 70.9112L66.3758 82.8242C63.9628 84.2172 62.0078 87.6042 62.0078 90.3902L62.0088 107.218C70.2918 95.0122 80.5538 85.1242 91.3798 79.7902Z" fill="url(#paint2_linear_75_5740)"/>
<path d="M31.3711 146.436V148H30.1992C30.7188 148.34 30.9785 148.758 30.9785 149.254C30.9785 149.727 30.8027 150.139 30.4512 150.49C30.0996 150.846 29.6348 151.111 29.0566 151.287C28.4785 151.467 27.834 151.557 27.123 151.557C25.8262 151.557 24.8398 151.26 24.1641 150.666C23.4883 150.076 23.1504 149.193 23.1504 148.018C23.1504 147.033 23.3359 145.863 23.707 144.508L25.1484 144.9C24.8203 146.193 24.6562 147.201 24.6562 147.924C24.6562 148.662 24.8613 149.191 25.2715 149.512C25.6816 149.836 26.3301 149.998 27.2168 149.998C27.6543 149.998 28.0449 149.963 28.3887 149.893C28.7363 149.826 29.0234 149.711 29.25 149.547C29.4766 149.387 29.5898 149.189 29.5898 148.955C29.5898 148.682 29.4062 148.484 29.0391 148.363C28.6719 148.246 27.9727 148.125 26.9414 148L27.1641 146.436H31.3711ZM38.4434 146.436C38.7129 146.436 38.9102 146.361 39.0352 146.213C39.1602 146.064 39.2227 145.834 39.2227 145.521C39.2227 145.229 39.1523 144.684 39.0117 143.887L40.5293 143.57L40.6699 144.59C40.7441 145.102 40.8418 145.486 40.9629 145.744C41.0879 146.002 41.2559 146.182 41.4668 146.283C41.6816 146.385 41.9824 146.436 42.3691 146.436H42.375V148H42.3691C41.7949 148 41.3281 147.898 40.9688 147.695C40.6133 147.488 40.3867 147.191 40.2891 146.805C40.2188 147.184 40.0391 147.479 39.75 147.689C39.4609 147.896 39.0938 148 38.6484 148C38.2227 148 37.8691 147.91 37.5879 147.73C37.3066 147.547 37.1094 147.289 36.9961 146.957C36.75 147.652 36.1992 148 35.3438 148C34.4492 148 33.8984 147.629 33.6914 146.887C33.5352 147.223 33.2676 147.492 32.8887 147.695C32.5137 147.898 32.0898 148 31.6172 148H31.3711C31.2227 148 31.1484 147.732 31.1484 147.197C31.1484 146.924 31.166 146.729 31.2012 146.611C31.2363 146.494 31.293 146.436 31.3711 146.436H31.6172C32.0859 146.436 32.4316 146.332 32.6543 146.125C32.8809 145.918 33.0176 145.57 33.0645 145.082L33.1699 143.887L34.7344 144.01L34.6113 145.352C34.541 146.055 34.7988 146.416 35.3848 146.436C35.6543 146.443 35.8594 146.369 36 146.213C36.1445 146.053 36.2305 145.801 36.2578 145.457L36.3633 144.197L37.7344 144.297L37.6523 145.434C37.6016 146.102 37.8652 146.436 38.4434 146.436ZM45.0879 142.926C45.334 143.941 45.457 144.762 45.457 145.387C45.457 146.215 45.2285 146.857 44.7715 147.314C44.3145 147.771 43.5977 148 42.6211 148H42.375C42.2969 148 42.2402 147.945 42.2051 147.836C42.1699 147.723 42.1523 147.518 42.1523 147.221C42.1523 146.924 42.1699 146.719 42.2051 146.605C42.2402 146.492 42.2969 146.436 42.375 146.436H42.6211C43.0781 146.436 43.4102 146.336 43.6172 146.137C43.8242 145.938 43.9277 145.631 43.9277 145.217C43.9277 144.846 43.8242 144.217 43.6172 143.33L45.0879 142.926ZM43.084 150.033L44.1211 148.996L45.1523 150.033L44.1211 151.059L43.084 150.033ZM41.0332 150.033L42.0703 148.996L43.1016 150.033L42.0703 151.059L41.0332 150.033ZM49.7461 146.424C49.6367 145.119 49.2969 144.467 48.7266 144.467C48.4531 144.467 48.2441 144.594 48.0996 144.848C47.9551 145.102 47.8828 145.412 47.8828 145.779C47.8828 146.018 47.9531 146.188 48.0938 146.289C48.2383 146.387 48.4648 146.436 48.7734 146.436C49.2266 146.436 49.5508 146.432 49.7461 146.424ZM49.5527 148H48.5801C47.9238 148 47.4141 147.824 47.0508 147.473C46.6875 147.117 46.5059 146.6 46.5059 145.92C46.5059 145.639 46.5332 145.359 46.5879 145.082C46.6465 144.805 46.7344 144.539 46.8516 144.285C46.9727 144.027 47.1191 143.801 47.291 143.605C47.4629 143.406 47.6758 143.248 47.9297 143.131C48.1836 143.014 48.459 142.955 48.7559 142.955C49.0879 142.955 49.3867 143.02 49.6523 143.148C49.9219 143.273 50.1426 143.443 50.3145 143.658C50.4902 143.869 50.6387 144.129 50.7598 144.438C50.8848 144.742 50.9785 145.057 51.041 145.381C51.1035 145.701 51.1465 146.053 51.1699 146.436H51.6738V148H51.1113C50.9707 148.793 50.5566 149.471 49.8691 150.033C49.1816 150.596 48.2207 151.064 46.9863 151.439L46.3301 150.021C48.1543 149.49 49.2285 148.816 49.5527 148ZM54.3809 142.926C54.627 143.941 54.75 144.762 54.75 145.387C54.75 146.215 54.5215 146.857 54.0645 147.314C53.6074 147.771 52.8906 148 51.9141 148H51.668C51.5898 148 51.5332 147.945 51.498 147.836C51.4629 147.723 51.4453 147.518 51.4453 147.221C51.4453 146.924 51.4629 146.719 51.498 146.605C51.5332 146.492 51.5898 146.436 51.668 146.436H51.9141C52.3711 146.436 52.7031 146.336 52.9102 146.137C53.1172 145.938 53.2207 145.631 53.2207 145.217C53.2207 144.846 53.1172 144.217 52.9102 143.33L54.3809 142.926ZM52.0312 141.068L53.0684 140.031L54.0996 141.068L53.0684 142.094L52.0312 141.068ZM61.4297 142.527L61.3594 141.52L62.9238 141.426L63.1406 145.211C63.168 145.652 63.2793 145.967 63.4746 146.154C63.6738 146.342 64.0273 146.436 64.5352 146.436H64.5469V148H64.5352C63.8867 148 63.3613 147.918 62.959 147.754C62.5605 147.59 62.2539 147.338 62.0391 146.998C61.6367 147.143 61.2227 147.215 60.7969 147.215C60.3438 147.215 59.9355 147.152 59.5723 147.027C59.2129 146.902 58.916 146.697 58.6816 146.412C58.4512 146.127 58.3359 145.781 58.3359 145.375C58.3359 144.988 58.4141 144.633 58.5703 144.309C58.7305 143.98 58.9512 143.699 59.2324 143.465C59.5176 143.23 59.8438 143.035 60.2109 142.879C60.582 142.723 60.9883 142.605 61.4297 142.527ZM61.5293 143.957C60.9473 144.004 60.5098 144.139 60.2168 144.361C59.9277 144.58 59.7832 144.83 59.7832 145.111C59.7832 145.314 59.8789 145.479 60.0703 145.604C60.2656 145.729 60.5488 145.791 60.9199 145.791C61.1934 145.791 61.4453 145.76 61.6758 145.697C61.6406 145.553 61.6191 145.418 61.6113 145.293L61.5293 143.957ZM64.5469 146.436C64.7188 146.436 64.8789 146.404 65.0273 146.342C65.1758 146.279 65.3008 146.207 65.4023 146.125C65.5039 146.039 65.6094 145.916 65.7188 145.756C65.8281 145.596 65.9141 145.459 65.9766 145.346C66.0391 145.232 66.1211 145.072 66.2227 144.865C66.3125 144.689 66.3828 144.553 66.4336 144.455C66.4844 144.357 66.5566 144.232 66.6504 144.08C66.7441 143.924 66.8281 143.803 66.9023 143.717C66.9805 143.627 67.0762 143.527 67.1895 143.418C67.3066 143.309 67.4219 143.227 67.5352 143.172C67.6523 143.113 67.7891 143.064 67.9453 143.025C68.1016 142.986 68.2656 142.967 68.4375 142.967C68.875 142.967 69.2715 143.1 69.627 143.365C69.9824 143.631 70.2539 143.973 70.4414 144.391C70.6289 144.809 70.7227 145.254 70.7227 145.727C70.7227 146.441 70.5293 147.01 70.1426 147.432C69.7559 147.85 69.2207 148.059 68.5371 148.059C68.127 148.059 67.7344 147.971 67.3594 147.795C66.9844 147.615 66.6797 147.375 66.4453 147.074C66.2031 147.375 65.9316 147.605 65.6309 147.766C65.3301 147.922 64.9688 148 64.5469 148C64.4688 148 64.4121 147.945 64.377 147.836C64.3418 147.723 64.3242 147.518 64.3242 147.221C64.3242 146.924 64.3418 146.719 64.377 146.605C64.4121 146.492 64.4688 146.436 64.5469 146.436ZM67.2422 145.873C67.6484 146.291 68.082 146.5 68.543 146.5C68.7539 146.5 68.9336 146.434 69.082 146.301C69.2305 146.164 69.3047 145.973 69.3047 145.727C69.3047 145.398 69.2148 145.113 69.0352 144.871C68.8555 144.629 68.6504 144.508 68.4199 144.508C68.2051 144.508 68.0137 144.592 67.8457 144.76C67.6816 144.928 67.5195 145.205 67.3594 145.592L67.2422 145.873ZM72.0527 139.639H73.623V145.188C73.623 145.652 73.7188 145.977 73.9102 146.16C74.1055 146.344 74.4648 146.436 74.9883 146.436V148C74.0469 148 73.3223 147.766 72.8145 147.297C72.3066 146.824 72.0527 146.131 72.0527 145.217V139.639ZM77.7012 142.926C77.9473 143.941 78.0703 144.762 78.0703 145.387C78.0703 146.215 77.8418 146.857 77.3848 147.314C76.9277 147.771 76.2109 148 75.2344 148H74.9883C74.9102 148 74.8535 147.945 74.8184 147.836C74.7832 147.723 74.7656 147.518 74.7656 147.221C74.7656 146.924 74.7832 146.719 74.8184 146.605C74.8535 146.492 74.9102 146.436 74.9883 146.436H75.2344C75.6914 146.436 76.0234 146.336 76.2305 146.137C76.4375 145.938 76.541 145.631 76.541 145.217C76.541 144.846 76.4375 144.217 76.2305 143.33L77.7012 142.926ZM75.3516 141.068L76.3887 140.031L77.4199 141.068L76.3887 142.094L75.3516 141.068ZM79.957 144.197L81.4453 143.693L81.8203 144.959C81.9141 145.283 82.002 145.535 82.084 145.715C82.1699 145.895 82.2754 146.043 82.4004 146.16C82.5293 146.273 82.6738 146.348 82.834 146.383C82.9941 146.418 83.207 146.436 83.4727 146.436H83.4844V148H83.4727C82.832 148 82.3516 147.828 82.0312 147.484C81.9727 148.414 81.6484 149.193 81.0586 149.822C80.4688 150.451 79.5527 150.996 78.3105 151.457L77.6367 150.051C78.6953 149.668 79.4453 149.256 79.8867 148.814C80.332 148.377 80.5547 147.809 80.5547 147.109C80.5547 146.387 80.3555 145.416 79.957 144.197ZM86.1973 142.926C86.4434 143.941 86.5664 144.762 86.5664 145.387C86.5664 146.215 86.3379 146.857 85.8809 147.314C85.4238 147.771 84.707 148 83.7305 148H83.4844C83.4062 148 83.3496 147.945 83.3145 147.836C83.2793 147.723 83.2617 147.518 83.2617 147.221C83.2617 146.924 83.2793 146.719 83.3145 146.605C83.3496 146.492 83.4062 146.436 83.4844 146.436H83.7305C84.1875 146.436 84.5195 146.336 84.7266 146.137C84.9336 145.938 85.0371 145.631 85.0371 145.217C85.0371 144.846 84.9336 144.217 84.7266 143.33L86.1973 142.926ZM83.2793 150.033L84.3164 148.996L85.3477 150.033L84.3164 151.059L83.2793 150.033Z" fill="white"/>
<defs>
<filter id="filter0_d_75_5740" x="0" y="0" width="108" height="188" filterUnits="userSpaceOnUse" color-interpolation-filters="sRGB">
<feFlood flood-opacity="0" result="BackgroundImageFix"/>
<feColorMatrix in="SourceAlpha" type="matrix" values="0 0 0 0 0 0 0 0 0 0 0 0 0 0 0 0 0 0 127 0" result="hardAlpha"/>
<feOffset/>
<feGaussianBlur stdDeviation="2"/>
<feComposite in2="hardAlpha" operator="out"/>
<feColorMatrix type="matrix" values="0 0 0 0 0 0 0 0 0 0 0 0 0 0 0 0 0 0 0.25 0"/>
<feBlend mode="normal" in2="BackgroundImageFix" result="effect1_dropShadow_75_5740"/>
<feBlend mode="normal" in="SourceGraphic" in2="effect1_dropShadow_75_5740" result="shape"/>
</filter>
<linearGradient id="paint0_linear_75_5740" x1="104" y1="274" x2="204" y2="274" gradientUnits="userSpaceOnUse">
<stop stop-color="#16D9E3"/>
<stop offset="0.47" stop-color="#30C7EC"/>
<stop offset="1" stop-color="#46AEF7"/>
</linearGradient>
<linearGradient id="paint1_linear_75_5740" x1="41.5365" y1="109.674" x2="23.8626" y2="56.254" gradientUnits="userSpaceOnUse">
<stop stop-color="#EDFAFF"/>
<stop offset="1" stop-color="#30384F" stop-opacity="0"/>
</linearGradient>
<linearGradient id="paint2_linear_75_5740" x1="83.2269" y1="109.674" x2="65.5529" y2="56.2538" gradientUnits="userSpaceOnUse">
<stop stop-color="#EDFAFF"/>
<stop offset="1" stop-color="#30384F" stop-opacity="0"/>
</linearGradient>
</defs>
</svg>
