<svg width="20" height="20" viewBox="0 0 20 20" fill="none" xmlns="http://www.w3.org/2000/svg">
<g id="Time Circle 3">
<path id="Vector" d="M10.7498 6.66675C10.7498 6.25253 10.4141 5.91675 9.99984 5.91675C9.58562 5.91675 9.24984 6.25253 9.24984 6.66675L10.7498 6.66675ZM11.79 12.7329C12.1487 12.94 12.6074 12.8171 12.8145 12.4584C13.0216 12.0997 12.8987 11.641 12.54 11.4339L11.79 12.7329ZM2.03132 2.12276C1.70787 2.38152 1.65543 2.85349 1.91419 3.17694C2.17294 3.50038 2.64491 3.55282 2.96836 3.29407L2.03132 2.12276ZM5.05169 1.6274C5.37514 1.36864 5.42758 0.896673 5.16882 0.573227C4.91007 0.24978 4.4381 0.197339 4.11465 0.456096L5.05169 1.6274ZM17.0313 3.29407C17.3548 3.55282 17.8267 3.50038 18.0855 3.17694C18.3442 2.85349 18.2918 2.38152 17.9684 2.12276L17.0313 3.29407ZM15.885 0.456096C15.5616 0.197339 15.0896 0.24978 14.8309 0.573227C14.5721 0.896673 14.6245 1.36864 14.948 1.6274L15.885 0.456096ZM9.99984 8.52398L9.24984 8.52398L9.99984 8.52398ZM10.2678 10.6787L10.9173 10.3037L10.2678 10.6787ZM9.24984 6.66675V8.52398L10.7498 8.52398V6.66675L9.24984 6.66675ZM12.54 11.4339L12.3749 11.3386L11.6249 12.6376L11.79 12.7329L12.54 11.4339ZM17.5832 10.0001C17.5832 14.1882 14.188 17.5834 9.99984 17.5834V19.0834C15.0164 19.0834 19.0832 15.0167 19.0832 10.0001H17.5832ZM9.99984 17.5834C5.81168 17.5834 2.4165 14.1882 2.4165 10.0001H0.916504C0.916504 15.0167 4.98325 19.0834 9.99984 19.0834V17.5834ZM2.4165 10.0001C2.4165 5.81192 5.81168 2.41675 9.99984 2.41675V0.916748C4.98325 0.916748 0.916504 4.98349 0.916504 10.0001H2.4165ZM9.99984 2.41675C14.188 2.41675 17.5832 5.81192 17.5832 10.0001H19.0832C19.0832 4.98349 15.0164 0.916748 9.99984 0.916748V2.41675ZM2.96836 3.29407L5.05169 1.6274L4.11465 0.456096L2.03132 2.12276L2.96836 3.29407ZM17.9684 2.12276L15.885 0.456096L14.948 1.6274L17.0313 3.29407L17.9684 2.12276ZM9.24984 8.52398C9.24984 9.07294 9.249 9.53854 9.28695 9.92354C9.32652 10.325 9.41233 10.697 9.61828 11.0537L10.9173 10.3037C10.8553 10.1963 10.8071 10.0545 10.7797 9.77639C10.7507 9.48181 10.7498 9.10211 10.7498 8.52398L9.24984 8.52398ZM12.3749 11.3386C11.8742 11.0495 11.5458 10.859 11.3052 10.6865C11.078 10.5237 10.9793 10.4111 10.9173 10.3037L9.61828 11.0537C9.82422 11.4104 10.1035 11.6708 10.4314 11.9057C10.7458 12.1311 11.1495 12.3632 11.6249 12.6376L12.3749 11.3386Z" fill="#0166FF"/>
</g>
</svg>
