<svg width="15" height="16" viewBox="0 0 15 16" fill="none" xmlns="http://www.w3.org/2000/svg">
<g id="Edit 2">
<path id="Vector" d="M5.94282 13.8498L5.66989 13.1512L5.94282 13.8498ZM2.56248 14.4989L2.18748 15.1484H2.18748L2.56248 14.4989ZM1.43447 11.2469L0.693017 11.3598L1.43447 11.2469ZM1.84305 9.07835L2.49257 9.45335L1.84305 9.07835ZM1.35626 10.1094L0.619225 9.97054H0.619225L1.35626 10.1094ZM7.61655 12.4117L8.26607 12.7867L7.61655 12.4117ZM6.96703 13.3488L7.45581 13.9176H7.45581L6.96703 13.3488ZM5.00841 3.59578L4.35889 3.22078L5.00841 3.59578ZM14.1751 15.6257C14.5893 15.6257 14.9251 15.2899 14.9251 14.8757C14.9251 14.4615 14.5893 14.1257 14.1751 14.1257V15.6257ZM9.17508 14.1257C8.76087 14.1257 8.42508 14.4615 8.42508 14.8757C8.42508 15.2899 8.76087 15.6257 9.17508 15.6257V14.1257ZM10.1324 6.55411L6.96703 12.0367L8.26607 12.7867L11.4314 7.30411L10.1324 6.55411ZM2.49257 9.45335L5.65793 3.97078L4.35889 3.22078L1.19353 8.70335L2.49257 9.45335ZM5.66989 13.1512C4.75252 13.5096 4.14009 13.7469 3.67051 13.8566C3.22053 13.9618 3.04731 13.9128 2.93748 13.8494L2.18748 15.1484C2.77138 15.4856 3.39278 15.4619 4.01177 15.3173C4.61116 15.1773 5.34203 14.8897 6.21574 14.5484L5.66989 13.1512ZM0.693017 11.3598C0.834253 12.2872 0.950683 13.0639 1.1291 13.653C1.31335 14.2614 1.60358 14.8113 2.18748 15.1484L2.93748 13.8494C2.82766 13.786 2.69865 13.6605 2.5647 13.2182C2.42493 12.7567 2.32421 12.1076 2.17592 11.134L0.693017 11.3598ZM1.19353 8.70335C0.929606 9.16048 0.70089 9.5371 0.619225 9.97054L2.09329 10.2483C2.11673 10.1238 2.17751 9.99905 2.49257 9.45335L1.19353 8.70335ZM2.17592 11.134C2.08104 10.511 2.06985 10.3727 2.09329 10.2483L0.619225 9.97054C0.537559 10.404 0.613541 10.838 0.693017 11.3598L2.17592 11.134ZM6.96703 12.0367C6.65197 12.5824 6.57428 12.6974 6.47825 12.7799L7.45581 13.9176C7.79034 13.6302 8.00215 13.2438 8.26607 12.7867L6.96703 12.0367ZM6.21574 14.5484C6.7074 14.3563 7.12127 14.2051 7.45581 13.9176L6.47825 12.7799C6.38222 12.8624 6.2568 12.9219 5.66989 13.1512L6.21574 14.5484ZM9.18683 3.02521C9.88561 3.42865 10.3436 3.69488 10.6569 3.93669C10.953 4.16519 11.0275 4.30382 11.0573 4.41515L12.5062 4.02692C12.3573 3.47142 12.0023 3.08021 11.5733 2.74917C11.1616 2.43143 10.5989 2.10841 9.93683 1.72617L9.18683 3.02521ZM11.4314 7.30411C11.8137 6.64206 12.1395 6.08097 12.3372 5.59993C12.5431 5.09876 12.655 4.58242 12.5062 4.02692L11.0573 4.41515C11.0871 4.52648 11.092 4.68377 10.9498 5.02971C10.7993 5.3958 10.5358 5.85533 10.1324 6.55411L11.4314 7.30411ZM9.93683 1.72617C9.27478 1.34394 8.7137 1.01816 8.23266 0.820447C7.73148 0.614463 7.21514 0.502567 6.65964 0.651412L7.04787 2.1003C7.1592 2.07047 7.31649 2.06565 7.66244 2.20784C8.02852 2.3583 8.48806 2.62177 9.18683 3.02521L9.93683 1.72617ZM5.65793 3.97078C6.06137 3.272 6.3276 2.81406 6.56941 2.50071C6.79792 2.2046 6.93654 2.13013 7.04787 2.1003L6.65964 0.651412C6.10414 0.800258 5.71293 1.15533 5.38189 1.58431C5.06415 1.99605 4.74113 2.55872 4.35889 3.22078L5.65793 3.97078ZM11.1569 6.27959L5.38341 2.94626L4.63341 4.24529L10.4069 7.57863L11.1569 6.27959ZM14.1751 14.1257H9.17508V15.6257H14.1751V14.1257Z" fill="#0166FF"/>
</g>
</svg>
