<svg width="18" height="20" viewBox="0 0 18 20" fill="none" xmlns="http://www.w3.org/2000/svg">
<g id="Profile Octagon">
<path id="Vector" d="M1.52088 5.92056L2.1882 6.26289L1.52088 5.92056ZM1.7275 5.5627L2.35762 5.96944L1.7275 5.5627ZM5.03081 16.8751L4.65581 17.5246L5.03081 16.8751ZM1.7275 14.4375L2.35762 14.0308L1.7275 14.4375ZM1.52088 14.0797L2.1882 13.7373L1.52088 14.0797ZM12.9694 16.8751L13.3444 17.5246L12.9694 16.8751ZM9.2067 18.5171L9.24389 19.2661L9.2067 18.5171ZM8.79348 18.5171L8.75629 19.2661L8.79348 18.5171ZM16.4793 14.0797L15.812 13.7373L16.4793 14.0797ZM16.2727 14.4375L15.6426 14.0308L16.2727 14.4375ZM16.2727 5.5627L15.6426 5.96944L16.2727 5.5627ZM16.4793 5.92056L15.812 6.26289L16.4793 5.92056ZM9.2067 1.48315L9.24389 0.734076L9.2067 1.48315ZM8.79348 1.48315L8.75629 0.734076L8.79348 1.48315ZM14.6968 15.7191L13.9776 15.932L13.9834 15.9515L13.9903 15.9707L14.6968 15.7191ZM3.29754 15.7391L2.57705 15.5308L2.56735 15.5643L2.56081 15.5986L3.29754 15.7391ZM3.27956 15.8334L2.87398 16.4643L3.27956 15.8334ZM11.5834 7.50011C11.5834 8.92684 10.4268 10.0834 9.00009 10.0834V11.5834C11.2553 11.5834 13.0834 9.75527 13.0834 7.50011H11.5834ZM9.00009 10.0834C7.57335 10.0834 6.41676 8.92684 6.41676 7.50011H4.91676C4.91676 9.75527 6.74493 11.5834 9.00009 11.5834V10.0834ZM6.41676 7.50011C6.41676 6.07337 7.57335 4.91678 9.00009 4.91678V3.41678C6.74493 3.41678 4.91676 5.24495 4.91676 7.50011H6.41676ZM9.00009 4.91678C10.4268 4.91678 11.5834 6.07337 11.5834 7.50011H13.0834C13.0834 5.24495 11.2553 3.41678 9.00009 3.41678V4.91678ZM1.81152 10.0001C1.81152 8.92559 1.81221 8.16845 1.86597 7.56685C1.91844 6.97956 2.01805 6.59457 2.1882 6.26289L0.853568 5.57823C0.564356 6.142 0.434283 6.73542 0.37192 7.43335C0.310835 8.11698 0.311523 8.95189 0.311523 10.0001H1.81152ZM4.65581 2.47559C3.74802 2.9997 3.02463 3.41656 2.46313 3.81127C1.88988 4.21425 1.44101 4.6236 1.09737 5.15595L2.35762 5.96944C2.55979 5.65626 2.84339 5.3775 3.32577 5.03841C3.81989 4.69105 4.47525 4.31188 5.40581 3.77463L4.65581 2.47559ZM2.1882 6.26289C2.23978 6.16234 2.29633 6.0644 2.35762 5.96944L1.09737 5.15595C1.00917 5.29259 0.927802 5.43353 0.853568 5.57823L2.1882 6.26289ZM0.311523 10.0001C0.311523 11.0483 0.310835 11.8832 0.37192 12.5669C0.434283 13.2648 0.564356 13.8582 0.853568 14.422L2.1882 13.7373C2.01805 13.4056 1.91844 13.0207 1.86597 12.4334C1.81221 11.8318 1.81152 11.0746 1.81152 10.0001H0.311523ZM2.35762 14.0308C2.29633 13.9358 2.23978 13.8379 2.1882 13.7373L0.853568 14.422C0.927801 14.5667 1.00917 14.7076 1.09737 14.8443L2.35762 14.0308ZM12.5944 16.2256C11.6638 16.7628 11.0078 17.1408 10.4599 17.3951C9.92504 17.6433 9.54183 17.7495 9.16951 17.768L9.24389 19.2661C9.87674 19.2347 10.4557 19.0507 11.0913 18.7557C11.7139 18.4668 12.4366 18.0487 13.3444 17.5246L12.5944 16.2256ZM4.65581 17.5246C5.56359 18.0487 6.2863 18.4668 6.90888 18.7557C7.54449 19.0507 8.12344 19.2347 8.75629 19.2661L8.83067 17.768C8.45835 17.7495 8.07514 17.6433 7.54029 17.3951C6.99241 17.1408 6.33636 16.7628 5.40581 16.2256L4.65581 17.5246ZM9.16951 17.768C9.05663 17.7736 8.94355 17.7736 8.83067 17.768L8.75629 19.2661C8.91872 19.2742 9.08146 19.2742 9.24389 19.2661L9.16951 17.768ZM16.1887 10.0001C16.1887 11.0746 16.188 11.8318 16.1342 12.4334C16.0817 13.0207 15.9821 13.4056 15.812 13.7373L17.1466 14.422C17.4358 13.8582 17.5659 13.2648 17.6283 12.5669C17.6893 11.8832 17.6887 11.0483 17.6887 10.0001H16.1887ZM15.812 13.7373C15.7604 13.8379 15.7039 13.9358 15.6426 14.0308L16.9028 14.8443C16.991 14.7076 17.0724 14.5667 17.1466 14.422L15.812 13.7373ZM12.5944 3.77463C13.5249 4.31188 14.1803 4.69105 14.6744 5.03841C15.1568 5.3775 15.4404 5.65626 15.6426 5.96944L16.9028 5.15595C16.5592 4.6236 16.1103 4.21425 15.5371 3.81127C14.9756 3.41656 14.2522 2.9997 13.3444 2.47559L12.5944 3.77463ZM17.6887 10.0001C17.6887 8.95189 17.6893 8.11698 17.6283 7.43335C17.5659 6.73542 17.4358 6.142 17.1466 5.57823L15.812 6.26289C15.9821 6.59457 16.0817 6.97956 16.1342 7.56685C16.188 8.16845 16.1887 8.92559 16.1887 10.0001H17.6887ZM15.6426 5.96944C15.7039 6.0644 15.7604 6.16234 15.812 6.26289L17.1466 5.57823C17.0724 5.43352 16.991 5.29259 16.9028 5.15595L15.6426 5.96944ZM13.3444 2.47559C12.4366 1.95148 11.7139 1.53343 11.0913 1.24452C10.4557 0.949557 9.87674 0.765496 9.24389 0.734076L9.16951 2.23223C9.54183 2.25072 9.92504 2.35695 10.4599 2.60515C11.0078 2.85939 11.6638 3.23737 12.5944 3.77463L13.3444 2.47559ZM5.40581 3.77463C6.33636 3.23737 6.99241 2.85939 7.54029 2.60515C8.07514 2.35695 8.45835 2.25072 8.83067 2.23223L8.75629 0.734076C8.12344 0.765496 7.54449 0.949557 6.90888 1.24452C6.2863 1.53343 5.56359 1.95148 4.65581 2.47559L5.40581 3.77463ZM9.24389 0.734076C9.08146 0.726011 8.91872 0.726011 8.75629 0.734076L8.83067 2.23223C8.94355 2.22663 9.05663 2.22663 9.16951 2.23223L9.24389 0.734076ZM6.50009 14.0834H11.5001V12.5834H6.50009V14.0834ZM11.5001 14.0834C12.6706 14.0834 13.6611 14.8625 13.9776 15.932L15.4159 15.5062C14.9159 13.8171 13.3531 12.5834 11.5001 12.5834V14.0834ZM13.3444 17.5246C14.0563 17.1136 14.6519 16.77 15.1406 16.455L14.3281 15.1941C13.8769 15.4849 13.3175 15.8081 12.5944 16.2256L13.3444 17.5246ZM15.1406 16.455C15.907 15.9611 16.4841 15.493 16.9028 14.8443L15.6426 14.0308C15.3958 14.4131 15.0297 14.7419 14.3281 15.1941L15.1406 16.455ZM13.9903 15.9707L14.0278 16.0762L15.4409 15.5729L15.4033 15.4675L13.9903 15.9707ZM6.50009 12.5834C4.63817 12.5834 3.06912 13.829 2.57705 15.5308L4.01802 15.9475C4.32955 14.8701 5.32393 14.0834 6.50009 14.0834V12.5834ZM5.40581 16.2256C4.68982 15.8122 4.13418 15.4912 3.68514 15.2025L2.87398 16.4643C3.3598 16.7766 3.95065 17.1175 4.65581 17.5246L5.40581 16.2256ZM3.68514 15.2025C2.97502 14.746 2.60599 14.4155 2.35762 14.0308L1.09737 14.8443C1.51867 15.4969 2.10034 15.9669 2.87398 16.4643L3.68514 15.2025ZM2.56081 15.5986L2.54284 15.6929L4.01628 15.9739L4.03426 15.8796L2.56081 15.5986Z" fill="#0166FF"/>
</g>
</svg>
