<svg width="20" height="24" viewBox="0 0 20 24" fill="none" xmlns="http://www.w3.org/2000/svg">
<path d="M9 8V11.5C9 12.3284 9.67158 13 10.5 13V13H12M19 14V10M14.8818 4.91402C14.3859 2.67476 12.3886 1 10.0001 1H8.00008C5.61164 1 3.61434 2.67469 3.11837 4.91389M14.8818 4.91402C14.6878 4.77716 14.4834 4.65372 14.27 4.54497C13.2004 4 11.8003 4 9 4C6.19974 4 4.79961 4 3.73005 4.54497C3.51668 4.65368 3.31236 4.77708 3.11837 4.91389M14.8818 4.91402C15.5431 5.38044 16.0844 6.00267 16.455 6.73005C17 7.79961 17 9.19974 17 12C17 14.8003 17 16.2004 16.455 17.27C16.0844 17.9974 15.543 18.6197 14.8815 19.0862M3.11837 4.91389C2.45698 5.38033 1.91562 6.0026 1.54497 6.73005C1 7.79961 1 9.19974 1 12C1 14.8003 1 16.2004 1.54497 17.27C1.91556 17.9973 2.45682 18.6195 3.11808 19.0859M3.11808 19.0859C3.61398 21.3252 5.61132 23 7.99984 23H9.99984C12.3882 23 14.3855 21.3253 14.8815 19.0862M3.11808 19.0859C3.31216 19.2228 3.51658 19.3463 3.73005 19.455C4.79961 20 6.19974 20 9 20C11.8003 20 13.2004 20 14.27 19.455C14.4833 19.3463 14.6876 19.223 14.8815 19.0862" stroke="#0166FF" stroke-width="1.5" stroke-linecap="round"/>
</svg>
