<svg width="18" height="20" viewBox="0 0 18 20" fill="none" xmlns="http://www.w3.org/2000/svg">
<g id="Calender 1">
<path id="Vector" d="M3.21756 17.5377L3.6584 16.9309L3.21756 17.5377ZM2.29576 16.6159L2.90253 16.175L2.29576 16.6159ZM15.7042 16.6159L15.0975 16.175L15.7042 16.6159ZM14.7824 17.5377L15.2233 18.1444L14.7824 17.5377ZM14.7824 4.12918L15.2233 3.52241L14.7824 4.12918ZM15.7042 5.05098L15.0975 5.49182L15.7042 5.05098ZM3.21756 4.12918L3.6584 4.73594V4.73594L3.21756 4.12918ZM2.29576 5.05098L2.90253 5.49182L2.29576 5.05098ZM15.0149 13.3847L14.8975 12.6439L15.0149 13.3847ZM11.5513 16.8483L10.8105 16.7309L11.5513 16.8483ZM6.5 10.9167C6.08579 10.9167 5.75 11.2525 5.75 11.6667C5.75 12.081 6.08579 12.4167 6.5 12.4167V10.9167ZM11.5 12.4167C11.9142 12.4167 12.25 12.081 12.25 11.6667C12.25 11.2525 11.9142 10.9167 11.5 10.9167V12.4167ZM10.75 4.16675C10.75 4.58096 11.0858 4.91675 11.5 4.91675C11.9142 4.91675 12.25 4.58096 12.25 4.16675H10.75ZM12.25 1.66675C12.25 1.25253 11.9142 0.916748 11.5 0.916748C11.0858 0.916748 10.75 1.25253 10.75 1.66675H12.25ZM5.75 4.16675C5.75 4.58096 6.08579 4.91675 6.5 4.91675C6.91421 4.91675 7.25 4.58096 7.25 4.16675H5.75ZM7.25 1.66675C7.25 1.25253 6.91421 0.916748 6.5 0.916748C6.08579 0.916748 5.75 1.25253 5.75 1.66675H7.25ZM16.4759 13.3334L17.2255 13.3591L16.4759 13.3334ZM1.52411 8.33342L0.774547 8.30773L1.52411 8.33342ZM16.4759 8.33342L17.2255 8.30773L16.4759 8.33342ZM9 17.5834C7.42091 17.5834 6.29683 17.5824 5.4285 17.4883C4.57421 17.3958 4.05688 17.2204 3.6584 16.9309L2.77672 18.1444C3.47352 18.6507 4.28502 18.8732 5.26693 18.9796C6.23481 19.0844 7.45432 19.0834 9 19.0834V17.5834ZM0.75 10.8334C0.75 12.3791 0.748971 13.5986 0.853834 14.5665C0.960218 15.5484 1.18275 16.3599 1.689 17.0567L2.90253 16.175C2.61301 15.7765 2.43766 15.2592 2.34511 14.4049C2.25103 13.5366 2.25 12.4125 2.25 10.8334H0.75ZM3.6584 16.9309C3.36834 16.7202 3.11326 16.4651 2.90253 16.175L1.689 17.0567C1.99226 17.4741 2.35932 17.8412 2.77672 18.1444L3.6584 16.9309ZM15.0975 16.175C14.8867 16.4651 14.6317 16.7202 14.3416 16.9309L15.2233 18.1444C15.6407 17.8412 16.0077 17.4741 16.311 17.0567L15.0975 16.175ZM14.3416 4.73594C14.6317 4.94668 14.8867 5.20176 15.0975 5.49182L16.311 4.61014C16.0077 4.19274 15.6407 3.82567 15.2233 3.52241L14.3416 4.73594ZM2.77672 3.52241C2.35932 3.82567 1.99226 4.19274 1.689 4.61014L2.90253 5.49182C3.11326 5.20176 3.36834 4.94668 3.6584 4.73594L2.77672 3.52241ZM14.8975 12.6439C12.7937 12.9772 11.1437 14.6271 10.8105 16.7309L12.2921 16.9656C12.5236 15.5036 13.6702 14.357 15.1322 14.1255L14.8975 12.6439ZM6.5 12.4167H11.5V10.9167H6.5V12.4167ZM16.4759 12.5834C15.7452 12.5834 15.2908 12.5817 14.8975 12.6439L15.1322 14.1255C15.3799 14.0862 15.6903 14.0834 16.4759 14.0834L16.4759 12.5834ZM15.75 10.8334C15.75 11.8117 15.7499 12.6197 15.7263 13.3077L17.2255 13.3591C17.2501 12.6399 17.25 11.8034 17.25 10.8334H15.75ZM15.7263 13.3077C15.6734 14.852 15.5005 15.6202 15.0975 16.175L16.311 17.0567C17.0033 16.1038 17.1719 14.9218 17.2255 13.3591L15.7263 13.3077ZM12.25 18.3093C12.25 17.5237 12.2528 17.2134 12.2921 16.9656L10.8105 16.7309C10.7482 17.1242 10.75 17.5787 10.75 18.3093L12.25 18.3093ZM9 19.0834C9.96996 19.0834 10.8065 19.0835 11.5257 19.0589L11.4743 17.5597C10.7863 17.5833 9.97825 17.5834 9 17.5834V19.0834ZM11.5257 19.0589C13.0884 19.0053 14.2704 18.8367 15.2233 18.1444L14.3416 16.9309C13.7868 17.334 13.0185 17.5068 11.4743 17.5597L11.5257 19.0589ZM2.25 10.8334C2.25 9.85516 2.25009 9.04714 2.27367 8.3591L0.774547 8.30773C0.749906 9.02694 0.75 9.86346 0.75 10.8334H2.25ZM2.27367 8.3591C2.32657 6.81487 2.49945 6.0466 2.90253 5.49182L1.689 4.61014C0.996682 5.56303 0.828089 6.74499 0.774547 8.30773L2.27367 8.3591ZM1.52411 9.08342H16.4759V7.58342H1.52411V9.08342ZM17.25 10.8334C17.25 9.86346 17.2501 9.02694 17.2255 8.30773L15.7263 8.3591C15.7499 9.04714 15.75 9.85516 15.75 10.8334H17.25ZM17.2255 8.30773C17.1719 6.74499 17.0033 5.56303 16.311 4.61014L15.0975 5.49182C15.5005 6.0466 15.6734 6.81487 15.7263 8.3591L17.2255 8.30773ZM12.25 4.16675V3.35752H10.75V4.16675H12.25ZM12.25 3.35752V1.66675H10.75V3.35752H12.25ZM9 4.08341C9.97826 4.08341 10.7863 4.08351 11.4743 4.10708L11.5257 2.60796C10.8065 2.58332 9.96995 2.58341 9 2.58341V4.08341ZM11.4743 4.10708C13.0185 4.15999 13.7868 4.33287 14.3416 4.73594L15.2233 3.52241C14.2704 2.8301 13.0884 2.6615 11.5257 2.60796L11.4743 4.10708ZM7.25 4.16675V3.35752H5.75V4.16675H7.25ZM7.25 3.35752V1.66675H5.75V3.35752H7.25ZM9 2.58341C8.03005 2.58341 7.19352 2.58332 6.47432 2.60796L6.52568 4.10708C7.21372 4.08351 8.02174 4.08341 9 4.08341V2.58341ZM6.47432 2.60796C4.91157 2.6615 3.72962 2.8301 2.77672 3.52241L3.6584 4.73594C4.21318 4.33287 4.98145 4.15999 6.52568 4.10708L6.47432 2.60796Z" fill="#0166FF"/>
</g>
</svg>
